<?xml version="1.0" encoding="utf-8" standalone="no"?>
<!DOCTYPE svg PUBLIC "-//W3C//DTD SVG 1.1//EN"
  "http://www.w3.org/Graphics/SVG/1.1/DTD/svg11.dtd">
<svg xmlns:xlink="http://www.w3.org/1999/xlink" width="1105.92pt" height="543.168pt" viewBox="0 0 1105.92 543.168" xmlns="http://www.w3.org/2000/svg" version="1.1">
 <metadata>
  <rdf:RDF xmlns:dc="http://purl.org/dc/elements/1.1/" xmlns:cc="http://creativecommons.org/ns#" xmlns:rdf="http://www.w3.org/1999/02/22-rdf-syntax-ns#">
   <cc:Work>
    <dc:type rdf:resource="http://purl.org/dc/dcmitype/StillImage"/>
    <dc:date>2025-11-12T16:51:06.229261</dc:date>
    <dc:format>image/svg+xml</dc:format>
    <dc:creator>
     <cc:Agent>
      <dc:title>Matplotlib v3.10.6, https://matplotlib.org/</dc:title>
     </cc:Agent>
    </dc:creator>
   </cc:Work>
  </rdf:RDF>
 </metadata>
 <defs>
  <style type="text/css">*{stroke-linejoin: round; stroke-linecap: butt}</style>
 </defs>
 <g id="figure_1">
  <g id="patch_1">
   <path d="M 0 543.168 
L 1105.92 543.168 
L 1105.92 0 
L 0 0 
z
" style="fill: #ffffff"/>
  </g>
  <g id="axes_1">
   <g id="patch_2">
    <path d="M 72.8832 262.280549 
L 549.504 262.280549 
L 549.504 42.025303 
L 72.8832 42.025303 
z
" style="fill: #ffffff"/>
   </g>
   <g id="matplotlib.axis_1">
    <g id="xtick_1">
     <g id="line2d_1">
      <path d="M 94.547782 262.280549 
L 94.547782 42.025303 
" clip-path="url(#pbe4418e0a6)" style="fill: none; stroke: #b0b0b0; stroke-width: 0.8; stroke-linecap: square"/>
     </g>
     <g id="line2d_2">
      <defs>
       <path id="m7355ae778b" d="M 0 0 
L 0 3.5 
" style="stroke: #000000; stroke-width: 0.8"/>
      </defs>
      <g>
       <use xlink:href="#m7355ae778b" x="94.547782" y="262.280549" style="stroke: #000000; stroke-width: 0.8"/>
      </g>
     </g>
    </g>
    <g id="xtick_2">
     <g id="line2d_3">
      <path d="M 181.275491 262.280549 
L 181.275491 42.025303 
" clip-path="url(#pbe4418e0a6)" style="fill: none; stroke: #b0b0b0; stroke-width: 0.8; stroke-linecap: square"/>
     </g>
     <g id="line2d_4">
      <g>
       <use xlink:href="#m7355ae778b" x="181.275491" y="262.280549" style="stroke: #000000; stroke-width: 0.8"/>
      </g>
     </g>
    </g>
    <g id="xtick_3">
     <g id="line2d_5">
      <path d="M 268.003201 262.280549 
L 268.003201 42.025303 
" clip-path="url(#pbe4418e0a6)" style="fill: none; stroke: #b0b0b0; stroke-width: 0.8; stroke-linecap: square"/>
     </g>
     <g id="line2d_6">
      <g>
       <use xlink:href="#m7355ae778b" x="268.003201" y="262.280549" style="stroke: #000000; stroke-width: 0.8"/>
      </g>
     </g>
    </g>
    <g id="xtick_4">
     <g id="line2d_7">
      <path d="M 354.73091 262.280549 
L 354.73091 42.025303 
" clip-path="url(#pbe4418e0a6)" style="fill: none; stroke: #b0b0b0; stroke-width: 0.8; stroke-linecap: square"/>
     </g>
     <g id="line2d_8">
      <g>
       <use xlink:href="#m7355ae778b" x="354.73091" y="262.280549" style="stroke: #000000; stroke-width: 0.8"/>
      </g>
     </g>
    </g>
    <g id="xtick_5">
     <g id="line2d_9">
      <path d="M 441.45862 262.280549 
L 441.45862 42.025303 
" clip-path="url(#pbe4418e0a6)" style="fill: none; stroke: #b0b0b0; stroke-width: 0.8; stroke-linecap: square"/>
     </g>
     <g id="line2d_10">
      <g>
       <use xlink:href="#m7355ae778b" x="441.45862" y="262.280549" style="stroke: #000000; stroke-width: 0.8"/>
      </g>
     </g>
    </g>
    <g id="xtick_6">
     <g id="line2d_11">
      <path d="M 528.186329 262.280549 
L 528.186329 42.025303 
" clip-path="url(#pbe4418e0a6)" style="fill: none; stroke: #b0b0b0; stroke-width: 0.8; stroke-linecap: square"/>
     </g>
     <g id="line2d_12">
      <g>
       <use xlink:href="#m7355ae778b" x="528.186329" y="262.280549" style="stroke: #000000; stroke-width: 0.8"/>
      </g>
     </g>
    </g>
   </g>
   <g id="matplotlib.axis_2">
    <g id="ytick_1">
     <g id="line2d_13">
      <path d="M 72.8832 252.268947 
L 549.504 252.268947 
" clip-path="url(#pbe4418e0a6)" style="fill: none; stroke: #b0b0b0; stroke-width: 0.8; stroke-linecap: square"/>
     </g>
     <g id="line2d_14">
      <defs>
       <path id="m163a856478" d="M 0 0 
L -3.5 0 
" style="stroke: #000000; stroke-width: 0.8"/>
      </defs>
      <g>
       <use xlink:href="#m163a856478" x="72.8832" y="252.268947" style="stroke: #000000; stroke-width: 0.8"/>
      </g>
     </g>
     <g id="text_1">
      <!-- 6 -->
      <g transform="translate(59.5207 256.068165) scale(0.1 -0.1)">
       <defs>
        <path id="DejaVuSans-36" d="M 2113 2584 
Q 1688 2584 1439 2293 
Q 1191 2003 1191 1497 
Q 1191 994 1439 701 
Q 1688 409 2113 409 
Q 2538 409 2786 701 
Q 3034 994 3034 1497 
Q 3034 2003 2786 2293 
Q 2538 2584 2113 2584 
z
M 3366 4563 
L 3366 3988 
Q 3128 4100 2886 4159 
Q 2644 4219 2406 4219 
Q 1781 4219 1451 3797 
Q 1122 3375 1075 2522 
Q 1259 2794 1537 2939 
Q 1816 3084 2150 3084 
Q 2853 3084 3261 2657 
Q 3669 2231 3669 1497 
Q 3669 778 3244 343 
Q 2819 -91 2113 -91 
Q 1303 -91 875 529 
Q 447 1150 447 2328 
Q 447 3434 972 4092 
Q 1497 4750 2381 4750 
Q 2619 4750 2861 4703 
Q 3103 4656 3366 4563 
z
" transform="scale(0.015625)"/>
       </defs>
       <use xlink:href="#DejaVuSans-36"/>
      </g>
     </g>
    </g>
    <g id="ytick_2">
     <g id="line2d_15">
      <path d="M 72.8832 204.41024 
L 549.504 204.41024 
" clip-path="url(#pbe4418e0a6)" style="fill: none; stroke: #b0b0b0; stroke-width: 0.8; stroke-linecap: square"/>
     </g>
     <g id="line2d_16">
      <g>
       <use xlink:href="#m163a856478" x="72.8832" y="204.41024" style="stroke: #000000; stroke-width: 0.8"/>
      </g>
     </g>
     <g id="text_2">
      <!-- 8 -->
      <g transform="translate(59.5207 208.209459) scale(0.1 -0.1)">
       <defs>
        <path id="DejaVuSans-38" d="M 2034 2216 
Q 1584 2216 1326 1975 
Q 1069 1734 1069 1313 
Q 1069 891 1326 650 
Q 1584 409 2034 409 
Q 2484 409 2743 651 
Q 3003 894 3003 1313 
Q 3003 1734 2745 1975 
Q 2488 2216 2034 2216 
z
M 1403 2484 
Q 997 2584 770 2862 
Q 544 3141 544 3541 
Q 544 4100 942 4425 
Q 1341 4750 2034 4750 
Q 2731 4750 3128 4425 
Q 3525 4100 3525 3541 
Q 3525 3141 3298 2862 
Q 3072 2584 2669 2484 
Q 3125 2378 3379 2068 
Q 3634 1759 3634 1313 
Q 3634 634 3220 271 
Q 2806 -91 2034 -91 
Q 1263 -91 848 271 
Q 434 634 434 1313 
Q 434 1759 690 2068 
Q 947 2378 1403 2484 
z
M 1172 3481 
Q 1172 3119 1398 2916 
Q 1625 2713 2034 2713 
Q 2441 2713 2670 2916 
Q 2900 3119 2900 3481 
Q 2900 3844 2670 4047 
Q 2441 4250 2034 4250 
Q 1625 4250 1398 4047 
Q 1172 3844 1172 3481 
z
" transform="scale(0.015625)"/>
       </defs>
       <use xlink:href="#DejaVuSans-38"/>
      </g>
     </g>
    </g>
    <g id="ytick_3">
     <g id="line2d_17">
      <path d="M 72.8832 156.551534 
L 549.504 156.551534 
" clip-path="url(#pbe4418e0a6)" style="fill: none; stroke: #b0b0b0; stroke-width: 0.8; stroke-linecap: square"/>
     </g>
     <g id="line2d_18">
      <g>
       <use xlink:href="#m163a856478" x="72.8832" y="156.551534" style="stroke: #000000; stroke-width: 0.8"/>
      </g>
     </g>
     <g id="text_3">
      <!-- 10 -->
      <g transform="translate(53.1582 160.350753) scale(0.1 -0.1)">
       <defs>
        <path id="DejaVuSans-31" d="M 794 531 
L 1825 531 
L 1825 4091 
L 703 3866 
L 703 4441 
L 1819 4666 
L 2450 4666 
L 2450 531 
L 3481 531 
L 3481 0 
L 794 0 
L 794 531 
z
" transform="scale(0.015625)"/>
        <path id="DejaVuSans-30" d="M 2034 4250 
Q 1547 4250 1301 3770 
Q 1056 3291 1056 2328 
Q 1056 1369 1301 889 
Q 1547 409 2034 409 
Q 2525 409 2770 889 
Q 3016 1369 3016 2328 
Q 3016 3291 2770 3770 
Q 2525 4250 2034 4250 
z
M 2034 4750 
Q 2819 4750 3233 4129 
Q 3647 3509 3647 2328 
Q 3647 1150 3233 529 
Q 2819 -91 2034 -91 
Q 1250 -91 836 529 
Q 422 1150 422 2328 
Q 422 3509 836 4129 
Q 1250 4750 2034 4750 
z
" transform="scale(0.015625)"/>
       </defs>
       <use xlink:href="#DejaVuSans-31"/>
       <use xlink:href="#DejaVuSans-30" transform="translate(63.623047 0)"/>
      </g>
     </g>
    </g>
    <g id="ytick_4">
     <g id="line2d_19">
      <path d="M 72.8832 108.692827 
L 549.504 108.692827 
" clip-path="url(#pbe4418e0a6)" style="fill: none; stroke: #b0b0b0; stroke-width: 0.8; stroke-linecap: square"/>
     </g>
     <g id="line2d_20">
      <g>
       <use xlink:href="#m163a856478" x="72.8832" y="108.692827" style="stroke: #000000; stroke-width: 0.8"/>
      </g>
     </g>
     <g id="text_4">
      <!-- 12 -->
      <g transform="translate(53.1582 112.492046) scale(0.1 -0.1)">
       <defs>
        <path id="DejaVuSans-32" d="M 1228 531 
L 3431 531 
L 3431 0 
L 469 0 
L 469 531 
Q 828 903 1448 1529 
Q 2069 2156 2228 2338 
Q 2531 2678 2651 2914 
Q 2772 3150 2772 3378 
Q 2772 3750 2511 3984 
Q 2250 4219 1831 4219 
Q 1534 4219 1204 4116 
Q 875 4013 500 3803 
L 500 4441 
Q 881 4594 1212 4672 
Q 1544 4750 1819 4750 
Q 2544 4750 2975 4387 
Q 3406 4025 3406 3419 
Q 3406 3131 3298 2873 
Q 3191 2616 2906 2266 
Q 2828 2175 2409 1742 
Q 1991 1309 1228 531 
z
" transform="scale(0.015625)"/>
       </defs>
       <use xlink:href="#DejaVuSans-31"/>
       <use xlink:href="#DejaVuSans-32" transform="translate(63.623047 0)"/>
      </g>
     </g>
    </g>
    <g id="ytick_5">
     <g id="line2d_21">
      <path d="M 72.8832 60.834121 
L 549.504 60.834121 
" clip-path="url(#pbe4418e0a6)" style="fill: none; stroke: #b0b0b0; stroke-width: 0.8; stroke-linecap: square"/>
     </g>
     <g id="line2d_22">
      <g>
       <use xlink:href="#m163a856478" x="72.8832" y="60.834121" style="stroke: #000000; stroke-width: 0.8"/>
      </g>
     </g>
     <g id="text_5">
      <!-- 14 -->
      <g transform="translate(53.1582 64.63334) scale(0.1 -0.1)">
       <defs>
        <path id="DejaVuSans-34" d="M 2419 4116 
L 825 1625 
L 2419 1625 
L 2419 4116 
z
M 2253 4666 
L 3047 4666 
L 3047 1625 
L 3713 1625 
L 3713 1100 
L 3047 1100 
L 3047 0 
L 2419 0 
L 2419 1100 
L 313 1100 
L 313 1709 
L 2253 4666 
z
" transform="scale(0.015625)"/>
       </defs>
       <use xlink:href="#DejaVuSans-31"/>
       <use xlink:href="#DejaVuSans-34" transform="translate(63.623047 0)"/>
      </g>
     </g>
    </g>
    <g id="text_6">
     <!-- Velocity $V$ [m/s] -->
     <g transform="translate(47.0582 191.852926) rotate(-90) scale(0.1 -0.1)">
      <defs>
       <path id="DejaVuSans-56" d="M 1831 0 
L 50 4666 
L 709 4666 
L 2188 738 
L 3669 4666 
L 4325 4666 
L 2547 0 
L 1831 0 
z
" transform="scale(0.015625)"/>
       <path id="DejaVuSans-65" d="M 3597 1894 
L 3597 1613 
L 953 1613 
Q 991 1019 1311 708 
Q 1631 397 2203 397 
Q 2534 397 2845 478 
Q 3156 559 3463 722 
L 3463 178 
Q 3153 47 2828 -22 
Q 2503 -91 2169 -91 
Q 1331 -91 842 396 
Q 353 884 353 1716 
Q 353 2575 817 3079 
Q 1281 3584 2069 3584 
Q 2775 3584 3186 3129 
Q 3597 2675 3597 1894 
z
M 3022 2063 
Q 3016 2534 2758 2815 
Q 2500 3097 2075 3097 
Q 1594 3097 1305 2825 
Q 1016 2553 972 2059 
L 3022 2063 
z
" transform="scale(0.015625)"/>
       <path id="DejaVuSans-6c" d="M 603 4863 
L 1178 4863 
L 1178 0 
L 603 0 
L 603 4863 
z
" transform="scale(0.015625)"/>
       <path id="DejaVuSans-6f" d="M 1959 3097 
Q 1497 3097 1228 2736 
Q 959 2375 959 1747 
Q 959 1119 1226 758 
Q 1494 397 1959 397 
Q 2419 397 2687 759 
Q 2956 1122 2956 1747 
Q 2956 2369 2687 2733 
Q 2419 3097 1959 3097 
z
M 1959 3584 
Q 2709 3584 3137 3096 
Q 3566 2609 3566 1747 
Q 3566 888 3137 398 
Q 2709 -91 1959 -91 
Q 1206 -91 779 398 
Q 353 888 353 1747 
Q 353 2609 779 3096 
Q 1206 3584 1959 3584 
z
" transform="scale(0.015625)"/>
       <path id="DejaVuSans-63" d="M 3122 3366 
L 3122 2828 
Q 2878 2963 2633 3030 
Q 2388 3097 2138 3097 
Q 1578 3097 1268 2742 
Q 959 2388 959 1747 
Q 959 1106 1268 751 
Q 1578 397 2138 397 
Q 2388 397 2633 464 
Q 2878 531 3122 666 
L 3122 134 
Q 2881 22 2623 -34 
Q 2366 -91 2075 -91 
Q 1284 -91 818 406 
Q 353 903 353 1747 
Q 353 2603 823 3093 
Q 1294 3584 2113 3584 
Q 2378 3584 2631 3529 
Q 2884 3475 3122 3366 
z
" transform="scale(0.015625)"/>
       <path id="DejaVuSans-69" d="M 603 3500 
L 1178 3500 
L 1178 0 
L 603 0 
L 603 3500 
z
M 603 4863 
L 1178 4863 
L 1178 4134 
L 603 4134 
L 603 4863 
z
" transform="scale(0.015625)"/>
       <path id="DejaVuSans-74" d="M 1172 4494 
L 1172 3500 
L 2356 3500 
L 2356 3053 
L 1172 3053 
L 1172 1153 
Q 1172 725 1289 603 
Q 1406 481 1766 481 
L 2356 481 
L 2356 0 
L 1766 0 
Q 1100 0 847 248 
Q 594 497 594 1153 
L 594 3053 
L 172 3053 
L 172 3500 
L 594 3500 
L 594 4494 
L 1172 4494 
z
" transform="scale(0.015625)"/>
       <path id="DejaVuSans-79" d="M 2059 -325 
Q 1816 -950 1584 -1140 
Q 1353 -1331 966 -1331 
L 506 -1331 
L 506 -850 
L 844 -850 
Q 1081 -850 1212 -737 
Q 1344 -625 1503 -206 
L 1606 56 
L 191 3500 
L 800 3500 
L 1894 763 
L 2988 3500 
L 3597 3500 
L 2059 -325 
z
" transform="scale(0.015625)"/>
       <path id="DejaVuSans-20" transform="scale(0.015625)"/>
       <path id="DejaVuSans-Oblique-56" d="M 1319 0 
L 500 4666 
L 1119 4666 
L 1797 653 
L 4063 4666 
L 4750 4666 
L 2053 0 
L 1319 0 
z
" transform="scale(0.015625)"/>
       <path id="DejaVuSans-5b" d="M 550 4863 
L 1875 4863 
L 1875 4416 
L 1125 4416 
L 1125 -397 
L 1875 -397 
L 1875 -844 
L 550 -844 
L 550 4863 
z
" transform="scale(0.015625)"/>
       <path id="DejaVuSans-6d" d="M 3328 2828 
Q 3544 3216 3844 3400 
Q 4144 3584 4550 3584 
Q 5097 3584 5394 3201 
Q 5691 2819 5691 2113 
L 5691 0 
L 5113 0 
L 5113 2094 
Q 5113 2597 4934 2840 
Q 4756 3084 4391 3084 
Q 3944 3084 3684 2787 
Q 3425 2491 3425 1978 
L 3425 0 
L 2847 0 
L 2847 2094 
Q 2847 2600 2669 2842 
Q 2491 3084 2119 3084 
Q 1678 3084 1418 2786 
Q 1159 2488 1159 1978 
L 1159 0 
L 581 0 
L 581 3500 
L 1159 3500 
L 1159 2956 
Q 1356 3278 1631 3431 
Q 1906 3584 2284 3584 
Q 2666 3584 2933 3390 
Q 3200 3197 3328 2828 
z
" transform="scale(0.015625)"/>
       <path id="DejaVuSans-2f" d="M 1625 4666 
L 2156 4666 
L 531 -594 
L 0 -594 
L 1625 4666 
z
" transform="scale(0.015625)"/>
       <path id="DejaVuSans-73" d="M 2834 3397 
L 2834 2853 
Q 2591 2978 2328 3040 
Q 2066 3103 1784 3103 
Q 1356 3103 1142 2972 
Q 928 2841 928 2578 
Q 928 2378 1081 2264 
Q 1234 2150 1697 2047 
L 1894 2003 
Q 2506 1872 2764 1633 
Q 3022 1394 3022 966 
Q 3022 478 2636 193 
Q 2250 -91 1575 -91 
Q 1294 -91 989 -36 
Q 684 19 347 128 
L 347 722 
Q 666 556 975 473 
Q 1284 391 1588 391 
Q 1994 391 2212 530 
Q 2431 669 2431 922 
Q 2431 1156 2273 1281 
Q 2116 1406 1581 1522 
L 1381 1569 
Q 847 1681 609 1914 
Q 372 2147 372 2553 
Q 372 3047 722 3315 
Q 1072 3584 1716 3584 
Q 2034 3584 2315 3537 
Q 2597 3491 2834 3397 
z
" transform="scale(0.015625)"/>
       <path id="DejaVuSans-5d" d="M 1947 4863 
L 1947 -844 
L 622 -844 
L 622 -397 
L 1369 -397 
L 1369 4416 
L 622 4416 
L 622 4863 
L 1947 4863 
z
" transform="scale(0.015625)"/>
      </defs>
      <use xlink:href="#DejaVuSans-56" transform="translate(0 0.015625)"/>
      <use xlink:href="#DejaVuSans-65" transform="translate(68.408203 0.015625)"/>
      <use xlink:href="#DejaVuSans-6c" transform="translate(129.931641 0.015625)"/>
      <use xlink:href="#DejaVuSans-6f" transform="translate(157.714844 0.015625)"/>
      <use xlink:href="#DejaVuSans-63" transform="translate(218.896484 0.015625)"/>
      <use xlink:href="#DejaVuSans-69" transform="translate(273.876953 0.015625)"/>
      <use xlink:href="#DejaVuSans-74" transform="translate(301.660156 0.015625)"/>
      <use xlink:href="#DejaVuSans-79" transform="translate(340.869141 0.015625)"/>
      <use xlink:href="#DejaVuSans-20" transform="translate(400.048828 0.015625)"/>
      <use xlink:href="#DejaVuSans-Oblique-56" transform="translate(431.835938 0.015625)"/>
      <use xlink:href="#DejaVuSans-20" transform="translate(500.244141 0.015625)"/>
      <use xlink:href="#DejaVuSans-5b" transform="translate(532.03125 0.015625)"/>
      <use xlink:href="#DejaVuSans-6d" transform="translate(571.044922 0.015625)"/>
      <use xlink:href="#DejaVuSans-2f" transform="translate(668.457031 0.015625)"/>
      <use xlink:href="#DejaVuSans-73" transform="translate(702.148438 0.015625)"/>
      <use xlink:href="#DejaVuSans-5d" transform="translate(754.248047 0.015625)"/>
     </g>
    </g>
   </g>
   <g id="line2d_23">
    <path d="M 94.547782 252.268947 
L 96.976158 226.209139 
L 99.404534 202.7267 
L 101.832909 181.650543 
L 103.914374 165.374717 
L 105.995839 150.656116 
L 108.077304 137.40707 
L 110.15877 125.536222 
L 112.240235 114.948613 
L 114.3217 105.547875 
L 116.403165 97.238616 
L 118.48463 89.92827 
L 120.566095 83.528331 
L 122.64756 77.955103 
L 124.382114 73.885483 
L 126.116668 70.292817 
L 127.851222 67.137166 
L 129.585776 64.381174 
L 131.320331 61.99001 
L 133.054885 59.931293 
L 134.789439 58.174985 
L 136.523993 56.693293 
L 138.258547 55.460548 
L 140.340012 54.276678 
L 142.421477 53.379988 
L 144.502942 52.736764 
L 146.584407 52.316616 
L 149.012783 52.072063 
L 151.441159 52.055365 
L 154.216446 52.271796 
L 157.338643 52.763117 
L 160.807752 53.554297 
L 164.623771 54.652315 
L 169.480523 56.294128 
L 176.071829 58.786178 
L 201.743231 68.755577 
L 209.72218 71.487208 
L 217.354218 73.860634 
L 224.986257 75.99569 
L 232.618295 77.899281 
L 240.597245 79.656399 
L 248.923105 81.25643 
L 257.595876 82.69472 
L 266.962468 84.016805 
L 277.022882 85.205109 
L 287.777118 86.250208 
L 299.572087 87.174445 
L 313.10161 88.003821 
L 328.365686 88.708763 
L 346.058139 89.297432 
L 367.566611 89.78031 
L 394.625656 90.152255 
L 431.051294 90.415703 
L 487.25085 90.576725 
L 527.839418 90.618171 
L 527.839418 90.618171 
" clip-path="url(#pbe4418e0a6)" style="fill: none; stroke: #000000; stroke-width: 2; stroke-linecap: square"/>
   </g>
   <g id="line2d_24">
    <path d="M 94.547782 252.268947 
L 96.976158 226.0871 
L 99.404534 202.516497 
L 101.832909 181.393511 
L 103.914374 165.106526 
L 105.995839 150.397404 
L 108.077304 137.171065 
L 110.15877 125.329374 
L 112.240235 114.772593 
L 114.3217 105.401658 
L 116.403165 97.119984 
L 118.48463 89.834684 
L 120.566095 83.457349 
L 122.64756 77.904553 
L 124.382114 73.850526 
L 126.116668 70.27234 
L 127.851222 67.130218 
L 129.585776 64.386948 
L 131.320331 62.007828 
L 133.054885 59.960582 
L 134.789439 58.215269 
L 136.523993 56.744171 
L 138.258547 55.521684 
L 140.340012 54.349759 
L 142.421477 53.464686 
L 144.502942 52.832809 
L 146.584407 52.423785 
L 149.012783 52.191973 
L 151.441159 52.187797 
L 154.216446 52.418301 
L 157.338643 52.925177 
L 160.807752 53.733309 
L 164.623771 54.849564 
L 169.480523 56.513926 
L 176.071829 59.03527 
L 201.39632 68.975892 
L 209.375269 71.742143 
L 217.007308 74.146443 
L 224.639346 76.30964 
L 232.271384 78.238417 
L 240.250334 80.018679 
L 248.576194 81.639524 
L 257.248965 83.096135 
L 266.615557 84.434548 
L 276.675972 85.636907 
L 287.430208 86.693666 
L 299.225176 87.627437 
L 312.407788 88.445688 
L 327.324954 89.147163 
L 345.017407 89.747809 
L 366.178968 90.233157 
L 392.544191 90.606185 
L 428.276008 90.874931 
L 482.741009 91.039982 
L 527.839418 91.087436 
L 527.839418 91.087436 
" clip-path="url(#pbe4418e0a6)" style="fill: none; stroke-dasharray: 5.55,2.4; stroke-dashoffset: 0; stroke: #ff0000; stroke-width: 1.5"/>
   </g>
   <g id="line2d_25">
    <path d="M 94.547782 252.268947 
L 96.976158 226.195211 
L 99.404534 202.700814 
L 101.832909 181.620276 
L 103.914374 165.345624 
L 105.995839 150.63128 
L 108.077304 137.388298 
L 110.15877 125.524294 
L 112.240235 114.943586 
L 114.3217 105.54938 
L 116.403165 97.246088 
L 118.48463 89.941095 
L 120.566095 83.545928 
L 122.64756 77.976957 
L 124.382114 73.910548 
L 126.116668 70.320835 
L 127.851222 67.167918 
L 129.585776 64.414479 
L 131.320331 62.025723 
L 133.054885 59.969295 
L 134.789439 58.215184 
L 136.523993 56.735617 
L 138.258547 55.504943 
L 140.340012 54.32351 
L 142.421477 53.429222 
L 144.502942 52.788382 
L 146.584407 52.370611 
L 149.012783 52.128837 
L 151.441159 52.114929 
L 154.216446 52.334571 
L 157.338643 52.829534 
L 160.807752 53.624795 
L 164.623771 54.727331 
L 169.480523 56.374905 
L 176.071829 58.874711 
L 201.743231 68.87165 
L 209.72218 71.610489 
L 217.354218 73.990105 
L 224.986257 76.130654 
L 232.618295 78.039062 
L 240.597245 79.800529 
L 248.923105 81.404407 
L 257.595876 82.846024 
L 266.962468 84.171016 
L 277.022882 85.361762 
L 287.777118 86.408822 
L 299.572087 87.334593 
L 312.754699 88.146464 
L 328.018776 88.857018 
L 345.711228 89.450163 
L 366.872789 89.930199 
L 393.584924 90.303573 
L 429.663651 90.570546 
L 484.822474 90.734092 
L 527.839418 90.779069 
L 527.839418 90.779069 
" clip-path="url(#pbe4418e0a6)" style="fill: none; stroke-dasharray: 9.6,2.4,1.5,2.4; stroke-dashoffset: 0; stroke: #0000ff; stroke-width: 1.5"/>
   </g>
   <g id="patch_3">
    <path d="M 72.8832 262.280549 
L 72.8832 42.025303 
" style="fill: none; stroke: #000000; stroke-width: 0.8; stroke-linejoin: miter; stroke-linecap: square"/>
   </g>
   <g id="patch_4">
    <path d="M 549.504 262.280549 
L 549.504 42.025303 
" style="fill: none; stroke: #000000; stroke-width: 0.8; stroke-linejoin: miter; stroke-linecap: square"/>
   </g>
   <g id="patch_5">
    <path d="M 72.8832 262.280549 
L 549.504 262.280549 
" style="fill: none; stroke: #000000; stroke-width: 0.8; stroke-linejoin: miter; stroke-linecap: square"/>
   </g>
   <g id="patch_6">
    <path d="M 72.8832 42.025303 
L 549.504 42.025303 
" style="fill: none; stroke: #000000; stroke-width: 0.8; stroke-linejoin: miter; stroke-linecap: square"/>
   </g>
   <g id="legend_1">
    <g id="patch_7">
     <path d="M 456.28775 83.652803 
L 543.904 83.652803 
Q 545.504 83.652803 545.504 82.052803 
L 545.504 47.625303 
Q 545.504 46.025303 543.904 46.025303 
L 456.28775 46.025303 
Q 454.68775 46.025303 454.68775 47.625303 
L 454.68775 82.052803 
Q 454.68775 83.652803 456.28775 83.652803 
z
" style="fill: #ffffff; opacity: 0.8; stroke: #cccccc; stroke-linejoin: miter"/>
    </g>
    <g id="line2d_26">
     <path d="M 457.88775 52.504053 
L 465.88775 52.504053 
L 473.88775 52.504053 
" style="fill: none; stroke: #000000; stroke-width: 2; stroke-linecap: square"/>
    </g>
    <g id="text_7">
     <!-- True -->
     <g transform="translate(480.28775 55.304053) scale(0.08 -0.08)">
      <defs>
       <path id="DejaVuSans-54" d="M -19 4666 
L 3928 4666 
L 3928 4134 
L 2272 4134 
L 2272 0 
L 1638 0 
L 1638 4134 
L -19 4134 
L -19 4666 
z
" transform="scale(0.015625)"/>
       <path id="DejaVuSans-72" d="M 2631 2963 
Q 2534 3019 2420 3045 
Q 2306 3072 2169 3072 
Q 1681 3072 1420 2755 
Q 1159 2438 1159 1844 
L 1159 0 
L 581 0 
L 581 3500 
L 1159 3500 
L 1159 2956 
Q 1341 3275 1631 3429 
Q 1922 3584 2338 3584 
Q 2397 3584 2469 3576 
Q 2541 3569 2628 3553 
L 2631 2963 
z
" transform="scale(0.015625)"/>
       <path id="DejaVuSans-75" d="M 544 1381 
L 544 3500 
L 1119 3500 
L 1119 1403 
Q 1119 906 1312 657 
Q 1506 409 1894 409 
Q 2359 409 2629 706 
Q 2900 1003 2900 1516 
L 2900 3500 
L 3475 3500 
L 3475 0 
L 2900 0 
L 2900 538 
Q 2691 219 2414 64 
Q 2138 -91 1772 -91 
Q 1169 -91 856 284 
Q 544 659 544 1381 
z
M 1991 3584 
L 1991 3584 
z
" transform="scale(0.015625)"/>
      </defs>
      <use xlink:href="#DejaVuSans-54"/>
      <use xlink:href="#DejaVuSans-72" transform="translate(46.333984 0)"/>
      <use xlink:href="#DejaVuSans-75" transform="translate(87.447266 0)"/>
      <use xlink:href="#DejaVuSans-65" transform="translate(150.826172 0)"/>
     </g>
    </g>
    <g id="line2d_27">
     <path d="M 457.88775 64.246553 
L 465.88775 64.246553 
L 473.88775 64.246553 
" style="fill: none; stroke-dasharray: 5.55,2.4; stroke-dashoffset: 0; stroke: #ff0000; stroke-width: 1.5"/>
    </g>
    <g id="text_8">
     <!-- Single-shooting -->
     <g transform="translate(480.28775 67.046553) scale(0.08 -0.08)">
      <defs>
       <path id="DejaVuSans-53" d="M 3425 4513 
L 3425 3897 
Q 3066 4069 2747 4153 
Q 2428 4238 2131 4238 
Q 1616 4238 1336 4038 
Q 1056 3838 1056 3469 
Q 1056 3159 1242 3001 
Q 1428 2844 1947 2747 
L 2328 2669 
Q 3034 2534 3370 2195 
Q 3706 1856 3706 1288 
Q 3706 609 3251 259 
Q 2797 -91 1919 -91 
Q 1588 -91 1214 -16 
Q 841 59 441 206 
L 441 856 
Q 825 641 1194 531 
Q 1563 422 1919 422 
Q 2459 422 2753 634 
Q 3047 847 3047 1241 
Q 3047 1584 2836 1778 
Q 2625 1972 2144 2069 
L 1759 2144 
Q 1053 2284 737 2584 
Q 422 2884 422 3419 
Q 422 4038 858 4394 
Q 1294 4750 2059 4750 
Q 2388 4750 2728 4690 
Q 3069 4631 3425 4513 
z
" transform="scale(0.015625)"/>
       <path id="DejaVuSans-6e" d="M 3513 2113 
L 3513 0 
L 2938 0 
L 2938 2094 
Q 2938 2591 2744 2837 
Q 2550 3084 2163 3084 
Q 1697 3084 1428 2787 
Q 1159 2491 1159 1978 
L 1159 0 
L 581 0 
L 581 3500 
L 1159 3500 
L 1159 2956 
Q 1366 3272 1645 3428 
Q 1925 3584 2291 3584 
Q 2894 3584 3203 3211 
Q 3513 2838 3513 2113 
z
" transform="scale(0.015625)"/>
       <path id="DejaVuSans-67" d="M 2906 1791 
Q 2906 2416 2648 2759 
Q 2391 3103 1925 3103 
Q 1463 3103 1205 2759 
Q 947 2416 947 1791 
Q 947 1169 1205 825 
Q 1463 481 1925 481 
Q 2391 481 2648 825 
Q 2906 1169 2906 1791 
z
M 3481 434 
Q 3481 -459 3084 -895 
Q 2688 -1331 1869 -1331 
Q 1566 -1331 1297 -1286 
Q 1028 -1241 775 -1147 
L 775 -588 
Q 1028 -725 1275 -790 
Q 1522 -856 1778 -856 
Q 2344 -856 2625 -561 
Q 2906 -266 2906 331 
L 2906 616 
Q 2728 306 2450 153 
Q 2172 0 1784 0 
Q 1141 0 747 490 
Q 353 981 353 1791 
Q 353 2603 747 3093 
Q 1141 3584 1784 3584 
Q 2172 3584 2450 3431 
Q 2728 3278 2906 2969 
L 2906 3500 
L 3481 3500 
L 3481 434 
z
" transform="scale(0.015625)"/>
       <path id="DejaVuSans-2d" d="M 313 2009 
L 1997 2009 
L 1997 1497 
L 313 1497 
L 313 2009 
z
" transform="scale(0.015625)"/>
       <path id="DejaVuSans-68" d="M 3513 2113 
L 3513 0 
L 2938 0 
L 2938 2094 
Q 2938 2591 2744 2837 
Q 2550 3084 2163 3084 
Q 1697 3084 1428 2787 
Q 1159 2491 1159 1978 
L 1159 0 
L 581 0 
L 581 4863 
L 1159 4863 
L 1159 2956 
Q 1366 3272 1645 3428 
Q 1925 3584 2291 3584 
Q 2894 3584 3203 3211 
Q 3513 2838 3513 2113 
z
" transform="scale(0.015625)"/>
      </defs>
      <use xlink:href="#DejaVuSans-53"/>
      <use xlink:href="#DejaVuSans-69" transform="translate(63.476562 0)"/>
      <use xlink:href="#DejaVuSans-6e" transform="translate(91.259766 0)"/>
      <use xlink:href="#DejaVuSans-67" transform="translate(154.638672 0)"/>
      <use xlink:href="#DejaVuSans-6c" transform="translate(218.115234 0)"/>
      <use xlink:href="#DejaVuSans-65" transform="translate(245.898438 0)"/>
      <use xlink:href="#DejaVuSans-2d" transform="translate(307.421875 0)"/>
      <use xlink:href="#DejaVuSans-73" transform="translate(343.505859 0)"/>
      <use xlink:href="#DejaVuSans-68" transform="translate(395.605469 0)"/>
      <use xlink:href="#DejaVuSans-6f" transform="translate(458.984375 0)"/>
      <use xlink:href="#DejaVuSans-6f" transform="translate(520.166016 0)"/>
      <use xlink:href="#DejaVuSans-74" transform="translate(581.347656 0)"/>
      <use xlink:href="#DejaVuSans-69" transform="translate(620.556641 0)"/>
      <use xlink:href="#DejaVuSans-6e" transform="translate(648.339844 0)"/>
      <use xlink:href="#DejaVuSans-67" transform="translate(711.71875 0)"/>
     </g>
    </g>
    <g id="line2d_28">
     <path d="M 457.88775 75.989053 
L 465.88775 75.989053 
L 473.88775 75.989053 
" style="fill: none; stroke-dasharray: 9.6,2.4,1.5,2.4; stroke-dashoffset: 0; stroke: #0000ff; stroke-width: 1.5"/>
    </g>
    <g id="text_9">
     <!-- Multi-shooting -->
     <g transform="translate(480.28775 78.789053) scale(0.08 -0.08)">
      <defs>
       <path id="DejaVuSans-4d" d="M 628 4666 
L 1569 4666 
L 2759 1491 
L 3956 4666 
L 4897 4666 
L 4897 0 
L 4281 0 
L 4281 4097 
L 3078 897 
L 2444 897 
L 1241 4097 
L 1241 0 
L 628 0 
L 628 4666 
z
" transform="scale(0.015625)"/>
      </defs>
      <use xlink:href="#DejaVuSans-4d"/>
      <use xlink:href="#DejaVuSans-75" transform="translate(86.279297 0)"/>
      <use xlink:href="#DejaVuSans-6c" transform="translate(149.658203 0)"/>
      <use xlink:href="#DejaVuSans-74" transform="translate(177.441406 0)"/>
      <use xlink:href="#DejaVuSans-69" transform="translate(216.650391 0)"/>
      <use xlink:href="#DejaVuSans-2d" transform="translate(244.433594 0)"/>
      <use xlink:href="#DejaVuSans-73" transform="translate(280.517578 0)"/>
      <use xlink:href="#DejaVuSans-68" transform="translate(332.617188 0)"/>
      <use xlink:href="#DejaVuSans-6f" transform="translate(395.996094 0)"/>
      <use xlink:href="#DejaVuSans-6f" transform="translate(457.177734 0)"/>
      <use xlink:href="#DejaVuSans-74" transform="translate(518.359375 0)"/>
      <use xlink:href="#DejaVuSans-69" transform="translate(557.568359 0)"/>
      <use xlink:href="#DejaVuSans-6e" transform="translate(585.351562 0)"/>
      <use xlink:href="#DejaVuSans-67" transform="translate(648.730469 0)"/>
     </g>
    </g>
   </g>
  </g>
  <g id="axes_2">
   <g id="patch_8">
    <path d="M 612.7104 262.280549 
L 1089.3312 262.280549 
L 1089.3312 42.025303 
L 612.7104 42.025303 
z
" style="fill: #ffffff"/>
   </g>
   <g id="matplotlib.axis_3">
    <g id="xtick_7">
     <g id="line2d_29">
      <path d="M 634.374982 262.280549 
L 634.374982 42.025303 
" clip-path="url(#pd0f5ff807e)" style="fill: none; stroke: #b0b0b0; stroke-width: 0.8; stroke-linecap: square"/>
     </g>
     <g id="line2d_30">
      <g>
       <use xlink:href="#m7355ae778b" x="634.374982" y="262.280549" style="stroke: #000000; stroke-width: 0.8"/>
      </g>
     </g>
    </g>
    <g id="xtick_8">
     <g id="line2d_31">
      <path d="M 721.102691 262.280549 
L 721.102691 42.025303 
" clip-path="url(#pd0f5ff807e)" style="fill: none; stroke: #b0b0b0; stroke-width: 0.8; stroke-linecap: square"/>
     </g>
     <g id="line2d_32">
      <g>
       <use xlink:href="#m7355ae778b" x="721.102691" y="262.280549" style="stroke: #000000; stroke-width: 0.8"/>
      </g>
     </g>
    </g>
    <g id="xtick_9">
     <g id="line2d_33">
      <path d="M 807.830401 262.280549 
L 807.830401 42.025303 
" clip-path="url(#pd0f5ff807e)" style="fill: none; stroke: #b0b0b0; stroke-width: 0.8; stroke-linecap: square"/>
     </g>
     <g id="line2d_34">
      <g>
       <use xlink:href="#m7355ae778b" x="807.830401" y="262.280549" style="stroke: #000000; stroke-width: 0.8"/>
      </g>
     </g>
    </g>
    <g id="xtick_10">
     <g id="line2d_35">
      <path d="M 894.55811 262.280549 
L 894.55811 42.025303 
" clip-path="url(#pd0f5ff807e)" style="fill: none; stroke: #b0b0b0; stroke-width: 0.8; stroke-linecap: square"/>
     </g>
     <g id="line2d_36">
      <g>
       <use xlink:href="#m7355ae778b" x="894.55811" y="262.280549" style="stroke: #000000; stroke-width: 0.8"/>
      </g>
     </g>
    </g>
    <g id="xtick_11">
     <g id="line2d_37">
      <path d="M 981.28582 262.280549 
L 981.28582 42.025303 
" clip-path="url(#pd0f5ff807e)" style="fill: none; stroke: #b0b0b0; stroke-width: 0.8; stroke-linecap: square"/>
     </g>
     <g id="line2d_38">
      <g>
       <use xlink:href="#m7355ae778b" x="981.28582" y="262.280549" style="stroke: #000000; stroke-width: 0.8"/>
      </g>
     </g>
    </g>
    <g id="xtick_12">
     <g id="line2d_39">
      <path d="M 1068.013529 262.280549 
L 1068.013529 42.025303 
" clip-path="url(#pd0f5ff807e)" style="fill: none; stroke: #b0b0b0; stroke-width: 0.8; stroke-linecap: square"/>
     </g>
     <g id="line2d_40">
      <g>
       <use xlink:href="#m7355ae778b" x="1068.013529" y="262.280549" style="stroke: #000000; stroke-width: 0.8"/>
      </g>
     </g>
    </g>
   </g>
   <g id="matplotlib.axis_4">
    <g id="ytick_6">
     <g id="line2d_41">
      <path d="M 612.7104 238.624958 
L 1089.3312 238.624958 
" clip-path="url(#pd0f5ff807e)" style="fill: none; stroke: #b0b0b0; stroke-width: 0.8; stroke-linecap: square"/>
     </g>
     <g id="line2d_42">
      <g>
       <use xlink:href="#m163a856478" x="612.7104" y="238.624958" style="stroke: #000000; stroke-width: 0.8"/>
      </g>
     </g>
     <g id="text_10">
      <!-- 0 -->
      <g transform="translate(599.3479 242.424177) scale(0.1 -0.1)">
       <use xlink:href="#DejaVuSans-30"/>
      </g>
     </g>
    </g>
    <g id="ytick_7">
     <g id="line2d_43">
      <path d="M 612.7104 206.0592 
L 1089.3312 206.0592 
" clip-path="url(#pd0f5ff807e)" style="fill: none; stroke: #b0b0b0; stroke-width: 0.8; stroke-linecap: square"/>
     </g>
     <g id="line2d_44">
      <g>
       <use xlink:href="#m163a856478" x="612.7104" y="206.0592" style="stroke: #000000; stroke-width: 0.8"/>
      </g>
     </g>
     <g id="text_11">
      <!-- 1 -->
      <g transform="translate(599.3479 209.858418) scale(0.1 -0.1)">
       <use xlink:href="#DejaVuSans-31"/>
      </g>
     </g>
    </g>
    <g id="ytick_8">
     <g id="line2d_45">
      <path d="M 612.7104 173.493441 
L 1089.3312 173.493441 
" clip-path="url(#pd0f5ff807e)" style="fill: none; stroke: #b0b0b0; stroke-width: 0.8; stroke-linecap: square"/>
     </g>
     <g id="line2d_46">
      <g>
       <use xlink:href="#m163a856478" x="612.7104" y="173.493441" style="stroke: #000000; stroke-width: 0.8"/>
      </g>
     </g>
     <g id="text_12">
      <!-- 2 -->
      <g transform="translate(599.3479 177.29266) scale(0.1 -0.1)">
       <use xlink:href="#DejaVuSans-32"/>
      </g>
     </g>
    </g>
    <g id="ytick_9">
     <g id="line2d_47">
      <path d="M 612.7104 140.927682 
L 1089.3312 140.927682 
" clip-path="url(#pd0f5ff807e)" style="fill: none; stroke: #b0b0b0; stroke-width: 0.8; stroke-linecap: square"/>
     </g>
     <g id="line2d_48">
      <g>
       <use xlink:href="#m163a856478" x="612.7104" y="140.927682" style="stroke: #000000; stroke-width: 0.8"/>
      </g>
     </g>
     <g id="text_13">
      <!-- 3 -->
      <g transform="translate(599.3479 144.726901) scale(0.1 -0.1)">
       <defs>
        <path id="DejaVuSans-33" d="M 2597 2516 
Q 3050 2419 3304 2112 
Q 3559 1806 3559 1356 
Q 3559 666 3084 287 
Q 2609 -91 1734 -91 
Q 1441 -91 1130 -33 
Q 819 25 488 141 
L 488 750 
Q 750 597 1062 519 
Q 1375 441 1716 441 
Q 2309 441 2620 675 
Q 2931 909 2931 1356 
Q 2931 1769 2642 2001 
Q 2353 2234 1838 2234 
L 1294 2234 
L 1294 2753 
L 1863 2753 
Q 2328 2753 2575 2939 
Q 2822 3125 2822 3475 
Q 2822 3834 2567 4026 
Q 2313 4219 1838 4219 
Q 1578 4219 1281 4162 
Q 984 4106 628 3988 
L 628 4550 
Q 988 4650 1302 4700 
Q 1616 4750 1894 4750 
Q 2613 4750 3031 4423 
Q 3450 4097 3450 3541 
Q 3450 3153 3228 2886 
Q 3006 2619 2597 2516 
z
" transform="scale(0.015625)"/>
       </defs>
       <use xlink:href="#DejaVuSans-33"/>
      </g>
     </g>
    </g>
    <g id="ytick_10">
     <g id="line2d_49">
      <path d="M 612.7104 108.361923 
L 1089.3312 108.361923 
" clip-path="url(#pd0f5ff807e)" style="fill: none; stroke: #b0b0b0; stroke-width: 0.8; stroke-linecap: square"/>
     </g>
     <g id="line2d_50">
      <g>
       <use xlink:href="#m163a856478" x="612.7104" y="108.361923" style="stroke: #000000; stroke-width: 0.8"/>
      </g>
     </g>
     <g id="text_14">
      <!-- 4 -->
      <g transform="translate(599.3479 112.161142) scale(0.1 -0.1)">
       <use xlink:href="#DejaVuSans-34"/>
      </g>
     </g>
    </g>
    <g id="ytick_11">
     <g id="line2d_51">
      <path d="M 612.7104 75.796165 
L 1089.3312 75.796165 
" clip-path="url(#pd0f5ff807e)" style="fill: none; stroke: #b0b0b0; stroke-width: 0.8; stroke-linecap: square"/>
     </g>
     <g id="line2d_52">
      <g>
       <use xlink:href="#m163a856478" x="612.7104" y="75.796165" style="stroke: #000000; stroke-width: 0.8"/>
      </g>
     </g>
     <g id="text_15">
      <!-- 5 -->
      <g transform="translate(599.3479 79.595383) scale(0.1 -0.1)">
       <defs>
        <path id="DejaVuSans-35" d="M 691 4666 
L 3169 4666 
L 3169 4134 
L 1269 4134 
L 1269 2991 
Q 1406 3038 1543 3061 
Q 1681 3084 1819 3084 
Q 2600 3084 3056 2656 
Q 3513 2228 3513 1497 
Q 3513 744 3044 326 
Q 2575 -91 1722 -91 
Q 1428 -91 1123 -41 
Q 819 9 494 109 
L 494 744 
Q 775 591 1075 516 
Q 1375 441 1709 441 
Q 2250 441 2565 725 
Q 2881 1009 2881 1497 
Q 2881 1984 2565 2268 
Q 2250 2553 1709 2553 
Q 1456 2553 1204 2497 
Q 953 2441 691 2322 
L 691 4666 
z
" transform="scale(0.015625)"/>
       </defs>
       <use xlink:href="#DejaVuSans-35"/>
      </g>
     </g>
    </g>
    <g id="ytick_12">
     <g id="line2d_53">
      <path d="M 612.7104 43.230406 
L 1089.3312 43.230406 
" clip-path="url(#pd0f5ff807e)" style="fill: none; stroke: #b0b0b0; stroke-width: 0.8; stroke-linecap: square"/>
     </g>
     <g id="line2d_54">
      <g>
       <use xlink:href="#m163a856478" x="612.7104" y="43.230406" style="stroke: #000000; stroke-width: 0.8"/>
      </g>
     </g>
     <g id="text_16">
      <!-- 6 -->
      <g transform="translate(599.3479 47.029625) scale(0.1 -0.1)">
       <use xlink:href="#DejaVuSans-36"/>
      </g>
     </g>
    </g>
    <g id="text_17">
     <!-- Angle Of Attack $\alpha$ [deg] -->
     <g transform="translate(593.2479 211.152926) rotate(-90) scale(0.1 -0.1)">
      <defs>
       <path id="DejaVuSans-41" d="M 2188 4044 
L 1331 1722 
L 3047 1722 
L 2188 4044 
z
M 1831 4666 
L 2547 4666 
L 4325 0 
L 3669 0 
L 3244 1197 
L 1141 1197 
L 716 0 
L 50 0 
L 1831 4666 
z
" transform="scale(0.015625)"/>
       <path id="DejaVuSans-4f" d="M 2522 4238 
Q 1834 4238 1429 3725 
Q 1025 3213 1025 2328 
Q 1025 1447 1429 934 
Q 1834 422 2522 422 
Q 3209 422 3611 934 
Q 4013 1447 4013 2328 
Q 4013 3213 3611 3725 
Q 3209 4238 2522 4238 
z
M 2522 4750 
Q 3503 4750 4090 4092 
Q 4678 3434 4678 2328 
Q 4678 1225 4090 567 
Q 3503 -91 2522 -91 
Q 1538 -91 948 565 
Q 359 1222 359 2328 
Q 359 3434 948 4092 
Q 1538 4750 2522 4750 
z
" transform="scale(0.015625)"/>
       <path id="DejaVuSans-66" d="M 2375 4863 
L 2375 4384 
L 1825 4384 
Q 1516 4384 1395 4259 
Q 1275 4134 1275 3809 
L 1275 3500 
L 2222 3500 
L 2222 3053 
L 1275 3053 
L 1275 0 
L 697 0 
L 697 3053 
L 147 3053 
L 147 3500 
L 697 3500 
L 697 3744 
Q 697 4328 969 4595 
Q 1241 4863 1831 4863 
L 2375 4863 
z
" transform="scale(0.015625)"/>
       <path id="DejaVuSans-61" d="M 2194 1759 
Q 1497 1759 1228 1600 
Q 959 1441 959 1056 
Q 959 750 1161 570 
Q 1363 391 1709 391 
Q 2188 391 2477 730 
Q 2766 1069 2766 1631 
L 2766 1759 
L 2194 1759 
z
M 3341 1997 
L 3341 0 
L 2766 0 
L 2766 531 
Q 2569 213 2275 61 
Q 1981 -91 1556 -91 
Q 1019 -91 701 211 
Q 384 513 384 1019 
Q 384 1609 779 1909 
Q 1175 2209 1959 2209 
L 2766 2209 
L 2766 2266 
Q 2766 2663 2505 2880 
Q 2244 3097 1772 3097 
Q 1472 3097 1187 3025 
Q 903 2953 641 2809 
L 641 3341 
Q 956 3463 1253 3523 
Q 1550 3584 1831 3584 
Q 2591 3584 2966 3190 
Q 3341 2797 3341 1997 
z
" transform="scale(0.015625)"/>
       <path id="DejaVuSans-6b" d="M 581 4863 
L 1159 4863 
L 1159 1991 
L 2875 3500 
L 3609 3500 
L 1753 1863 
L 3688 0 
L 2938 0 
L 1159 1709 
L 1159 0 
L 581 0 
L 581 4863 
z
" transform="scale(0.015625)"/>
       <path id="DejaVuSans-Oblique-3b1" d="M 2619 1628 
L 2622 2350 
Q 2625 3088 2069 3091 
Q 1653 3094 1394 2747 
Q 1069 2319 959 1747 
Q 825 1059 994 731 
Q 1169 397 1547 397 
Q 1966 397 2319 1063 
L 2619 1628 
z
M 2166 3578 
Q 3141 3594 3128 2584 
Q 3128 2584 3616 3500 
L 4128 3500 
L 3119 1603 
L 3109 919 
Q 3109 766 3194 638 
Q 3291 488 3391 488 
L 3669 488 
L 3575 0 
L 3228 0 
Q 2934 0 2722 263 
Q 2622 394 2619 669 
Q 2416 334 2066 50 
Q 1900 -81 1453 -78 
Q 722 -72 456 397 
Q 184 884 353 1747 
Q 534 2675 1009 3097 
Q 1544 3569 2166 3578 
z
" transform="scale(0.015625)"/>
       <path id="DejaVuSans-64" d="M 2906 2969 
L 2906 4863 
L 3481 4863 
L 3481 0 
L 2906 0 
L 2906 525 
Q 2725 213 2448 61 
Q 2172 -91 1784 -91 
Q 1150 -91 751 415 
Q 353 922 353 1747 
Q 353 2572 751 3078 
Q 1150 3584 1784 3584 
Q 2172 3584 2448 3432 
Q 2725 3281 2906 2969 
z
M 947 1747 
Q 947 1113 1208 752 
Q 1469 391 1925 391 
Q 2381 391 2643 752 
Q 2906 1113 2906 1747 
Q 2906 2381 2643 2742 
Q 2381 3103 1925 3103 
Q 1469 3103 1208 2742 
Q 947 2381 947 1747 
z
" transform="scale(0.015625)"/>
      </defs>
      <use xlink:href="#DejaVuSans-41" transform="translate(0 0.015625)"/>
      <use xlink:href="#DejaVuSans-6e" transform="translate(68.408203 0.015625)"/>
      <use xlink:href="#DejaVuSans-67" transform="translate(131.787109 0.015625)"/>
      <use xlink:href="#DejaVuSans-6c" transform="translate(195.263672 0.015625)"/>
      <use xlink:href="#DejaVuSans-65" transform="translate(223.046875 0.015625)"/>
      <use xlink:href="#DejaVuSans-20" transform="translate(284.570312 0.015625)"/>
      <use xlink:href="#DejaVuSans-4f" transform="translate(316.357422 0.015625)"/>
      <use xlink:href="#DejaVuSans-66" transform="translate(395.068359 0.015625)"/>
      <use xlink:href="#DejaVuSans-20" transform="translate(430.273438 0.015625)"/>
      <use xlink:href="#DejaVuSans-41" transform="translate(462.060547 0.015625)"/>
      <use xlink:href="#DejaVuSans-74" transform="translate(530.46875 0.015625)"/>
      <use xlink:href="#DejaVuSans-74" transform="translate(569.677734 0.015625)"/>
      <use xlink:href="#DejaVuSans-61" transform="translate(608.886719 0.015625)"/>
      <use xlink:href="#DejaVuSans-63" transform="translate(670.166016 0.015625)"/>
      <use xlink:href="#DejaVuSans-6b" transform="translate(725.146484 0.015625)"/>
      <use xlink:href="#DejaVuSans-20" transform="translate(783.056641 0.015625)"/>
      <use xlink:href="#DejaVuSans-Oblique-3b1" transform="translate(814.84375 0.015625)"/>
      <use xlink:href="#DejaVuSans-20" transform="translate(880.761719 0.015625)"/>
      <use xlink:href="#DejaVuSans-5b" transform="translate(912.548828 0.015625)"/>
      <use xlink:href="#DejaVuSans-64" transform="translate(951.5625 0.015625)"/>
      <use xlink:href="#DejaVuSans-65" transform="translate(1015.039062 0.015625)"/>
      <use xlink:href="#DejaVuSans-67" transform="translate(1076.5625 0.015625)"/>
      <use xlink:href="#DejaVuSans-5d" transform="translate(1140.039062 0.015625)"/>
     </g>
    </g>
   </g>
   <g id="line2d_55">
    <path d="M 634.374982 52.036905 
L 634.721893 53.038226 
L 635.068803 56.280554 
L 635.762625 67.080623 
L 637.497179 102.373452 
L 638.884823 128.230989 
L 639.925555 144.299301 
L 640.966288 157.668084 
L 642.00702 168.778882 
L 643.394664 180.854574 
L 644.782307 190.587034 
L 646.16995 198.597415 
L 647.557594 205.308569 
L 648.945237 211.00864 
L 650.33288 215.899089 
L 651.720524 220.126276 
L 653.455078 224.643914 
L 655.189632 228.462391 
L 656.924186 231.708835 
L 658.65874 234.483077 
L 660.393295 236.864568 
L 662.127849 238.917062 
L 664.209314 241.017595 
L 666.290779 242.789131 
L 668.372244 244.287688 
L 670.80062 245.749986 
L 673.228996 246.957184 
L 676.004282 248.080616 
L 679.12648 249.078619 
L 682.595588 249.923031 
L 686.411607 250.598003 
L 690.574538 251.098181 
L 695.431289 251.444386 
L 700.981863 251.608623 
L 707.573169 251.577818 
L 715.899029 251.311089 
L 728.040908 250.67543 
L 779.383712 247.746488 
L 798.810719 246.980001 
L 819.97228 246.371519 
L 844.60295 245.894411 
L 874.784192 245.541628 
L 915.719671 245.299732 
L 980.938909 245.162 
L 1067.666618 245.121519 
L 1067.666618 245.121519 
" clip-path="url(#pd0f5ff807e)" style="fill: none; stroke: #000000; stroke-width: 2; stroke-linecap: square"/>
   </g>
   <g id="line2d_56">
    <path d="M 634.374982 52.036905 
L 634.721893 53.152875 
L 635.068803 56.504987 
L 635.762625 67.50252 
L 639.578644 139.91547 
L 640.619377 154.045128 
L 641.660109 165.771279 
L 642.700842 175.579881 
L 644.088485 186.379116 
L 645.476129 195.22283 
L 646.863772 202.595918 
L 648.251415 208.823528 
L 649.639059 214.133345 
L 651.026702 218.69343 
L 652.414345 222.633228 
L 654.1489 226.839761 
L 655.883454 230.392829 
L 657.618008 233.413586 
L 659.352562 235.996418 
L 661.087116 238.21559 
L 663.168581 240.480831 
L 665.250046 242.387214 
L 667.331511 243.99739 
L 669.759887 245.566959 
L 672.188263 246.862043 
L 674.96355 248.067442 
L 677.738837 249.033243 
L 680.861034 249.887454 
L 684.330142 250.604187 
L 688.146162 251.168411 
L 692.656003 251.60015 
L 697.859665 251.859746 
L 704.10406 251.928302 
L 711.736099 251.769582 
L 721.796513 251.31776 
L 738.795144 250.292344 
L 767.241833 248.600276 
L 786.66884 247.687555 
L 806.442757 246.984326 
L 828.645051 246.42399 
L 854.663364 245.996669 
L 887.966804 245.683846 
L 935.146678 245.48128 
L 1018.405279 245.37966 
L 1067.666618 245.365677 
L 1067.666618 245.365677 
" clip-path="url(#pd0f5ff807e)" style="fill: none; stroke-dasharray: 5.55,2.4; stroke-dashoffset: 0; stroke: #ff0000; stroke-width: 1.5"/>
   </g>
   <g id="line2d_57">
    <path d="M 634.374982 52.036905 
L 634.721893 52.18617 
L 635.068803 54.758524 
L 635.762625 64.670671 
L 637.150269 92.299869 
L 638.537912 119.501813 
L 639.925555 142.040293 
L 640.966288 155.757321 
L 642.00702 167.177521 
L 643.394664 179.597984 
L 644.782307 189.60923 
L 646.16995 197.848008 
L 647.557594 204.749168 
L 648.945237 210.609 
L 650.33288 215.634635 
L 651.720524 219.976729 
L 653.455078 224.614742 
L 655.189632 228.53288 
L 656.924186 231.862649 
L 658.65874 234.707242 
L 660.393295 237.148646 
L 662.127849 239.252527 
L 664.209314 241.405491 
L 666.290779 243.221164 
L 668.372244 244.757018 
L 670.80062 246.255671 
L 673.228996 247.492842 
L 676.004282 248.644111 
L 678.779569 249.565564 
L 681.901767 250.378725 
L 685.370875 251.058139 
L 689.186894 251.588856 
L 693.696735 251.988532 
L 698.900398 252.218556 
L 705.144793 252.259185 
L 712.776831 252.07429 
L 723.184156 251.577825 
L 741.917342 250.410346 
L 767.241833 248.886582 
L 786.321929 247.969532 
L 806.095847 247.247326 
L 827.951229 246.678348 
L 853.622631 246.239756 
L 886.23225 245.917082 
L 932.024481 245.704972 
L 1010.773241 245.595146 
L 1067.666618 245.576633 
L 1067.666618 245.576633 
" clip-path="url(#pd0f5ff807e)" style="fill: none; stroke-dasharray: 9.6,2.4,1.5,2.4; stroke-dashoffset: 0; stroke: #0000ff; stroke-width: 1.5"/>
   </g>
   <g id="patch_9">
    <path d="M 612.7104 262.280549 
L 612.7104 42.025303 
" style="fill: none; stroke: #000000; stroke-width: 0.8; stroke-linejoin: miter; stroke-linecap: square"/>
   </g>
   <g id="patch_10">
    <path d="M 1089.3312 262.280549 
L 1089.3312 42.025303 
" style="fill: none; stroke: #000000; stroke-width: 0.8; stroke-linejoin: miter; stroke-linecap: square"/>
   </g>
   <g id="patch_11">
    <path d="M 612.7104 262.280549 
L 1089.3312 262.280549 
" style="fill: none; stroke: #000000; stroke-width: 0.8; stroke-linejoin: miter; stroke-linecap: square"/>
   </g>
   <g id="patch_12">
    <path d="M 612.7104 42.025303 
L 1089.3312 42.025303 
" style="fill: none; stroke: #000000; stroke-width: 0.8; stroke-linejoin: miter; stroke-linecap: square"/>
   </g>
  </g>
  <g id="axes_3">
   <g id="patch_13">
    <path d="M 72.8832 497.947109 
L 549.504 497.947109 
L 549.504 277.691863 
L 72.8832 277.691863 
z
" style="fill: #ffffff"/>
   </g>
   <g id="matplotlib.axis_5">
    <g id="xtick_13">
     <g id="line2d_58">
      <path d="M 94.547782 497.947109 
L 94.547782 277.691863 
" clip-path="url(#p0d4e255397)" style="fill: none; stroke: #b0b0b0; stroke-width: 0.8; stroke-linecap: square"/>
     </g>
     <g id="line2d_59">
      <g>
       <use xlink:href="#m7355ae778b" x="94.547782" y="497.947109" style="stroke: #000000; stroke-width: 0.8"/>
      </g>
     </g>
     <g id="text_18">
      <!-- 0 -->
      <g transform="translate(91.366532 512.545546) scale(0.1 -0.1)">
       <use xlink:href="#DejaVuSans-30"/>
      </g>
     </g>
    </g>
    <g id="xtick_14">
     <g id="line2d_60">
      <path d="M 181.275491 497.947109 
L 181.275491 277.691863 
" clip-path="url(#p0d4e255397)" style="fill: none; stroke: #b0b0b0; stroke-width: 0.8; stroke-linecap: square"/>
     </g>
     <g id="line2d_61">
      <g>
       <use xlink:href="#m7355ae778b" x="181.275491" y="497.947109" style="stroke: #000000; stroke-width: 0.8"/>
      </g>
     </g>
     <g id="text_19">
      <!-- 5 -->
      <g transform="translate(178.094241 512.545546) scale(0.1 -0.1)">
       <use xlink:href="#DejaVuSans-35"/>
      </g>
     </g>
    </g>
    <g id="xtick_15">
     <g id="line2d_62">
      <path d="M 268.003201 497.947109 
L 268.003201 277.691863 
" clip-path="url(#p0d4e255397)" style="fill: none; stroke: #b0b0b0; stroke-width: 0.8; stroke-linecap: square"/>
     </g>
     <g id="line2d_63">
      <g>
       <use xlink:href="#m7355ae778b" x="268.003201" y="497.947109" style="stroke: #000000; stroke-width: 0.8"/>
      </g>
     </g>
     <g id="text_20">
      <!-- 10 -->
      <g transform="translate(261.640701 512.545546) scale(0.1 -0.1)">
       <use xlink:href="#DejaVuSans-31"/>
       <use xlink:href="#DejaVuSans-30" transform="translate(63.623047 0)"/>
      </g>
     </g>
    </g>
    <g id="xtick_16">
     <g id="line2d_64">
      <path d="M 354.73091 497.947109 
L 354.73091 277.691863 
" clip-path="url(#p0d4e255397)" style="fill: none; stroke: #b0b0b0; stroke-width: 0.8; stroke-linecap: square"/>
     </g>
     <g id="line2d_65">
      <g>
       <use xlink:href="#m7355ae778b" x="354.73091" y="497.947109" style="stroke: #000000; stroke-width: 0.8"/>
      </g>
     </g>
     <g id="text_21">
      <!-- 15 -->
      <g transform="translate(348.36841 512.545546) scale(0.1 -0.1)">
       <use xlink:href="#DejaVuSans-31"/>
       <use xlink:href="#DejaVuSans-35" transform="translate(63.623047 0)"/>
      </g>
     </g>
    </g>
    <g id="xtick_17">
     <g id="line2d_66">
      <path d="M 441.45862 497.947109 
L 441.45862 277.691863 
" clip-path="url(#p0d4e255397)" style="fill: none; stroke: #b0b0b0; stroke-width: 0.8; stroke-linecap: square"/>
     </g>
     <g id="line2d_67">
      <g>
       <use xlink:href="#m7355ae778b" x="441.45862" y="497.947109" style="stroke: #000000; stroke-width: 0.8"/>
      </g>
     </g>
     <g id="text_22">
      <!-- 20 -->
      <g transform="translate(435.09612 512.545546) scale(0.1 -0.1)">
       <use xlink:href="#DejaVuSans-32"/>
       <use xlink:href="#DejaVuSans-30" transform="translate(63.623047 0)"/>
      </g>
     </g>
    </g>
    <g id="xtick_18">
     <g id="line2d_68">
      <path d="M 528.186329 497.947109 
L 528.186329 277.691863 
" clip-path="url(#p0d4e255397)" style="fill: none; stroke: #b0b0b0; stroke-width: 0.8; stroke-linecap: square"/>
     </g>
     <g id="line2d_69">
      <g>
       <use xlink:href="#m7355ae778b" x="528.186329" y="497.947109" style="stroke: #000000; stroke-width: 0.8"/>
      </g>
     </g>
     <g id="text_23">
      <!-- 25 -->
      <g transform="translate(521.823829 512.545546) scale(0.1 -0.1)">
       <use xlink:href="#DejaVuSans-32"/>
       <use xlink:href="#DejaVuSans-35" transform="translate(63.623047 0)"/>
      </g>
     </g>
    </g>
    <g id="text_24">
     <!-- Time [s] -->
     <g transform="translate(290.864694 526.223671) scale(0.1 -0.1)">
      <use xlink:href="#DejaVuSans-54"/>
      <use xlink:href="#DejaVuSans-69" transform="translate(57.958984 0)"/>
      <use xlink:href="#DejaVuSans-6d" transform="translate(85.742188 0)"/>
      <use xlink:href="#DejaVuSans-65" transform="translate(183.154297 0)"/>
      <use xlink:href="#DejaVuSans-20" transform="translate(244.677734 0)"/>
      <use xlink:href="#DejaVuSans-5b" transform="translate(276.464844 0)"/>
      <use xlink:href="#DejaVuSans-73" transform="translate(315.478516 0)"/>
      <use xlink:href="#DejaVuSans-5d" transform="translate(367.578125 0)"/>
     </g>
    </g>
   </g>
   <g id="matplotlib.axis_6">
    <g id="ytick_13">
     <g id="line2d_70">
      <path d="M 72.8832 487.935506 
L 549.504 487.935506 
" clip-path="url(#p0d4e255397)" style="fill: none; stroke: #b0b0b0; stroke-width: 0.8; stroke-linecap: square"/>
     </g>
     <g id="line2d_71">
      <g>
       <use xlink:href="#m163a856478" x="72.8832" y="487.935506" style="stroke: #000000; stroke-width: 0.8"/>
      </g>
     </g>
     <g id="text_25">
      <!-- 0 -->
      <g transform="translate(59.5207 491.734725) scale(0.1 -0.1)">
       <use xlink:href="#DejaVuSans-30"/>
      </g>
     </g>
    </g>
    <g id="ytick_14">
     <g id="line2d_72">
      <path d="M 72.8832 447.609377 
L 549.504 447.609377 
" clip-path="url(#p0d4e255397)" style="fill: none; stroke: #b0b0b0; stroke-width: 0.8; stroke-linecap: square"/>
     </g>
     <g id="line2d_73">
      <g>
       <use xlink:href="#m163a856478" x="72.8832" y="447.609377" style="stroke: #000000; stroke-width: 0.8"/>
      </g>
     </g>
     <g id="text_26">
      <!-- 5 -->
      <g transform="translate(59.5207 451.408596) scale(0.1 -0.1)">
       <use xlink:href="#DejaVuSans-35"/>
      </g>
     </g>
    </g>
    <g id="ytick_15">
     <g id="line2d_74">
      <path d="M 72.8832 407.283247 
L 549.504 407.283247 
" clip-path="url(#p0d4e255397)" style="fill: none; stroke: #b0b0b0; stroke-width: 0.8; stroke-linecap: square"/>
     </g>
     <g id="line2d_75">
      <g>
       <use xlink:href="#m163a856478" x="72.8832" y="407.283247" style="stroke: #000000; stroke-width: 0.8"/>
      </g>
     </g>
     <g id="text_27">
      <!-- 10 -->
      <g transform="translate(53.1582 411.082466) scale(0.1 -0.1)">
       <use xlink:href="#DejaVuSans-31"/>
       <use xlink:href="#DejaVuSans-30" transform="translate(63.623047 0)"/>
      </g>
     </g>
    </g>
    <g id="ytick_16">
     <g id="line2d_76">
      <path d="M 72.8832 366.957118 
L 549.504 366.957118 
" clip-path="url(#p0d4e255397)" style="fill: none; stroke: #b0b0b0; stroke-width: 0.8; stroke-linecap: square"/>
     </g>
     <g id="line2d_77">
      <g>
       <use xlink:href="#m163a856478" x="72.8832" y="366.957118" style="stroke: #000000; stroke-width: 0.8"/>
      </g>
     </g>
     <g id="text_28">
      <!-- 15 -->
      <g transform="translate(53.1582 370.756336) scale(0.1 -0.1)">
       <use xlink:href="#DejaVuSans-31"/>
       <use xlink:href="#DejaVuSans-35" transform="translate(63.623047 0)"/>
      </g>
     </g>
    </g>
    <g id="ytick_17">
     <g id="line2d_78">
      <path d="M 72.8832 326.630988 
L 549.504 326.630988 
" clip-path="url(#p0d4e255397)" style="fill: none; stroke: #b0b0b0; stroke-width: 0.8; stroke-linecap: square"/>
     </g>
     <g id="line2d_79">
      <g>
       <use xlink:href="#m163a856478" x="72.8832" y="326.630988" style="stroke: #000000; stroke-width: 0.8"/>
      </g>
     </g>
     <g id="text_29">
      <!-- 20 -->
      <g transform="translate(53.1582 330.430207) scale(0.1 -0.1)">
       <use xlink:href="#DejaVuSans-32"/>
       <use xlink:href="#DejaVuSans-30" transform="translate(63.623047 0)"/>
      </g>
     </g>
    </g>
    <g id="ytick_18">
     <g id="line2d_80">
      <path d="M 72.8832 286.304858 
L 549.504 286.304858 
" clip-path="url(#p0d4e255397)" style="fill: none; stroke: #b0b0b0; stroke-width: 0.8; stroke-linecap: square"/>
     </g>
     <g id="line2d_81">
      <g>
       <use xlink:href="#m163a856478" x="72.8832" y="286.304858" style="stroke: #000000; stroke-width: 0.8"/>
      </g>
     </g>
     <g id="text_30">
      <!-- 25 -->
      <g transform="translate(53.1582 290.104077) scale(0.1 -0.1)">
       <use xlink:href="#DejaVuSans-32"/>
       <use xlink:href="#DejaVuSans-35" transform="translate(63.623047 0)"/>
      </g>
     </g>
    </g>
    <g id="text_31">
     <!-- Flight Path Angle $\gamma$ [deg] -->
     <g transform="translate(47.0582 449.869486) rotate(-90) scale(0.1 -0.1)">
      <defs>
       <path id="DejaVuSans-46" d="M 628 4666 
L 3309 4666 
L 3309 4134 
L 1259 4134 
L 1259 2759 
L 3109 2759 
L 3109 2228 
L 1259 2228 
L 1259 0 
L 628 0 
L 628 4666 
z
" transform="scale(0.015625)"/>
       <path id="DejaVuSans-50" d="M 1259 4147 
L 1259 2394 
L 2053 2394 
Q 2494 2394 2734 2622 
Q 2975 2850 2975 3272 
Q 2975 3691 2734 3919 
Q 2494 4147 2053 4147 
L 1259 4147 
z
M 628 4666 
L 2053 4666 
Q 2838 4666 3239 4311 
Q 3641 3956 3641 3272 
Q 3641 2581 3239 2228 
Q 2838 1875 2053 1875 
L 1259 1875 
L 1259 0 
L 628 0 
L 628 4666 
z
" transform="scale(0.015625)"/>
       <path id="DejaVuSans-Oblique-3b3" d="M 1491 2950 
L 1838 788 
L 3456 3500 
L 4066 3500 
L 1972 0 
L 1713 -1331 
L 1138 -1331 
L 1397 0 
L 988 2613 
Q 925 3006 628 3006 
L 475 3006 
L 569 3500 
L 788 3500 
Q 1403 3500 1491 2950 
z
" transform="scale(0.015625)"/>
      </defs>
      <use xlink:href="#DejaVuSans-46" transform="translate(0 0.015625)"/>
      <use xlink:href="#DejaVuSans-6c" transform="translate(57.519531 0.015625)"/>
      <use xlink:href="#DejaVuSans-69" transform="translate(85.302734 0.015625)"/>
      <use xlink:href="#DejaVuSans-67" transform="translate(113.085938 0.015625)"/>
      <use xlink:href="#DejaVuSans-68" transform="translate(176.5625 0.015625)"/>
      <use xlink:href="#DejaVuSans-74" transform="translate(239.941406 0.015625)"/>
      <use xlink:href="#DejaVuSans-20" transform="translate(279.150391 0.015625)"/>
      <use xlink:href="#DejaVuSans-50" transform="translate(310.9375 0.015625)"/>
      <use xlink:href="#DejaVuSans-61" transform="translate(371.240234 0.015625)"/>
      <use xlink:href="#DejaVuSans-74" transform="translate(432.519531 0.015625)"/>
      <use xlink:href="#DejaVuSans-68" transform="translate(471.728516 0.015625)"/>
      <use xlink:href="#DejaVuSans-20" transform="translate(535.107422 0.015625)"/>
      <use xlink:href="#DejaVuSans-41" transform="translate(566.894531 0.015625)"/>
      <use xlink:href="#DejaVuSans-6e" transform="translate(635.302734 0.015625)"/>
      <use xlink:href="#DejaVuSans-67" transform="translate(698.681641 0.015625)"/>
      <use xlink:href="#DejaVuSans-6c" transform="translate(762.158203 0.015625)"/>
      <use xlink:href="#DejaVuSans-65" transform="translate(789.941406 0.015625)"/>
      <use xlink:href="#DejaVuSans-20" transform="translate(851.464844 0.015625)"/>
      <use xlink:href="#DejaVuSans-Oblique-3b3" transform="translate(883.251953 0.015625)"/>
      <use xlink:href="#DejaVuSans-20" transform="translate(942.431641 0.015625)"/>
      <use xlink:href="#DejaVuSans-5b" transform="translate(974.21875 0.015625)"/>
      <use xlink:href="#DejaVuSans-64" transform="translate(1013.232422 0.015625)"/>
      <use xlink:href="#DejaVuSans-65" transform="translate(1076.708984 0.015625)"/>
      <use xlink:href="#DejaVuSans-67" transform="translate(1138.232422 0.015625)"/>
      <use xlink:href="#DejaVuSans-5d" transform="translate(1201.708984 0.015625)"/>
     </g>
    </g>
   </g>
   <g id="line2d_82">
    <path d="M 94.547782 487.935506 
L 94.894693 487.682154 
L 95.241603 486.862806 
L 95.935425 484.119581 
L 97.323069 476.830201 
L 99.057623 467.863922 
L 100.445266 461.674211 
L 102.17982 454.97385 
L 104.261285 447.861801 
L 107.036572 439.19451 
L 110.15877 430.118453 
L 113.627878 420.740707 
L 117.096986 412.05687 
L 120.566095 404.000234 
L 124.035203 396.502327 
L 127.504311 389.505712 
L 131.320331 382.334015 
L 135.13635 375.664645 
L 138.952369 369.45727 
L 142.768388 363.677423 
L 146.584407 358.294776 
L 150.400427 353.282075 
L 154.216446 348.614458 
L 158.379376 343.889207 
L 162.542306 339.519889 
L 166.705236 335.481018 
L 170.868166 331.748905 
L 175.031096 328.301488 
L 179.540937 324.864237 
L 184.050778 321.712671 
L 188.560619 318.824234 
L 193.417371 315.983929 
L 198.274122 313.400432 
L 203.477785 310.892177 
L 208.681447 308.628192 
L 214.232021 306.456768 
L 220.129505 304.397429 
L 226.3739 302.465491 
L 232.965206 300.672063 
L 239.903423 299.024208 
L 247.18855 297.525202 
L 255.1675 296.118369 
L 263.840271 294.827055 
L 273.206863 293.666549 
L 283.267278 292.644517 
L 294.715335 291.711353 
L 307.551036 290.895915 
L 322.121291 290.197635 
L 339.119922 289.609033 
L 359.934573 289.120644 
L 385.952886 288.743519 
L 420.99088 288.471606 
L 474.415149 288.301611 
L 527.839418 288.245731 
L 527.839418 288.245731 
" clip-path="url(#p0d4e255397)" style="fill: none; stroke: #000000; stroke-width: 2; stroke-linecap: square"/>
   </g>
   <g id="line2d_83">
    <path d="M 94.547782 487.935506 
L 94.894693 487.65486 
L 95.241603 486.811593 
L 95.935425 484.031253 
L 97.323069 476.706546 
L 99.057623 467.726687 
L 100.792177 460.072139 
L 102.526731 453.452117 
L 104.955107 445.182542 
L 107.730394 436.571308 
L 110.852591 427.658186 
L 113.974789 419.422819 
L 117.443897 410.939007 
L 120.913005 403.053907 
L 124.382114 395.692769 
L 128.198133 388.13757 
L 132.014152 381.099306 
L 135.830172 374.536455 
L 139.646191 368.414466 
L 143.46221 362.70332 
L 147.278229 357.376131 
L 151.094248 352.408329 
L 154.910268 347.777168 
L 159.073198 343.084016 
L 163.236128 338.740461 
L 167.399058 334.722372 
L 171.561988 331.00713 
L 175.724918 327.573519 
L 180.234759 324.148543 
L 184.7446 321.007113 
L 189.254441 318.127195 
L 194.111192 315.294714 
L 198.967944 312.718016 
L 204.171607 310.21623 
L 209.375269 307.958126 
L 214.925843 305.792531 
L 220.823327 303.739055 
L 227.067722 301.81308 
L 233.659028 300.025768 
L 240.597245 298.384205 
L 247.882372 296.891668 
L 255.861321 295.49175 
L 264.534092 294.207719 
L 273.900685 293.054752 
L 283.961099 292.040378 
L 295.409157 291.115302 
L 308.244858 290.308082 
L 322.815113 289.618007 
L 340.160655 289.027671 
L 360.975305 288.550693 
L 387.340529 288.179909 
L 423.072345 287.914782 
L 478.231168 287.751802 
L 527.839418 287.703465 
L 527.839418 287.703465 
" clip-path="url(#p0d4e255397)" style="fill: none; stroke-dasharray: 5.55,2.4; stroke-dashoffset: 0; stroke: #ff0000; stroke-width: 1.5"/>
   </g>
   <g id="line2d_84">
    <path d="M 94.547782 487.935506 
L 94.894693 487.893134 
L 95.241603 487.239695 
L 95.935425 484.716783 
L 96.976158 479.452277 
L 99.404534 466.865052 
L 101.139088 459.372263 
L 102.873642 452.894372 
L 105.302018 444.78769 
L 108.424215 435.247396 
L 111.546413 426.395269 
L 114.66861 418.154857 
L 118.137719 409.651437 
L 121.606827 401.758837 
L 125.075936 394.407828 
L 128.545044 387.543525 
L 132.361063 380.503599 
L 136.177082 373.954094 
L 139.993102 367.856553 
L 143.809121 362.177874 
L 147.62514 356.888762 
L 151.441159 351.962771 
L 155.257178 347.375693 
L 159.420108 342.7319 
L 163.583039 338.437944 
L 167.745969 334.468855 
L 171.908899 330.801396 
L 176.071829 327.41391 
L 180.58167 324.03667 
L 185.09151 320.940409 
L 189.601351 318.102946 
L 194.458103 315.313082 
L 199.314855 312.775784 
L 204.518517 310.312722 
L 209.72218 308.089863 
L 215.272753 305.958225 
L 221.170238 303.936977 
L 227.414633 302.04114 
L 234.005939 300.281595 
L 240.944155 298.665238 
L 248.229283 297.195244 
L 256.208232 295.816004 
L 264.881003 294.55039 
L 274.247596 293.413348 
L 284.654921 292.381369 
L 296.102979 291.474255 
L 308.93868 290.681952 
L 323.855846 289.990059 
L 341.201387 289.413283 
L 362.362949 288.940216 
L 389.075083 288.575497 
L 425.500721 288.314948 
L 482.047188 288.156308 
L 527.839418 288.112996 
L 527.839418 288.112996 
" clip-path="url(#p0d4e255397)" style="fill: none; stroke-dasharray: 9.6,2.4,1.5,2.4; stroke-dashoffset: 0; stroke: #0000ff; stroke-width: 1.5"/>
   </g>
   <g id="patch_14">
    <path d="M 72.8832 497.947109 
L 72.8832 277.691863 
" style="fill: none; stroke: #000000; stroke-width: 0.8; stroke-linejoin: miter; stroke-linecap: square"/>
   </g>
   <g id="patch_15">
    <path d="M 549.504 497.947109 
L 549.504 277.691863 
" style="fill: none; stroke: #000000; stroke-width: 0.8; stroke-linejoin: miter; stroke-linecap: square"/>
   </g>
   <g id="patch_16">
    <path d="M 72.8832 497.947109 
L 549.504 497.947109 
" style="fill: none; stroke: #000000; stroke-width: 0.8; stroke-linejoin: miter; stroke-linecap: square"/>
   </g>
   <g id="patch_17">
    <path d="M 72.8832 277.691863 
L 549.504 277.691863 
" style="fill: none; stroke: #000000; stroke-width: 0.8; stroke-linejoin: miter; stroke-linecap: square"/>
   </g>
  </g>
  <g id="axes_4">
   <g id="patch_18">
    <path d="M 612.7104 497.947109 
L 1089.3312 497.947109 
L 1089.3312 277.691863 
L 612.7104 277.691863 
z
" style="fill: #ffffff"/>
   </g>
   <g id="matplotlib.axis_7">
    <g id="xtick_19">
     <g id="line2d_85">
      <path d="M 634.374982 497.947109 
L 634.374982 277.691863 
" clip-path="url(#pc8400370bf)" style="fill: none; stroke: #b0b0b0; stroke-width: 0.8; stroke-linecap: square"/>
     </g>
     <g id="line2d_86">
      <g>
       <use xlink:href="#m7355ae778b" x="634.374982" y="497.947109" style="stroke: #000000; stroke-width: 0.8"/>
      </g>
     </g>
     <g id="text_32">
      <!-- 0 -->
      <g transform="translate(631.193732 512.545546) scale(0.1 -0.1)">
       <use xlink:href="#DejaVuSans-30"/>
      </g>
     </g>
    </g>
    <g id="xtick_20">
     <g id="line2d_87">
      <path d="M 721.102691 497.947109 
L 721.102691 277.691863 
" clip-path="url(#pc8400370bf)" style="fill: none; stroke: #b0b0b0; stroke-width: 0.8; stroke-linecap: square"/>
     </g>
     <g id="line2d_88">
      <g>
       <use xlink:href="#m7355ae778b" x="721.102691" y="497.947109" style="stroke: #000000; stroke-width: 0.8"/>
      </g>
     </g>
     <g id="text_33">
      <!-- 5 -->
      <g transform="translate(717.921441 512.545546) scale(0.1 -0.1)">
       <use xlink:href="#DejaVuSans-35"/>
      </g>
     </g>
    </g>
    <g id="xtick_21">
     <g id="line2d_89">
      <path d="M 807.830401 497.947109 
L 807.830401 277.691863 
" clip-path="url(#pc8400370bf)" style="fill: none; stroke: #b0b0b0; stroke-width: 0.8; stroke-linecap: square"/>
     </g>
     <g id="line2d_90">
      <g>
       <use xlink:href="#m7355ae778b" x="807.830401" y="497.947109" style="stroke: #000000; stroke-width: 0.8"/>
      </g>
     </g>
     <g id="text_34">
      <!-- 10 -->
      <g transform="translate(801.467901 512.545546) scale(0.1 -0.1)">
       <use xlink:href="#DejaVuSans-31"/>
       <use xlink:href="#DejaVuSans-30" transform="translate(63.623047 0)"/>
      </g>
     </g>
    </g>
    <g id="xtick_22">
     <g id="line2d_91">
      <path d="M 894.55811 497.947109 
L 894.55811 277.691863 
" clip-path="url(#pc8400370bf)" style="fill: none; stroke: #b0b0b0; stroke-width: 0.8; stroke-linecap: square"/>
     </g>
     <g id="line2d_92">
      <g>
       <use xlink:href="#m7355ae778b" x="894.55811" y="497.947109" style="stroke: #000000; stroke-width: 0.8"/>
      </g>
     </g>
     <g id="text_35">
      <!-- 15 -->
      <g transform="translate(888.19561 512.545546) scale(0.1 -0.1)">
       <use xlink:href="#DejaVuSans-31"/>
       <use xlink:href="#DejaVuSans-35" transform="translate(63.623047 0)"/>
      </g>
     </g>
    </g>
    <g id="xtick_23">
     <g id="line2d_93">
      <path d="M 981.28582 497.947109 
L 981.28582 277.691863 
" clip-path="url(#pc8400370bf)" style="fill: none; stroke: #b0b0b0; stroke-width: 0.8; stroke-linecap: square"/>
     </g>
     <g id="line2d_94">
      <g>
       <use xlink:href="#m7355ae778b" x="981.28582" y="497.947109" style="stroke: #000000; stroke-width: 0.8"/>
      </g>
     </g>
     <g id="text_36">
      <!-- 20 -->
      <g transform="translate(974.92332 512.545546) scale(0.1 -0.1)">
       <use xlink:href="#DejaVuSans-32"/>
       <use xlink:href="#DejaVuSans-30" transform="translate(63.623047 0)"/>
      </g>
     </g>
    </g>
    <g id="xtick_24">
     <g id="line2d_95">
      <path d="M 1068.013529 497.947109 
L 1068.013529 277.691863 
" clip-path="url(#pc8400370bf)" style="fill: none; stroke: #b0b0b0; stroke-width: 0.8; stroke-linecap: square"/>
     </g>
     <g id="line2d_96">
      <g>
       <use xlink:href="#m7355ae778b" x="1068.013529" y="497.947109" style="stroke: #000000; stroke-width: 0.8"/>
      </g>
     </g>
     <g id="text_37">
      <!-- 25 -->
      <g transform="translate(1061.651029 512.545546) scale(0.1 -0.1)">
       <use xlink:href="#DejaVuSans-32"/>
       <use xlink:href="#DejaVuSans-35" transform="translate(63.623047 0)"/>
      </g>
     </g>
    </g>
    <g id="text_38">
     <!-- Time [s] -->
     <g transform="translate(830.691894 526.223671) scale(0.1 -0.1)">
      <use xlink:href="#DejaVuSans-54"/>
      <use xlink:href="#DejaVuSans-69" transform="translate(57.958984 0)"/>
      <use xlink:href="#DejaVuSans-6d" transform="translate(85.742188 0)"/>
      <use xlink:href="#DejaVuSans-65" transform="translate(183.154297 0)"/>
      <use xlink:href="#DejaVuSans-20" transform="translate(244.677734 0)"/>
      <use xlink:href="#DejaVuSans-5b" transform="translate(276.464844 0)"/>
      <use xlink:href="#DejaVuSans-73" transform="translate(315.478516 0)"/>
      <use xlink:href="#DejaVuSans-5d" transform="translate(367.578125 0)"/>
     </g>
    </g>
   </g>
   <g id="matplotlib.axis_8">
    <g id="ytick_19">
     <g id="line2d_97">
      <path d="M 612.7104 487.935506 
L 1089.3312 487.935506 
" clip-path="url(#pc8400370bf)" style="fill: none; stroke: #b0b0b0; stroke-width: 0.8; stroke-linecap: square"/>
     </g>
     <g id="line2d_98">
      <g>
       <use xlink:href="#m163a856478" x="612.7104" y="487.935506" style="stroke: #000000; stroke-width: 0.8"/>
      </g>
     </g>
     <g id="text_39">
      <!-- 0 -->
      <g transform="translate(599.3479 491.734725) scale(0.1 -0.1)">
       <use xlink:href="#DejaVuSans-30"/>
      </g>
     </g>
    </g>
    <g id="ytick_20">
     <g id="line2d_99">
      <path d="M 612.7104 441.590878 
L 1089.3312 441.590878 
" clip-path="url(#pc8400370bf)" style="fill: none; stroke: #b0b0b0; stroke-width: 0.8; stroke-linecap: square"/>
     </g>
     <g id="line2d_100">
      <g>
       <use xlink:href="#m163a856478" x="612.7104" y="441.590878" style="stroke: #000000; stroke-width: 0.8"/>
      </g>
     </g>
     <g id="text_40">
      <!-- 1 -->
      <g transform="translate(599.3479 445.390096) scale(0.1 -0.1)">
       <use xlink:href="#DejaVuSans-31"/>
      </g>
     </g>
    </g>
    <g id="ytick_21">
     <g id="line2d_101">
      <path d="M 612.7104 395.246249 
L 1089.3312 395.246249 
" clip-path="url(#pc8400370bf)" style="fill: none; stroke: #b0b0b0; stroke-width: 0.8; stroke-linecap: square"/>
     </g>
     <g id="line2d_102">
      <g>
       <use xlink:href="#m163a856478" x="612.7104" y="395.246249" style="stroke: #000000; stroke-width: 0.8"/>
      </g>
     </g>
     <g id="text_41">
      <!-- 2 -->
      <g transform="translate(599.3479 399.045468) scale(0.1 -0.1)">
       <use xlink:href="#DejaVuSans-32"/>
      </g>
     </g>
    </g>
    <g id="ytick_22">
     <g id="line2d_103">
      <path d="M 612.7104 348.90162 
L 1089.3312 348.90162 
" clip-path="url(#pc8400370bf)" style="fill: none; stroke: #b0b0b0; stroke-width: 0.8; stroke-linecap: square"/>
     </g>
     <g id="line2d_104">
      <g>
       <use xlink:href="#m163a856478" x="612.7104" y="348.90162" style="stroke: #000000; stroke-width: 0.8"/>
      </g>
     </g>
     <g id="text_42">
      <!-- 3 -->
      <g transform="translate(599.3479 352.700839) scale(0.1 -0.1)">
       <use xlink:href="#DejaVuSans-33"/>
      </g>
     </g>
    </g>
    <g id="ytick_23">
     <g id="line2d_105">
      <path d="M 612.7104 302.556991 
L 1089.3312 302.556991 
" clip-path="url(#pc8400370bf)" style="fill: none; stroke: #b0b0b0; stroke-width: 0.8; stroke-linecap: square"/>
     </g>
     <g id="line2d_106">
      <g>
       <use xlink:href="#m163a856478" x="612.7104" y="302.556991" style="stroke: #000000; stroke-width: 0.8"/>
      </g>
     </g>
     <g id="text_43">
      <!-- 4 -->
      <g transform="translate(599.3479 306.35621) scale(0.1 -0.1)">
       <use xlink:href="#DejaVuSans-34"/>
      </g>
     </g>
    </g>
    <g id="text_44">
     <!-- Pitch Rate $Q$ [deg/s] -->
     <g transform="translate(593.2479 438.019486) rotate(-90) scale(0.1 -0.1)">
      <defs>
       <path id="DejaVuSans-52" d="M 2841 2188 
Q 3044 2119 3236 1894 
Q 3428 1669 3622 1275 
L 4263 0 
L 3584 0 
L 2988 1197 
Q 2756 1666 2539 1819 
Q 2322 1972 1947 1972 
L 1259 1972 
L 1259 0 
L 628 0 
L 628 4666 
L 2053 4666 
Q 2853 4666 3247 4331 
Q 3641 3997 3641 3322 
Q 3641 2881 3436 2590 
Q 3231 2300 2841 2188 
z
M 1259 4147 
L 1259 2491 
L 2053 2491 
Q 2509 2491 2742 2702 
Q 2975 2913 2975 3322 
Q 2975 3731 2742 3939 
Q 2509 4147 2053 4147 
L 1259 4147 
z
" transform="scale(0.015625)"/>
       <path id="DejaVuSans-Oblique-51" d="M 2309 -84 
Q 2275 -88 2237 -89 
Q 2200 -91 2125 -91 
Q 1250 -91 756 411 
Q 263 913 263 1797 
Q 263 2319 452 2844 
Q 641 3369 978 3788 
Q 1369 4269 1858 4509 
Q 2347 4750 2938 4750 
Q 3794 4750 4287 4245 
Q 4781 3741 4781 2869 
Q 4781 1928 4265 1147 
Q 3750 366 2919 44 
L 3553 -825 
L 2847 -825 
L 2309 -84 
z
M 2919 4238 
Q 2400 4238 2003 3986 
Q 1606 3734 1313 3219 
Q 1125 2891 1026 2522 
Q 928 2153 928 1778 
Q 928 1128 1239 775 
Q 1550 422 2119 422 
Q 2631 422 3032 676 
Q 3434 931 3719 1434 
Q 3909 1772 4009 2142 
Q 4109 2513 4109 2881 
Q 4109 3528 3796 3883 
Q 3484 4238 2919 4238 
z
" transform="scale(0.015625)"/>
      </defs>
      <use xlink:href="#DejaVuSans-50" transform="translate(0 0.015625)"/>
      <use xlink:href="#DejaVuSans-69" transform="translate(60.302734 0.015625)"/>
      <use xlink:href="#DejaVuSans-74" transform="translate(88.085938 0.015625)"/>
      <use xlink:href="#DejaVuSans-63" transform="translate(127.294922 0.015625)"/>
      <use xlink:href="#DejaVuSans-68" transform="translate(182.275391 0.015625)"/>
      <use xlink:href="#DejaVuSans-20" transform="translate(245.654297 0.015625)"/>
      <use xlink:href="#DejaVuSans-52" transform="translate(277.441406 0.015625)"/>
      <use xlink:href="#DejaVuSans-61" transform="translate(346.923828 0.015625)"/>
      <use xlink:href="#DejaVuSans-74" transform="translate(408.203125 0.015625)"/>
      <use xlink:href="#DejaVuSans-65" transform="translate(447.412109 0.015625)"/>
      <use xlink:href="#DejaVuSans-20" transform="translate(508.935547 0.015625)"/>
      <use xlink:href="#DejaVuSans-Oblique-51" transform="translate(540.722656 0.015625)"/>
      <use xlink:href="#DejaVuSans-20" transform="translate(619.433594 0.015625)"/>
      <use xlink:href="#DejaVuSans-5b" transform="translate(651.220703 0.015625)"/>
      <use xlink:href="#DejaVuSans-64" transform="translate(690.234375 0.015625)"/>
      <use xlink:href="#DejaVuSans-65" transform="translate(753.710938 0.015625)"/>
      <use xlink:href="#DejaVuSans-67" transform="translate(815.234375 0.015625)"/>
      <use xlink:href="#DejaVuSans-2f" transform="translate(878.710938 0.015625)"/>
      <use xlink:href="#DejaVuSans-73" transform="translate(912.402344 0.015625)"/>
      <use xlink:href="#DejaVuSans-5d" transform="translate(964.501953 0.015625)"/>
     </g>
    </g>
   </g>
   <g id="line2d_107">
    <path d="M 634.374982 487.935506 
L 635.415714 478.135301 
L 636.456447 465.941247 
L 637.497179 450.724187 
L 638.884823 426.539336 
L 642.700842 356.37958 
L 644.088485 335.793909 
L 645.129218 323.085773 
L 646.16995 312.735045 
L 647.210683 304.591803 
L 648.251415 298.417872 
L 649.292148 293.936165 
L 649.98597 291.749607 
L 650.679791 290.111786 
L 651.373613 288.950167 
L 652.067435 288.199184 
L 652.761256 287.80061 
L 653.455078 287.703465 
L 654.1489 287.863632 
L 654.842721 288.24327 
L 655.883454 289.155081 
L 656.924186 290.400493 
L 658.31183 292.462941 
L 660.046384 295.521199 
L 662.127849 299.682448 
L 664.903136 305.763542 
L 669.066066 315.487261 
L 682.248677 346.636387 
L 687.105429 357.414857 
L 691.61527 366.918435 
L 696.125111 375.902566 
L 700.288041 383.725043 
L 704.450971 391.097543 
L 708.613901 398.02848 
L 712.776831 404.530598 
L 716.939761 410.619477 
L 721.102691 416.312481 
L 725.265621 421.628016 
L 729.428551 426.584998 
L 733.591481 431.202469 
L 737.754411 435.499316 
L 741.917342 439.494075 
L 746.427182 443.501739 
L 750.937023 447.198161 
L 755.446864 450.604553 
L 759.956705 453.74113 
L 764.813457 456.83923 
L 769.670209 459.669273 
L 774.52696 462.252487 
L 779.730623 464.768843 
L 784.934285 467.047347 
L 790.484859 469.239249 
L 796.382343 471.324065 
L 802.626738 473.285396 
L 809.218044 475.110995 
L 816.156261 476.792678 
L 823.441388 478.326116 
L 831.420338 479.768543 
L 839.746198 481.046678 
L 848.76588 482.209395 
L 858.826294 483.278711 
L 869.927441 484.230444 
L 882.416231 485.072316 
L 896.639575 485.801952 
L 913.291295 486.424457 
L 933.065213 486.933019 
L 957.695883 487.334596 
L 990.305501 487.630571 
L 1038.179197 487.822958 
L 1067.666618 487.874608 
L 1067.666618 487.874608 
" clip-path="url(#pc8400370bf)" style="fill: none; stroke: #000000; stroke-width: 2; stroke-linecap: square"/>
   </g>
   <g id="line2d_108">
    <path d="M 634.374982 487.935506 
L 635.415714 479.850177 
L 636.109536 472.519882 
L 636.803358 463.065127 
L 637.84409 445.115448 
L 639.578644 409.091089 
L 641.660109 366.540113 
L 643.047753 343.344388 
L 644.088485 329.427659 
L 645.129218 318.383901 
L 646.16995 309.881661 
L 647.210683 303.512208 
L 648.251415 298.872109 
L 648.945237 296.561572 
L 649.639059 294.770946 
L 650.33288 293.423415 
L 651.026702 292.453997 
L 651.720524 291.808184 
L 652.414345 291.440451 
L 653.108167 291.312804 
L 653.801989 291.393461 
L 654.49581 291.65573 
L 655.536543 292.34125 
L 656.577275 293.322868 
L 657.964919 295.007557 
L 659.352562 297.03823 
L 661.087116 299.95545 
L 663.168581 303.873846 
L 665.943868 309.589103 
L 669.759887 317.991682 
L 687.45234 357.637842 
L 692.309092 367.669426 
L 696.818933 376.493165 
L 701.328774 384.82265 
L 705.491704 392.068372 
L 709.654634 398.892826 
L 713.817564 405.305182 
L 717.980494 411.318078 
L 722.143424 416.946459 
L 726.306354 422.206745 
L 730.469284 427.116217 
L 734.632214 431.692573 
L 738.795144 435.953598 
L 742.958074 439.91692 
L 747.467915 443.894614 
L 751.977756 447.564571 
L 756.487597 450.947378 
L 760.997438 454.062752 
L 765.854189 457.140219 
L 770.710941 459.951521 
L 775.567693 462.517569 
L 780.771355 465.016998 
L 786.321929 467.422821 
L 791.872502 469.584691 
L 797.769986 471.640293 
L 804.014381 473.573397 
L 810.605687 475.371896 
L 817.543904 477.027732 
L 824.829032 478.536678 
L 832.807981 479.955063 
L 841.133841 481.210877 
L 850.500434 482.392101 
L 860.560848 483.433272 
L 871.661995 484.358782 
L 884.150785 485.176258 
L 898.72104 485.898311 
L 915.719671 486.506564 
L 935.8405 486.997091 
L 961.164991 487.383164 
L 995.162253 487.664603 
L 1046.158146 487.842547 
L 1067.666618 487.876311 
L 1067.666618 487.876311 
" clip-path="url(#pc8400370bf)" style="fill: none; stroke-dasharray: 5.55,2.4; stroke-dashoffset: 0; stroke: #ff0000; stroke-width: 1.5"/>
   </g>
   <g id="line2d_109">
    <path d="M 634.374982 487.935506 
L 635.762625 474.512983 
L 636.803358 461.515815 
L 637.84409 445.47084 
L 639.231734 420.485076 
L 642.353931 362.353953 
L 643.741574 340.798086 
L 644.782307 327.361611 
L 645.823039 316.337758 
L 646.863772 307.598977 
L 647.904504 300.911849 
L 648.945237 295.993664 
L 649.639059 293.55369 
L 650.33288 291.68852 
L 651.026702 290.322304 
L 651.720524 289.386452 
L 652.414345 288.820085 
L 653.108167 288.569967 
L 653.801989 288.590096 
L 654.49581 288.841079 
L 655.189632 289.289402 
L 656.230365 290.271038 
L 657.271097 291.555924 
L 658.65874 293.638155 
L 660.393295 296.687778 
L 662.47476 300.812125 
L 665.250046 306.824659 
L 669.412976 316.43626 
L 682.942499 348.067774 
L 687.799251 358.72678 
L 692.309092 368.126906 
L 696.818933 377.015245 
L 700.981863 384.755991 
L 705.144793 392.052882 
L 709.307723 398.91395 
L 713.470653 405.35153 
L 717.633583 411.380793 
L 721.796513 417.018712 
L 725.959443 422.283326 
L 730.122373 427.193214 
L 734.285303 431.767104 
L 738.448233 436.0236 
L 742.611163 439.980977 
L 747.121004 443.951222 
L 751.630845 447.613161 
L 756.140686 450.987759 
L 760.650527 454.09501 
L 765.507278 457.164054 
L 770.36403 459.96744 
L 775.220782 462.52619 
L 780.424445 465.018555 
L 785.975018 467.417742 
L 791.525591 469.5739 
L 797.423076 471.624409 
L 803.667471 473.553146 
L 810.258777 475.348079 
L 817.196993 477.001187 
L 824.482121 478.508245 
L 832.46107 479.925523 
L 841.133841 481.228923 
L 850.500434 482.402361 
L 860.560848 483.437419 
L 872.008906 484.383817 
L 884.844607 485.211852 
L 899.414862 485.921656 
L 916.413493 486.520453 
L 936.881232 487.010917 
L 962.552634 487.393728 
L 996.896807 487.670701 
L 1048.933433 487.846077 
L 1067.666618 487.875014 
L 1067.666618 487.875014 
" clip-path="url(#pc8400370bf)" style="fill: none; stroke-dasharray: 9.6,2.4,1.5,2.4; stroke-dashoffset: 0; stroke: #0000ff; stroke-width: 1.5"/>
   </g>
   <g id="patch_19">
    <path d="M 612.7104 497.947109 
L 612.7104 277.691863 
" style="fill: none; stroke: #000000; stroke-width: 0.8; stroke-linejoin: miter; stroke-linecap: square"/>
   </g>
   <g id="patch_20">
    <path d="M 1089.3312 497.947109 
L 1089.3312 277.691863 
" style="fill: none; stroke: #000000; stroke-width: 0.8; stroke-linejoin: miter; stroke-linecap: square"/>
   </g>
   <g id="patch_21">
    <path d="M 612.7104 497.947109 
L 1089.3312 497.947109 
" style="fill: none; stroke: #000000; stroke-width: 0.8; stroke-linejoin: miter; stroke-linecap: square"/>
   </g>
   <g id="patch_22">
    <path d="M 612.7104 277.691863 
L 1089.3312 277.691863 
" style="fill: none; stroke: #000000; stroke-width: 0.8; stroke-linejoin: miter; stroke-linecap: square"/>
   </g>
  </g>
 </g>
 <defs>
  <clipPath id="pbe4418e0a6">
   <rect x="72.8832" y="42.025303" width="476.6208" height="220.255246"/>
  </clipPath>
  <clipPath id="pd0f5ff807e">
   <rect x="612.7104" y="42.025303" width="476.6208" height="220.255246"/>
  </clipPath>
  <clipPath id="p0d4e255397">
   <rect x="72.8832" y="277.691863" width="476.6208" height="220.255246"/>
  </clipPath>
  <clipPath id="pc8400370bf">
   <rect x="612.7104" y="277.691863" width="476.6208" height="220.255246"/>
  </clipPath>
 </defs>
</svg>
