<?xml version="1.0" encoding="utf-8" standalone="no"?>
<!DOCTYPE svg PUBLIC "-//W3C//DTD SVG 1.1//EN"
  "http://www.w3.org/Graphics/SVG/1.1/DTD/svg11.dtd">
<svg xmlns:xlink="http://www.w3.org/1999/xlink" width="590.4pt" height="417.6pt" viewBox="0 0 590.4 417.6" xmlns="http://www.w3.org/2000/svg" version="1.1">
 <metadata>
  <rdf:RDF xmlns:dc="http://purl.org/dc/elements/1.1/" xmlns:cc="http://creativecommons.org/ns#" xmlns:rdf="http://www.w3.org/1999/02/22-rdf-syntax-ns#">
   <cc:Work>
    <dc:type rdf:resource="http://purl.org/dc/dcmitype/StillImage"/>
    <dc:date>2026-04-30T21:17:57.595443</dc:date>
    <dc:format>image/svg+xml</dc:format>
    <dc:creator>
     <cc:Agent>
      <dc:title>Matplotlib v3.10.9, https://matplotlib.org/</dc:title>
     </cc:Agent>
    </dc:creator>
   </cc:Work>
  </rdf:RDF>
 </metadata>
 <defs>
  <style type="text/css">*{stroke-linejoin: round; stroke-linecap: butt}</style>
 </defs>
 <g id="figure_1">
  <g id="patch_1">
   <path d="M 0 417.6 
L 590.4 417.6 
L 590.4 0 
L 0 0 
z
" style="fill: #ffffff"/>
  </g>
  <g id="axes_1">
   <g id="patch_2">
    <path d="M 56.09 125.389944 
L 579.6 125.389944 
L 579.6 14.564917 
L 56.09 14.564917 
z
" style="fill: #ffffff"/>
   </g>
   <g id="matplotlib.axis_1">
    <g id="xtick_1">
     <g id="line2d_1">
      <path d="M 79.885909 125.389944 
L 79.885909 14.564917 
" clip-path="url(#pb76f9d7f30)" style="fill: none; stroke: #b0b0b0; stroke-opacity: 0.25; stroke-width: 0.8; stroke-linecap: square"/>
     </g>
     <g id="line2d_2">
      <defs>
       <path id="mba59edcc90" d="M 0 0 
L 0 3.5 
" style="stroke: #000000; stroke-width: 0.8"/>
      </defs>
      <g>
       <use xlink:href="#mba59edcc90" x="79.885909" y="125.389944" style="stroke: #000000; stroke-width: 0.8"/>
      </g>
     </g>
    </g>
    <g id="xtick_2">
     <g id="line2d_3">
      <path d="M 139.375682 125.389944 
L 139.375682 14.564917 
" clip-path="url(#pb76f9d7f30)" style="fill: none; stroke: #b0b0b0; stroke-opacity: 0.25; stroke-width: 0.8; stroke-linecap: square"/>
     </g>
     <g id="line2d_4">
      <g>
       <use xlink:href="#mba59edcc90" x="139.375682" y="125.389944" style="stroke: #000000; stroke-width: 0.8"/>
      </g>
     </g>
    </g>
    <g id="xtick_3">
     <g id="line2d_5">
      <path d="M 198.865455 125.389944 
L 198.865455 14.564917 
" clip-path="url(#pb76f9d7f30)" style="fill: none; stroke: #b0b0b0; stroke-opacity: 0.25; stroke-width: 0.8; stroke-linecap: square"/>
     </g>
     <g id="line2d_6">
      <g>
       <use xlink:href="#mba59edcc90" x="198.865455" y="125.389944" style="stroke: #000000; stroke-width: 0.8"/>
      </g>
     </g>
    </g>
    <g id="xtick_4">
     <g id="line2d_7">
      <path d="M 258.355227 125.389944 
L 258.355227 14.564917 
" clip-path="url(#pb76f9d7f30)" style="fill: none; stroke: #b0b0b0; stroke-opacity: 0.25; stroke-width: 0.8; stroke-linecap: square"/>
     </g>
     <g id="line2d_8">
      <g>
       <use xlink:href="#mba59edcc90" x="258.355227" y="125.389944" style="stroke: #000000; stroke-width: 0.8"/>
      </g>
     </g>
    </g>
    <g id="xtick_5">
     <g id="line2d_9">
      <path d="M 317.845 125.389944 
L 317.845 14.564917 
" clip-path="url(#pb76f9d7f30)" style="fill: none; stroke: #b0b0b0; stroke-opacity: 0.25; stroke-width: 0.8; stroke-linecap: square"/>
     </g>
     <g id="line2d_10">
      <g>
       <use xlink:href="#mba59edcc90" x="317.845" y="125.389944" style="stroke: #000000; stroke-width: 0.8"/>
      </g>
     </g>
    </g>
    <g id="xtick_6">
     <g id="line2d_11">
      <path d="M 377.334773 125.389944 
L 377.334773 14.564917 
" clip-path="url(#pb76f9d7f30)" style="fill: none; stroke: #b0b0b0; stroke-opacity: 0.25; stroke-width: 0.8; stroke-linecap: square"/>
     </g>
     <g id="line2d_12">
      <g>
       <use xlink:href="#mba59edcc90" x="377.334773" y="125.389944" style="stroke: #000000; stroke-width: 0.8"/>
      </g>
     </g>
    </g>
    <g id="xtick_7">
     <g id="line2d_13">
      <path d="M 436.824545 125.389944 
L 436.824545 14.564917 
" clip-path="url(#pb76f9d7f30)" style="fill: none; stroke: #b0b0b0; stroke-opacity: 0.25; stroke-width: 0.8; stroke-linecap: square"/>
     </g>
     <g id="line2d_14">
      <g>
       <use xlink:href="#mba59edcc90" x="436.824545" y="125.389944" style="stroke: #000000; stroke-width: 0.8"/>
      </g>
     </g>
    </g>
    <g id="xtick_8">
     <g id="line2d_15">
      <path d="M 496.314318 125.389944 
L 496.314318 14.564917 
" clip-path="url(#pb76f9d7f30)" style="fill: none; stroke: #b0b0b0; stroke-opacity: 0.25; stroke-width: 0.8; stroke-linecap: square"/>
     </g>
     <g id="line2d_16">
      <g>
       <use xlink:href="#mba59edcc90" x="496.314318" y="125.389944" style="stroke: #000000; stroke-width: 0.8"/>
      </g>
     </g>
    </g>
    <g id="xtick_9">
     <g id="line2d_17">
      <path d="M 555.804091 125.389944 
L 555.804091 14.564917 
" clip-path="url(#pb76f9d7f30)" style="fill: none; stroke: #b0b0b0; stroke-opacity: 0.25; stroke-width: 0.8; stroke-linecap: square"/>
     </g>
     <g id="line2d_18">
      <g>
       <use xlink:href="#mba59edcc90" x="555.804091" y="125.389944" style="stroke: #000000; stroke-width: 0.8"/>
      </g>
     </g>
    </g>
   </g>
   <g id="matplotlib.axis_2">
    <g id="ytick_1">
     <g id="line2d_19">
      <path d="M 56.09 98.215908 
L 579.6 98.215908 
" clip-path="url(#pb76f9d7f30)" style="fill: none; stroke: #b0b0b0; stroke-opacity: 0.25; stroke-width: 0.8; stroke-linecap: square"/>
     </g>
     <g id="line2d_20">
      <defs>
       <path id="m101a767b1d" d="M 0 0 
L -3.5 0 
" style="stroke: #000000; stroke-width: 0.8"/>
      </defs>
      <g>
       <use xlink:href="#m101a767b1d" x="56.09" y="98.215908" style="stroke: #000000; stroke-width: 0.8"/>
      </g>
     </g>
     <g id="text_1">
      <!-- −0.4 -->
      <g transform="translate(24.807188 102.015127) scale(0.1 -0.1)">
       <defs>
        <path id="DejaVuSans-2212" d="M 678 2272 
L 4684 2272 
L 4684 1741 
L 678 1741 
L 678 2272 
z
" transform="scale(0.015625)"/>
        <path id="DejaVuSans-30" d="M 2034 4250 
Q 1547 4250 1301 3770 
Q 1056 3291 1056 2328 
Q 1056 1369 1301 889 
Q 1547 409 2034 409 
Q 2525 409 2770 889 
Q 3016 1369 3016 2328 
Q 3016 3291 2770 3770 
Q 2525 4250 2034 4250 
z
M 2034 4750 
Q 2819 4750 3233 4129 
Q 3647 3509 3647 2328 
Q 3647 1150 3233 529 
Q 2819 -91 2034 -91 
Q 1250 -91 836 529 
Q 422 1150 422 2328 
Q 422 3509 836 4129 
Q 1250 4750 2034 4750 
z
" transform="scale(0.015625)"/>
        <path id="DejaVuSans-2e" d="M 684 794 
L 1344 794 
L 1344 0 
L 684 0 
L 684 794 
z
" transform="scale(0.015625)"/>
        <path id="DejaVuSans-34" d="M 2419 4116 
L 825 1625 
L 2419 1625 
L 2419 4116 
z
M 2253 4666 
L 3047 4666 
L 3047 1625 
L 3713 1625 
L 3713 1100 
L 3047 1100 
L 3047 0 
L 2419 0 
L 2419 1100 
L 313 1100 
L 313 1709 
L 2253 4666 
z
" transform="scale(0.015625)"/>
       </defs>
       <use xlink:href="#DejaVuSans-2212"/>
       <use xlink:href="#DejaVuSans-30" transform="translate(83.789062 0)"/>
       <use xlink:href="#DejaVuSans-2e" transform="translate(147.412109 0)"/>
       <use xlink:href="#DejaVuSans-34" transform="translate(179.199219 0)"/>
      </g>
     </g>
    </g>
    <g id="ytick_2">
     <g id="line2d_21">
      <path d="M 56.09 70.408446 
L 579.6 70.408446 
" clip-path="url(#pb76f9d7f30)" style="fill: none; stroke: #b0b0b0; stroke-opacity: 0.25; stroke-width: 0.8; stroke-linecap: square"/>
     </g>
     <g id="line2d_22">
      <g>
       <use xlink:href="#m101a767b1d" x="56.09" y="70.408446" style="stroke: #000000; stroke-width: 0.8"/>
      </g>
     </g>
     <g id="text_2">
      <!-- −0.2 -->
      <g transform="translate(24.807188 74.207665) scale(0.1 -0.1)">
       <defs>
        <path id="DejaVuSans-32" d="M 1228 531 
L 3431 531 
L 3431 0 
L 469 0 
L 469 531 
Q 828 903 1448 1529 
Q 2069 2156 2228 2338 
Q 2531 2678 2651 2914 
Q 2772 3150 2772 3378 
Q 2772 3750 2511 3984 
Q 2250 4219 1831 4219 
Q 1534 4219 1204 4116 
Q 875 4013 500 3803 
L 500 4441 
Q 881 4594 1212 4672 
Q 1544 4750 1819 4750 
Q 2544 4750 2975 4387 
Q 3406 4025 3406 3419 
Q 3406 3131 3298 2873 
Q 3191 2616 2906 2266 
Q 2828 2175 2409 1742 
Q 1991 1309 1228 531 
z
" transform="scale(0.015625)"/>
       </defs>
       <use xlink:href="#DejaVuSans-2212"/>
       <use xlink:href="#DejaVuSans-30" transform="translate(83.789062 0)"/>
       <use xlink:href="#DejaVuSans-2e" transform="translate(147.412109 0)"/>
       <use xlink:href="#DejaVuSans-32" transform="translate(179.199219 0)"/>
      </g>
     </g>
    </g>
    <g id="ytick_3">
     <g id="line2d_23">
      <path d="M 56.09 42.600984 
L 579.6 42.600984 
" clip-path="url(#pb76f9d7f30)" style="fill: none; stroke: #b0b0b0; stroke-opacity: 0.25; stroke-width: 0.8; stroke-linecap: square"/>
     </g>
     <g id="line2d_24">
      <g>
       <use xlink:href="#m101a767b1d" x="56.09" y="42.600984" style="stroke: #000000; stroke-width: 0.8"/>
      </g>
     </g>
     <g id="text_3">
      <!-- 0.0 -->
      <g transform="translate(33.186875 46.400203) scale(0.1 -0.1)">
       <use xlink:href="#DejaVuSans-30"/>
       <use xlink:href="#DejaVuSans-2e" transform="translate(63.623047 0)"/>
       <use xlink:href="#DejaVuSans-30" transform="translate(95.410156 0)"/>
      </g>
     </g>
    </g>
    <g id="ytick_4">
     <g id="line2d_25">
      <path d="M 56.09 14.793522 
L 579.6 14.793522 
" clip-path="url(#pb76f9d7f30)" style="fill: none; stroke: #b0b0b0; stroke-opacity: 0.25; stroke-width: 0.8; stroke-linecap: square"/>
     </g>
     <g id="line2d_26">
      <g>
       <use xlink:href="#m101a767b1d" x="56.09" y="14.793522" style="stroke: #000000; stroke-width: 0.8"/>
      </g>
     </g>
     <g id="text_4">
      <!-- 0.2 -->
      <g transform="translate(33.186875 18.59274) scale(0.1 -0.1)">
       <use xlink:href="#DejaVuSans-30"/>
       <use xlink:href="#DejaVuSans-2e" transform="translate(63.623047 0)"/>
       <use xlink:href="#DejaVuSans-32" transform="translate(95.410156 0)"/>
      </g>
     </g>
    </g>
    <g id="text_5">
     <!-- C_L -->
     <g transform="translate(18.449375 78.754774) rotate(-90) scale(0.1 -0.1)">
      <defs>
       <path id="DejaVuSans-43" d="M 4122 4306 
L 4122 3641 
Q 3803 3938 3442 4084 
Q 3081 4231 2675 4231 
Q 1875 4231 1450 3742 
Q 1025 3253 1025 2328 
Q 1025 1406 1450 917 
Q 1875 428 2675 428 
Q 3081 428 3442 575 
Q 3803 722 4122 1019 
L 4122 359 
Q 3791 134 3420 21 
Q 3050 -91 2638 -91 
Q 1578 -91 968 557 
Q 359 1206 359 2328 
Q 359 3453 968 4101 
Q 1578 4750 2638 4750 
Q 3056 4750 3426 4639 
Q 3797 4528 4122 4306 
z
" transform="scale(0.015625)"/>
       <path id="DejaVuSans-5f" d="M 3263 -1063 
L 3263 -1509 
L -63 -1509 
L -63 -1063 
L 3263 -1063 
z
" transform="scale(0.015625)"/>
       <path id="DejaVuSans-4c" d="M 628 4666 
L 1259 4666 
L 1259 531 
L 3531 531 
L 3531 0 
L 628 0 
L 628 4666 
z
" transform="scale(0.015625)"/>
      </defs>
      <use xlink:href="#DejaVuSans-43"/>
      <use xlink:href="#DejaVuSans-5f" transform="translate(69.824219 0)"/>
      <use xlink:href="#DejaVuSans-4c" transform="translate(119.824219 0)"/>
     </g>
    </g>
   </g>
   <g id="line2d_27">
    <path d="M 79.885909 39.346569 
L 80.123868 39.396571 
L 80.718766 39.93721 
L 81.551623 40.587789 
L 82.503459 41.005013 
L 84.050193 41.391691 
L 88.095498 42.095086 
L 91.902843 42.562418 
L 95.35325 42.75898 
L 98.922636 42.736726 
L 102.373043 42.490946 
L 106.418348 41.957395 
L 112.129366 41.202677 
L 115.222834 41.037022 
L 118.197323 41.107331 
L 121.290791 41.407067 
L 126.64487 42.206864 
L 130.690175 42.689255 
L 133.426705 42.815814 
L 134.973439 42.693661 
L 136.163234 42.372148 
L 140.327518 40.717697 
L 143.064048 39.598952 
L 145.0867 39.253508 
L 146.871393 38.752253 
L 150.44078 38.122521 
L 153.415268 37.456193 
L 156.032818 36.639842 
L 158.17445 35.740401 
L 159.959143 34.759935 
L 161.386898 33.762577 
L 162.695673 32.613456 
L 165.313223 31.490818 
L 166.265059 30.669962 
L 166.859957 29.642015 
L 167.811793 27.416907 
L 169.715466 22.963137 
L 170.548323 21.343237 
L 171.2622 20.458141 
L 171.976077 19.894539 
L 172.570975 19.673429 
L 173.046893 19.722656 
L 173.403832 19.944346 
L 173.76077 20.375329 
L 174.236689 21.371696 
L 174.712607 22.986691 
L 175.188525 25.376263 
L 175.783423 29.667264 
L 176.37832 35.571444 
L 177.211177 46.490782 
L 178.519952 67.69706 
L 179.709748 85.961918 
L 180.304645 92.540056 
L 180.780564 95.779461 
L 181.137502 96.773782 
L 181.256482 96.806797 
L 181.375461 96.681595 
L 181.61342 95.925705 
L 181.970359 93.398254 
L 182.327298 89.022092 
L 182.803216 80.113561 
L 183.398114 64.047125 
L 184.587909 28.481988 
L 184.825868 25.606903 
L 184.944848 25.08158 
L 185.063827 25.087868 
L 185.301786 26.27406 
L 186.491582 35.133318 
L 186.9675 36.7716 
L 187.443418 37.667112 
L 187.919336 38.117784 
L 188.514234 38.321709 
L 189.347091 38.507953 
L 190.417907 39.230333 
L 192.08362 40.000324 
L 193.154436 40.499505 
L 193.392395 40.392872 
L 194.582191 39.132278 
L 195.534027 38.926369 
L 196.842802 38.867173 
L 197.4377 38.971123 
L 197.913618 39.291381 
L 198.627495 39.767287 
L 199.341373 39.946744 
L 200.17423 39.8823 
L 201.839943 39.635924 
L 204.457493 39.673432 
L 206.242186 39.647078 
L 216.950345 39.932609 
L 222.661364 39.765114 
L 227.539525 39.40957 
L 231.34687 38.921126 
L 234.321359 38.330904 
L 236.81993 37.610392 
L 238.842582 36.800481 
L 240.627275 35.84478 
L 242.05503 34.832007 
L 243.482784 33.622625 
L 244.315641 33.1891 
L 245.029518 32.411696 
L 246.933191 29.8312 
L 248.479925 27.434097 
L 249.66972 25.175227 
L 250.145639 24.431762 
L 250.502577 24.326649 
L 251.573393 24.220369 
L 252.40625 23.805705 
L 253.715025 23.101833 
L 254.071964 23.125123 
L 254.428902 23.376392 
L 254.785841 23.951453 
L 255.14278 24.942493 
L 255.618698 26.996515 
L 256.332575 31.294159 
L 256.808493 35.689649 
L 257.403391 43.962731 
L 258.236248 59.248581 
L 260.13992 95.591951 
L 260.734818 103.238802 
L 261.210736 106.733274 
L 261.448695 107.397247 
L 261.567675 107.429851 
L 261.686655 107.253777 
L 261.924614 106.254034 
L 262.281552 103.08616 
L 262.75747 95.672366 
L 263.352368 81.730212 
L 264.185225 55.150611 
L 265.018082 28.673269 
L 265.37502 23.187559 
L 265.61298 22.428438 
L 265.731959 22.75206 
L 266.088898 25.26862 
L 266.802775 30.767414 
L 267.278693 32.864112 
L 267.754611 33.920467 
L 268.11155 34.241665 
L 268.468489 34.274788 
L 268.825427 34.091447 
L 269.420325 33.450965 
L 271.561957 30.642164 
L 272.156855 30.383373 
L 272.632773 30.402073 
L 273.22767 30.65966 
L 274.060527 31.309183 
L 277.748893 34.533625 
L 279.414607 35.547829 
L 281.1993 36.379414 
L 283.221952 37.078065 
L 285.601543 37.652507 
L 288.338073 38.075583 
L 291.55052 38.343245 
L 295.238886 38.425573 
L 299.165211 38.28896 
L 302.734598 37.950157 
L 305.828066 37.44047 
L 308.445616 36.787402 
L 310.587248 36.03845 
L 312.49092 35.14831 
L 314.156634 34.138109 
L 315.703368 32.950038 
L 317.131123 31.587032 
L 318.558877 29.917892 
L 319.986632 27.904588 
L 321.652345 25.133636 
L 324.388875 20.471631 
L 325.102752 19.77547 
L 325.57867 19.602418 
L 325.935609 19.694653 
L 326.292548 20.039014 
L 326.649486 20.700082 
L 327.125405 22.192775 
L 327.601323 24.562276 
L 328.077241 28.014544 
L 328.672139 34.095012 
L 329.386016 44.134378 
L 330.218873 59.284885 
L 332.955402 112.776788 
L 333.43132 117.811662 
L 333.788259 119.88991 
L 334.026218 120.352443 
L 334.145198 120.28553 
L 334.383157 119.499968 
L 334.740095 116.598933 
L 335.097034 111.599359 
L 335.572952 101.528311 
L 336.16785 83.444598 
L 337.119686 45.13818 
L 337.595605 29.788042 
L 337.833564 26.582702 
L 337.952543 26.241296 
L 338.071523 26.587188 
L 338.428461 29.889926 
L 339.023359 35.583861 
L 339.499277 38.110768 
L 339.975195 39.37886 
L 340.451114 39.953386 
L 340.927032 40.138045 
L 341.40295 40.078954 
L 341.997848 39.767569 
L 342.830705 39.032533 
L 344.615398 37.357132 
L 346.994989 35.861209 
L 347.708866 35.630331 
L 348.422743 35.637484 
L 349.37458 35.905745 
L 354.4907 37.770663 
L 356.037434 38.041885 
L 359.011923 38.578568 
L 362.34335 38.892867 
L 367.221511 38.85995 
L 368.292327 38.846886 
L 370.07702 38.922389 
L 375.074161 38.461737 
L 375.907018 38.16563 
L 376.977834 38.184155 
L 379.476405 38.187355 
L 380.6662 37.791681 
L 385.9013 35.727617 
L 387.685993 34.715075 
L 389.351707 33.514784 
L 390.898441 32.124375 
L 392.445175 30.413932 
L 393.87293 28.508551 
L 395.419664 26.074943 
L 398.87007 20.38593 
L 399.464968 19.846474 
L 399.940886 19.688276 
L 400.297825 19.785431 
L 400.654764 20.115527 
L 401.011702 20.72756 
L 401.48762 22.074965 
L 401.963539 24.151353 
L 402.558436 27.962015 
L 403.153334 33.286504 
L 403.867211 41.71019 
L 404.819048 55.757819 
L 406.8417 86.625084 
L 407.436598 92.741394 
L 407.912516 95.680579 
L 408.150475 96.367188 
L 408.388434 96.473403 
L 408.626393 95.959944 
L 408.864352 94.792095 
L 409.221291 91.750948 
L 409.697209 85.188889 
L 410.292107 72.929776 
L 411.124964 49.44638 
L 411.95782 27.075942 
L 412.314759 22.761734 
L 412.552718 22.208933 
L 412.790677 22.996351 
L 414.218432 30.951755 
L 414.69435 31.899515 
L 415.051289 32.1783 
L 415.408227 32.191413 
L 415.884145 31.921306 
L 416.598023 31.182741 
L 417.668839 30.073026 
L 418.263736 29.73718 
L 418.858634 29.677797 
L 419.453532 29.874597 
L 420.167409 30.362938 
L 421.595164 31.704927 
L 423.498836 33.410428 
L 425.16455 34.580832 
L 426.949243 35.550857 
L 428.852916 36.333953 
L 430.994548 36.975413 
L 433.493118 37.484043 
L 436.348627 37.835035 
L 439.680055 38.016147 
L 443.36842 37.987422 
L 446.937807 37.74257 
L 450.150255 37.308772 
L 452.886784 36.72789 
L 455.266375 36.004545 
L 457.170048 35.205035 
L 459.549639 34.010731 
L 460.263516 33.935379 
L 460.858414 34.123829 
L 461.453311 34.573815 
L 462.405148 35.650944 
L 463.475964 36.796573 
L 464.30882 37.362706 
L 465.022698 37.602158 
L 465.855555 37.628842 
L 466.688411 37.427812 
L 467.759227 36.925813 
L 471.090655 35.18261 
L 478.943305 31.757321 
L 480.846977 31.146997 
L 481.441875 30.961636 
L 482.036773 30.891429 
L 482.512691 30.529111 
L 483.107589 29.669454 
L 484.535343 27.334279 
L 487.747791 23.374781 
L 488.342689 23.044252 
L 488.937586 22.939081 
L 489.651464 23.034036 
L 490.72228 23.433769 
L 494.291666 24.923995 
L 497.504114 25.898677 
L 500.835541 26.703947 
L 503.81003 27.203515 
L 506.784518 27.481022 
L 509.759007 27.537885 
L 512.852475 27.371991 
L 516.064923 26.974066 
L 519.51533 26.322386 
L 523.798593 25.27202 
L 533.435936 22.813635 
L 536.648384 22.281297 
L 539.622873 22.013169 
L 540.21777 22.238148 
L 540.812668 22.741245 
L 541.407566 23.575802 
L 542.240423 25.206091 
L 544.144095 29.076225 
L 545.214911 30.660939 
L 546.285727 31.819775 
L 547.356543 32.659284 
L 548.784298 33.474237 
L 551.520827 34.699084 
L 555.804091 36.651568 
L 555.804091 36.651568 
" clip-path="url(#pb76f9d7f30)" style="fill: none; stroke: #000000; stroke-width: 1.4; stroke-linecap: square"/>
   </g>
   <g id="line2d_28">
    <path d="M 79.885909 37.5607 
L 80.480807 37.665324 
L 81.313664 38.518441 
L 82.503459 39.225761 
L 87.5006 41.039666 
L 89.99917 41.662959 
L 92.61672 42.078621 
L 95.591209 42.320968 
L 99.755493 42.41376 
L 135.330377 42.510223 
L 138.304866 42.392593 
L 157.936491 42.403179 
L 166.0271 42.224515 
L 167.335875 42.089399 
L 172.570975 41.663741 
L 175.307505 41.132009 
L 181.7324 39.734297 
L 182.565257 39.874287 
L 183.279134 40.202996 
L 184.46893 41.020246 
L 185.420766 41.976484 
L 189.109132 46.09605 
L 189.58505 46.189677 
L 190.179948 46.850634 
L 191.369743 48.162101 
L 192.678518 49.234454 
L 193.035457 49.624756 
L 193.630355 50.45486 
L 194.225252 50.685691 
L 195.771986 50.980959 
L 197.199741 51.056176 
L 198.627495 50.899077 
L 200.531168 50.81537 
L 201.483005 50.589507 
L 202.315861 50.185372 
L 203.505657 49.314232 
L 206.123207 47.029815 
L 209.811573 43.936736 
L 211.715245 42.593791 
L 213.26198 41.767804 
L 214.808714 41.202972 
L 216.474427 40.837913 
L 218.616059 40.609288 
L 221.947486 40.504928 
L 231.703809 40.546847 
L 240.627275 40.467908 
L 242.649927 40.324866 
L 243.244825 40.394886 
L 243.720743 40.500694 
L 249.431761 40.14955 
L 250.145639 38.934019 
L 250.621557 39.118751 
L 251.930332 39.738647 
L 252.882168 39.891879 
L 254.071964 39.846209 
L 255.499718 39.752752 
L 255.975636 40.04191 
L 256.332575 40.140926 
L 257.046452 39.897984 
L 257.76033 39.738679 
L 258.474207 39.812248 
L 259.901961 40.274704 
L 261.091757 40.514115 
L 262.162573 40.463512 
L 264.542164 40.286158 
L 266.326857 40.437183 
L 268.349509 40.954724 
L 270.7291 41.474557 
L 273.46563 41.813831 
L 288.813991 43.371575 
L 297.499498 44.304804 
L 302.496639 44.609377 
L 307.25582 44.674033 
L 312.133982 44.514204 
L 318.320918 44.070115 
L 326.887445 43.236587 
L 328.077241 42.864237 
L 329.029077 42.355581 
L 332.122545 40.417583 
L 333.193361 40.190066 
L 334.502136 40.146693 
L 336.643768 40.34777 
L 340.927032 40.737733 
L 343.544582 40.719723 
L 345.210295 40.532028 
L 346.994989 40.353196 
L 351.397232 40.372245 
L 364.9609 40.483754 
L 368.173348 40.842229 
L 369.363143 41.094473 
L 371.504775 41.581652 
L 374.241305 42.437737 
L 374.955182 42.633698 
L 375.31212 42.557332 
L 376.144977 42.89507 
L 378.524568 44.015358 
L 378.762527 44.16794 
L 381.023139 44.91386 
L 385.663341 46.485189 
L 388.042932 47.029191 
L 390.303543 47.319457 
L 392.564155 47.387952 
L 395.062725 47.231786 
L 397.680275 46.844716 
L 400.416805 46.21162 
L 403.272314 45.317183 
L 406.127823 44.191144 
L 411.124964 42.155805 
L 413.504555 41.480401 
L 416.003125 41.004887 
L 419.096593 40.657275 
L 423.022918 40.450712 
L 428.852916 40.392463 
L 442.535564 40.511793 
L 445.866991 40.785795 
L 448.60352 41.23865 
L 451.22107 41.906865 
L 454.07658 42.877181 
L 458.835761 44.554603 
L 460.025557 44.684769 
L 461.572291 44.571932 
L 462.881066 44.55587 
L 464.30882 44.788196 
L 466.450452 45.146543 
L 467.521268 45.073024 
L 468.354125 44.798403 
L 469.186982 44.297967 
L 473.113307 41.528216 
L 474.184123 41.093872 
L 475.01698 40.968229 
L 475.968816 41.071273 
L 477.991468 41.645693 
L 479.538202 41.943414 
L 480.846977 41.978281 
L 483.226568 41.73101 
L 484.892282 41.390275 
L 485.3682 41.298772 
L 486.201057 41.060852 
L 487.271873 41.022818 
L 490.008402 41.283023 
L 492.982891 41.429582 
L 500.716561 41.472666 
L 506.18962 41.26507 
L 512.852475 40.763203 
L 517.492677 40.493928 
L 519.872268 40.590997 
L 521.775941 40.883842 
L 523.322675 41.338637 
L 524.988389 42.069827 
L 527.249 43.334213 
L 534.98267 47.828162 
L 537.005323 48.667094 
L 538.433077 49.049764 
L 540.45573 49.344901 
L 542.121443 49.377302 
L 544.144095 49.180721 
L 545.45287 48.855444 
L 546.642666 48.344767 
L 547.832461 47.596775 
L 549.141236 46.498694 
L 550.568991 44.984794 
L 553.30552 41.902948 
L 554.138377 41.398698 
L 554.971234 41.170997 
L 555.804091 41.139377 
L 555.804091 41.139377 
" clip-path="url(#pb76f9d7f30)" style="fill: none; stroke: #e45756; stroke-width: 1.1; stroke-linecap: square"/>
   </g>
   <g id="patch_3">
    <path d="M 56.09 125.389944 
L 56.09 14.564917 
" style="fill: none; stroke: #000000; stroke-width: 0.8; stroke-linejoin: miter; stroke-linecap: square"/>
   </g>
   <g id="patch_4">
    <path d="M 579.6 125.389944 
L 579.6 14.564917 
" style="fill: none; stroke: #000000; stroke-width: 0.8; stroke-linejoin: miter; stroke-linecap: square"/>
   </g>
   <g id="patch_5">
    <path d="M 56.09 125.389944 
L 579.6 125.389944 
" style="fill: none; stroke: #000000; stroke-width: 0.8; stroke-linejoin: miter; stroke-linecap: square"/>
   </g>
   <g id="patch_6">
    <path d="M 56.09 14.564917 
L 579.6 14.564917 
" style="fill: none; stroke: #000000; stroke-width: 0.8; stroke-linejoin: miter; stroke-linecap: square"/>
   </g>
   <g id="legend_1">
    <g id="line2d_29">
     <path d="M 451.289062 96.132132 
L 461.289062 96.132132 
L 471.289062 96.132132 
" style="fill: none; stroke: #000000; stroke-width: 1.4; stroke-linecap: square"/>
    </g>
    <g id="text_6">
     <!-- True residual -->
     <g transform="translate(479.289062 99.632132) scale(0.1 -0.1)">
      <defs>
       <path id="DejaVuSans-54" d="M -19 4666 
L 3928 4666 
L 3928 4134 
L 2272 4134 
L 2272 0 
L 1638 0 
L 1638 4134 
L -19 4134 
L -19 4666 
z
" transform="scale(0.015625)"/>
       <path id="DejaVuSans-72" d="M 2631 2963 
Q 2534 3019 2420 3045 
Q 2306 3072 2169 3072 
Q 1681 3072 1420 2755 
Q 1159 2438 1159 1844 
L 1159 0 
L 581 0 
L 581 3500 
L 1159 3500 
L 1159 2956 
Q 1341 3275 1631 3429 
Q 1922 3584 2338 3584 
Q 2397 3584 2469 3576 
Q 2541 3569 2628 3553 
L 2631 2963 
z
" transform="scale(0.015625)"/>
       <path id="DejaVuSans-75" d="M 544 1381 
L 544 3500 
L 1119 3500 
L 1119 1403 
Q 1119 906 1312 657 
Q 1506 409 1894 409 
Q 2359 409 2629 706 
Q 2900 1003 2900 1516 
L 2900 3500 
L 3475 3500 
L 3475 0 
L 2900 0 
L 2900 538 
Q 2691 219 2414 64 
Q 2138 -91 1772 -91 
Q 1169 -91 856 284 
Q 544 659 544 1381 
z
M 1991 3584 
L 1991 3584 
z
" transform="scale(0.015625)"/>
       <path id="DejaVuSans-65" d="M 3597 1894 
L 3597 1613 
L 953 1613 
Q 991 1019 1311 708 
Q 1631 397 2203 397 
Q 2534 397 2845 478 
Q 3156 559 3463 722 
L 3463 178 
Q 3153 47 2828 -22 
Q 2503 -91 2169 -91 
Q 1331 -91 842 396 
Q 353 884 353 1716 
Q 353 2575 817 3079 
Q 1281 3584 2069 3584 
Q 2775 3584 3186 3129 
Q 3597 2675 3597 1894 
z
M 3022 2063 
Q 3016 2534 2758 2815 
Q 2500 3097 2075 3097 
Q 1594 3097 1305 2825 
Q 1016 2553 972 2059 
L 3022 2063 
z
" transform="scale(0.015625)"/>
       <path id="DejaVuSans-20" transform="scale(0.015625)"/>
       <path id="DejaVuSans-73" d="M 2834 3397 
L 2834 2853 
Q 2591 2978 2328 3040 
Q 2066 3103 1784 3103 
Q 1356 3103 1142 2972 
Q 928 2841 928 2578 
Q 928 2378 1081 2264 
Q 1234 2150 1697 2047 
L 1894 2003 
Q 2506 1872 2764 1633 
Q 3022 1394 3022 966 
Q 3022 478 2636 193 
Q 2250 -91 1575 -91 
Q 1294 -91 989 -36 
Q 684 19 347 128 
L 347 722 
Q 666 556 975 473 
Q 1284 391 1588 391 
Q 1994 391 2212 530 
Q 2431 669 2431 922 
Q 2431 1156 2273 1281 
Q 2116 1406 1581 1522 
L 1381 1569 
Q 847 1681 609 1914 
Q 372 2147 372 2553 
Q 372 3047 722 3315 
Q 1072 3584 1716 3584 
Q 2034 3584 2315 3537 
Q 2597 3491 2834 3397 
z
" transform="scale(0.015625)"/>
       <path id="DejaVuSans-69" d="M 603 3500 
L 1178 3500 
L 1178 0 
L 603 0 
L 603 3500 
z
M 603 4863 
L 1178 4863 
L 1178 4134 
L 603 4134 
L 603 4863 
z
" transform="scale(0.015625)"/>
       <path id="DejaVuSans-64" d="M 2906 2969 
L 2906 4863 
L 3481 4863 
L 3481 0 
L 2906 0 
L 2906 525 
Q 2725 213 2448 61 
Q 2172 -91 1784 -91 
Q 1150 -91 751 415 
Q 353 922 353 1747 
Q 353 2572 751 3078 
Q 1150 3584 1784 3584 
Q 2172 3584 2448 3432 
Q 2725 3281 2906 2969 
z
M 947 1747 
Q 947 1113 1208 752 
Q 1469 391 1925 391 
Q 2381 391 2643 752 
Q 2906 1113 2906 1747 
Q 2906 2381 2643 2742 
Q 2381 3103 1925 3103 
Q 1469 3103 1208 2742 
Q 947 2381 947 1747 
z
" transform="scale(0.015625)"/>
       <path id="DejaVuSans-61" d="M 2194 1759 
Q 1497 1759 1228 1600 
Q 959 1441 959 1056 
Q 959 750 1161 570 
Q 1363 391 1709 391 
Q 2188 391 2477 730 
Q 2766 1069 2766 1631 
L 2766 1759 
L 2194 1759 
z
M 3341 1997 
L 3341 0 
L 2766 0 
L 2766 531 
Q 2569 213 2275 61 
Q 1981 -91 1556 -91 
Q 1019 -91 701 211 
Q 384 513 384 1019 
Q 384 1609 779 1909 
Q 1175 2209 1959 2209 
L 2766 2209 
L 2766 2266 
Q 2766 2663 2505 2880 
Q 2244 3097 1772 3097 
Q 1472 3097 1187 3025 
Q 903 2953 641 2809 
L 641 3341 
Q 956 3463 1253 3523 
Q 1550 3584 1831 3584 
Q 2591 3584 2966 3190 
Q 3341 2797 3341 1997 
z
" transform="scale(0.015625)"/>
       <path id="DejaVuSans-6c" d="M 603 4863 
L 1178 4863 
L 1178 0 
L 603 0 
L 603 4863 
z
" transform="scale(0.015625)"/>
      </defs>
      <use xlink:href="#DejaVuSans-54"/>
      <use xlink:href="#DejaVuSans-72" transform="translate(46.333984 0)"/>
      <use xlink:href="#DejaVuSans-75" transform="translate(87.447266 0)"/>
      <use xlink:href="#DejaVuSans-65" transform="translate(150.826172 0)"/>
      <use xlink:href="#DejaVuSans-20" transform="translate(212.349609 0)"/>
      <use xlink:href="#DejaVuSans-72" transform="translate(244.136719 0)"/>
      <use xlink:href="#DejaVuSans-65" transform="translate(283 0)"/>
      <use xlink:href="#DejaVuSans-73" transform="translate(344.523438 0)"/>
      <use xlink:href="#DejaVuSans-69" transform="translate(396.623047 0)"/>
      <use xlink:href="#DejaVuSans-64" transform="translate(424.40625 0)"/>
      <use xlink:href="#DejaVuSans-75" transform="translate(487.882812 0)"/>
      <use xlink:href="#DejaVuSans-61" transform="translate(551.261719 0)"/>
      <use xlink:href="#DejaVuSans-6c" transform="translate(612.541016 0)"/>
     </g>
    </g>
    <g id="line2d_30">
     <path d="M 451.289062 110.810257 
L 461.289062 110.810257 
L 471.289062 110.810257 
" style="fill: none; stroke: #e45756; stroke-width: 1.1; stroke-linecap: square"/>
    </g>
    <g id="text_7">
     <!-- PINN-CoeffClosure -->
     <g transform="translate(479.289062 114.310257) scale(0.1 -0.1)">
      <defs>
       <path id="DejaVuSans-50" d="M 1259 4147 
L 1259 2394 
L 2053 2394 
Q 2494 2394 2734 2622 
Q 2975 2850 2975 3272 
Q 2975 3691 2734 3919 
Q 2494 4147 2053 4147 
L 1259 4147 
z
M 628 4666 
L 2053 4666 
Q 2838 4666 3239 4311 
Q 3641 3956 3641 3272 
Q 3641 2581 3239 2228 
Q 2838 1875 2053 1875 
L 1259 1875 
L 1259 0 
L 628 0 
L 628 4666 
z
" transform="scale(0.015625)"/>
       <path id="DejaVuSans-49" d="M 628 4666 
L 1259 4666 
L 1259 0 
L 628 0 
L 628 4666 
z
" transform="scale(0.015625)"/>
       <path id="DejaVuSans-4e" d="M 628 4666 
L 1478 4666 
L 3547 763 
L 3547 4666 
L 4159 4666 
L 4159 0 
L 3309 0 
L 1241 3903 
L 1241 0 
L 628 0 
L 628 4666 
z
" transform="scale(0.015625)"/>
       <path id="DejaVuSans-2d" d="M 313 2009 
L 1997 2009 
L 1997 1497 
L 313 1497 
L 313 2009 
z
" transform="scale(0.015625)"/>
       <path id="DejaVuSans-6f" d="M 1959 3097 
Q 1497 3097 1228 2736 
Q 959 2375 959 1747 
Q 959 1119 1226 758 
Q 1494 397 1959 397 
Q 2419 397 2687 759 
Q 2956 1122 2956 1747 
Q 2956 2369 2687 2733 
Q 2419 3097 1959 3097 
z
M 1959 3584 
Q 2709 3584 3137 3096 
Q 3566 2609 3566 1747 
Q 3566 888 3137 398 
Q 2709 -91 1959 -91 
Q 1206 -91 779 398 
Q 353 888 353 1747 
Q 353 2609 779 3096 
Q 1206 3584 1959 3584 
z
" transform="scale(0.015625)"/>
       <path id="DejaVuSans-66" d="M 2375 4863 
L 2375 4384 
L 1825 4384 
Q 1516 4384 1395 4259 
Q 1275 4134 1275 3809 
L 1275 3500 
L 2222 3500 
L 2222 3053 
L 1275 3053 
L 1275 0 
L 697 0 
L 697 3053 
L 147 3053 
L 147 3500 
L 697 3500 
L 697 3744 
Q 697 4328 969 4595 
Q 1241 4863 1831 4863 
L 2375 4863 
z
" transform="scale(0.015625)"/>
      </defs>
      <use xlink:href="#DejaVuSans-50"/>
      <use xlink:href="#DejaVuSans-49" transform="translate(60.302734 0)"/>
      <use xlink:href="#DejaVuSans-4e" transform="translate(89.794922 0)"/>
      <use xlink:href="#DejaVuSans-4e" transform="translate(164.599609 0)"/>
      <use xlink:href="#DejaVuSans-2d" transform="translate(239.404297 0)"/>
      <use xlink:href="#DejaVuSans-43" transform="translate(275.488281 0)"/>
      <use xlink:href="#DejaVuSans-6f" transform="translate(345.3125 0)"/>
      <use xlink:href="#DejaVuSans-65" transform="translate(406.494141 0)"/>
      <use xlink:href="#DejaVuSans-66" transform="translate(468.017578 0)"/>
      <use xlink:href="#DejaVuSans-66" transform="translate(503.222656 0)"/>
      <use xlink:href="#DejaVuSans-43" transform="translate(538.427734 0)"/>
      <use xlink:href="#DejaVuSans-6c" transform="translate(608.251953 0)"/>
      <use xlink:href="#DejaVuSans-6f" transform="translate(636.035156 0)"/>
      <use xlink:href="#DejaVuSans-73" transform="translate(697.216797 0)"/>
      <use xlink:href="#DejaVuSans-75" transform="translate(749.316406 0)"/>
      <use xlink:href="#DejaVuSans-72" transform="translate(812.695312 0)"/>
      <use xlink:href="#DejaVuSans-65" transform="translate(851.558594 0)"/>
     </g>
    </g>
   </g>
  </g>
  <g id="axes_2">
   <g id="patch_7">
    <path d="M 56.09 250.514972 
L 579.6 250.514972 
L 579.6 139.689944 
L 56.09 139.689944 
z
" style="fill: #ffffff"/>
   </g>
   <g id="matplotlib.axis_3">
    <g id="xtick_10">
     <g id="line2d_31">
      <path d="M 79.885909 250.514972 
L 79.885909 139.689944 
" clip-path="url(#p160deca275)" style="fill: none; stroke: #b0b0b0; stroke-opacity: 0.25; stroke-width: 0.8; stroke-linecap: square"/>
     </g>
     <g id="line2d_32">
      <g>
       <use xlink:href="#mba59edcc90" x="79.885909" y="250.514972" style="stroke: #000000; stroke-width: 0.8"/>
      </g>
     </g>
    </g>
    <g id="xtick_11">
     <g id="line2d_33">
      <path d="M 139.375682 250.514972 
L 139.375682 139.689944 
" clip-path="url(#p160deca275)" style="fill: none; stroke: #b0b0b0; stroke-opacity: 0.25; stroke-width: 0.8; stroke-linecap: square"/>
     </g>
     <g id="line2d_34">
      <g>
       <use xlink:href="#mba59edcc90" x="139.375682" y="250.514972" style="stroke: #000000; stroke-width: 0.8"/>
      </g>
     </g>
    </g>
    <g id="xtick_12">
     <g id="line2d_35">
      <path d="M 198.865455 250.514972 
L 198.865455 139.689944 
" clip-path="url(#p160deca275)" style="fill: none; stroke: #b0b0b0; stroke-opacity: 0.25; stroke-width: 0.8; stroke-linecap: square"/>
     </g>
     <g id="line2d_36">
      <g>
       <use xlink:href="#mba59edcc90" x="198.865455" y="250.514972" style="stroke: #000000; stroke-width: 0.8"/>
      </g>
     </g>
    </g>
    <g id="xtick_13">
     <g id="line2d_37">
      <path d="M 258.355227 250.514972 
L 258.355227 139.689944 
" clip-path="url(#p160deca275)" style="fill: none; stroke: #b0b0b0; stroke-opacity: 0.25; stroke-width: 0.8; stroke-linecap: square"/>
     </g>
     <g id="line2d_38">
      <g>
       <use xlink:href="#mba59edcc90" x="258.355227" y="250.514972" style="stroke: #000000; stroke-width: 0.8"/>
      </g>
     </g>
    </g>
    <g id="xtick_14">
     <g id="line2d_39">
      <path d="M 317.845 250.514972 
L 317.845 139.689944 
" clip-path="url(#p160deca275)" style="fill: none; stroke: #b0b0b0; stroke-opacity: 0.25; stroke-width: 0.8; stroke-linecap: square"/>
     </g>
     <g id="line2d_40">
      <g>
       <use xlink:href="#mba59edcc90" x="317.845" y="250.514972" style="stroke: #000000; stroke-width: 0.8"/>
      </g>
     </g>
    </g>
    <g id="xtick_15">
     <g id="line2d_41">
      <path d="M 377.334773 250.514972 
L 377.334773 139.689944 
" clip-path="url(#p160deca275)" style="fill: none; stroke: #b0b0b0; stroke-opacity: 0.25; stroke-width: 0.8; stroke-linecap: square"/>
     </g>
     <g id="line2d_42">
      <g>
       <use xlink:href="#mba59edcc90" x="377.334773" y="250.514972" style="stroke: #000000; stroke-width: 0.8"/>
      </g>
     </g>
    </g>
    <g id="xtick_16">
     <g id="line2d_43">
      <path d="M 436.824545 250.514972 
L 436.824545 139.689944 
" clip-path="url(#p160deca275)" style="fill: none; stroke: #b0b0b0; stroke-opacity: 0.25; stroke-width: 0.8; stroke-linecap: square"/>
     </g>
     <g id="line2d_44">
      <g>
       <use xlink:href="#mba59edcc90" x="436.824545" y="250.514972" style="stroke: #000000; stroke-width: 0.8"/>
      </g>
     </g>
    </g>
    <g id="xtick_17">
     <g id="line2d_45">
      <path d="M 496.314318 250.514972 
L 496.314318 139.689944 
" clip-path="url(#p160deca275)" style="fill: none; stroke: #b0b0b0; stroke-opacity: 0.25; stroke-width: 0.8; stroke-linecap: square"/>
     </g>
     <g id="line2d_46">
      <g>
       <use xlink:href="#mba59edcc90" x="496.314318" y="250.514972" style="stroke: #000000; stroke-width: 0.8"/>
      </g>
     </g>
    </g>
    <g id="xtick_18">
     <g id="line2d_47">
      <path d="M 555.804091 250.514972 
L 555.804091 139.689944 
" clip-path="url(#p160deca275)" style="fill: none; stroke: #b0b0b0; stroke-opacity: 0.25; stroke-width: 0.8; stroke-linecap: square"/>
     </g>
     <g id="line2d_48">
      <g>
       <use xlink:href="#mba59edcc90" x="555.804091" y="250.514972" style="stroke: #000000; stroke-width: 0.8"/>
      </g>
     </g>
    </g>
   </g>
   <g id="matplotlib.axis_4">
    <g id="ytick_5">
     <g id="line2d_49">
      <path d="M 56.09 222.355076 
L 579.6 222.355076 
" clip-path="url(#p160deca275)" style="fill: none; stroke: #b0b0b0; stroke-opacity: 0.25; stroke-width: 0.8; stroke-linecap: square"/>
     </g>
     <g id="line2d_50">
      <g>
       <use xlink:href="#m101a767b1d" x="56.09" y="222.355076" style="stroke: #000000; stroke-width: 0.8"/>
      </g>
     </g>
     <g id="text_8">
      <!-- 0.0 -->
      <g transform="translate(33.186875 226.154295) scale(0.1 -0.1)">
       <use xlink:href="#DejaVuSans-30"/>
       <use xlink:href="#DejaVuSans-2e" transform="translate(63.623047 0)"/>
       <use xlink:href="#DejaVuSans-30" transform="translate(95.410156 0)"/>
      </g>
     </g>
    </g>
    <g id="ytick_6">
     <g id="line2d_51">
      <path d="M 56.09 191.060314 
L 579.6 191.060314 
" clip-path="url(#p160deca275)" style="fill: none; stroke: #b0b0b0; stroke-opacity: 0.25; stroke-width: 0.8; stroke-linecap: square"/>
     </g>
     <g id="line2d_52">
      <g>
       <use xlink:href="#m101a767b1d" x="56.09" y="191.060314" style="stroke: #000000; stroke-width: 0.8"/>
      </g>
     </g>
     <g id="text_9">
      <!-- 0.2 -->
      <g transform="translate(33.186875 194.859532) scale(0.1 -0.1)">
       <use xlink:href="#DejaVuSans-30"/>
       <use xlink:href="#DejaVuSans-2e" transform="translate(63.623047 0)"/>
       <use xlink:href="#DejaVuSans-32" transform="translate(95.410156 0)"/>
      </g>
     </g>
    </g>
    <g id="ytick_7">
     <g id="line2d_53">
      <path d="M 56.09 159.765551 
L 579.6 159.765551 
" clip-path="url(#p160deca275)" style="fill: none; stroke: #b0b0b0; stroke-opacity: 0.25; stroke-width: 0.8; stroke-linecap: square"/>
     </g>
     <g id="line2d_54">
      <g>
       <use xlink:href="#m101a767b1d" x="56.09" y="159.765551" style="stroke: #000000; stroke-width: 0.8"/>
      </g>
     </g>
     <g id="text_10">
      <!-- 0.4 -->
      <g transform="translate(33.186875 163.56477) scale(0.1 -0.1)">
       <use xlink:href="#DejaVuSans-30"/>
       <use xlink:href="#DejaVuSans-2e" transform="translate(63.623047 0)"/>
       <use xlink:href="#DejaVuSans-34" transform="translate(95.410156 0)"/>
      </g>
     </g>
    </g>
    <g id="text_11">
     <!-- C_D -->
     <g transform="translate(26.829063 204.943865) rotate(-90) scale(0.1 -0.1)">
      <defs>
       <path id="DejaVuSans-44" d="M 1259 4147 
L 1259 519 
L 2022 519 
Q 2988 519 3436 956 
Q 3884 1394 3884 2338 
Q 3884 3275 3436 3711 
Q 2988 4147 2022 4147 
L 1259 4147 
z
M 628 4666 
L 1925 4666 
Q 3281 4666 3915 4102 
Q 4550 3538 4550 2338 
Q 4550 1131 3912 565 
Q 3275 0 1925 0 
L 628 0 
L 628 4666 
z
" transform="scale(0.015625)"/>
      </defs>
      <use xlink:href="#DejaVuSans-43"/>
      <use xlink:href="#DejaVuSans-5f" transform="translate(69.824219 0)"/>
      <use xlink:href="#DejaVuSans-44" transform="translate(119.824219 0)"/>
     </g>
    </g>
   </g>
   <g id="line2d_55">
    <path d="M 79.885909 221.957356 
L 80.480807 221.970495 
L 82.622439 222.155506 
L 87.024682 222.180804 
L 103.562839 222.177636 
L 113.200182 222.194278 
L 135.925275 222.209899 
L 139.137723 222.216467 
L 141.517314 222.035866 
L 142.826089 221.702122 
L 145.0867 221.000045 
L 147.347311 220.868623 
L 156.151798 220.47133 
L 159.840164 220.066651 
L 161.743836 219.845731 
L 162.814652 220.014087 
L 164.361386 219.968435 
L 165.432202 219.75034 
L 165.90812 219.369562 
L 168.168732 217.283719 
L 169.477507 215.639482 
L 170.548323 214.336332 
L 171.619139 212.761049 
L 172.570975 210.992633 
L 173.403832 208.966837 
L 174.236689 206.294159 
L 175.069545 202.77314 
L 175.902402 198.20419 
L 176.735259 192.428233 
L 177.806075 183.20431 
L 180.185666 161.350336 
L 180.661584 159.040894 
L 181.018523 158.34852 
L 181.137502 158.346726 
L 181.375461 158.712434 
L 181.61342 159.589089 
L 181.970359 161.890334 
L 182.446277 166.790835 
L 183.041175 175.571149 
L 183.993011 193.63809 
L 184.944848 210.807797 
L 185.420766 215.981179 
L 185.896684 218.753924 
L 186.372602 220.130745 
L 186.84852 220.82354 
L 187.443418 221.244891 
L 188.157295 221.458178 
L 189.347091 221.549102 
L 192.2026 221.686852 
L 194.344232 221.888394 
L 196.128925 221.789949 
L 197.675659 221.873169 
L 198.865455 222.026589 
L 200.293209 221.997835 
L 201.483005 221.754769 
L 203.981575 221.068057 
L 206.242186 221.025276 
L 226.468709 221.006323 
L 234.916257 220.786714 
L 239.19952 220.476395 
L 243.958702 219.883742 
L 245.029518 219.55411 
L 246.695232 218.994621 
L 248.004007 218.321629 
L 249.193802 217.453448 
L 249.7887 217.101707 
L 250.383598 216.902467 
L 251.335434 216.207945 
L 252.40625 215.212427 
L 253.120127 214.25276 
L 253.834005 212.878959 
L 254.547882 210.931815 
L 255.261759 208.238645 
L 255.975636 204.655148 
L 256.808493 199.254005 
L 257.64135 192.216197 
L 258.593186 182.16199 
L 260.615839 159.860563 
L 261.091757 156.68165 
L 261.448695 155.42239 
L 261.686655 155.21489 
L 261.924614 155.558851 
L 262.162573 156.47989 
L 262.519511 158.963012 
L 262.99543 164.257249 
L 263.590327 173.564822 
L 265.850939 213.018929 
L 266.326857 216.383828 
L 266.802775 218.099231 
L 267.278693 218.950323 
L 267.754611 219.361936 
L 268.349509 219.551872 
L 269.063386 219.515519 
L 270.134202 219.185255 
L 271.680936 218.716632 
L 272.632773 218.704023 
L 273.822568 218.960168 
L 277.510934 219.924159 
L 280.128484 220.304218 
L 283.81685 220.597624 
L 289.17093 220.778598 
L 297.499498 220.818015 
L 305.590107 220.655432 
L 310.587248 220.348838 
L 313.918675 219.932376 
L 316.298266 219.421214 
L 318.201939 218.783822 
L 319.748673 218.024024 
L 321.057448 217.123067 
L 322.128264 216.13111 
L 323.318059 214.700484 
L 324.269895 213.193915 
L 325.102752 211.480853 
L 325.935609 209.272712 
L 326.768466 206.348502 
L 327.601323 202.526059 
L 328.43418 197.601227 
L 329.267036 191.299335 
L 330.218873 182.153081 
L 331.408668 168.020014 
L 332.836423 150.997765 
L 333.43132 146.363185 
L 333.788259 144.958269 
L 334.026218 144.727446 
L 334.145198 144.843345 
L 334.383157 145.562831 
L 334.740095 147.910949 
L 335.216014 153.418648 
L 335.810911 163.754354 
L 336.762748 185.543914 
L 337.833564 209.825968 
L 338.309482 216.231545 
L 338.66642 218.803965 
L 339.023359 220.19743 
L 339.499277 221.119313 
L 339.975195 221.548293 
L 340.570093 221.791945 
L 341.52193 221.908086 
L 342.711725 221.821859 
L 343.782541 221.538248 
L 345.091316 220.929498 
L 346.162132 220.455075 
L 347.232948 220.257193 
L 348.541723 220.234747 
L 351.516211 220.498252 
L 358.417025 220.988916 
L 360.439677 220.947036 
L 362.700289 220.90685 
L 367.57845 221.016973 
L 368.768245 220.993679 
L 370.552939 220.909271 
L 375.31212 220.926696 
L 376.144977 221.118015 
L 377.572732 221.166957 
L 378.643548 221.070028 
L 379.476405 220.857189 
L 381.499057 220.656342 
L 386.972116 220.144398 
L 389.708645 219.650451 
L 391.731298 219.073008 
L 393.397011 218.375553 
L 394.824766 217.530628 
L 396.014561 216.568131 
L 397.085377 215.417566 
L 398.037214 214.087697 
L 398.98905 212.371147 
L 399.940886 210.138484 
L 400.773743 207.624202 
L 401.6066 204.428167 
L 402.439457 200.371336 
L 403.272314 195.274344 
L 404.22415 188.030187 
L 405.413945 177.086528 
L 406.96068 162.787347 
L 407.555577 158.987133 
L 407.912516 157.615808 
L 408.150475 157.167985 
L 408.388434 157.134906 
L 408.626393 157.544738 
L 408.983332 159.030505 
L 409.34027 161.579428 
L 409.816189 166.569846 
L 410.530066 176.940489 
L 412.671698 211.632091 
L 413.147616 215.214622 
L 413.623534 217.166165 
L 414.099452 218.181243 
L 414.57537 218.69084 
L 415.051289 218.917456 
L 415.646186 218.970779 
L 416.598023 218.78543 
L 418.263736 218.426283 
L 419.215573 218.480885 
L 420.524348 218.820173 
L 423.617816 219.695035 
L 426.116386 220.120569 
L 429.447814 220.447834 
L 434.206995 220.670617 
L 441.107809 220.755858 
L 449.317398 220.646525 
L 454.909436 220.36952 
L 458.359843 220.20913 
L 459.787598 220.449152 
L 462.881066 221.127963 
L 464.784739 221.188863 
L 466.807391 221.050478 
L 468.473105 220.72283 
L 470.257798 220.122291 
L 472.39943 219.420424 
L 477.039632 218.419009 
L 478.824325 218.172838 
L 480.25208 218.198747 
L 483.702486 218.436661 
L 484.416364 218.185057 
L 485.130241 217.67647 
L 486.557995 216.216481 
L 487.628811 215.416325 
L 488.342689 215.131411 
L 489.056566 215.06101 
L 490.008402 215.210579 
L 496.195339 216.714832 
L 500.240643 217.25458 
L 504.404927 217.580897 
L 508.80717 217.702789 
L 513.447373 217.609651 
L 518.206555 217.289028 
L 522.965736 216.745719 
L 528.438795 215.886168 
L 537.124302 214.492548 
L 538.433077 214.455077 
L 539.265934 214.660887 
L 540.098791 215.089212 
L 541.169607 215.91232 
L 543.906136 218.121026 
L 545.333891 218.946391 
L 546.761645 219.523998 
L 548.665318 220.032343 
L 551.877766 220.61431 
L 555.804091 221.172048 
L 555.804091 221.172048 
" clip-path="url(#p160deca275)" style="fill: none; stroke: #000000; stroke-width: 1.4; stroke-linecap: square"/>
   </g>
   <g id="line2d_56">
    <path d="M 79.885909 228.201448 
L 80.361827 218.85979 
L 80.599786 216.989151 
L 80.718766 216.936859 
L 80.956725 218.210709 
L 81.313664 222.418935 
L 82.14652 235.365191 
L 82.38448 236.61519 
L 82.622439 236.957084 
L 82.860398 236.750008 
L 83.217336 235.912427 
L 85.834886 228.417645 
L 86.667743 227.075346 
L 87.5006 226.200878 
L 88.333457 225.654934 
L 89.404273 225.250394 
L 90.832027 224.974666 
L 95.591209 224.219069 
L 97.9708 223.492347 
L 101.302227 222.47582 
L 102.967941 222.205163 
L 104.633655 222.157435 
L 106.775286 222.342241 
L 111.415489 222.80725 
L 115.103855 222.874175 
L 120.219975 222.745331 
L 126.049973 222.343379 
L 133.188745 221.656131 
L 136.163234 221.348435 
L 137.23405 221.586421 
L 140.208539 222.371555 
L 141.517314 222.448083 
L 143.064048 222.338351 
L 144.015884 222.262173 
L 146.871393 222.400862 
L 155.43792 222.671119 
L 161.148939 223.017 
L 161.981795 222.831668 
L 162.695673 222.927695 
L 163.647509 222.728336 
L 165.075264 222.44237 
L 165.313223 222.587124 
L 165.670161 222.953077 
L 166.0271 222.495143 
L 166.621998 222.166447 
L 167.692814 221.918408 
L 171.14322 221.420216 
L 172.689955 221.489974 
L 174.117709 221.78459 
L 175.307505 222.242651 
L 176.140361 222.764021 
L 176.854239 223.470312 
L 177.449136 224.389636 
L 178.044034 225.777529 
L 179.11485 229.199244 
L 179.709748 231.505941 
L 180.542605 235.914973 
L 181.61342 242.094612 
L 181.970359 242.76936 
L 182.327298 243.028114 
L 182.565257 243.026131 
L 182.803216 242.851906 
L 183.160155 242.199441 
L 183.874032 240.2058 
L 184.34995 238.305257 
L 184.944848 234.771785 
L 187.205459 219.273092 
L 187.919336 216.624863 
L 188.633214 214.777468 
L 188.871173 214.4759 
L 188.990152 214.467681 
L 189.228111 214.814776 
L 189.46607 215.209263 
L 189.70403 215.180016 
L 191.726682 213.235485 
L 192.797498 212.518325 
L 193.511375 211.625087 
L 193.987293 211.531434 
L 195.058109 210.985562 
L 197.080761 209.647139 
L 198.270557 208.755262 
L 198.984434 208.593653 
L 199.698311 208.688925 
L 200.531168 209.066476 
L 201.839943 209.971252 
L 204.219534 211.863727 
L 207.431982 214.610585 
L 209.573614 216.119781 
L 216.355448 220.405086 
L 218.3781 221.435464 
L 220.162793 222.096651 
L 221.947486 222.514012 
L 224.565036 222.857392 
L 228.134423 223.373562 
L 237.414827 224.924153 
L 241.460132 225.605876 
L 241.698091 225.736775 
L 242.887886 227.687047 
L 243.006866 227.583069 
L 243.244825 226.765694 
L 243.601764 225.509473 
L 243.839723 225.415206 
L 244.196661 225.715476 
L 245.148498 226.656522 
L 245.743395 226.945888 
L 246.576252 227.074973 
L 248.955843 227.258956 
L 249.193802 227.812152 
L 249.312782 228.552752 
L 249.550741 232.786947 
L 249.90768 243.81111 
L 250.145639 245.477471 
L 250.264618 245.252656 
L 250.621557 243.116228 
L 251.811352 235.094803 
L 252.28727 233.383021 
L 252.763189 232.472785 
L 253.120127 232.200427 
L 253.477066 232.236352 
L 253.834005 232.573285 
L 254.190943 233.217473 
L 254.785841 234.864017 
L 255.14278 235.738296 
L 255.380739 235.825455 
L 255.499718 235.579989 
L 255.737677 234.058277 
L 256.213595 229.779165 
L 256.332575 229.725625 
L 256.570534 230.540053 
L 257.879309 237.553824 
L 258.117268 237.848137 
L 258.355227 237.797333 
L 258.593186 237.443283 
L 258.950125 236.433639 
L 259.545023 233.868862 
L 260.972777 227.485809 
L 261.686655 225.16004 
L 262.638491 222.995538 
L 263.233389 222.041006 
L 263.709307 221.606308 
L 264.185225 221.444479 
L 264.780123 221.530475 
L 265.137061 221.807495 
L 266.921755 223.401954 
L 267.516652 223.585134 
L 268.23053 223.541418 
L 269.301345 223.200612 
L 271.799916 222.363122 
L 273.941548 221.929082 
L 281.675218 220.560511 
L 285.958482 219.445004 
L 293.216234 217.530621 
L 296.666641 216.872813 
L 300.355007 216.40712 
L 304.162352 216.152606 
L 308.326636 216.1047 
L 312.847859 216.280794 
L 318.320918 216.730873 
L 324.864793 217.485109 
L 327.244384 217.923757 
L 327.839282 218.359906 
L 328.3152 218.954724 
L 328.791118 219.885863 
L 329.386016 221.657221 
L 330.218873 225.119683 
L 331.05173 228.451975 
L 331.527648 229.652682 
L 332.003566 230.251467 
L 332.360505 230.367526 
L 332.717443 230.266314 
L 333.193361 229.898721 
L 334.264177 228.668245 
L 335.453973 227.418192 
L 336.524789 226.626259 
L 337.952543 225.879126 
L 340.332134 224.647169 
L 343.187643 222.756452 
L 344.13948 222.096944 
L 344.615398 221.999096 
L 345.329275 222.133485 
L 347.232948 223.110747 
L 348.303764 223.225019 
L 353.895802 223.416875 
L 354.728659 223.528418 
L 354.966618 223.738694 
L 355.442536 223.757702 
L 357.22723 223.668757 
L 359.60682 223.634698 
L 360.082739 223.406297 
L 361.629473 223.742508 
L 363.295186 223.865065 
L 365.317839 223.782166 
L 366.626614 223.674563 
L 366.864573 224.040407 
L 367.102532 224.03132 
L 367.935389 223.547677 
L 368.292327 223.191717 
L 368.649266 222.797257 
L 369.839061 222.553404 
L 371.028857 222.071965 
L 372.337632 221.298304 
L 374.003345 220.037965 
L 374.955182 219.383485 
L 375.193141 219.679169 
L 375.4311 219.561728 
L 377.810691 217.149484 
L 378.524568 216.39223 
L 378.762527 216.167272 
L 383.28375 214.028972 
L 385.068443 213.552855 
L 387.448034 213.164874 
L 391.25538 212.795842 
L 394.348848 212.701635 
L 396.609459 212.855753 
L 398.632111 213.212047 
L 400.773743 213.812896 
L 403.153334 214.720659 
L 405.532925 215.870316 
L 416.003125 221.256579 
L 418.501695 222.201458 
L 422.42802 223.393213 
L 430.756589 225.797502 
L 434.206995 226.442145 
L 440.512911 227.33036 
L 445.391073 227.870701 
L 447.413725 227.869063 
L 448.7225 227.662053 
L 449.793316 227.2871 
L 450.864132 226.668832 
L 451.934948 225.7736 
L 453.124743 224.450466 
L 454.552498 222.479515 
L 458.240864 217.118625 
L 458.954741 216.489583 
L 459.549639 216.264296 
L 460.025557 216.343579 
L 460.501475 216.687828 
L 461.096373 217.451433 
L 462.881066 219.999897 
L 463.475964 220.399625 
L 464.070861 220.500155 
L 464.665759 220.369507 
L 465.736575 219.848974 
L 466.688411 219.445598 
L 467.283309 219.389957 
L 467.759227 219.523123 
L 468.235145 219.854976 
L 468.830043 220.580543 
L 469.54392 221.860795 
L 471.566573 225.802629 
L 472.518409 227.110274 
L 473.351266 227.912928 
L 474.065143 228.285114 
L 474.660041 228.360109 
L 475.373918 228.2201 
L 476.563714 227.693788 
L 478.586366 226.545753 
L 479.895141 225.534808 
L 480.965957 224.749065 
L 481.322895 224.746528 
L 481.560855 224.745747 
L 482.393711 224.355101 
L 483.107589 224.097777 
L 483.702486 223.561922 
L 484.892282 222.255571 
L 485.24922 222.06998 
L 485.606159 221.700754 
L 485.963098 221.641365 
L 486.439016 221.83971 
L 487.86677 222.588502 
L 488.818607 222.763684 
L 493.22085 223.065193 
L 497.028195 223.221127 
L 506.546559 223.540065 
L 509.996966 223.866683 
L 512.852475 224.364608 
L 515.232066 224.995403 
L 516.89778 225.656242 
L 518.920432 226.743259 
L 520.586145 227.531258 
L 522.251859 228.039397 
L 523.203695 228.136991 
L 523.798593 228.014514 
L 524.393491 227.676417 
L 524.988389 227.088416 
L 525.702266 226.050612 
L 526.535123 224.43114 
L 527.724918 221.552987 
L 530.104509 215.593136 
L 530.937366 214.194932 
L 531.770223 213.252646 
L 532.60308 212.65517 
L 533.554916 212.263826 
L 534.625732 212.067544 
L 536.053486 212.037968 
L 538.671036 212.033906 
L 540.812668 211.874965 
L 543.07328 212.001687 
L 544.620014 211.870906 
L 545.333891 212.082705 
L 546.047768 212.564667 
L 546.880625 213.448558 
L 548.07042 215.117868 
L 550.331032 218.344788 
L 552.710623 221.20192 
L 554.019398 222.431545 
L 555.804091 223.986448 
L 555.804091 223.986448 
" clip-path="url(#p160deca275)" style="fill: none; stroke: #e45756; stroke-width: 1.1; stroke-linecap: square"/>
   </g>
   <g id="patch_8">
    <path d="M 56.09 250.514972 
L 56.09 139.689944 
" style="fill: none; stroke: #000000; stroke-width: 0.8; stroke-linejoin: miter; stroke-linecap: square"/>
   </g>
   <g id="patch_9">
    <path d="M 579.6 250.514972 
L 579.6 139.689944 
" style="fill: none; stroke: #000000; stroke-width: 0.8; stroke-linejoin: miter; stroke-linecap: square"/>
   </g>
   <g id="patch_10">
    <path d="M 56.09 250.514972 
L 579.6 250.514972 
" style="fill: none; stroke: #000000; stroke-width: 0.8; stroke-linejoin: miter; stroke-linecap: square"/>
   </g>
   <g id="patch_11">
    <path d="M 56.09 139.689944 
L 579.6 139.689944 
" style="fill: none; stroke: #000000; stroke-width: 0.8; stroke-linejoin: miter; stroke-linecap: square"/>
   </g>
  </g>
  <g id="axes_3">
   <g id="patch_12">
    <path d="M 56.09 375.64 
L 579.6 375.64 
L 579.6 264.814972 
L 56.09 264.814972 
z
" style="fill: #ffffff"/>
   </g>
   <g id="matplotlib.axis_5">
    <g id="xtick_19">
     <g id="line2d_57">
      <path d="M 79.885909 375.64 
L 79.885909 264.814972 
" clip-path="url(#p91c07d3979)" style="fill: none; stroke: #b0b0b0; stroke-opacity: 0.25; stroke-width: 0.8; stroke-linecap: square"/>
     </g>
     <g id="line2d_58">
      <g>
       <use xlink:href="#mba59edcc90" x="79.885909" y="375.64" style="stroke: #000000; stroke-width: 0.8"/>
      </g>
     </g>
     <g id="text_12">
      <!-- 0 -->
      <g transform="translate(76.704659 390.238438) scale(0.1 -0.1)">
       <use xlink:href="#DejaVuSans-30"/>
      </g>
     </g>
    </g>
    <g id="xtick_20">
     <g id="line2d_59">
      <path d="M 139.375682 375.64 
L 139.375682 264.814972 
" clip-path="url(#p91c07d3979)" style="fill: none; stroke: #b0b0b0; stroke-opacity: 0.25; stroke-width: 0.8; stroke-linecap: square"/>
     </g>
     <g id="line2d_60">
      <g>
       <use xlink:href="#mba59edcc90" x="139.375682" y="375.64" style="stroke: #000000; stroke-width: 0.8"/>
      </g>
     </g>
     <g id="text_13">
      <!-- 5 -->
      <g transform="translate(136.194432 390.238438) scale(0.1 -0.1)">
       <defs>
        <path id="DejaVuSans-35" d="M 691 4666 
L 3169 4666 
L 3169 4134 
L 1269 4134 
L 1269 2991 
Q 1406 3038 1543 3061 
Q 1681 3084 1819 3084 
Q 2600 3084 3056 2656 
Q 3513 2228 3513 1497 
Q 3513 744 3044 326 
Q 2575 -91 1722 -91 
Q 1428 -91 1123 -41 
Q 819 9 494 109 
L 494 744 
Q 775 591 1075 516 
Q 1375 441 1709 441 
Q 2250 441 2565 725 
Q 2881 1009 2881 1497 
Q 2881 1984 2565 2268 
Q 2250 2553 1709 2553 
Q 1456 2553 1204 2497 
Q 953 2441 691 2322 
L 691 4666 
z
" transform="scale(0.015625)"/>
       </defs>
       <use xlink:href="#DejaVuSans-35"/>
      </g>
     </g>
    </g>
    <g id="xtick_21">
     <g id="line2d_61">
      <path d="M 198.865455 375.64 
L 198.865455 264.814972 
" clip-path="url(#p91c07d3979)" style="fill: none; stroke: #b0b0b0; stroke-opacity: 0.25; stroke-width: 0.8; stroke-linecap: square"/>
     </g>
     <g id="line2d_62">
      <g>
       <use xlink:href="#mba59edcc90" x="198.865455" y="375.64" style="stroke: #000000; stroke-width: 0.8"/>
      </g>
     </g>
     <g id="text_14">
      <!-- 10 -->
      <g transform="translate(192.502955 390.238438) scale(0.1 -0.1)">
       <defs>
        <path id="DejaVuSans-31" d="M 794 531 
L 1825 531 
L 1825 4091 
L 703 3866 
L 703 4441 
L 1819 4666 
L 2450 4666 
L 2450 531 
L 3481 531 
L 3481 0 
L 794 0 
L 794 531 
z
" transform="scale(0.015625)"/>
       </defs>
       <use xlink:href="#DejaVuSans-31"/>
       <use xlink:href="#DejaVuSans-30" transform="translate(63.623047 0)"/>
      </g>
     </g>
    </g>
    <g id="xtick_22">
     <g id="line2d_63">
      <path d="M 258.355227 375.64 
L 258.355227 264.814972 
" clip-path="url(#p91c07d3979)" style="fill: none; stroke: #b0b0b0; stroke-opacity: 0.25; stroke-width: 0.8; stroke-linecap: square"/>
     </g>
     <g id="line2d_64">
      <g>
       <use xlink:href="#mba59edcc90" x="258.355227" y="375.64" style="stroke: #000000; stroke-width: 0.8"/>
      </g>
     </g>
     <g id="text_15">
      <!-- 15 -->
      <g transform="translate(251.992727 390.238438) scale(0.1 -0.1)">
       <use xlink:href="#DejaVuSans-31"/>
       <use xlink:href="#DejaVuSans-35" transform="translate(63.623047 0)"/>
      </g>
     </g>
    </g>
    <g id="xtick_23">
     <g id="line2d_65">
      <path d="M 317.845 375.64 
L 317.845 264.814972 
" clip-path="url(#p91c07d3979)" style="fill: none; stroke: #b0b0b0; stroke-opacity: 0.25; stroke-width: 0.8; stroke-linecap: square"/>
     </g>
     <g id="line2d_66">
      <g>
       <use xlink:href="#mba59edcc90" x="317.845" y="375.64" style="stroke: #000000; stroke-width: 0.8"/>
      </g>
     </g>
     <g id="text_16">
      <!-- 20 -->
      <g transform="translate(311.4825 390.238438) scale(0.1 -0.1)">
       <use xlink:href="#DejaVuSans-32"/>
       <use xlink:href="#DejaVuSans-30" transform="translate(63.623047 0)"/>
      </g>
     </g>
    </g>
    <g id="xtick_24">
     <g id="line2d_67">
      <path d="M 377.334773 375.64 
L 377.334773 264.814972 
" clip-path="url(#p91c07d3979)" style="fill: none; stroke: #b0b0b0; stroke-opacity: 0.25; stroke-width: 0.8; stroke-linecap: square"/>
     </g>
     <g id="line2d_68">
      <g>
       <use xlink:href="#mba59edcc90" x="377.334773" y="375.64" style="stroke: #000000; stroke-width: 0.8"/>
      </g>
     </g>
     <g id="text_17">
      <!-- 25 -->
      <g transform="translate(370.972273 390.238438) scale(0.1 -0.1)">
       <use xlink:href="#DejaVuSans-32"/>
       <use xlink:href="#DejaVuSans-35" transform="translate(63.623047 0)"/>
      </g>
     </g>
    </g>
    <g id="xtick_25">
     <g id="line2d_69">
      <path d="M 436.824545 375.64 
L 436.824545 264.814972 
" clip-path="url(#p91c07d3979)" style="fill: none; stroke: #b0b0b0; stroke-opacity: 0.25; stroke-width: 0.8; stroke-linecap: square"/>
     </g>
     <g id="line2d_70">
      <g>
       <use xlink:href="#mba59edcc90" x="436.824545" y="375.64" style="stroke: #000000; stroke-width: 0.8"/>
      </g>
     </g>
     <g id="text_18">
      <!-- 30 -->
      <g transform="translate(430.462045 390.238438) scale(0.1 -0.1)">
       <defs>
        <path id="DejaVuSans-33" d="M 2597 2516 
Q 3050 2419 3304 2112 
Q 3559 1806 3559 1356 
Q 3559 666 3084 287 
Q 2609 -91 1734 -91 
Q 1441 -91 1130 -33 
Q 819 25 488 141 
L 488 750 
Q 750 597 1062 519 
Q 1375 441 1716 441 
Q 2309 441 2620 675 
Q 2931 909 2931 1356 
Q 2931 1769 2642 2001 
Q 2353 2234 1838 2234 
L 1294 2234 
L 1294 2753 
L 1863 2753 
Q 2328 2753 2575 2939 
Q 2822 3125 2822 3475 
Q 2822 3834 2567 4026 
Q 2313 4219 1838 4219 
Q 1578 4219 1281 4162 
Q 984 4106 628 3988 
L 628 4550 
Q 988 4650 1302 4700 
Q 1616 4750 1894 4750 
Q 2613 4750 3031 4423 
Q 3450 4097 3450 3541 
Q 3450 3153 3228 2886 
Q 3006 2619 2597 2516 
z
" transform="scale(0.015625)"/>
       </defs>
       <use xlink:href="#DejaVuSans-33"/>
       <use xlink:href="#DejaVuSans-30" transform="translate(63.623047 0)"/>
      </g>
     </g>
    </g>
    <g id="xtick_26">
     <g id="line2d_71">
      <path d="M 496.314318 375.64 
L 496.314318 264.814972 
" clip-path="url(#p91c07d3979)" style="fill: none; stroke: #b0b0b0; stroke-opacity: 0.25; stroke-width: 0.8; stroke-linecap: square"/>
     </g>
     <g id="line2d_72">
      <g>
       <use xlink:href="#mba59edcc90" x="496.314318" y="375.64" style="stroke: #000000; stroke-width: 0.8"/>
      </g>
     </g>
     <g id="text_19">
      <!-- 35 -->
      <g transform="translate(489.951818 390.238438) scale(0.1 -0.1)">
       <use xlink:href="#DejaVuSans-33"/>
       <use xlink:href="#DejaVuSans-35" transform="translate(63.623047 0)"/>
      </g>
     </g>
    </g>
    <g id="xtick_27">
     <g id="line2d_73">
      <path d="M 555.804091 375.64 
L 555.804091 264.814972 
" clip-path="url(#p91c07d3979)" style="fill: none; stroke: #b0b0b0; stroke-opacity: 0.25; stroke-width: 0.8; stroke-linecap: square"/>
     </g>
     <g id="line2d_74">
      <g>
       <use xlink:href="#mba59edcc90" x="555.804091" y="375.64" style="stroke: #000000; stroke-width: 0.8"/>
      </g>
     </g>
     <g id="text_20">
      <!-- 40 -->
      <g transform="translate(549.441591 390.238438) scale(0.1 -0.1)">
       <use xlink:href="#DejaVuSans-34"/>
       <use xlink:href="#DejaVuSans-30" transform="translate(63.623047 0)"/>
      </g>
     </g>
    </g>
    <g id="text_21">
     <!-- time [s] -->
     <g transform="translate(298.453594 403.916562) scale(0.1 -0.1)">
      <defs>
       <path id="DejaVuSans-74" d="M 1172 4494 
L 1172 3500 
L 2356 3500 
L 2356 3053 
L 1172 3053 
L 1172 1153 
Q 1172 725 1289 603 
Q 1406 481 1766 481 
L 2356 481 
L 2356 0 
L 1766 0 
Q 1100 0 847 248 
Q 594 497 594 1153 
L 594 3053 
L 172 3053 
L 172 3500 
L 594 3500 
L 594 4494 
L 1172 4494 
z
" transform="scale(0.015625)"/>
       <path id="DejaVuSans-6d" d="M 3328 2828 
Q 3544 3216 3844 3400 
Q 4144 3584 4550 3584 
Q 5097 3584 5394 3201 
Q 5691 2819 5691 2113 
L 5691 0 
L 5113 0 
L 5113 2094 
Q 5113 2597 4934 2840 
Q 4756 3084 4391 3084 
Q 3944 3084 3684 2787 
Q 3425 2491 3425 1978 
L 3425 0 
L 2847 0 
L 2847 2094 
Q 2847 2600 2669 2842 
Q 2491 3084 2119 3084 
Q 1678 3084 1418 2786 
Q 1159 2488 1159 1978 
L 1159 0 
L 581 0 
L 581 3500 
L 1159 3500 
L 1159 2956 
Q 1356 3278 1631 3431 
Q 1906 3584 2284 3584 
Q 2666 3584 2933 3390 
Q 3200 3197 3328 2828 
z
" transform="scale(0.015625)"/>
       <path id="DejaVuSans-5b" d="M 550 4863 
L 1875 4863 
L 1875 4416 
L 1125 4416 
L 1125 -397 
L 1875 -397 
L 1875 -844 
L 550 -844 
L 550 4863 
z
" transform="scale(0.015625)"/>
       <path id="DejaVuSans-5d" d="M 1947 4863 
L 1947 -844 
L 622 -844 
L 622 -397 
L 1369 -397 
L 1369 4416 
L 622 4416 
L 622 4863 
L 1947 4863 
z
" transform="scale(0.015625)"/>
      </defs>
      <use xlink:href="#DejaVuSans-74"/>
      <use xlink:href="#DejaVuSans-69" transform="translate(39.208984 0)"/>
      <use xlink:href="#DejaVuSans-6d" transform="translate(66.992188 0)"/>
      <use xlink:href="#DejaVuSans-65" transform="translate(164.404297 0)"/>
      <use xlink:href="#DejaVuSans-20" transform="translate(225.927734 0)"/>
      <use xlink:href="#DejaVuSans-5b" transform="translate(257.714844 0)"/>
      <use xlink:href="#DejaVuSans-73" transform="translate(296.728516 0)"/>
      <use xlink:href="#DejaVuSans-5d" transform="translate(348.828125 0)"/>
     </g>
    </g>
   </g>
   <g id="matplotlib.axis_6">
    <g id="ytick_8">
     <g id="line2d_75">
      <path d="M 56.09 354.495118 
L 579.6 354.495118 
" clip-path="url(#p91c07d3979)" style="fill: none; stroke: #b0b0b0; stroke-opacity: 0.25; stroke-width: 0.8; stroke-linecap: square"/>
     </g>
     <g id="line2d_76">
      <g>
       <use xlink:href="#m101a767b1d" x="56.09" y="354.495118" style="stroke: #000000; stroke-width: 0.8"/>
      </g>
     </g>
     <g id="text_22">
      <!-- −0.2 -->
      <g transform="translate(24.807188 358.294337) scale(0.1 -0.1)">
       <use xlink:href="#DejaVuSans-2212"/>
       <use xlink:href="#DejaVuSans-30" transform="translate(83.789062 0)"/>
       <use xlink:href="#DejaVuSans-2e" transform="translate(147.412109 0)"/>
       <use xlink:href="#DejaVuSans-32" transform="translate(179.199219 0)"/>
      </g>
     </g>
    </g>
    <g id="ytick_9">
     <g id="line2d_77">
      <path d="M 56.09 312.749876 
L 579.6 312.749876 
" clip-path="url(#p91c07d3979)" style="fill: none; stroke: #b0b0b0; stroke-opacity: 0.25; stroke-width: 0.8; stroke-linecap: square"/>
     </g>
     <g id="line2d_78">
      <g>
       <use xlink:href="#m101a767b1d" x="56.09" y="312.749876" style="stroke: #000000; stroke-width: 0.8"/>
      </g>
     </g>
     <g id="text_23">
      <!-- −0.1 -->
      <g transform="translate(24.807188 316.549094) scale(0.1 -0.1)">
       <use xlink:href="#DejaVuSans-2212"/>
       <use xlink:href="#DejaVuSans-30" transform="translate(83.789062 0)"/>
       <use xlink:href="#DejaVuSans-2e" transform="translate(147.412109 0)"/>
       <use xlink:href="#DejaVuSans-31" transform="translate(179.199219 0)"/>
      </g>
     </g>
    </g>
    <g id="ytick_10">
     <g id="line2d_79">
      <path d="M 56.09 271.004633 
L 579.6 271.004633 
" clip-path="url(#p91c07d3979)" style="fill: none; stroke: #b0b0b0; stroke-opacity: 0.25; stroke-width: 0.8; stroke-linecap: square"/>
     </g>
     <g id="line2d_80">
      <g>
       <use xlink:href="#m101a767b1d" x="56.09" y="271.004633" style="stroke: #000000; stroke-width: 0.8"/>
      </g>
     </g>
     <g id="text_24">
      <!-- 0.0 -->
      <g transform="translate(33.186875 274.803852) scale(0.1 -0.1)">
       <use xlink:href="#DejaVuSans-30"/>
       <use xlink:href="#DejaVuSans-2e" transform="translate(63.623047 0)"/>
       <use xlink:href="#DejaVuSans-30" transform="translate(95.410156 0)"/>
      </g>
     </g>
    </g>
    <g id="text_25">
     <!-- C_M -->
     <g transform="translate(18.449375 330.532955) rotate(-90) scale(0.1 -0.1)">
      <defs>
       <path id="DejaVuSans-4d" d="M 628 4666 
L 1569 4666 
L 2759 1491 
L 3956 4666 
L 4897 4666 
L 4897 0 
L 4281 0 
L 4281 4097 
L 3078 897 
L 2444 897 
L 1241 4097 
L 1241 0 
L 628 0 
L 628 4666 
z
" transform="scale(0.015625)"/>
      </defs>
      <use xlink:href="#DejaVuSans-43"/>
      <use xlink:href="#DejaVuSans-5f" transform="translate(69.824219 0)"/>
      <use xlink:href="#DejaVuSans-4d" transform="translate(119.824219 0)"/>
     </g>
    </g>
   </g>
   <g id="line2d_81">
    <path d="M 79.885909 271.728742 
L 80.242848 271.921987 
L 80.718766 271.880248 
L 82.38448 271.563807 
L 84.407132 271.502286 
L 91.902843 271.637247 
L 102.135084 271.702816 
L 111.891407 271.525719 
L 120.338955 271.4547 
L 137.11507 271.462046 
L 141.398334 271.127744 
L 143.183027 270.715608 
L 144.729761 270.379608 
L 147.109352 270.325074 
L 153.296289 270.33031 
L 156.389757 270.575296 
L 158.769348 270.984511 
L 160.67302 271.539951 
L 161.624857 271.996668 
L 162.695673 272.809564 
L 163.885468 273.264429 
L 166.384039 274.263554 
L 166.859957 274.861133 
L 167.573834 276.20036 
L 168.52567 278.556837 
L 169.715466 282.129714 
L 172.451995 292.310652 
L 173.403832 296.945245 
L 174.355668 302.861262 
L 175.307505 310.237899 
L 176.4973 321.342189 
L 180.066686 356.523 
L 180.542605 359.124725 
L 180.899543 360.210262 
L 181.137502 360.437185 
L 181.375461 360.214085 
L 181.61342 359.505661 
L 181.970359 357.495581 
L 182.446277 353.021128 
L 183.041175 344.544518 
L 183.636073 332.837383 
L 184.34995 314.265126 
L 185.301786 289.270531 
L 185.777705 282.381073 
L 186.253623 278.68959 
L 186.729541 276.726696 
L 187.205459 275.639836 
L 187.800357 274.899746 
L 188.395255 274.513006 
L 189.109132 274.314916 
L 189.70403 274.410867 
L 190.417907 274.495804 
L 191.250764 274.364042 
L 192.797498 273.822464 
L 193.392395 273.483066 
L 194.463211 272.622886 
L 195.177089 272.423567 
L 196.723823 272.30939 
L 197.675659 272.351587 
L 198.508516 272.457544 
L 199.579332 272.296326 
L 202.6728 271.495014 
L 203.743616 271.341077 
L 207.9079 271.195641 
L 216.712386 270.738887 
L 232.298707 269.85925 
L 235.868093 269.916222 
L 238.485643 270.164691 
L 240.508295 270.566224 
L 242.05503 271.090326 
L 243.839723 271.958727 
L 244.43462 272.162694 
L 245.148498 272.687682 
L 246.457273 273.995307 
L 247.766048 275.610251 
L 248.717884 277.118978 
L 249.431761 278.586515 
L 250.026659 280.396066 
L 250.740536 282.34033 
L 253.120127 287.849793 
L 253.834005 290.593976 
L 254.547882 294.252349 
L 255.380739 299.831888 
L 256.213595 307.167954 
L 257.64135 322.736075 
L 260.615839 356.600134 
L 261.210736 360.299815 
L 261.567675 361.420032 
L 261.805634 361.63788 
L 262.043593 361.396931 
L 262.281552 360.669759 
L 262.638491 358.605215 
L 263.114409 353.969867 
L 263.709307 345.0912 
L 264.304205 332.727123 
L 265.018082 313.161281 
L 265.850939 290.490395 
L 266.326857 282.901574 
L 266.802775 278.824639 
L 267.278693 276.72909 
L 267.754611 275.661388 
L 268.23053 275.148002 
L 268.706448 274.964566 
L 269.182366 275.000957 
L 269.896243 275.32796 
L 271.680936 276.355358 
L 272.275834 276.405598 
L 272.870732 276.253943 
L 273.703589 275.793037 
L 277.272975 273.507166 
L 278.938689 272.839012 
L 280.961341 272.270709 
L 283.578891 271.775078 
L 287.267257 271.31824 
L 293.454193 270.805516 
L 300.949905 270.39497 
L 305.709086 270.342341 
L 309.040514 270.522374 
L 311.539084 270.87482 
L 313.561736 271.385339 
L 315.22745 272.036915 
L 316.655205 272.836093 
L 317.96398 273.841247 
L 319.153775 275.0634 
L 320.224591 276.499251 
L 321.176427 278.125516 
L 322.128264 280.177999 
L 322.96112 282.442848 
L 324.031936 286.133097 
L 324.983773 290.206721 
L 325.935609 295.37224 
L 326.887445 301.902199 
L 327.839282 310.17969 
L 329.029077 322.768965 
L 332.955402 366.201119 
L 333.43132 369.156953 
L 333.788259 370.3658 
L 334.026218 370.602499 
L 334.145198 370.534357 
L 334.383157 369.99823 
L 334.740095 368.140664 
L 335.097034 364.983174 
L 335.572952 358.728058 
L 336.16785 347.707055 
L 336.881727 329.792823 
L 338.547441 282.761276 
L 339.023359 278.13896 
L 339.499277 275.897817 
L 339.975195 274.73999 
L 340.451114 274.093251 
L 341.046011 273.63257 
L 341.878868 273.280059 
L 343.782541 272.808568 
L 345.567234 272.493113 
L 346.400091 272.583628 
L 347.946825 272.772601 
L 349.13662 272.650143 
L 355.085598 271.689813 
L 357.346209 271.538073 
L 366.864573 270.883066 
L 368.530286 270.843317 
L 370.07702 270.68758 
L 375.193141 270.499262 
L 376.263957 270.648319 
L 378.286609 270.539884 
L 380.78518 270.375651 
L 384.354566 270.711538 
L 386.615177 271.130142 
L 388.39987 271.672224 
L 389.946605 272.363804 
L 391.374359 273.257169 
L 392.564155 274.255098 
L 393.75395 275.562837 
L 394.824766 277.092179 
L 395.776602 278.819624 
L 396.728439 280.991687 
L 397.680275 283.724383 
L 398.632111 287.157286 
L 399.583948 291.453761 
L 400.535784 296.790454 
L 401.6066 304.225651 
L 402.796395 314.316193 
L 404.34313 329.601934 
L 406.484761 350.673493 
L 407.198639 355.905565 
L 407.793536 358.71333 
L 408.150475 359.507821 
L 408.388434 359.608271 
L 408.626393 359.337501 
L 408.864352 358.675877 
L 409.221291 356.918283 
L 409.697209 353.100251 
L 410.292107 345.920099 
L 410.887005 336.001781 
L 411.600882 320.162861 
L 412.909657 288.823264 
L 413.385575 282.832871 
L 413.861493 279.500939 
L 414.337411 277.712365 
L 414.81333 276.782655 
L 415.289248 276.352158 
L 415.765166 276.231606 
L 416.360064 276.348154 
L 418.382716 277.052769 
L 418.977614 276.958576 
L 419.691491 276.623566 
L 420.881286 275.765578 
L 422.903939 274.325211 
L 424.450673 273.51675 
L 426.235366 272.841829 
L 428.376998 272.271392 
L 431.232507 271.75692 
L 435.277811 271.279638 
L 441.345768 270.806826 
L 447.532705 270.530841 
L 451.815968 270.547473 
L 454.909436 270.767792 
L 457.170048 271.136827 
L 458.716782 271.66926 
L 462.286168 273.009742 
L 463.951882 273.227711 
L 466.093514 273.527906 
L 467.283309 273.92354 
L 468.354125 274.501261 
L 469.54392 275.405905 
L 472.042491 277.425749 
L 473.708205 278.347011 
L 478.824325 280.910731 
L 479.895141 281.052463 
L 481.798814 280.970695 
L 482.63167 280.815694 
L 484.416364 280.384338 
L 485.24922 280.502016 
L 485.606159 280.664406 
L 486.082077 281.188608 
L 488.223709 284.065416 
L 488.818607 284.29413 
L 489.413505 284.239968 
L 490.127382 283.914134 
L 491.555136 282.926247 
L 493.33983 281.787529 
L 495.243502 280.865505 
L 497.861052 279.8629 
L 500.597582 279.044449 
L 503.334111 278.453899 
L 506.18962 278.063629 
L 509.164109 277.884266 
L 512.138598 277.925239 
L 515.113086 278.181943 
L 518.087575 278.654097 
L 521.181043 279.372589 
L 524.393491 280.352347 
L 528.081857 281.719498 
L 536.529405 284.95661 
L 539.503893 285.75664 
L 540.098791 285.678604 
L 540.693689 285.379673 
L 541.407566 284.711566 
L 542.359402 283.438773 
L 544.620014 280.323077 
L 545.809809 279.092461 
L 546.999605 278.161438 
L 548.427359 277.323024 
L 550.568991 276.352543 
L 553.900418 275.099141 
L 555.804091 274.487865 
L 555.804091 274.487865 
" clip-path="url(#p91c07d3979)" style="fill: none; stroke: #000000; stroke-width: 1.4; stroke-linecap: square"/>
   </g>
   <g id="line2d_82">
    <path d="M 79.885909 270.671357 
L 81.194684 270.752957 
L 82.2655 270.935101 
L 85.715907 271.409532 
L 87.857539 271.258348 
L 90.951007 271.086665 
L 95.591209 271.114481 
L 110.582632 271.233171 
L 133.902623 271.043248 
L 140.089559 271.05443 
L 142.707109 271.061954 
L 147.942209 270.992464 
L 159.721184 271.02 
L 165.432202 271.20337 
L 165.789141 271.211943 
L 166.621998 271.071471 
L 168.406691 271.093981 
L 172.333016 271.348068 
L 174.593627 271.670553 
L 176.37832 272.160168 
L 179.352809 273.043082 
L 180.423625 273.088289 
L 182.089339 273.171802 
L 183.041175 273.457018 
L 184.587909 274.240991 
L 185.777705 275.118041 
L 188.752193 277.388955 
L 189.109132 277.392382 
L 189.58505 277.211602 
L 190.060968 277.486523 
L 191.726682 278.612045 
L 192.916477 279.338519 
L 193.868314 280.508134 
L 195.058109 280.73438 
L 197.080761 280.932924 
L 198.984434 280.816923 
L 201.007086 280.902319 
L 202.077902 280.717651 
L 203.267698 280.269437 
L 205.29035 279.264572 
L 212.786061 275.310918 
L 215.284632 274.383455 
L 218.021161 273.606208 
L 220.757691 273.063454 
L 223.970139 272.665679 
L 229.562177 272.248157 
L 233.726461 272.105452 
L 237.890745 272.199303 
L 243.363805 272.560857 
L 243.839723 272.627873 
L 245.624416 272.643524 
L 249.431761 272.867625 
L 250.145639 272.084244 
L 250.740536 272.218185 
L 252.28727 272.59282 
L 253.239107 272.560914 
L 254.428902 272.282873 
L 255.499718 272.040388 
L 255.856657 272.215597 
L 256.213595 272.45831 
L 256.570534 272.36006 
L 257.76033 271.794901 
L 258.593186 271.698596 
L 259.664002 271.81659 
L 260.972777 272.167707 
L 263.352368 272.955563 
L 269.063386 274.593726 
L 271.323998 274.939715 
L 274.893384 275.22578 
L 288.576032 276.195989 
L 298.332355 276.851208 
L 304.63827 277.043097 
L 310.825207 277.005786 
L 318.201939 276.725279 
L 327.006425 276.194262 
L 328.077241 275.894693 
L 329.029077 275.39703 
L 332.003566 273.516065 
L 333.5503 273.017121 
L 337.119686 272.178568 
L 339.261318 271.868681 
L 341.046011 271.81945 
L 342.711725 272.004584 
L 344.496418 272.163576 
L 346.876009 272.381585 
L 349.493559 272.652494 
L 352.824986 272.715957 
L 357.703148 272.855537 
L 361.272534 273.136189 
L 364.128043 273.58538 
L 368.411307 274.477396 
L 369.006205 274.598949 
L 372.337632 275.287112 
L 374.955182 275.835506 
L 375.31212 275.736186 
L 376.263957 276.001218 
L 380.428241 277.136256 
L 386.972116 278.322892 
L 390.184564 278.625286 
L 393.397011 278.696504 
L 396.728439 278.544033 
L 400.059866 278.169696 
L 403.272314 277.583979 
L 406.365782 276.785163 
L 413.504555 274.825291 
L 417.19292 274.109649 
L 421.714143 273.477595 
L 428.258018 272.788674 
L 432.065364 272.61637 
L 436.110668 272.665715 
L 440.274952 272.93468 
L 444.201277 273.40778 
L 447.532705 274.032649 
L 451.34005 274.990208 
L 458.597802 276.908588 
L 459.787598 276.932049 
L 460.858414 276.710164 
L 462.762086 276.248917 
L 463.951882 276.243284 
L 467.640248 276.44021 
L 468.592084 276.144295 
L 469.6629 275.531903 
L 471.566573 274.41086 
L 474.303102 273.223315 
L 477.753509 271.915523 
L 479.300243 271.5756 
L 481.917793 271.307707 
L 483.345548 271.560952 
L 485.3682 271.531071 
L 486.320036 271.394702 
L 488.223709 271.436758 
L 490.841259 271.412694 
L 498.099011 271.160824 
L 506.18962 271.308642 
L 510.234925 271.579181 
L 513.447373 272.023567 
L 519.039411 273.082367 
L 521.656961 273.740701 
L 523.679614 274.497312 
L 527.724918 276.330944 
L 530.580427 277.500428 
L 533.792875 278.566454 
L 536.529405 279.25978 
L 538.552057 279.574647 
L 540.45573 279.656969 
L 542.240423 279.485279 
L 546.523686 278.881204 
L 547.951441 278.338121 
L 549.379195 277.550316 
L 551.044909 276.354936 
L 555.566132 272.901393 
L 555.804091 272.763382 
L 555.804091 272.763382 
" clip-path="url(#p91c07d3979)" style="fill: none; stroke: #e45756; stroke-width: 1.1; stroke-linecap: square"/>
   </g>
   <g id="patch_13">
    <path d="M 56.09 375.64 
L 56.09 264.814972 
" style="fill: none; stroke: #000000; stroke-width: 0.8; stroke-linejoin: miter; stroke-linecap: square"/>
   </g>
   <g id="patch_14">
    <path d="M 579.6 375.64 
L 579.6 264.814972 
" style="fill: none; stroke: #000000; stroke-width: 0.8; stroke-linejoin: miter; stroke-linecap: square"/>
   </g>
   <g id="patch_15">
    <path d="M 56.09 375.64 
L 579.6 375.64 
" style="fill: none; stroke: #000000; stroke-width: 0.8; stroke-linejoin: miter; stroke-linecap: square"/>
   </g>
   <g id="patch_16">
    <path d="M 56.09 264.814972 
L 579.6 264.814972 
" style="fill: none; stroke: #000000; stroke-width: 0.8; stroke-linejoin: miter; stroke-linecap: square"/>
   </g>
  </g>
 </g>
 <defs>
  <clipPath id="pb76f9d7f30">
   <rect x="56.09" y="14.564917" width="523.51" height="110.825028"/>
  </clipPath>
  <clipPath id="p160deca275">
   <rect x="56.09" y="139.689944" width="523.51" height="110.825028"/>
  </clipPath>
  <clipPath id="p91c07d3979">
   <rect x="56.09" y="264.814972" width="523.51" height="110.825028"/>
  </clipPath>
 </defs>
</svg>
