<?xml version="1.0" encoding="utf-8" standalone="no"?>
<!DOCTYPE svg PUBLIC "-//W3C//DTD SVG 1.1//EN"
  "http://www.w3.org/Graphics/SVG/1.1/DTD/svg11.dtd">
<svg xmlns:xlink="http://www.w3.org/1999/xlink" width="597.6pt" height="280.8pt" viewBox="0 0 597.6 280.8" xmlns="http://www.w3.org/2000/svg" version="1.1">
 <metadata>
  <rdf:RDF xmlns:dc="http://purl.org/dc/elements/1.1/" xmlns:cc="http://creativecommons.org/ns#" xmlns:rdf="http://www.w3.org/1999/02/22-rdf-syntax-ns#">
   <cc:Work>
    <dc:type rdf:resource="http://purl.org/dc/dcmitype/StillImage"/>
    <dc:date>2026-04-29T11:21:26.862577</dc:date>
    <dc:format>image/svg+xml</dc:format>
    <dc:creator>
     <cc:Agent>
      <dc:title>Matplotlib v3.6.3, https://matplotlib.org/</dc:title>
     </cc:Agent>
    </dc:creator>
   </cc:Work>
  </rdf:RDF>
 </metadata>
 <defs>
  <style type="text/css">*{stroke-linejoin: round; stroke-linecap: butt}</style>
 </defs>
 <g id="figure_1">
  <g id="patch_1">
   <path d="M 0 280.8 
L 597.6 280.8 
L 597.6 0 
L 0 0 
z
" style="fill: #ffffff"/>
  </g>
  <g id="axes_1">
   <g id="patch_2">
    <path d="M 49.902709 240.959224 
L 586.8 240.959224 
L 586.8 10.8 
L 49.902709 10.8 
z
" style="fill: #ffffff"/>
   </g>
   <g id="patch_3">
    <path d="M 74.307131 128847.347988 
L 86.82222 128847.347988 
L 86.82222 97.503849 
L 74.307131 97.503849 
z
" clip-path="url(#p4ac6390b6c)" style="fill: #d62728"/>
   </g>
   <g id="patch_4">
    <path d="M 136.882573 128847.347988 
L 149.397662 128847.347988 
L 149.397662 149.189056 
L 136.882573 149.189056 
z
" clip-path="url(#p4ac6390b6c)" style="fill: #d62728"/>
   </g>
   <g id="patch_5">
    <path d="M 199.458015 128847.347988 
L 211.973103 128847.347988 
L 211.973103 91.374792 
L 199.458015 91.374792 
z
" clip-path="url(#p4ac6390b6c)" style="fill: #d62728"/>
   </g>
   <g id="patch_6">
    <path d="M 262.033457 128847.347988 
L 274.548545 128847.347988 
L 274.548545 68.941411 
L 262.033457 68.941411 
z
" clip-path="url(#p4ac6390b6c)" style="fill: #d62728"/>
   </g>
   <g id="patch_7">
    <path d="M 324.608899 128847.347988 
L 337.123987 128847.347988 
L 337.123987 30.487311 
L 324.608899 30.487311 
z
" clip-path="url(#p4ac6390b6c)" style="fill: #d62728"/>
   </g>
   <g id="patch_8">
    <path d="M 387.184341 128847.347988 
L 399.699429 128847.347988 
L 399.699429 93.681548 
L 387.184341 93.681548 
z
" clip-path="url(#p4ac6390b6c)" style="fill: #d62728"/>
   </g>
   <g id="patch_9">
    <path d="M 449.759782 128847.347988 
L 462.274871 128847.347988 
L 462.274871 69.239166 
L 449.759782 69.239166 
z
" clip-path="url(#p4ac6390b6c)" style="fill: #d62728"/>
   </g>
   <g id="patch_10">
    <path d="M 512.335224 128847.347988 
L 524.850313 128847.347988 
L 524.850313 132.640683 
L 512.335224 132.640683 
z
" clip-path="url(#p4ac6390b6c)" style="fill: #d62728"/>
   </g>
   <g id="patch_11">
    <path d="M 86.82222 128847.347988 
L 99.337308 128847.347988 
L 99.337308 93.451985 
L 86.82222 93.451985 
z
" clip-path="url(#p4ac6390b6c)" style="fill: #1f77b4"/>
   </g>
   <g id="patch_12">
    <path d="M 149.397662 128847.347988 
L 161.91275 128847.347988 
L 161.91275 145.67739 
L 149.397662 145.67739 
z
" clip-path="url(#p4ac6390b6c)" style="fill: #1f77b4"/>
   </g>
   <g id="patch_13">
    <path d="M 211.973103 128847.347988 
L 224.488192 128847.347988 
L 224.488192 71.802674 
L 211.973103 71.802674 
z
" clip-path="url(#p4ac6390b6c)" style="fill: #1f77b4"/>
   </g>
   <g id="patch_14">
    <path d="M 274.548545 128847.347988 
L 287.063634 128847.347988 
L 287.063634 66.167261 
L 274.548545 66.167261 
z
" clip-path="url(#p4ac6390b6c)" style="fill: #1f77b4"/>
   </g>
   <g id="patch_15">
    <path d="M 337.123987 128847.347988 
L 349.639076 128847.347988 
L 349.639076 21.261783 
L 337.123987 21.261783 
z
" clip-path="url(#p4ac6390b6c)" style="fill: #1f77b4"/>
   </g>
   <g id="patch_16">
    <path d="M 399.699429 128847.347988 
L 412.214517 128847.347988 
L 412.214517 230.497441 
L 399.699429 230.497441 
z
" clip-path="url(#p4ac6390b6c)" style="fill: #1f77b4"/>
   </g>
   <g id="patch_17">
    <path d="M 462.274871 128847.347988 
L 474.789959 128847.347988 
L 474.789959 78.473274 
L 462.274871 78.473274 
z
" clip-path="url(#p4ac6390b6c)" style="fill: #1f77b4"/>
   </g>
   <g id="patch_18">
    <path d="M 524.850313 128847.347988 
L 537.365401 128847.347988 
L 537.365401 111.851277 
L 524.850313 111.851277 
z
" clip-path="url(#p4ac6390b6c)" style="fill: #1f77b4"/>
   </g>
   <g id="patch_19">
    <path d="M 99.337308 128847.347988 
L 111.852397 128847.347988 
L 111.852397 96.525549 
L 99.337308 96.525549 
z
" clip-path="url(#p4ac6390b6c)" style="fill: #ff9896"/>
   </g>
   <g id="patch_20">
    <path d="M 161.91275 128847.347988 
L 174.427838 128847.347988 
L 174.427838 148.540577 
L 161.91275 148.540577 
z
" clip-path="url(#p4ac6390b6c)" style="fill: #ff9896"/>
   </g>
   <g id="patch_21">
    <path d="M 224.488192 128847.347988 
L 237.00328 128847.347988 
L 237.00328 92.345094 
L 224.488192 92.345094 
z
" clip-path="url(#p4ac6390b6c)" style="fill: #ff9896"/>
   </g>
   <g id="patch_22">
    <path d="M 287.063634 128847.347988 
L 299.578722 128847.347988 
L 299.578722 68.846231 
L 287.063634 68.846231 
z
" clip-path="url(#p4ac6390b6c)" style="fill: #ff9896"/>
   </g>
   <g id="patch_23">
    <path d="M 349.639076 128847.347988 
L 362.154164 128847.347988 
L 362.154164 29.175537 
L 349.639076 29.175537 
z
" clip-path="url(#p4ac6390b6c)" style="fill: #ff9896"/>
   </g>
   <g id="patch_24">
    <path d="M 412.214517 128847.347988 
L 424.729606 128847.347988 
L 424.729606 82.131603 
L 412.214517 82.131603 
z
" clip-path="url(#p4ac6390b6c)" style="fill: #ff9896"/>
   </g>
   <g id="patch_25">
    <path d="M 474.789959 128847.347988 
L 487.305048 128847.347988 
L 487.305048 68.526135 
L 474.789959 68.526135 
z
" clip-path="url(#p4ac6390b6c)" style="fill: #ff9896"/>
   </g>
   <g id="patch_26">
    <path d="M 537.365401 128847.347988 
L 549.880489 128847.347988 
L 549.880489 130.104065 
L 537.365401 130.104065 
z
" clip-path="url(#p4ac6390b6c)" style="fill: #ff9896"/>
   </g>
   <g id="patch_27">
    <path d="M 111.852397 128847.347988 
L 124.367485 128847.347988 
L 124.367485 98.338593 
L 111.852397 98.338593 
z
" clip-path="url(#p4ac6390b6c)" style="fill: #aec7e8"/>
   </g>
   <g id="patch_28">
    <path d="M 174.427838 128847.347988 
L 186.942927 128847.347988 
L 186.942927 146.099807 
L 174.427838 146.099807 
z
" clip-path="url(#p4ac6390b6c)" style="fill: #aec7e8"/>
   </g>
   <g id="patch_29">
    <path d="M 237.00328 128847.347988 
L 249.518369 128847.347988 
L 249.518369 47.122584 
L 237.00328 47.122584 
z
" clip-path="url(#p4ac6390b6c)" style="fill: #aec7e8"/>
   </g>
   <g id="patch_30">
    <path d="M 299.578722 128847.347988 
L 312.09381 128847.347988 
L 312.09381 66.634486 
L 299.578722 66.634486 
z
" clip-path="url(#p4ac6390b6c)" style="fill: #aec7e8"/>
   </g>
   <g id="patch_31">
    <path d="M 362.154164 128847.347988 
L 374.669252 128847.347988 
L 374.669252 22.895785 
L 362.154164 22.895785 
z
" clip-path="url(#p4ac6390b6c)" style="fill: #aec7e8"/>
   </g>
   <g id="patch_32">
    <path d="M 424.729606 128847.347988 
L 437.244694 128847.347988 
L 437.244694 120.270184 
L 424.729606 120.270184 
z
" clip-path="url(#p4ac6390b6c)" style="fill: #aec7e8"/>
   </g>
   <g id="patch_33">
    <path d="M 487.305048 128847.347988 
L 499.820136 128847.347988 
L 499.820136 73.586807 
L 487.305048 73.586807 
z
" clip-path="url(#p4ac6390b6c)" style="fill: #aec7e8"/>
   </g>
   <g id="patch_34">
    <path d="M 549.880489 128847.347988 
L 562.395578 128847.347988 
L 562.395578 116.3932 
L 549.880489 116.3932 
z
" clip-path="url(#p4ac6390b6c)" style="fill: #aec7e8"/>
   </g>
   <g id="matplotlib.axis_1">
    <g id="xtick_1">
     <g id="line2d_1">
      <defs>
       <path id="m4ca4cab332" d="M 0 0 
L 0 3.5 
" style="stroke: #000000; stroke-width: 0.8"/>
      </defs>
      <g>
       <use xlink:href="#m4ca4cab332" x="99.337308" y="240.959224" style="stroke: #000000; stroke-width: 0.8"/>
      </g>
     </g>
     <g id="text_1">
      <!-- $C_{L0}$ -->
      <g transform="translate(84.700866 262.389663) rotate(-30) scale(0.1 -0.1)">
       <defs>
        <path id="DejaVuSans-Oblique-43" d="M 4447 4306 
L 4319 3641 
Q 4019 3944 3683 4091 
Q 3347 4238 2956 4238 
Q 2422 4238 2017 3981 
Q 1613 3725 1319 3200 
Q 1131 2863 1032 2486 
Q 934 2109 934 1728 
Q 934 1091 1264 756 
Q 1594 422 2222 422 
Q 2656 422 3056 561 
Q 3456 700 3834 978 
L 3688 231 
Q 3316 72 2936 -9 
Q 2556 -91 2175 -91 
Q 1278 -91 773 396 
Q 269 884 269 1753 
Q 269 2309 461 2846 
Q 653 3384 1013 3828 
Q 1394 4300 1883 4525 
Q 2372 4750 3022 4750 
Q 3422 4750 3780 4639 
Q 4138 4528 4447 4306 
z
" transform="scale(0.015625)"/>
        <path id="DejaVuSans-Oblique-4c" d="M 1075 4666 
L 1709 4666 
L 909 525 
L 3181 525 
L 3078 0 
L 172 0 
L 1075 4666 
z
" transform="scale(0.015625)"/>
        <path id="DejaVuSans-30" d="M 2034 4250 
Q 1547 4250 1301 3770 
Q 1056 3291 1056 2328 
Q 1056 1369 1301 889 
Q 1547 409 2034 409 
Q 2525 409 2770 889 
Q 3016 1369 3016 2328 
Q 3016 3291 2770 3770 
Q 2525 4250 2034 4250 
z
M 2034 4750 
Q 2819 4750 3233 4129 
Q 3647 3509 3647 2328 
Q 3647 1150 3233 529 
Q 2819 -91 2034 -91 
Q 1250 -91 836 529 
Q 422 1150 422 2328 
Q 422 3509 836 4129 
Q 1250 4750 2034 4750 
z
" transform="scale(0.015625)"/>
       </defs>
       <use xlink:href="#DejaVuSans-Oblique-43" transform="translate(0 0.78125)"/>
       <use xlink:href="#DejaVuSans-Oblique-4c" transform="translate(69.824219 -15.625) scale(0.7)"/>
       <use xlink:href="#DejaVuSans-30" transform="translate(108.823242 -15.625) scale(0.7)"/>
      </g>
     </g>
    </g>
    <g id="xtick_2">
     <g id="line2d_2">
      <g>
       <use xlink:href="#m4ca4cab332" x="161.91275" y="240.959224" style="stroke: #000000; stroke-width: 0.8"/>
      </g>
     </g>
     <g id="text_2">
      <!-- $C_{L\alpha}$ -->
      <g transform="translate(147.189705 262.439663) rotate(-30) scale(0.1 -0.1)">
       <defs>
        <path id="DejaVuSans-Oblique-3b1" d="M 2619 1628 
L 2622 2350 
Q 2625 3088 2069 3091 
Q 1653 3094 1394 2747 
Q 1069 2319 959 1747 
Q 825 1059 994 731 
Q 1169 397 1547 397 
Q 1966 397 2319 1063 
L 2619 1628 
z
M 2166 3578 
Q 3141 3594 3128 2584 
Q 3128 2584 3616 3500 
L 4128 3500 
L 3119 1603 
L 3109 919 
Q 3109 766 3194 638 
Q 3291 488 3391 488 
L 3669 488 
L 3575 0 
L 3228 0 
Q 2934 0 2722 263 
Q 2622 394 2619 669 
Q 2416 334 2066 50 
Q 1900 -81 1453 -78 
Q 722 -72 456 397 
Q 184 884 353 1747 
Q 534 2675 1009 3097 
Q 1544 3569 2166 3578 
z
" transform="scale(0.015625)"/>
       </defs>
       <use xlink:href="#DejaVuSans-Oblique-43" transform="translate(0 0.78125)"/>
       <use xlink:href="#DejaVuSans-Oblique-4c" transform="translate(69.824219 -15.625) scale(0.7)"/>
       <use xlink:href="#DejaVuSans-Oblique-3b1" transform="translate(108.823242 -15.625) scale(0.7)"/>
      </g>
     </g>
    </g>
    <g id="xtick_3">
     <g id="line2d_3">
      <g>
       <use xlink:href="#m4ca4cab332" x="224.488192" y="240.959224" style="stroke: #000000; stroke-width: 0.8"/>
      </g>
     </g>
     <g id="text_3">
      <!-- $C_{D0}$ -->
      <g transform="translate(208.639314 263.089663) rotate(-30) scale(0.1 -0.1)">
       <defs>
        <path id="DejaVuSans-Oblique-44" d="M 1081 4666 
L 2438 4666 
Q 3519 4666 4070 4208 
Q 4622 3750 4622 2847 
Q 4622 2250 4412 1698 
Q 4203 1147 3834 769 
Q 3463 381 2891 190 
Q 2319 0 1538 0 
L 172 0 
L 1081 4666 
z
M 1613 4147 
L 909 519 
L 1734 519 
Q 2794 519 3375 1128 
Q 3956 1738 3956 2847 
Q 3956 3519 3581 3833 
Q 3206 4147 2406 4147 
L 1613 4147 
z
" transform="scale(0.015625)"/>
       </defs>
       <use xlink:href="#DejaVuSans-Oblique-43" transform="translate(0 0.78125)"/>
       <use xlink:href="#DejaVuSans-Oblique-44" transform="translate(69.824219 -15.625) scale(0.7)"/>
       <use xlink:href="#DejaVuSans-30" transform="translate(123.725586 -15.625) scale(0.7)"/>
      </g>
     </g>
    </g>
    <g id="xtick_4">
     <g id="line2d_4">
      <g>
       <use xlink:href="#m4ca4cab332" x="287.063634" y="240.959224" style="stroke: #000000; stroke-width: 0.8"/>
      </g>
     </g>
     <g id="text_4">
      <!-- $k$ -->
      <g transform="translate(281.000843 257.439663) rotate(-30) scale(0.1 -0.1)">
       <defs>
        <path id="DejaVuSans-Oblique-6b" d="M 1172 4863 
L 1747 4863 
L 1197 2028 
L 3169 3500 
L 3916 3500 
L 1716 1825 
L 3322 0 
L 2625 0 
L 1131 1709 
L 800 0 
L 225 0 
L 1172 4863 
z
" transform="scale(0.015625)"/>
       </defs>
       <use xlink:href="#DejaVuSans-Oblique-6b" transform="translate(0 0.015625)"/>
      </g>
     </g>
    </g>
    <g id="xtick_5">
     <g id="line2d_5">
      <g>
       <use xlink:href="#m4ca4cab332" x="349.639076" y="240.959224" style="stroke: #000000; stroke-width: 0.8"/>
      </g>
     </g>
     <g id="text_5">
      <!-- $C_{M0}$ -->
      <g transform="translate(333.18398 263.439663) rotate(-30) scale(0.1 -0.1)">
       <defs>
        <path id="DejaVuSans-Oblique-4d" d="M 1081 4666 
L 2028 4666 
L 2572 1522 
L 4378 4666 
L 5350 4666 
L 4441 0 
L 3828 0 
L 4622 4091 
L 2791 897 
L 2175 897 
L 1581 4103 
L 788 0 
L 172 0 
L 1081 4666 
z
" transform="scale(0.015625)"/>
       </defs>
       <use xlink:href="#DejaVuSans-Oblique-43" transform="translate(0 0.78125)"/>
       <use xlink:href="#DejaVuSans-Oblique-4d" transform="translate(69.824219 -15.625) scale(0.7)"/>
       <use xlink:href="#DejaVuSans-30" transform="translate(130.219727 -15.625) scale(0.7)"/>
      </g>
     </g>
    </g>
    <g id="xtick_6">
     <g id="line2d_6">
      <g>
       <use xlink:href="#m4ca4cab332" x="412.214517" y="240.959224" style="stroke: #000000; stroke-width: 0.8"/>
      </g>
     </g>
     <g id="text_6">
      <!-- $C_{M\alpha}$ -->
      <g transform="translate(395.586216 263.539663) rotate(-30) scale(0.1 -0.1)">
       <use xlink:href="#DejaVuSans-Oblique-43" transform="translate(0 0.78125)"/>
       <use xlink:href="#DejaVuSans-Oblique-4d" transform="translate(69.824219 -15.625) scale(0.7)"/>
       <use xlink:href="#DejaVuSans-Oblique-3b1" transform="translate(130.219727 -15.625) scale(0.7)"/>
      </g>
     </g>
    </g>
    <g id="xtick_7">
     <g id="line2d_7">
      <g>
       <use xlink:href="#m4ca4cab332" x="474.789959" y="240.959224" style="stroke: #000000; stroke-width: 0.8"/>
      </g>
     </g>
     <g id="text_7">
      <!-- $C_{MQ}$ -->
      <g transform="translate(457.122079 263.904414) rotate(-30) scale(0.1 -0.1)">
       <defs>
        <path id="DejaVuSans-Oblique-51" d="M 2309 -84 
Q 2275 -88 2237 -89 
Q 2200 -91 2125 -91 
Q 1250 -91 756 411 
Q 263 913 263 1797 
Q 263 2319 452 2844 
Q 641 3369 978 3788 
Q 1369 4269 1858 4509 
Q 2347 4750 2938 4750 
Q 3794 4750 4287 4245 
Q 4781 3741 4781 2869 
Q 4781 1928 4265 1147 
Q 3750 366 2919 44 
L 3553 -825 
L 2847 -825 
L 2309 -84 
z
M 2919 4238 
Q 2400 4238 2003 3986 
Q 1606 3734 1313 3219 
Q 1125 2891 1026 2522 
Q 928 2153 928 1778 
Q 928 1128 1239 775 
Q 1550 422 2119 422 
Q 2631 422 3032 676 
Q 3434 931 3719 1434 
Q 3909 1772 4009 2142 
Q 4109 2513 4109 2881 
Q 4109 3528 3796 3883 
Q 3484 4238 2919 4238 
z
" transform="scale(0.015625)"/>
       </defs>
       <use xlink:href="#DejaVuSans-Oblique-43" transform="translate(0 0.78125)"/>
       <use xlink:href="#DejaVuSans-Oblique-4d" transform="translate(69.824219 -15.625) scale(0.7)"/>
       <use xlink:href="#DejaVuSans-Oblique-51" transform="translate(130.219727 -15.625) scale(0.7)"/>
      </g>
     </g>
    </g>
    <g id="xtick_8">
     <g id="line2d_8">
      <g>
       <use xlink:href="#m4ca4cab332" x="537.365401" y="240.959224" style="stroke: #000000; stroke-width: 0.8"/>
      </g>
     </g>
     <g id="text_8">
      <!-- $C_{M\delta_e}$ -->
      <g transform="translate(517.902073 264.854414) rotate(-30) scale(0.1 -0.1)">
       <defs>
        <path id="DejaVuSans-Oblique-3b4" d="M 3472 4053 
Q 3197 4272 2450 4272 
Q 1659 4272 1588 3906 
Q 1531 3619 2328 3469 
Q 2953 3353 3253 3003 
Q 3616 2581 3447 1716 
Q 3284 888 2763 400 
Q 2238 -91 1488 -91 
Q 741 -91 406 400 
Q 72 888 241 1747 
Q 363 2384 891 2900 
Q 1097 3100 1353 3213 
Q 913 3459 1000 3900 
Q 1166 4750 2544 4750 
Q 3234 4750 3566 4531 
L 3472 4053 
z
M 1753 3056 
Q 1525 2966 1306 2738 
Q 969 2384 847 1747 
Q 722 1113 919 756 
Q 1119 397 1584 397 
Q 2044 397 2381 759 
Q 2722 1122 2838 1716 
Q 2956 2338 2731 2638 
Q 2491 2959 2103 2994 
Q 1906 3013 1753 3056 
z
" transform="scale(0.015625)"/>
        <path id="DejaVuSans-Oblique-65" d="M 3078 2063 
Q 3088 2113 3092 2166 
Q 3097 2219 3097 2272 
Q 3097 2653 2873 2875 
Q 2650 3097 2266 3097 
Q 1838 3097 1509 2826 
Q 1181 2556 1013 2059 
L 3078 2063 
z
M 3578 1613 
L 903 1613 
Q 884 1494 878 1425 
Q 872 1356 872 1306 
Q 872 872 1139 634 
Q 1406 397 1894 397 
Q 2269 397 2603 481 
Q 2938 566 3225 728 
L 3116 159 
Q 2806 34 2476 -28 
Q 2147 -91 1806 -91 
Q 1078 -91 686 257 
Q 294 606 294 1247 
Q 294 1794 489 2264 
Q 684 2734 1063 3103 
Q 1306 3334 1642 3459 
Q 1978 3584 2356 3584 
Q 2950 3584 3301 3228 
Q 3653 2872 3653 2272 
Q 3653 2128 3634 1964 
Q 3616 1800 3578 1613 
z
" transform="scale(0.015625)"/>
       </defs>
       <use xlink:href="#DejaVuSans-Oblique-43" transform="translate(0 0.78125)"/>
       <use xlink:href="#DejaVuSans-Oblique-4d" transform="translate(69.824219 -15.625) scale(0.7)"/>
       <use xlink:href="#DejaVuSans-Oblique-3b4" transform="translate(130.219727 -15.625) scale(0.7)"/>
       <use xlink:href="#DejaVuSans-Oblique-65" transform="translate(173.046875 -27.109375) scale(0.49)"/>
      </g>
     </g>
    </g>
   </g>
   <g id="matplotlib.axis_2">
    <g id="ytick_1">
     <g id="line2d_9">
      <path d="M 49.902709 120.219722 
L 586.8 120.219722 
" clip-path="url(#p4ac6390b6c)" style="fill: none; stroke: #b0b0b0; stroke-opacity: 0.25; stroke-width: 0.8; stroke-linecap: square"/>
     </g>
     <g id="line2d_10">
      <defs>
       <path id="m5be7f61300" d="M 0 0 
L -3.5 0 
" style="stroke: #000000; stroke-width: 0.8"/>
      </defs>
      <g>
       <use xlink:href="#m5be7f61300" x="49.902709" y="120.219722" style="stroke: #000000; stroke-width: 0.8"/>
      </g>
     </g>
     <g id="text_9">
      <!-- $\mathdefault{10^{2}}$ -->
      <g transform="translate(25.302709 124.018941) scale(0.1 -0.1)">
       <defs>
        <path id="DejaVuSans-31" d="M 794 531 
L 1825 531 
L 1825 4091 
L 703 3866 
L 703 4441 
L 1819 4666 
L 2450 4666 
L 2450 531 
L 3481 531 
L 3481 0 
L 794 0 
L 794 531 
z
" transform="scale(0.015625)"/>
        <path id="DejaVuSans-32" d="M 1228 531 
L 3431 531 
L 3431 0 
L 469 0 
L 469 531 
Q 828 903 1448 1529 
Q 2069 2156 2228 2338 
Q 2531 2678 2651 2914 
Q 2772 3150 2772 3378 
Q 2772 3750 2511 3984 
Q 2250 4219 1831 4219 
Q 1534 4219 1204 4116 
Q 875 4013 500 3803 
L 500 4441 
Q 881 4594 1212 4672 
Q 1544 4750 1819 4750 
Q 2544 4750 2975 4387 
Q 3406 4025 3406 3419 
Q 3406 3131 3298 2873 
Q 3191 2616 2906 2266 
Q 2828 2175 2409 1742 
Q 1991 1309 1228 531 
z
" transform="scale(0.015625)"/>
       </defs>
       <use xlink:href="#DejaVuSans-31" transform="translate(0 0.765625)"/>
       <use xlink:href="#DejaVuSans-30" transform="translate(63.623047 0.765625)"/>
       <use xlink:href="#DejaVuSans-32" transform="translate(128.203125 39.046875) scale(0.7)"/>
      </g>
     </g>
    </g>
    <g id="ytick_2">
     <g id="line2d_11">
      <path d="M 49.902709 210.01653 
L 586.8 210.01653 
" clip-path="url(#p4ac6390b6c)" style="fill: none; stroke: #b0b0b0; stroke-opacity: 0.25; stroke-width: 0.8; stroke-linecap: square"/>
     </g>
     <g id="line2d_12">
      <defs>
       <path id="m2508221c60" d="M 0 0 
L -2 0 
" style="stroke: #000000; stroke-width: 0.6"/>
      </defs>
      <g>
       <use xlink:href="#m2508221c60" x="49.902709" y="210.01653" style="stroke: #000000; stroke-width: 0.6"/>
      </g>
     </g>
    </g>
    <g id="ytick_3">
     <g id="line2d_13">
      <path d="M 49.902709 187.394053 
L 586.8 187.394053 
" clip-path="url(#p4ac6390b6c)" style="fill: none; stroke: #b0b0b0; stroke-opacity: 0.25; stroke-width: 0.8; stroke-linecap: square"/>
     </g>
     <g id="line2d_14">
      <g>
       <use xlink:href="#m2508221c60" x="49.902709" y="187.394053" style="stroke: #000000; stroke-width: 0.6"/>
      </g>
     </g>
    </g>
    <g id="ytick_4">
     <g id="line2d_15">
      <path d="M 49.902709 171.34315 
L 586.8 171.34315 
" clip-path="url(#p4ac6390b6c)" style="fill: none; stroke: #b0b0b0; stroke-opacity: 0.25; stroke-width: 0.8; stroke-linecap: square"/>
     </g>
     <g id="line2d_16">
      <g>
       <use xlink:href="#m2508221c60" x="49.902709" y="171.34315" style="stroke: #000000; stroke-width: 0.6"/>
      </g>
     </g>
    </g>
    <g id="ytick_5">
     <g id="line2d_17">
      <path d="M 49.902709 158.893102 
L 586.8 158.893102 
" clip-path="url(#p4ac6390b6c)" style="fill: none; stroke: #b0b0b0; stroke-opacity: 0.25; stroke-width: 0.8; stroke-linecap: square"/>
     </g>
     <g id="line2d_18">
      <g>
       <use xlink:href="#m2508221c60" x="49.902709" y="158.893102" style="stroke: #000000; stroke-width: 0.6"/>
      </g>
     </g>
    </g>
    <g id="ytick_6">
     <g id="line2d_19">
      <path d="M 49.902709 148.720672 
L 586.8 148.720672 
" clip-path="url(#p4ac6390b6c)" style="fill: none; stroke: #b0b0b0; stroke-opacity: 0.25; stroke-width: 0.8; stroke-linecap: square"/>
     </g>
     <g id="line2d_20">
      <g>
       <use xlink:href="#m2508221c60" x="49.902709" y="148.720672" style="stroke: #000000; stroke-width: 0.6"/>
      </g>
     </g>
    </g>
    <g id="ytick_7">
     <g id="line2d_21">
      <path d="M 49.902709 140.120006 
L 586.8 140.120006 
" clip-path="url(#p4ac6390b6c)" style="fill: none; stroke: #b0b0b0; stroke-opacity: 0.25; stroke-width: 0.8; stroke-linecap: square"/>
     </g>
     <g id="line2d_22">
      <g>
       <use xlink:href="#m2508221c60" x="49.902709" y="140.120006" style="stroke: #000000; stroke-width: 0.6"/>
      </g>
     </g>
    </g>
    <g id="ytick_8">
     <g id="line2d_23">
      <path d="M 49.902709 132.669769 
L 586.8 132.669769 
" clip-path="url(#p4ac6390b6c)" style="fill: none; stroke: #b0b0b0; stroke-opacity: 0.25; stroke-width: 0.8; stroke-linecap: square"/>
     </g>
     <g id="line2d_24">
      <g>
       <use xlink:href="#m2508221c60" x="49.902709" y="132.669769" style="stroke: #000000; stroke-width: 0.6"/>
      </g>
     </g>
    </g>
    <g id="ytick_9">
     <g id="line2d_25">
      <path d="M 49.902709 126.098195 
L 586.8 126.098195 
" clip-path="url(#p4ac6390b6c)" style="fill: none; stroke: #b0b0b0; stroke-opacity: 0.25; stroke-width: 0.8; stroke-linecap: square"/>
     </g>
     <g id="line2d_26">
      <g>
       <use xlink:href="#m2508221c60" x="49.902709" y="126.098195" style="stroke: #000000; stroke-width: 0.6"/>
      </g>
     </g>
    </g>
    <g id="ytick_10">
     <g id="line2d_27">
      <path d="M 49.902709 81.546342 
L 586.8 81.546342 
" clip-path="url(#p4ac6390b6c)" style="fill: none; stroke: #b0b0b0; stroke-opacity: 0.25; stroke-width: 0.8; stroke-linecap: square"/>
     </g>
     <g id="line2d_28">
      <g>
       <use xlink:href="#m2508221c60" x="49.902709" y="81.546342" style="stroke: #000000; stroke-width: 0.6"/>
      </g>
     </g>
    </g>
    <g id="ytick_11">
     <g id="line2d_29">
      <path d="M 49.902709 58.923865 
L 586.8 58.923865 
" clip-path="url(#p4ac6390b6c)" style="fill: none; stroke: #b0b0b0; stroke-opacity: 0.25; stroke-width: 0.8; stroke-linecap: square"/>
     </g>
     <g id="line2d_30">
      <g>
       <use xlink:href="#m2508221c60" x="49.902709" y="58.923865" style="stroke: #000000; stroke-width: 0.6"/>
      </g>
     </g>
    </g>
    <g id="ytick_12">
     <g id="line2d_31">
      <path d="M 49.902709 42.872962 
L 586.8 42.872962 
" clip-path="url(#p4ac6390b6c)" style="fill: none; stroke: #b0b0b0; stroke-opacity: 0.25; stroke-width: 0.8; stroke-linecap: square"/>
     </g>
     <g id="line2d_32">
      <g>
       <use xlink:href="#m2508221c60" x="49.902709" y="42.872962" style="stroke: #000000; stroke-width: 0.6"/>
      </g>
     </g>
    </g>
    <g id="ytick_13">
     <g id="line2d_33">
      <path d="M 49.902709 30.422914 
L 586.8 30.422914 
" clip-path="url(#p4ac6390b6c)" style="fill: none; stroke: #b0b0b0; stroke-opacity: 0.25; stroke-width: 0.8; stroke-linecap: square"/>
     </g>
     <g id="line2d_34">
      <g>
       <use xlink:href="#m2508221c60" x="49.902709" y="30.422914" style="stroke: #000000; stroke-width: 0.6"/>
      </g>
     </g>
    </g>
    <g id="ytick_14">
     <g id="line2d_35">
      <path d="M 49.902709 20.250485 
L 586.8 20.250485 
" clip-path="url(#p4ac6390b6c)" style="fill: none; stroke: #b0b0b0; stroke-opacity: 0.25; stroke-width: 0.8; stroke-linecap: square"/>
     </g>
     <g id="line2d_36">
      <g>
       <use xlink:href="#m2508221c60" x="49.902709" y="20.250485" style="stroke: #000000; stroke-width: 0.6"/>
      </g>
     </g>
    </g>
    <g id="ytick_15">
     <g id="line2d_37">
      <path d="M 49.902709 11.649818 
L 586.8 11.649818 
" clip-path="url(#p4ac6390b6c)" style="fill: none; stroke: #b0b0b0; stroke-opacity: 0.25; stroke-width: 0.8; stroke-linecap: square"/>
     </g>
     <g id="line2d_38">
      <g>
       <use xlink:href="#m2508221c60" x="49.902709" y="11.649818" style="stroke: #000000; stroke-width: 0.6"/>
      </g>
     </g>
    </g>
    <g id="text_10">
     <!-- absolute parameter error [%] -->
     <g transform="translate(19.223022 199.295237) rotate(-90) scale(0.1 -0.1)">
      <defs>
       <path id="DejaVuSans-61" d="M 2194 1759 
Q 1497 1759 1228 1600 
Q 959 1441 959 1056 
Q 959 750 1161 570 
Q 1363 391 1709 391 
Q 2188 391 2477 730 
Q 2766 1069 2766 1631 
L 2766 1759 
L 2194 1759 
z
M 3341 1997 
L 3341 0 
L 2766 0 
L 2766 531 
Q 2569 213 2275 61 
Q 1981 -91 1556 -91 
Q 1019 -91 701 211 
Q 384 513 384 1019 
Q 384 1609 779 1909 
Q 1175 2209 1959 2209 
L 2766 2209 
L 2766 2266 
Q 2766 2663 2505 2880 
Q 2244 3097 1772 3097 
Q 1472 3097 1187 3025 
Q 903 2953 641 2809 
L 641 3341 
Q 956 3463 1253 3523 
Q 1550 3584 1831 3584 
Q 2591 3584 2966 3190 
Q 3341 2797 3341 1997 
z
" transform="scale(0.015625)"/>
       <path id="DejaVuSans-62" d="M 3116 1747 
Q 3116 2381 2855 2742 
Q 2594 3103 2138 3103 
Q 1681 3103 1420 2742 
Q 1159 2381 1159 1747 
Q 1159 1113 1420 752 
Q 1681 391 2138 391 
Q 2594 391 2855 752 
Q 3116 1113 3116 1747 
z
M 1159 2969 
Q 1341 3281 1617 3432 
Q 1894 3584 2278 3584 
Q 2916 3584 3314 3078 
Q 3713 2572 3713 1747 
Q 3713 922 3314 415 
Q 2916 -91 2278 -91 
Q 1894 -91 1617 61 
Q 1341 213 1159 525 
L 1159 0 
L 581 0 
L 581 4863 
L 1159 4863 
L 1159 2969 
z
" transform="scale(0.015625)"/>
       <path id="DejaVuSans-73" d="M 2834 3397 
L 2834 2853 
Q 2591 2978 2328 3040 
Q 2066 3103 1784 3103 
Q 1356 3103 1142 2972 
Q 928 2841 928 2578 
Q 928 2378 1081 2264 
Q 1234 2150 1697 2047 
L 1894 2003 
Q 2506 1872 2764 1633 
Q 3022 1394 3022 966 
Q 3022 478 2636 193 
Q 2250 -91 1575 -91 
Q 1294 -91 989 -36 
Q 684 19 347 128 
L 347 722 
Q 666 556 975 473 
Q 1284 391 1588 391 
Q 1994 391 2212 530 
Q 2431 669 2431 922 
Q 2431 1156 2273 1281 
Q 2116 1406 1581 1522 
L 1381 1569 
Q 847 1681 609 1914 
Q 372 2147 372 2553 
Q 372 3047 722 3315 
Q 1072 3584 1716 3584 
Q 2034 3584 2315 3537 
Q 2597 3491 2834 3397 
z
" transform="scale(0.015625)"/>
       <path id="DejaVuSans-6f" d="M 1959 3097 
Q 1497 3097 1228 2736 
Q 959 2375 959 1747 
Q 959 1119 1226 758 
Q 1494 397 1959 397 
Q 2419 397 2687 759 
Q 2956 1122 2956 1747 
Q 2956 2369 2687 2733 
Q 2419 3097 1959 3097 
z
M 1959 3584 
Q 2709 3584 3137 3096 
Q 3566 2609 3566 1747 
Q 3566 888 3137 398 
Q 2709 -91 1959 -91 
Q 1206 -91 779 398 
Q 353 888 353 1747 
Q 353 2609 779 3096 
Q 1206 3584 1959 3584 
z
" transform="scale(0.015625)"/>
       <path id="DejaVuSans-6c" d="M 603 4863 
L 1178 4863 
L 1178 0 
L 603 0 
L 603 4863 
z
" transform="scale(0.015625)"/>
       <path id="DejaVuSans-75" d="M 544 1381 
L 544 3500 
L 1119 3500 
L 1119 1403 
Q 1119 906 1312 657 
Q 1506 409 1894 409 
Q 2359 409 2629 706 
Q 2900 1003 2900 1516 
L 2900 3500 
L 3475 3500 
L 3475 0 
L 2900 0 
L 2900 538 
Q 2691 219 2414 64 
Q 2138 -91 1772 -91 
Q 1169 -91 856 284 
Q 544 659 544 1381 
z
M 1991 3584 
L 1991 3584 
z
" transform="scale(0.015625)"/>
       <path id="DejaVuSans-74" d="M 1172 4494 
L 1172 3500 
L 2356 3500 
L 2356 3053 
L 1172 3053 
L 1172 1153 
Q 1172 725 1289 603 
Q 1406 481 1766 481 
L 2356 481 
L 2356 0 
L 1766 0 
Q 1100 0 847 248 
Q 594 497 594 1153 
L 594 3053 
L 172 3053 
L 172 3500 
L 594 3500 
L 594 4494 
L 1172 4494 
z
" transform="scale(0.015625)"/>
       <path id="DejaVuSans-65" d="M 3597 1894 
L 3597 1613 
L 953 1613 
Q 991 1019 1311 708 
Q 1631 397 2203 397 
Q 2534 397 2845 478 
Q 3156 559 3463 722 
L 3463 178 
Q 3153 47 2828 -22 
Q 2503 -91 2169 -91 
Q 1331 -91 842 396 
Q 353 884 353 1716 
Q 353 2575 817 3079 
Q 1281 3584 2069 3584 
Q 2775 3584 3186 3129 
Q 3597 2675 3597 1894 
z
M 3022 2063 
Q 3016 2534 2758 2815 
Q 2500 3097 2075 3097 
Q 1594 3097 1305 2825 
Q 1016 2553 972 2059 
L 3022 2063 
z
" transform="scale(0.015625)"/>
       <path id="DejaVuSans-20" transform="scale(0.015625)"/>
       <path id="DejaVuSans-70" d="M 1159 525 
L 1159 -1331 
L 581 -1331 
L 581 3500 
L 1159 3500 
L 1159 2969 
Q 1341 3281 1617 3432 
Q 1894 3584 2278 3584 
Q 2916 3584 3314 3078 
Q 3713 2572 3713 1747 
Q 3713 922 3314 415 
Q 2916 -91 2278 -91 
Q 1894 -91 1617 61 
Q 1341 213 1159 525 
z
M 3116 1747 
Q 3116 2381 2855 2742 
Q 2594 3103 2138 3103 
Q 1681 3103 1420 2742 
Q 1159 2381 1159 1747 
Q 1159 1113 1420 752 
Q 1681 391 2138 391 
Q 2594 391 2855 752 
Q 3116 1113 3116 1747 
z
" transform="scale(0.015625)"/>
       <path id="DejaVuSans-72" d="M 2631 2963 
Q 2534 3019 2420 3045 
Q 2306 3072 2169 3072 
Q 1681 3072 1420 2755 
Q 1159 2438 1159 1844 
L 1159 0 
L 581 0 
L 581 3500 
L 1159 3500 
L 1159 2956 
Q 1341 3275 1631 3429 
Q 1922 3584 2338 3584 
Q 2397 3584 2469 3576 
Q 2541 3569 2628 3553 
L 2631 2963 
z
" transform="scale(0.015625)"/>
       <path id="DejaVuSans-6d" d="M 3328 2828 
Q 3544 3216 3844 3400 
Q 4144 3584 4550 3584 
Q 5097 3584 5394 3201 
Q 5691 2819 5691 2113 
L 5691 0 
L 5113 0 
L 5113 2094 
Q 5113 2597 4934 2840 
Q 4756 3084 4391 3084 
Q 3944 3084 3684 2787 
Q 3425 2491 3425 1978 
L 3425 0 
L 2847 0 
L 2847 2094 
Q 2847 2600 2669 2842 
Q 2491 3084 2119 3084 
Q 1678 3084 1418 2786 
Q 1159 2488 1159 1978 
L 1159 0 
L 581 0 
L 581 3500 
L 1159 3500 
L 1159 2956 
Q 1356 3278 1631 3431 
Q 1906 3584 2284 3584 
Q 2666 3584 2933 3390 
Q 3200 3197 3328 2828 
z
" transform="scale(0.015625)"/>
       <path id="DejaVuSans-5b" d="M 550 4863 
L 1875 4863 
L 1875 4416 
L 1125 4416 
L 1125 -397 
L 1875 -397 
L 1875 -844 
L 550 -844 
L 550 4863 
z
" transform="scale(0.015625)"/>
       <path id="DejaVuSans-25" d="M 4653 2053 
Q 4381 2053 4226 1822 
Q 4072 1591 4072 1178 
Q 4072 772 4226 539 
Q 4381 306 4653 306 
Q 4919 306 5073 539 
Q 5228 772 5228 1178 
Q 5228 1588 5073 1820 
Q 4919 2053 4653 2053 
z
M 4653 2450 
Q 5147 2450 5437 2106 
Q 5728 1763 5728 1178 
Q 5728 594 5436 251 
Q 5144 -91 4653 -91 
Q 4153 -91 3862 251 
Q 3572 594 3572 1178 
Q 3572 1766 3864 2108 
Q 4156 2450 4653 2450 
z
M 1428 4353 
Q 1159 4353 1004 4120 
Q 850 3888 850 3481 
Q 850 3069 1003 2837 
Q 1156 2606 1428 2606 
Q 1700 2606 1854 2837 
Q 2009 3069 2009 3481 
Q 2009 3884 1853 4118 
Q 1697 4353 1428 4353 
z
M 4250 4750 
L 4750 4750 
L 1831 -91 
L 1331 -91 
L 4250 4750 
z
M 1428 4750 
Q 1922 4750 2215 4408 
Q 2509 4066 2509 3481 
Q 2509 2891 2217 2550 
Q 1925 2209 1428 2209 
Q 931 2209 642 2551 
Q 353 2894 353 3481 
Q 353 4063 643 4406 
Q 934 4750 1428 4750 
z
" transform="scale(0.015625)"/>
       <path id="DejaVuSans-5d" d="M 1947 4863 
L 1947 -844 
L 622 -844 
L 622 -397 
L 1369 -397 
L 1369 4416 
L 622 4416 
L 622 4863 
L 1947 4863 
z
" transform="scale(0.015625)"/>
      </defs>
      <use xlink:href="#DejaVuSans-61"/>
      <use xlink:href="#DejaVuSans-62" x="61.279297"/>
      <use xlink:href="#DejaVuSans-73" x="124.755859"/>
      <use xlink:href="#DejaVuSans-6f" x="176.855469"/>
      <use xlink:href="#DejaVuSans-6c" x="238.037109"/>
      <use xlink:href="#DejaVuSans-75" x="265.820312"/>
      <use xlink:href="#DejaVuSans-74" x="329.199219"/>
      <use xlink:href="#DejaVuSans-65" x="368.408203"/>
      <use xlink:href="#DejaVuSans-20" x="429.931641"/>
      <use xlink:href="#DejaVuSans-70" x="461.71875"/>
      <use xlink:href="#DejaVuSans-61" x="525.195312"/>
      <use xlink:href="#DejaVuSans-72" x="586.474609"/>
      <use xlink:href="#DejaVuSans-61" x="627.587891"/>
      <use xlink:href="#DejaVuSans-6d" x="688.867188"/>
      <use xlink:href="#DejaVuSans-65" x="786.279297"/>
      <use xlink:href="#DejaVuSans-74" x="847.802734"/>
      <use xlink:href="#DejaVuSans-65" x="887.011719"/>
      <use xlink:href="#DejaVuSans-72" x="948.535156"/>
      <use xlink:href="#DejaVuSans-20" x="989.648438"/>
      <use xlink:href="#DejaVuSans-65" x="1021.435547"/>
      <use xlink:href="#DejaVuSans-72" x="1082.958984"/>
      <use xlink:href="#DejaVuSans-72" x="1122.322266"/>
      <use xlink:href="#DejaVuSans-6f" x="1161.185547"/>
      <use xlink:href="#DejaVuSans-72" x="1222.367188"/>
      <use xlink:href="#DejaVuSans-20" x="1263.480469"/>
      <use xlink:href="#DejaVuSans-5b" x="1295.267578"/>
      <use xlink:href="#DejaVuSans-25" x="1334.28125"/>
      <use xlink:href="#DejaVuSans-5d" x="1429.300781"/>
     </g>
    </g>
   </g>
   <g id="patch_35">
    <path d="M 49.902709 240.959224 
L 49.902709 10.8 
" style="fill: none; stroke: #000000; stroke-width: 0.8; stroke-linejoin: miter; stroke-linecap: square"/>
   </g>
   <g id="patch_36">
    <path d="M 586.8 240.959224 
L 586.8 10.8 
" style="fill: none; stroke: #000000; stroke-width: 0.8; stroke-linejoin: miter; stroke-linecap: square"/>
   </g>
   <g id="patch_37">
    <path d="M 49.902709 240.959224 
L 586.8 240.959224 
" style="fill: none; stroke: #000000; stroke-width: 0.8; stroke-linejoin: miter; stroke-linecap: square"/>
   </g>
   <g id="patch_38">
    <path d="M 49.902709 10.8 
L 586.8 10.8 
" style="fill: none; stroke: #000000; stroke-width: 0.8; stroke-linejoin: miter; stroke-linecap: square"/>
   </g>
   <g id="legend_1">
    <g id="patch_39">
     <path d="M 394.075 27.398438 
L 414.075 27.398438 
L 414.075 20.398438 
L 394.075 20.398438 
z
" style="fill: #d62728"/>
    </g>
    <g id="text_11">
     <!-- SS, case 1 -->
     <g transform="translate(422.075 27.398438) scale(0.1 -0.1)">
      <defs>
       <path id="DejaVuSans-53" d="M 3425 4513 
L 3425 3897 
Q 3066 4069 2747 4153 
Q 2428 4238 2131 4238 
Q 1616 4238 1336 4038 
Q 1056 3838 1056 3469 
Q 1056 3159 1242 3001 
Q 1428 2844 1947 2747 
L 2328 2669 
Q 3034 2534 3370 2195 
Q 3706 1856 3706 1288 
Q 3706 609 3251 259 
Q 2797 -91 1919 -91 
Q 1588 -91 1214 -16 
Q 841 59 441 206 
L 441 856 
Q 825 641 1194 531 
Q 1563 422 1919 422 
Q 2459 422 2753 634 
Q 3047 847 3047 1241 
Q 3047 1584 2836 1778 
Q 2625 1972 2144 2069 
L 1759 2144 
Q 1053 2284 737 2584 
Q 422 2884 422 3419 
Q 422 4038 858 4394 
Q 1294 4750 2059 4750 
Q 2388 4750 2728 4690 
Q 3069 4631 3425 4513 
z
" transform="scale(0.015625)"/>
       <path id="DejaVuSans-2c" d="M 750 794 
L 1409 794 
L 1409 256 
L 897 -744 
L 494 -744 
L 750 256 
L 750 794 
z
" transform="scale(0.015625)"/>
       <path id="DejaVuSans-63" d="M 3122 3366 
L 3122 2828 
Q 2878 2963 2633 3030 
Q 2388 3097 2138 3097 
Q 1578 3097 1268 2742 
Q 959 2388 959 1747 
Q 959 1106 1268 751 
Q 1578 397 2138 397 
Q 2388 397 2633 464 
Q 2878 531 3122 666 
L 3122 134 
Q 2881 22 2623 -34 
Q 2366 -91 2075 -91 
Q 1284 -91 818 406 
Q 353 903 353 1747 
Q 353 2603 823 3093 
Q 1294 3584 2113 3584 
Q 2378 3584 2631 3529 
Q 2884 3475 3122 3366 
z
" transform="scale(0.015625)"/>
      </defs>
      <use xlink:href="#DejaVuSans-53"/>
      <use xlink:href="#DejaVuSans-53" x="63.476562"/>
      <use xlink:href="#DejaVuSans-2c" x="126.953125"/>
      <use xlink:href="#DejaVuSans-20" x="158.740234"/>
      <use xlink:href="#DejaVuSans-63" x="190.527344"/>
      <use xlink:href="#DejaVuSans-61" x="245.507812"/>
      <use xlink:href="#DejaVuSans-73" x="306.787109"/>
      <use xlink:href="#DejaVuSans-65" x="358.886719"/>
      <use xlink:href="#DejaVuSans-20" x="420.410156"/>
      <use xlink:href="#DejaVuSans-31" x="452.197266"/>
     </g>
    </g>
    <g id="patch_40">
     <path d="M 394.075 42.076562 
L 414.075 42.076562 
L 414.075 35.076562 
L 394.075 35.076562 
z
" style="fill: #1f77b4"/>
    </g>
    <g id="text_12">
     <!-- MS, case 1 -->
     <g transform="translate(422.075 42.076562) scale(0.1 -0.1)">
      <defs>
       <path id="DejaVuSans-4d" d="M 628 4666 
L 1569 4666 
L 2759 1491 
L 3956 4666 
L 4897 4666 
L 4897 0 
L 4281 0 
L 4281 4097 
L 3078 897 
L 2444 897 
L 1241 4097 
L 1241 0 
L 628 0 
L 628 4666 
z
" transform="scale(0.015625)"/>
      </defs>
      <use xlink:href="#DejaVuSans-4d"/>
      <use xlink:href="#DejaVuSans-53" x="86.279297"/>
      <use xlink:href="#DejaVuSans-2c" x="149.755859"/>
      <use xlink:href="#DejaVuSans-20" x="181.542969"/>
      <use xlink:href="#DejaVuSans-63" x="213.330078"/>
      <use xlink:href="#DejaVuSans-61" x="268.310547"/>
      <use xlink:href="#DejaVuSans-73" x="329.589844"/>
      <use xlink:href="#DejaVuSans-65" x="381.689453"/>
      <use xlink:href="#DejaVuSans-20" x="443.212891"/>
      <use xlink:href="#DejaVuSans-31" x="475"/>
     </g>
    </g>
    <g id="patch_41">
     <path d="M 495.9375 27.398438 
L 515.9375 27.398438 
L 515.9375 20.398438 
L 495.9375 20.398438 
z
" style="fill: #ff9896"/>
    </g>
    <g id="text_13">
     <!-- SS, case 2 -->
     <g transform="translate(523.9375 27.398438) scale(0.1 -0.1)">
      <use xlink:href="#DejaVuSans-53"/>
      <use xlink:href="#DejaVuSans-53" x="63.476562"/>
      <use xlink:href="#DejaVuSans-2c" x="126.953125"/>
      <use xlink:href="#DejaVuSans-20" x="158.740234"/>
      <use xlink:href="#DejaVuSans-63" x="190.527344"/>
      <use xlink:href="#DejaVuSans-61" x="245.507812"/>
      <use xlink:href="#DejaVuSans-73" x="306.787109"/>
      <use xlink:href="#DejaVuSans-65" x="358.886719"/>
      <use xlink:href="#DejaVuSans-20" x="420.410156"/>
      <use xlink:href="#DejaVuSans-32" x="452.197266"/>
     </g>
    </g>
    <g id="patch_42">
     <path d="M 495.9375 42.076562 
L 515.9375 42.076562 
L 515.9375 35.076562 
L 495.9375 35.076562 
z
" style="fill: #aec7e8"/>
    </g>
    <g id="text_14">
     <!-- MS, case 2 -->
     <g transform="translate(523.9375 42.076562) scale(0.1 -0.1)">
      <use xlink:href="#DejaVuSans-4d"/>
      <use xlink:href="#DejaVuSans-53" x="86.279297"/>
      <use xlink:href="#DejaVuSans-2c" x="149.755859"/>
      <use xlink:href="#DejaVuSans-20" x="181.542969"/>
      <use xlink:href="#DejaVuSans-63" x="213.330078"/>
      <use xlink:href="#DejaVuSans-61" x="268.310547"/>
      <use xlink:href="#DejaVuSans-73" x="329.589844"/>
      <use xlink:href="#DejaVuSans-65" x="381.689453"/>
      <use xlink:href="#DejaVuSans-20" x="443.212891"/>
      <use xlink:href="#DejaVuSans-32" x="475"/>
     </g>
    </g>
   </g>
  </g>
 </g>
 <defs>
  <clipPath id="p4ac6390b6c">
   <rect x="49.902709" y="10.8" width="536.897291" height="230.159224"/>
  </clipPath>
 </defs>
</svg>
