<?xml version="1.0" encoding="utf-8" standalone="no"?>
<!DOCTYPE svg PUBLIC "-//W3C//DTD SVG 1.1//EN"
  "http://www.w3.org/Graphics/SVG/1.1/DTD/svg11.dtd">
<svg xmlns:xlink="http://www.w3.org/1999/xlink" width="590.4pt" height="417.6pt" viewBox="0 0 590.4 417.6" xmlns="http://www.w3.org/2000/svg" version="1.1">
 <metadata>
  <rdf:RDF xmlns:dc="http://purl.org/dc/elements/1.1/" xmlns:cc="http://creativecommons.org/ns#" xmlns:rdf="http://www.w3.org/1999/02/22-rdf-syntax-ns#">
   <cc:Work>
    <dc:type rdf:resource="http://purl.org/dc/dcmitype/StillImage"/>
    <dc:date>2026-04-30T21:21:11.974885</dc:date>
    <dc:format>image/svg+xml</dc:format>
    <dc:creator>
     <cc:Agent>
      <dc:title>Matplotlib v3.10.9, https://matplotlib.org/</dc:title>
     </cc:Agent>
    </dc:creator>
   </cc:Work>
  </rdf:RDF>
 </metadata>
 <defs>
  <style type="text/css">*{stroke-linejoin: round; stroke-linecap: butt}</style>
 </defs>
 <g id="figure_1">
  <g id="patch_1">
   <path d="M 0 417.6 
L 590.4 417.6 
L 590.4 0 
L 0 0 
z
" style="fill: #ffffff"/>
  </g>
  <g id="axes_1">
   <g id="patch_2">
    <path d="M 68.6 122.88 
L 579.6 122.88 
L 579.6 10.8 
L 68.6 10.8 
z
" style="fill: #ffffff"/>
   </g>
   <g id="matplotlib.axis_1">
    <g id="xtick_1">
     <g id="line2d_1">
      <path d="M 91.827273 122.88 
L 91.827273 10.8 
" clip-path="url(#p2e3b08536d)" style="fill: none; stroke: #b0b0b0; stroke-opacity: 0.25; stroke-width: 0.8; stroke-linecap: square"/>
     </g>
     <g id="line2d_2">
      <defs>
       <path id="mfa98faef9b" d="M 0 0 
L 0 3.5 
" style="stroke: #000000; stroke-width: 0.8"/>
      </defs>
      <g>
       <use xlink:href="#mfa98faef9b" x="91.827273" y="122.88" style="stroke: #000000; stroke-width: 0.8"/>
      </g>
     </g>
    </g>
    <g id="xtick_2">
     <g id="line2d_3">
      <path d="M 149.895455 122.88 
L 149.895455 10.8 
" clip-path="url(#p2e3b08536d)" style="fill: none; stroke: #b0b0b0; stroke-opacity: 0.25; stroke-width: 0.8; stroke-linecap: square"/>
     </g>
     <g id="line2d_4">
      <g>
       <use xlink:href="#mfa98faef9b" x="149.895455" y="122.88" style="stroke: #000000; stroke-width: 0.8"/>
      </g>
     </g>
    </g>
    <g id="xtick_3">
     <g id="line2d_5">
      <path d="M 207.963636 122.88 
L 207.963636 10.8 
" clip-path="url(#p2e3b08536d)" style="fill: none; stroke: #b0b0b0; stroke-opacity: 0.25; stroke-width: 0.8; stroke-linecap: square"/>
     </g>
     <g id="line2d_6">
      <g>
       <use xlink:href="#mfa98faef9b" x="207.963636" y="122.88" style="stroke: #000000; stroke-width: 0.8"/>
      </g>
     </g>
    </g>
    <g id="xtick_4">
     <g id="line2d_7">
      <path d="M 266.031818 122.88 
L 266.031818 10.8 
" clip-path="url(#p2e3b08536d)" style="fill: none; stroke: #b0b0b0; stroke-opacity: 0.25; stroke-width: 0.8; stroke-linecap: square"/>
     </g>
     <g id="line2d_8">
      <g>
       <use xlink:href="#mfa98faef9b" x="266.031818" y="122.88" style="stroke: #000000; stroke-width: 0.8"/>
      </g>
     </g>
    </g>
    <g id="xtick_5">
     <g id="line2d_9">
      <path d="M 324.1 122.88 
L 324.1 10.8 
" clip-path="url(#p2e3b08536d)" style="fill: none; stroke: #b0b0b0; stroke-opacity: 0.25; stroke-width: 0.8; stroke-linecap: square"/>
     </g>
     <g id="line2d_10">
      <g>
       <use xlink:href="#mfa98faef9b" x="324.1" y="122.88" style="stroke: #000000; stroke-width: 0.8"/>
      </g>
     </g>
    </g>
    <g id="xtick_6">
     <g id="line2d_11">
      <path d="M 382.168182 122.88 
L 382.168182 10.8 
" clip-path="url(#p2e3b08536d)" style="fill: none; stroke: #b0b0b0; stroke-opacity: 0.25; stroke-width: 0.8; stroke-linecap: square"/>
     </g>
     <g id="line2d_12">
      <g>
       <use xlink:href="#mfa98faef9b" x="382.168182" y="122.88" style="stroke: #000000; stroke-width: 0.8"/>
      </g>
     </g>
    </g>
    <g id="xtick_7">
     <g id="line2d_13">
      <path d="M 440.236364 122.88 
L 440.236364 10.8 
" clip-path="url(#p2e3b08536d)" style="fill: none; stroke: #b0b0b0; stroke-opacity: 0.25; stroke-width: 0.8; stroke-linecap: square"/>
     </g>
     <g id="line2d_14">
      <g>
       <use xlink:href="#mfa98faef9b" x="440.236364" y="122.88" style="stroke: #000000; stroke-width: 0.8"/>
      </g>
     </g>
    </g>
    <g id="xtick_8">
     <g id="line2d_15">
      <path d="M 498.304545 122.88 
L 498.304545 10.8 
" clip-path="url(#p2e3b08536d)" style="fill: none; stroke: #b0b0b0; stroke-opacity: 0.25; stroke-width: 0.8; stroke-linecap: square"/>
     </g>
     <g id="line2d_16">
      <g>
       <use xlink:href="#mfa98faef9b" x="498.304545" y="122.88" style="stroke: #000000; stroke-width: 0.8"/>
      </g>
     </g>
    </g>
    <g id="xtick_9">
     <g id="line2d_17">
      <path d="M 556.372727 122.88 
L 556.372727 10.8 
" clip-path="url(#p2e3b08536d)" style="fill: none; stroke: #b0b0b0; stroke-opacity: 0.25; stroke-width: 0.8; stroke-linecap: square"/>
     </g>
     <g id="line2d_18">
      <g>
       <use xlink:href="#mfa98faef9b" x="556.372727" y="122.88" style="stroke: #000000; stroke-width: 0.8"/>
      </g>
     </g>
    </g>
   </g>
   <g id="matplotlib.axis_2">
    <g id="ytick_1">
     <g id="line2d_19">
      <path d="M 68.6 114.055332 
L 579.6 114.055332 
" clip-path="url(#p2e3b08536d)" style="fill: none; stroke: #b0b0b0; stroke-opacity: 0.25; stroke-width: 0.8; stroke-linecap: square"/>
     </g>
     <g id="line2d_20">
      <defs>
       <path id="maea3bf01ab" d="M 0 0 
L -3.5 0 
" style="stroke: #000000; stroke-width: 0.8"/>
      </defs>
      <g>
       <use xlink:href="#maea3bf01ab" x="68.6" y="114.055332" style="stroke: #000000; stroke-width: 0.8"/>
      </g>
     </g>
     <g id="text_1">
      <!-- 0.00 -->
      <g transform="translate(39.334375 117.854551) scale(0.1 -0.1)">
       <defs>
        <path id="DejaVuSans-30" d="M 2034 4250 
Q 1547 4250 1301 3770 
Q 1056 3291 1056 2328 
Q 1056 1369 1301 889 
Q 1547 409 2034 409 
Q 2525 409 2770 889 
Q 3016 1369 3016 2328 
Q 3016 3291 2770 3770 
Q 2525 4250 2034 4250 
z
M 2034 4750 
Q 2819 4750 3233 4129 
Q 3647 3509 3647 2328 
Q 3647 1150 3233 529 
Q 2819 -91 2034 -91 
Q 1250 -91 836 529 
Q 422 1150 422 2328 
Q 422 3509 836 4129 
Q 1250 4750 2034 4750 
z
" transform="scale(0.015625)"/>
        <path id="DejaVuSans-2e" d="M 684 794 
L 1344 794 
L 1344 0 
L 684 0 
L 684 794 
z
" transform="scale(0.015625)"/>
       </defs>
       <use xlink:href="#DejaVuSans-30"/>
       <use xlink:href="#DejaVuSans-2e" transform="translate(63.623047 0)"/>
       <use xlink:href="#DejaVuSans-30" transform="translate(95.410156 0)"/>
       <use xlink:href="#DejaVuSans-30" transform="translate(159.033203 0)"/>
      </g>
     </g>
    </g>
    <g id="ytick_2">
     <g id="line2d_21">
      <path d="M 68.6 81.472268 
L 579.6 81.472268 
" clip-path="url(#p2e3b08536d)" style="fill: none; stroke: #b0b0b0; stroke-opacity: 0.25; stroke-width: 0.8; stroke-linecap: square"/>
     </g>
     <g id="line2d_22">
      <g>
       <use xlink:href="#maea3bf01ab" x="68.6" y="81.472268" style="stroke: #000000; stroke-width: 0.8"/>
      </g>
     </g>
     <g id="text_2">
      <!-- 0.01 -->
      <g transform="translate(39.334375 85.271487) scale(0.1 -0.1)">
       <defs>
        <path id="DejaVuSans-31" d="M 794 531 
L 1825 531 
L 1825 4091 
L 703 3866 
L 703 4441 
L 1819 4666 
L 2450 4666 
L 2450 531 
L 3481 531 
L 3481 0 
L 794 0 
L 794 531 
z
" transform="scale(0.015625)"/>
       </defs>
       <use xlink:href="#DejaVuSans-30"/>
       <use xlink:href="#DejaVuSans-2e" transform="translate(63.623047 0)"/>
       <use xlink:href="#DejaVuSans-30" transform="translate(95.410156 0)"/>
       <use xlink:href="#DejaVuSans-31" transform="translate(159.033203 0)"/>
      </g>
     </g>
    </g>
    <g id="ytick_3">
     <g id="line2d_23">
      <path d="M 68.6 48.889203 
L 579.6 48.889203 
" clip-path="url(#p2e3b08536d)" style="fill: none; stroke: #b0b0b0; stroke-opacity: 0.25; stroke-width: 0.8; stroke-linecap: square"/>
     </g>
     <g id="line2d_24">
      <g>
       <use xlink:href="#maea3bf01ab" x="68.6" y="48.889203" style="stroke: #000000; stroke-width: 0.8"/>
      </g>
     </g>
     <g id="text_3">
      <!-- 0.02 -->
      <g transform="translate(39.334375 52.688422) scale(0.1 -0.1)">
       <defs>
        <path id="DejaVuSans-32" d="M 1228 531 
L 3431 531 
L 3431 0 
L 469 0 
L 469 531 
Q 828 903 1448 1529 
Q 2069 2156 2228 2338 
Q 2531 2678 2651 2914 
Q 2772 3150 2772 3378 
Q 2772 3750 2511 3984 
Q 2250 4219 1831 4219 
Q 1534 4219 1204 4116 
Q 875 4013 500 3803 
L 500 4441 
Q 881 4594 1212 4672 
Q 1544 4750 1819 4750 
Q 2544 4750 2975 4387 
Q 3406 4025 3406 3419 
Q 3406 3131 3298 2873 
Q 3191 2616 2906 2266 
Q 2828 2175 2409 1742 
Q 1991 1309 1228 531 
z
" transform="scale(0.015625)"/>
       </defs>
       <use xlink:href="#DejaVuSans-30"/>
       <use xlink:href="#DejaVuSans-2e" transform="translate(63.623047 0)"/>
       <use xlink:href="#DejaVuSans-30" transform="translate(95.410156 0)"/>
       <use xlink:href="#DejaVuSans-32" transform="translate(159.033203 0)"/>
      </g>
     </g>
    </g>
    <g id="ytick_4">
     <g id="line2d_25">
      <path d="M 68.6 16.306139 
L 579.6 16.306139 
" clip-path="url(#p2e3b08536d)" style="fill: none; stroke: #b0b0b0; stroke-opacity: 0.25; stroke-width: 0.8; stroke-linecap: square"/>
     </g>
     <g id="line2d_26">
      <g>
       <use xlink:href="#maea3bf01ab" x="68.6" y="16.306139" style="stroke: #000000; stroke-width: 0.8"/>
      </g>
     </g>
     <g id="text_4">
      <!-- 0.03 -->
      <g transform="translate(39.334375 20.105358) scale(0.1 -0.1)">
       <defs>
        <path id="DejaVuSans-33" d="M 2597 2516 
Q 3050 2419 3304 2112 
Q 3559 1806 3559 1356 
Q 3559 666 3084 287 
Q 2609 -91 1734 -91 
Q 1441 -91 1130 -33 
Q 819 25 488 141 
L 488 750 
Q 750 597 1062 519 
Q 1375 441 1716 441 
Q 2309 441 2620 675 
Q 2931 909 2931 1356 
Q 2931 1769 2642 2001 
Q 2353 2234 1838 2234 
L 1294 2234 
L 1294 2753 
L 1863 2753 
Q 2328 2753 2575 2939 
Q 2822 3125 2822 3475 
Q 2822 3834 2567 4026 
Q 2313 4219 1838 4219 
Q 1578 4219 1281 4162 
Q 984 4106 628 3988 
L 628 4550 
Q 988 4650 1302 4700 
Q 1616 4750 1894 4750 
Q 2613 4750 3031 4423 
Q 3450 4097 3450 3541 
Q 3450 3153 3228 2886 
Q 3006 2619 2597 2516 
z
" transform="scale(0.015625)"/>
       </defs>
       <use xlink:href="#DejaVuSans-30"/>
       <use xlink:href="#DejaVuSans-2e" transform="translate(63.623047 0)"/>
       <use xlink:href="#DejaVuSans-30" transform="translate(95.410156 0)"/>
       <use xlink:href="#DejaVuSans-33" transform="translate(159.033203 0)"/>
      </g>
     </g>
    </g>
    <g id="text_5">
     <!-- C_L -->
     <g transform="translate(32.976563 75.617344) rotate(-90) scale(0.1 -0.1)">
      <defs>
       <path id="DejaVuSans-43" d="M 4122 4306 
L 4122 3641 
Q 3803 3938 3442 4084 
Q 3081 4231 2675 4231 
Q 1875 4231 1450 3742 
Q 1025 3253 1025 2328 
Q 1025 1406 1450 917 
Q 1875 428 2675 428 
Q 3081 428 3442 575 
Q 3803 722 4122 1019 
L 4122 359 
Q 3791 134 3420 21 
Q 3050 -91 2638 -91 
Q 1578 -91 968 557 
Q 359 1206 359 2328 
Q 359 3453 968 4101 
Q 1578 4750 2638 4750 
Q 3056 4750 3426 4639 
Q 3797 4528 4122 4306 
z
" transform="scale(0.015625)"/>
       <path id="DejaVuSans-5f" d="M 3263 -1063 
L 3263 -1509 
L -63 -1509 
L -63 -1063 
L 3263 -1063 
z
" transform="scale(0.015625)"/>
       <path id="DejaVuSans-4c" d="M 628 4666 
L 1259 4666 
L 1259 531 
L 3531 531 
L 3531 0 
L 628 0 
L 628 4666 
z
" transform="scale(0.015625)"/>
      </defs>
      <use xlink:href="#DejaVuSans-43"/>
      <use xlink:href="#DejaVuSans-5f" transform="translate(69.824219 0)"/>
      <use xlink:href="#DejaVuSans-4c" transform="translate(119.824219 0)"/>
     </g>
    </g>
   </g>
   <g id="line2d_27">
    <path d="M 91.827273 40.237815 
L 92.291818 60.187668 
L 92.756364 70.833405 
L 93.220909 76.763622 
L 93.685455 80.198278 
L 94.15 82.242856 
L 94.614545 83.476249 
L 95.195227 84.350932 
L 95.775909 84.798766 
L 96.472727 85.037626 
L 97.634091 85.14365 
L 99.724545 85.317054 
L 101.118182 85.669522 
L 102.511818 86.245628 
L 104.137727 87.167268 
L 106.228182 88.639123 
L 112.499545 93.265638 
L 114.241591 94.181169 
L 115.751364 94.742874 
L 117.261136 95.064613 
L 118.654773 95.138158 
L 120.048409 94.995166 
L 121.442045 94.64008 
L 122.951818 94.027725 
L 124.577727 93.125274 
L 126.435909 91.826612 
L 128.6425 89.998045 
L 132.591136 86.359714 
L 135.494545 83.831968 
L 137.468864 82.402183 
L 139.094773 81.486288 
L 140.604545 80.889433 
L 141.998182 80.576832 
L 143.391818 80.50297 
L 144.785455 80.667947 
L 146.179091 81.062501 
L 147.688864 81.727726 
L 149.430909 82.758854 
L 151.521364 84.277179 
L 155.353864 87.414298 
L 158.257273 89.642739 
L 160.231591 90.890073 
L 161.973636 91.735257 
L 163.599545 92.273697 
L 165.109318 92.542138 
L 166.619091 92.584366 
L 168.128864 92.407114 
L 169.754773 91.989618 
L 171.612955 91.265643 
L 173.819545 90.1521 
L 181.02 86.299121 
L 182.762045 85.711006 
L 184.387955 85.390301 
L 185.897727 85.316031 
L 187.4075 85.472562 
L 188.801136 85.831416 
L 190.194773 86.409612 
L 191.588409 87.240536 
L 192.865909 88.284273 
L 194.027273 89.523449 
L 195.420909 91.36648 
L 196.117727 92.607 
L 197.743636 96.24798 
L 198.672727 97.502501 
L 199.834091 98.684842 
L 200.414773 99.048857 
L 200.647045 99.031519 
L 200.879318 98.835001 
L 202.040682 97.264848 
L 202.505227 97.145166 
L 203.202045 97.259772 
L 204.363409 97.73217 
L 205.176364 98.224783 
L 205.640909 98.811335 
L 206.57 100.210212 
L 207.266818 100.805226 
L 208.195909 101.276416 
L 209.357273 101.61907 
L 210.750909 101.80728 
L 212.376818 101.79897 
L 214.118864 101.567085 
L 216.093182 101.069772 
L 218.299773 100.271061 
L 220.506364 99.234307 
L 222.132273 98.2442 
L 223.525909 97.136129 
L 225.616364 95.105278 
L 227.01 93.90182 
L 228.171364 93.178208 
L 229.332727 92.704028 
L 230.726364 92.390049 
L 232.352273 92.27277 
L 234.210455 92.368347 
L 236.300909 92.704606 
L 238.739773 93.339158 
L 243.036818 94.74267 
L 246.637045 95.816364 
L 249.308182 96.380763 
L 251.398636 96.618347 
L 253.372955 96.622315 
L 255.579545 96.39473 
L 258.018409 95.910549 
L 261.154091 95.03993 
L 268.354545 92.946131 
L 270.909545 92.484305 
L 273.232273 92.281961 
L 275.555 92.297414 
L 278.226136 92.546096 
L 280.781136 92.994414 
L 283.22 93.447264 
L 283.568409 93.224271 
L 284.149091 92.373378 
L 284.729773 91.745214 
L 285.310455 91.506766 
L 286.123409 91.482826 
L 287.0525 91.656985 
L 287.517045 91.939823 
L 287.865455 92.544488 
L 288.33 94.152237 
L 288.910682 96.088516 
L 289.375227 97.01804 
L 289.955909 97.688214 
L 290.652727 98.140112 
L 291.465682 98.421036 
L 291.930227 98.425824 
L 292.278636 98.202185 
L 292.743182 97.511804 
L 293.323864 96.711552 
L 293.904545 96.292042 
L 294.7175 96.035666 
L 296.111136 95.878119 
L 302.730909 95.353906 
L 315.041364 93.746137 
L 315.389773 93.388412 
L 316.899545 91.085362 
L 317.596364 90.734567 
L 318.641591 90.512381 
L 319.570682 90.51396 
L 319.919091 90.732269 
L 320.151364 91.117657 
L 320.499773 92.211803 
L 321.312727 94.964303 
L 321.777273 95.781725 
L 322.357955 96.322254 
L 323.054773 96.628267 
L 323.983864 96.765737 
L 324.680682 96.678445 
L 325.029091 96.413043 
L 325.493636 95.608359 
L 326.190455 94.390314 
L 326.771136 93.834598 
L 327.584091 93.418507 
L 328.861591 93.057464 
L 332.577955 92.356181 
L 337.687955 91.253929 
L 342.449545 90.290939 
L 345.236818 89.957369 
L 347.675682 89.891166 
L 349.998409 90.048701 
L 352.901818 90.4874 
L 356.153636 90.998436 
L 356.618182 90.755054 
L 357.315 90.345247 
L 357.895682 90.261774 
L 358.824773 90.399935 
L 359.87 90.750675 
L 360.334545 91.110652 
L 360.682955 91.687442 
L 361.728182 93.783497 
L 362.308864 94.409158 
L 363.121818 94.952434 
L 364.167045 95.388152 
L 364.631591 95.428786 
L 365.096136 95.213849 
L 365.909091 94.770285 
L 366.722045 94.666646 
L 368.580227 94.771387 
L 371.135227 94.836818 
L 373.109545 94.660132 
L 374.967727 94.276524 
L 376.709773 93.691936 
L 378.335682 92.900029 
L 380.658409 91.452277 
L 382.516591 90.421613 
L 384.490909 89.601726 
L 386.813636 88.885244 
L 388.904091 88.460562 
L 390.878409 88.284903 
L 392.736591 88.346251 
L 394.594773 88.637758 
L 396.452955 89.151582 
L 398.543409 89.962016 
L 401.214545 91.257832 
L 407.021364 94.179522 
L 409.111818 94.928104 
L 410.97 95.3665 
L 412.944318 95.602376 
L 415.731591 95.691585 
L 417.241364 95.562249 
L 418.402727 95.253584 
L 419.680227 94.664418 
L 421.073864 93.760551 
L 422.815909 92.351933 
L 425.370909 89.964801 
L 430.248636 85.368714 
L 432.222955 83.844661 
L 433.848864 82.85479 
L 435.358636 82.195149 
L 436.752273 81.832936 
L 438.029773 81.720947 
L 439.307273 81.823503 
L 440.584773 82.137988 
L 441.978409 82.711881 
L 443.488182 83.581889 
L 445.230227 84.858515 
L 447.436818 86.783113 
L 454.637273 93.338477 
L 456.495455 94.599955 
L 458.121364 95.440957 
L 459.631136 95.977132 
L 461.024773 96.252093 
L 462.418409 96.313048 
L 463.812045 96.163445 
L 465.321818 95.774729 
L 466.947727 95.114673 
L 468.805909 94.097736 
L 471.0125 92.617628 
L 478.561364 87.299429 
L 479.606591 86.830647 
L 479.955 86.849791 
L 480.303409 87.145028 
L 481.348636 88.372937 
L 481.929318 88.604527 
L 482.858409 88.691721 
L 484.252045 88.617441 
L 484.600455 88.407193 
L 484.832727 88.04911 
L 485.181136 87.035776 
L 485.994091 84.489196 
L 486.458636 83.7629 
L 486.923182 83.394361 
L 487.503864 83.213251 
L 488.200682 83.229609 
L 489.013636 83.472051 
L 489.478182 83.826104 
L 489.826591 84.390805 
L 491.104091 86.937763 
L 491.917045 87.826297 
L 493.194545 88.849027 
L 495.517273 90.387757 
L 498.072273 91.836518 
L 500.046591 92.718377 
L 501.788636 93.25958 
L 503.414545 93.527936 
L 504.924318 93.555066 
L 506.434091 93.363326 
L 508.06 92.918962 
L 509.802045 92.193033 
L 511.776364 91.112835 
L 514.563636 89.294517 
L 518.628409 86.64877 
L 520.486591 85.701514 
L 522.1125 85.114644 
L 523.506136 84.832819 
L 524.899773 84.781323 
L 526.177273 84.950274 
L 527.454773 85.331756 
L 528.848409 85.988327 
L 530.358182 86.969048 
L 531.984091 88.306622 
L 533.958409 90.249005 
L 536.745682 93.358601 
L 541.042727 98.145379 
L 543.017045 100.00905 
L 544.759091 101.352696 
L 546.268864 102.244907 
L 547.6625 102.821136 
L 549.056136 103.146766 
L 550.333636 103.21942 
L 551.611136 103.075276 
L 552.888636 102.717925 
L 554.282273 102.094533 
L 555.792045 101.163665 
L 556.372727 100.740975 
L 556.372727 100.740975 
" clip-path="url(#p2e3b08536d)" style="fill: none; stroke: #000000; stroke-width: 1.4; stroke-linecap: square"/>
   </g>
   <g id="line2d_28">
    <path d="M 91.827273 16.301385 
L 92.059545 15.894545 
L 92.175682 16.289428 
L 92.407955 18.607306 
L 92.8725 26.839648 
L 93.337045 34.79613 
L 93.685455 37.109707 
L 93.917727 37.464655 
L 94.382273 37.564971 
L 94.614545 37.99441 
L 94.962955 39.527058 
L 95.4275 42.922707 
L 97.169545 57.098115 
L 97.9825 61.3586 
L 99.027727 65.383715 
L 101.002045 72.757394 
L 103.789318 83.466552 
L 105.6475 89.585493 
L 107.505682 94.943332 
L 109.131591 98.991236 
L 110.525227 101.911846 
L 111.802727 104.112301 
L 113.080227 105.871404 
L 114.357727 107.236812 
L 115.635227 108.271182 
L 117.028864 109.095233 
L 118.538636 109.71037 
L 120.280682 110.163151 
L 122.603409 110.516327 
L 127.365 110.961256 
L 131.545909 111.155598 
L 135.610682 111.375864 
L 139.094773 111.837983 
L 143.9725 112.460035 
L 148.037273 112.726137 
L 152.915 112.826835 
L 156.863636 112.693254 
L 161.160682 112.304422 
L 181.02 110.241479 
L 183.575 110.322409 
L 186.478409 110.64649 
L 190.078636 111.28206 
L 192.633636 111.925266 
L 194.840227 112.725114 
L 195.769318 113.185126 
L 196.233864 113.745649 
L 196.698409 114.333787 
L 197.046818 114.48582 
L 197.6275 114.404657 
L 199.253409 114.049141 
L 200.1825 113.849678 
L 200.530909 113.511633 
L 200.995455 112.547783 
L 201.343864 111.915769 
L 201.692273 111.736366 
L 202.040682 111.884535 
L 203.666591 112.953475 
L 205.2925 113.623526 
L 206.105455 114.471518 
L 206.453864 114.480107 
L 207.150682 114.184612 
L 208.428182 113.688841 
L 210.170227 113.31488 
L 215.164091 112.572589 
L 223.409773 111.372465 
L 225.7325 110.9044 
L 227.126136 110.897303 
L 229.913409 111.19915 
L 236.533182 111.81202 
L 243.733636 112.324591 
L 248.262955 112.420083 
L 254.185909 112.25667 
L 263.244545 112.031197 
L 268.470682 112.15977 
L 276.8325 112.635657 
L 282.871591 112.911248 
L 283.336136 112.770403 
L 283.684545 112.447716 
L 284.381364 111.675883 
L 284.729773 111.606724 
L 285.310455 111.806456 
L 286.936364 112.501164 
L 287.517045 112.80108 
L 287.749318 113.152112 
L 288.097727 114.283412 
L 288.562273 115.870885 
L 288.910682 116.287549 
L 289.142955 116.26451 
L 289.6075 115.859438 
L 291.001136 114.383237 
L 292.046364 113.477707 
L 292.627045 112.416591 
L 293.091591 111.74334 
L 293.44 111.584053 
L 293.904545 111.671713 
L 296.343409 112.598014 
L 297.737045 112.73366 
L 300.408182 112.720625 
L 309.466818 112.586968 
L 314.925227 112.540696 
L 315.273636 112.182831 
L 315.854318 111.025797 
L 316.318864 110.384599 
L 316.667273 110.286556 
L 317.131818 110.4709 
L 319.802955 112.233405 
L 320.035227 112.767254 
L 320.383636 114.458059 
L 320.848182 116.910985 
L 321.196591 117.697838 
L 321.428864 117.785455 
L 321.661136 117.649749 
L 322.125682 117.032019 
L 323.519318 114.979013 
L 325.029091 113.203009 
L 326.074318 110.988996 
L 326.422727 110.854264 
L 326.887273 111.007919 
L 329.21 112.2976 
L 330.371364 112.522468 
L 331.997273 112.587886 
L 335.481364 112.447064 
L 342.333409 112.192031 
L 346.746591 112.261445 
L 356.153636 112.59433 
L 356.618182 112.211996 
L 357.198864 111.773825 
L 357.663409 111.74628 
L 358.360227 111.999723 
L 360.218409 112.968741 
L 360.566818 113.617423 
L 361.379773 115.548466 
L 361.728182 115.768315 
L 362.076591 115.720503 
L 362.773409 115.306875 
L 364.863864 113.785546 
L 365.560682 112.931374 
L 366.025227 112.757666 
L 366.605909 112.840903 
L 369.044773 113.455528 
L 370.670682 113.519226 
L 373.225682 113.364093 
L 376.361364 112.9627 
L 379.0325 112.387878 
L 380.890682 112.070665 
L 382.516591 112.057683 
L 393.781818 112.653597 
L 398.427273 113.354627 
L 404.814773 114.312126 
L 407.602045 114.47041 
L 410.273182 114.397349 
L 417.125227 113.853137 
L 418.983409 113.397227 
L 422.699773 112.440141 
L 426.183864 111.835201 
L 429.435682 111.47198 
L 431.990682 111.401206 
L 434.661818 111.553775 
L 438.145909 111.997189 
L 443.372045 112.907901 
L 450.340227 114.350464 
L 454.172727 115.063712 
L 456.263182 115.227686 
L 458.121364 115.146304 
L 459.979545 114.839973 
L 462.418409 114.186759 
L 467.528409 112.753246 
L 469.851136 112.373194 
L 472.29 112.204272 
L 475.309545 112.236489 
L 479.142045 112.507379 
L 479.722727 112.681919 
L 480.071136 113.056036 
L 481.116364 114.743424 
L 481.464773 114.786178 
L 482.045455 114.554717 
L 483.439091 113.901968 
L 484.484318 113.471469 
L 484.832727 112.942803 
L 485.181136 111.897084 
L 485.761818 110.0218 
L 486.110227 109.643245 
L 486.3425 109.682909 
L 486.690909 110.004646 
L 488.781364 112.527018 
L 489.478182 113.223828 
L 489.826591 113.959126 
L 490.407273 115.346138 
L 490.755682 115.700453 
L 491.104091 115.750221 
L 491.684773 115.526095 
L 493.194545 114.854595 
L 494.355909 114.62513 
L 496.446364 114.488178 
L 500.162727 114.220881 
L 503.762955 113.7052 
L 511.776364 112.24442 
L 515.841136 111.621972 
L 518.396136 111.460176 
L 520.835 111.527999 
L 523.854545 111.850435 
L 528.151591 112.556277 
L 535.932727 114.097968 
L 540.810455 114.977278 
L 543.017045 115.157052 
L 544.875227 115.093664 
L 546.733409 114.808725 
L 549.056136 114.209335 
L 554.746818 112.643413 
L 556.372727 112.357964 
L 556.372727 112.357964 
" clip-path="url(#p2e3b08536d)" style="fill: none; stroke: #e45756; stroke-width: 1.1; stroke-linecap: square"/>
   </g>
   <g id="patch_3">
    <path d="M 68.6 122.88 
L 68.6 10.8 
" style="fill: none; stroke: #000000; stroke-width: 0.8; stroke-linejoin: miter; stroke-linecap: square"/>
   </g>
   <g id="patch_4">
    <path d="M 579.6 122.88 
L 579.6 10.8 
" style="fill: none; stroke: #000000; stroke-width: 0.8; stroke-linejoin: miter; stroke-linecap: square"/>
   </g>
   <g id="patch_5">
    <path d="M 68.6 122.88 
L 579.6 122.88 
" style="fill: none; stroke: #000000; stroke-width: 0.8; stroke-linejoin: miter; stroke-linecap: square"/>
   </g>
   <g id="patch_6">
    <path d="M 68.6 10.8 
L 579.6 10.8 
" style="fill: none; stroke: #000000; stroke-width: 0.8; stroke-linejoin: miter; stroke-linecap: square"/>
   </g>
   <g id="legend_1">
    <g id="line2d_29">
     <path d="M 451.289062 23.898438 
L 461.289062 23.898438 
L 471.289062 23.898438 
" style="fill: none; stroke: #000000; stroke-width: 1.4; stroke-linecap: square"/>
    </g>
    <g id="text_6">
     <!-- True residual -->
     <g transform="translate(479.289062 27.398438) scale(0.1 -0.1)">
      <defs>
       <path id="DejaVuSans-54" d="M -19 4666 
L 3928 4666 
L 3928 4134 
L 2272 4134 
L 2272 0 
L 1638 0 
L 1638 4134 
L -19 4134 
L -19 4666 
z
" transform="scale(0.015625)"/>
       <path id="DejaVuSans-72" d="M 2631 2963 
Q 2534 3019 2420 3045 
Q 2306 3072 2169 3072 
Q 1681 3072 1420 2755 
Q 1159 2438 1159 1844 
L 1159 0 
L 581 0 
L 581 3500 
L 1159 3500 
L 1159 2956 
Q 1341 3275 1631 3429 
Q 1922 3584 2338 3584 
Q 2397 3584 2469 3576 
Q 2541 3569 2628 3553 
L 2631 2963 
z
" transform="scale(0.015625)"/>
       <path id="DejaVuSans-75" d="M 544 1381 
L 544 3500 
L 1119 3500 
L 1119 1403 
Q 1119 906 1312 657 
Q 1506 409 1894 409 
Q 2359 409 2629 706 
Q 2900 1003 2900 1516 
L 2900 3500 
L 3475 3500 
L 3475 0 
L 2900 0 
L 2900 538 
Q 2691 219 2414 64 
Q 2138 -91 1772 -91 
Q 1169 -91 856 284 
Q 544 659 544 1381 
z
M 1991 3584 
L 1991 3584 
z
" transform="scale(0.015625)"/>
       <path id="DejaVuSans-65" d="M 3597 1894 
L 3597 1613 
L 953 1613 
Q 991 1019 1311 708 
Q 1631 397 2203 397 
Q 2534 397 2845 478 
Q 3156 559 3463 722 
L 3463 178 
Q 3153 47 2828 -22 
Q 2503 -91 2169 -91 
Q 1331 -91 842 396 
Q 353 884 353 1716 
Q 353 2575 817 3079 
Q 1281 3584 2069 3584 
Q 2775 3584 3186 3129 
Q 3597 2675 3597 1894 
z
M 3022 2063 
Q 3016 2534 2758 2815 
Q 2500 3097 2075 3097 
Q 1594 3097 1305 2825 
Q 1016 2553 972 2059 
L 3022 2063 
z
" transform="scale(0.015625)"/>
       <path id="DejaVuSans-20" transform="scale(0.015625)"/>
       <path id="DejaVuSans-73" d="M 2834 3397 
L 2834 2853 
Q 2591 2978 2328 3040 
Q 2066 3103 1784 3103 
Q 1356 3103 1142 2972 
Q 928 2841 928 2578 
Q 928 2378 1081 2264 
Q 1234 2150 1697 2047 
L 1894 2003 
Q 2506 1872 2764 1633 
Q 3022 1394 3022 966 
Q 3022 478 2636 193 
Q 2250 -91 1575 -91 
Q 1294 -91 989 -36 
Q 684 19 347 128 
L 347 722 
Q 666 556 975 473 
Q 1284 391 1588 391 
Q 1994 391 2212 530 
Q 2431 669 2431 922 
Q 2431 1156 2273 1281 
Q 2116 1406 1581 1522 
L 1381 1569 
Q 847 1681 609 1914 
Q 372 2147 372 2553 
Q 372 3047 722 3315 
Q 1072 3584 1716 3584 
Q 2034 3584 2315 3537 
Q 2597 3491 2834 3397 
z
" transform="scale(0.015625)"/>
       <path id="DejaVuSans-69" d="M 603 3500 
L 1178 3500 
L 1178 0 
L 603 0 
L 603 3500 
z
M 603 4863 
L 1178 4863 
L 1178 4134 
L 603 4134 
L 603 4863 
z
" transform="scale(0.015625)"/>
       <path id="DejaVuSans-64" d="M 2906 2969 
L 2906 4863 
L 3481 4863 
L 3481 0 
L 2906 0 
L 2906 525 
Q 2725 213 2448 61 
Q 2172 -91 1784 -91 
Q 1150 -91 751 415 
Q 353 922 353 1747 
Q 353 2572 751 3078 
Q 1150 3584 1784 3584 
Q 2172 3584 2448 3432 
Q 2725 3281 2906 2969 
z
M 947 1747 
Q 947 1113 1208 752 
Q 1469 391 1925 391 
Q 2381 391 2643 752 
Q 2906 1113 2906 1747 
Q 2906 2381 2643 2742 
Q 2381 3103 1925 3103 
Q 1469 3103 1208 2742 
Q 947 2381 947 1747 
z
" transform="scale(0.015625)"/>
       <path id="DejaVuSans-61" d="M 2194 1759 
Q 1497 1759 1228 1600 
Q 959 1441 959 1056 
Q 959 750 1161 570 
Q 1363 391 1709 391 
Q 2188 391 2477 730 
Q 2766 1069 2766 1631 
L 2766 1759 
L 2194 1759 
z
M 3341 1997 
L 3341 0 
L 2766 0 
L 2766 531 
Q 2569 213 2275 61 
Q 1981 -91 1556 -91 
Q 1019 -91 701 211 
Q 384 513 384 1019 
Q 384 1609 779 1909 
Q 1175 2209 1959 2209 
L 2766 2209 
L 2766 2266 
Q 2766 2663 2505 2880 
Q 2244 3097 1772 3097 
Q 1472 3097 1187 3025 
Q 903 2953 641 2809 
L 641 3341 
Q 956 3463 1253 3523 
Q 1550 3584 1831 3584 
Q 2591 3584 2966 3190 
Q 3341 2797 3341 1997 
z
" transform="scale(0.015625)"/>
       <path id="DejaVuSans-6c" d="M 603 4863 
L 1178 4863 
L 1178 0 
L 603 0 
L 603 4863 
z
" transform="scale(0.015625)"/>
      </defs>
      <use xlink:href="#DejaVuSans-54"/>
      <use xlink:href="#DejaVuSans-72" transform="translate(46.333984 0)"/>
      <use xlink:href="#DejaVuSans-75" transform="translate(87.447266 0)"/>
      <use xlink:href="#DejaVuSans-65" transform="translate(150.826172 0)"/>
      <use xlink:href="#DejaVuSans-20" transform="translate(212.349609 0)"/>
      <use xlink:href="#DejaVuSans-72" transform="translate(244.136719 0)"/>
      <use xlink:href="#DejaVuSans-65" transform="translate(283 0)"/>
      <use xlink:href="#DejaVuSans-73" transform="translate(344.523438 0)"/>
      <use xlink:href="#DejaVuSans-69" transform="translate(396.623047 0)"/>
      <use xlink:href="#DejaVuSans-64" transform="translate(424.40625 0)"/>
      <use xlink:href="#DejaVuSans-75" transform="translate(487.882812 0)"/>
      <use xlink:href="#DejaVuSans-61" transform="translate(551.261719 0)"/>
      <use xlink:href="#DejaVuSans-6c" transform="translate(612.541016 0)"/>
     </g>
    </g>
    <g id="line2d_30">
     <path d="M 451.289062 38.576563 
L 461.289062 38.576563 
L 471.289062 38.576563 
" style="fill: none; stroke: #e45756; stroke-width: 1.1; stroke-linecap: square"/>
    </g>
    <g id="text_7">
     <!-- PINN-CoeffClosure -->
     <g transform="translate(479.289062 42.076563) scale(0.1 -0.1)">
      <defs>
       <path id="DejaVuSans-50" d="M 1259 4147 
L 1259 2394 
L 2053 2394 
Q 2494 2394 2734 2622 
Q 2975 2850 2975 3272 
Q 2975 3691 2734 3919 
Q 2494 4147 2053 4147 
L 1259 4147 
z
M 628 4666 
L 2053 4666 
Q 2838 4666 3239 4311 
Q 3641 3956 3641 3272 
Q 3641 2581 3239 2228 
Q 2838 1875 2053 1875 
L 1259 1875 
L 1259 0 
L 628 0 
L 628 4666 
z
" transform="scale(0.015625)"/>
       <path id="DejaVuSans-49" d="M 628 4666 
L 1259 4666 
L 1259 0 
L 628 0 
L 628 4666 
z
" transform="scale(0.015625)"/>
       <path id="DejaVuSans-4e" d="M 628 4666 
L 1478 4666 
L 3547 763 
L 3547 4666 
L 4159 4666 
L 4159 0 
L 3309 0 
L 1241 3903 
L 1241 0 
L 628 0 
L 628 4666 
z
" transform="scale(0.015625)"/>
       <path id="DejaVuSans-2d" d="M 313 2009 
L 1997 2009 
L 1997 1497 
L 313 1497 
L 313 2009 
z
" transform="scale(0.015625)"/>
       <path id="DejaVuSans-6f" d="M 1959 3097 
Q 1497 3097 1228 2736 
Q 959 2375 959 1747 
Q 959 1119 1226 758 
Q 1494 397 1959 397 
Q 2419 397 2687 759 
Q 2956 1122 2956 1747 
Q 2956 2369 2687 2733 
Q 2419 3097 1959 3097 
z
M 1959 3584 
Q 2709 3584 3137 3096 
Q 3566 2609 3566 1747 
Q 3566 888 3137 398 
Q 2709 -91 1959 -91 
Q 1206 -91 779 398 
Q 353 888 353 1747 
Q 353 2609 779 3096 
Q 1206 3584 1959 3584 
z
" transform="scale(0.015625)"/>
       <path id="DejaVuSans-66" d="M 2375 4863 
L 2375 4384 
L 1825 4384 
Q 1516 4384 1395 4259 
Q 1275 4134 1275 3809 
L 1275 3500 
L 2222 3500 
L 2222 3053 
L 1275 3053 
L 1275 0 
L 697 0 
L 697 3053 
L 147 3053 
L 147 3500 
L 697 3500 
L 697 3744 
Q 697 4328 969 4595 
Q 1241 4863 1831 4863 
L 2375 4863 
z
" transform="scale(0.015625)"/>
      </defs>
      <use xlink:href="#DejaVuSans-50"/>
      <use xlink:href="#DejaVuSans-49" transform="translate(60.302734 0)"/>
      <use xlink:href="#DejaVuSans-4e" transform="translate(89.794922 0)"/>
      <use xlink:href="#DejaVuSans-4e" transform="translate(164.599609 0)"/>
      <use xlink:href="#DejaVuSans-2d" transform="translate(239.404297 0)"/>
      <use xlink:href="#DejaVuSans-43" transform="translate(275.488281 0)"/>
      <use xlink:href="#DejaVuSans-6f" transform="translate(345.3125 0)"/>
      <use xlink:href="#DejaVuSans-65" transform="translate(406.494141 0)"/>
      <use xlink:href="#DejaVuSans-66" transform="translate(468.017578 0)"/>
      <use xlink:href="#DejaVuSans-66" transform="translate(503.222656 0)"/>
      <use xlink:href="#DejaVuSans-43" transform="translate(538.427734 0)"/>
      <use xlink:href="#DejaVuSans-6c" transform="translate(608.251953 0)"/>
      <use xlink:href="#DejaVuSans-6f" transform="translate(636.035156 0)"/>
      <use xlink:href="#DejaVuSans-73" transform="translate(697.216797 0)"/>
      <use xlink:href="#DejaVuSans-75" transform="translate(749.316406 0)"/>
      <use xlink:href="#DejaVuSans-72" transform="translate(812.695312 0)"/>
      <use xlink:href="#DejaVuSans-65" transform="translate(851.558594 0)"/>
     </g>
    </g>
   </g>
  </g>
  <g id="axes_2">
   <g id="patch_7">
    <path d="M 68.6 249.26 
L 579.6 249.26 
L 579.6 137.18 
L 68.6 137.18 
z
" style="fill: #ffffff"/>
   </g>
   <g id="matplotlib.axis_3">
    <g id="xtick_10">
     <g id="line2d_31">
      <path d="M 91.827273 249.26 
L 91.827273 137.18 
" clip-path="url(#pba541ebd48)" style="fill: none; stroke: #b0b0b0; stroke-opacity: 0.25; stroke-width: 0.8; stroke-linecap: square"/>
     </g>
     <g id="line2d_32">
      <g>
       <use xlink:href="#mfa98faef9b" x="91.827273" y="249.26" style="stroke: #000000; stroke-width: 0.8"/>
      </g>
     </g>
    </g>
    <g id="xtick_11">
     <g id="line2d_33">
      <path d="M 149.895455 249.26 
L 149.895455 137.18 
" clip-path="url(#pba541ebd48)" style="fill: none; stroke: #b0b0b0; stroke-opacity: 0.25; stroke-width: 0.8; stroke-linecap: square"/>
     </g>
     <g id="line2d_34">
      <g>
       <use xlink:href="#mfa98faef9b" x="149.895455" y="249.26" style="stroke: #000000; stroke-width: 0.8"/>
      </g>
     </g>
    </g>
    <g id="xtick_12">
     <g id="line2d_35">
      <path d="M 207.963636 249.26 
L 207.963636 137.18 
" clip-path="url(#pba541ebd48)" style="fill: none; stroke: #b0b0b0; stroke-opacity: 0.25; stroke-width: 0.8; stroke-linecap: square"/>
     </g>
     <g id="line2d_36">
      <g>
       <use xlink:href="#mfa98faef9b" x="207.963636" y="249.26" style="stroke: #000000; stroke-width: 0.8"/>
      </g>
     </g>
    </g>
    <g id="xtick_13">
     <g id="line2d_37">
      <path d="M 266.031818 249.26 
L 266.031818 137.18 
" clip-path="url(#pba541ebd48)" style="fill: none; stroke: #b0b0b0; stroke-opacity: 0.25; stroke-width: 0.8; stroke-linecap: square"/>
     </g>
     <g id="line2d_38">
      <g>
       <use xlink:href="#mfa98faef9b" x="266.031818" y="249.26" style="stroke: #000000; stroke-width: 0.8"/>
      </g>
     </g>
    </g>
    <g id="xtick_14">
     <g id="line2d_39">
      <path d="M 324.1 249.26 
L 324.1 137.18 
" clip-path="url(#pba541ebd48)" style="fill: none; stroke: #b0b0b0; stroke-opacity: 0.25; stroke-width: 0.8; stroke-linecap: square"/>
     </g>
     <g id="line2d_40">
      <g>
       <use xlink:href="#mfa98faef9b" x="324.1" y="249.26" style="stroke: #000000; stroke-width: 0.8"/>
      </g>
     </g>
    </g>
    <g id="xtick_15">
     <g id="line2d_41">
      <path d="M 382.168182 249.26 
L 382.168182 137.18 
" clip-path="url(#pba541ebd48)" style="fill: none; stroke: #b0b0b0; stroke-opacity: 0.25; stroke-width: 0.8; stroke-linecap: square"/>
     </g>
     <g id="line2d_42">
      <g>
       <use xlink:href="#mfa98faef9b" x="382.168182" y="249.26" style="stroke: #000000; stroke-width: 0.8"/>
      </g>
     </g>
    </g>
    <g id="xtick_16">
     <g id="line2d_43">
      <path d="M 440.236364 249.26 
L 440.236364 137.18 
" clip-path="url(#pba541ebd48)" style="fill: none; stroke: #b0b0b0; stroke-opacity: 0.25; stroke-width: 0.8; stroke-linecap: square"/>
     </g>
     <g id="line2d_44">
      <g>
       <use xlink:href="#mfa98faef9b" x="440.236364" y="249.26" style="stroke: #000000; stroke-width: 0.8"/>
      </g>
     </g>
    </g>
    <g id="xtick_17">
     <g id="line2d_45">
      <path d="M 498.304545 249.26 
L 498.304545 137.18 
" clip-path="url(#pba541ebd48)" style="fill: none; stroke: #b0b0b0; stroke-opacity: 0.25; stroke-width: 0.8; stroke-linecap: square"/>
     </g>
     <g id="line2d_46">
      <g>
       <use xlink:href="#mfa98faef9b" x="498.304545" y="249.26" style="stroke: #000000; stroke-width: 0.8"/>
      </g>
     </g>
    </g>
    <g id="xtick_18">
     <g id="line2d_47">
      <path d="M 556.372727 249.26 
L 556.372727 137.18 
" clip-path="url(#pba541ebd48)" style="fill: none; stroke: #b0b0b0; stroke-opacity: 0.25; stroke-width: 0.8; stroke-linecap: square"/>
     </g>
     <g id="line2d_48">
      <g>
       <use xlink:href="#mfa98faef9b" x="556.372727" y="249.26" style="stroke: #000000; stroke-width: 0.8"/>
      </g>
     </g>
    </g>
   </g>
   <g id="matplotlib.axis_4">
    <g id="ytick_5">
     <g id="line2d_49">
      <path d="M 68.6 232.697137 
L 579.6 232.697137 
" clip-path="url(#pba541ebd48)" style="fill: none; stroke: #b0b0b0; stroke-opacity: 0.25; stroke-width: 0.8; stroke-linecap: square"/>
     </g>
     <g id="line2d_50">
      <g>
       <use xlink:href="#maea3bf01ab" x="68.6" y="232.697137" style="stroke: #000000; stroke-width: 0.8"/>
      </g>
     </g>
     <g id="text_8">
      <!-- −0.10 -->
      <g transform="translate(30.954688 236.496356) scale(0.1 -0.1)">
       <defs>
        <path id="DejaVuSans-2212" d="M 678 2272 
L 4684 2272 
L 4684 1741 
L 678 1741 
L 678 2272 
z
" transform="scale(0.015625)"/>
       </defs>
       <use xlink:href="#DejaVuSans-2212"/>
       <use xlink:href="#DejaVuSans-30" transform="translate(83.789062 0)"/>
       <use xlink:href="#DejaVuSans-2e" transform="translate(147.412109 0)"/>
       <use xlink:href="#DejaVuSans-31" transform="translate(179.199219 0)"/>
       <use xlink:href="#DejaVuSans-30" transform="translate(242.822266 0)"/>
      </g>
     </g>
    </g>
    <g id="ytick_6">
     <g id="line2d_51">
      <path d="M 68.6 189.99425 
L 579.6 189.99425 
" clip-path="url(#pba541ebd48)" style="fill: none; stroke: #b0b0b0; stroke-opacity: 0.25; stroke-width: 0.8; stroke-linecap: square"/>
     </g>
     <g id="line2d_52">
      <g>
       <use xlink:href="#maea3bf01ab" x="68.6" y="189.99425" style="stroke: #000000; stroke-width: 0.8"/>
      </g>
     </g>
     <g id="text_9">
      <!-- −0.05 -->
      <g transform="translate(30.954688 193.793469) scale(0.1 -0.1)">
       <defs>
        <path id="DejaVuSans-35" d="M 691 4666 
L 3169 4666 
L 3169 4134 
L 1269 4134 
L 1269 2991 
Q 1406 3038 1543 3061 
Q 1681 3084 1819 3084 
Q 2600 3084 3056 2656 
Q 3513 2228 3513 1497 
Q 3513 744 3044 326 
Q 2575 -91 1722 -91 
Q 1428 -91 1123 -41 
Q 819 9 494 109 
L 494 744 
Q 775 591 1075 516 
Q 1375 441 1709 441 
Q 2250 441 2565 725 
Q 2881 1009 2881 1497 
Q 2881 1984 2565 2268 
Q 2250 2553 1709 2553 
Q 1456 2553 1204 2497 
Q 953 2441 691 2322 
L 691 4666 
z
" transform="scale(0.015625)"/>
       </defs>
       <use xlink:href="#DejaVuSans-2212"/>
       <use xlink:href="#DejaVuSans-30" transform="translate(83.789062 0)"/>
       <use xlink:href="#DejaVuSans-2e" transform="translate(147.412109 0)"/>
       <use xlink:href="#DejaVuSans-30" transform="translate(179.199219 0)"/>
       <use xlink:href="#DejaVuSans-35" transform="translate(242.822266 0)"/>
      </g>
     </g>
    </g>
    <g id="ytick_7">
     <g id="line2d_53">
      <path d="M 68.6 147.291363 
L 579.6 147.291363 
" clip-path="url(#pba541ebd48)" style="fill: none; stroke: #b0b0b0; stroke-opacity: 0.25; stroke-width: 0.8; stroke-linecap: square"/>
     </g>
     <g id="line2d_54">
      <g>
       <use xlink:href="#maea3bf01ab" x="68.6" y="147.291363" style="stroke: #000000; stroke-width: 0.8"/>
      </g>
     </g>
     <g id="text_10">
      <!-- 0.00 -->
      <g transform="translate(39.334375 151.090582) scale(0.1 -0.1)">
       <use xlink:href="#DejaVuSans-30"/>
       <use xlink:href="#DejaVuSans-2e" transform="translate(63.623047 0)"/>
       <use xlink:href="#DejaVuSans-30" transform="translate(95.410156 0)"/>
       <use xlink:href="#DejaVuSans-30" transform="translate(159.033203 0)"/>
      </g>
     </g>
    </g>
    <g id="text_11">
     <!-- C_D -->
     <g transform="translate(24.596875 203.061406) rotate(-90) scale(0.1 -0.1)">
      <defs>
       <path id="DejaVuSans-44" d="M 1259 4147 
L 1259 519 
L 2022 519 
Q 2988 519 3436 956 
Q 3884 1394 3884 2338 
Q 3884 3275 3436 3711 
Q 2988 4147 2022 4147 
L 1259 4147 
z
M 628 4666 
L 1925 4666 
Q 3281 4666 3915 4102 
Q 4550 3538 4550 2338 
Q 4550 1131 3912 565 
Q 3275 0 1925 0 
L 628 0 
L 628 4666 
z
" transform="scale(0.015625)"/>
      </defs>
      <use xlink:href="#DejaVuSans-43"/>
      <use xlink:href="#DejaVuSans-5f" transform="translate(69.824219 0)"/>
      <use xlink:href="#DejaVuSans-44" transform="translate(119.824219 0)"/>
     </g>
    </g>
   </g>
   <g id="line2d_55">
    <path d="M 91.827273 145.012107 
L 92.291818 145.586316 
L 92.8725 145.906646 
L 93.801591 146.151344 
L 95.311364 146.284935 
L 98.679318 146.291493 
L 130.384545 146.023625 
L 179.161818 146.327743 
L 206.57 146.289692 
L 214.815682 146.326924 
L 243.965909 146.462551 
L 288.33 146.32688 
L 290.768864 146.29994 
L 318.293182 146.34224 
L 336.642727 146.366133 
L 368.464091 146.306464 
L 397.730455 146.292449 
L 482.161591 146.242848 
L 495.749545 146.295431 
L 538.952273 146.309228 
L 553.353182 146.275211 
L 556.372727 146.320786 
L 556.372727 146.320786 
" clip-path="url(#pba541ebd48)" style="fill: none; stroke: #000000; stroke-width: 1.4; stroke-linecap: square"/>
   </g>
   <g id="line2d_56">
    <path d="M 91.827273 216.29541 
L 92.407955 160.124183 
L 92.640227 153.20591 
L 92.756364 154.07139 
L 92.988636 163.46394 
L 94.15 228.631326 
L 94.498409 239.549157 
L 94.846818 243.920758 
L 94.962955 244.165455 
L 95.079091 243.930154 
L 95.311364 242.304021 
L 95.775909 236.051226 
L 97.634091 206.566031 
L 98.330909 199.429344 
L 99.143864 193.339829 
L 100.072955 188.090779 
L 101.234318 182.839771 
L 102.627955 177.553396 
L 104.253864 172.21427 
L 105.879773 167.583399 
L 107.273409 164.223695 
L 108.667045 161.434455 
L 110.176818 158.93801 
L 112.151136 156.145745 
L 120.164545 145.520253 
L 121.558182 144.1313 
L 122.719545 143.254194 
L 123.880909 142.661215 
L 124.926136 142.367389 
L 126.0875 142.274854 
L 127.481136 142.402593 
L 134.797727 143.46314 
L 138.746364 143.980229 
L 145.017727 145.015815 
L 154.1925 146.812941 
L 157.212045 147.037179 
L 160.696136 147.058248 
L 168.709545 147.000566 
L 171.380682 147.273373 
L 174.864773 147.886727 
L 177.768182 148.31938 
L 179.7425 148.376519 
L 181.716818 148.199231 
L 184.620227 147.677646 
L 188.336591 147.061365 
L 191.123864 146.846503 
L 194.607955 146.827506 
L 196.930682 146.750294 
L 198.092045 146.766257 
L 200.530909 147.023593 
L 200.995455 147.391459 
L 201.46 147.726812 
L 201.924545 147.734497 
L 204.015 147.335846 
L 205.757045 147.15211 
L 206.453864 147.109768 
L 208.079773 147.390649 
L 211.215455 147.827101 
L 215.744773 148.236646 
L 227.126136 148.874527 
L 235.9525 147.947918 
L 240.830227 147.764509 
L 246.637045 147.783289 
L 263.244545 147.993556 
L 269.515909 147.630104 
L 283.452273 146.762298 
L 283.916818 146.994226 
L 284.4975 147.276989 
L 284.962045 147.219938 
L 287.400909 146.501657 
L 288.097727 146.528886 
L 288.446136 145.990438 
L 288.910682 145.300128 
L 289.259091 145.146849 
L 289.6075 145.223835 
L 290.304318 145.685486 
L 291.581818 146.553438 
L 292.278636 146.959664 
L 292.743182 147.619388 
L 293.207727 148.155982 
L 293.556136 148.254338 
L 294.020682 148.129769 
L 295.878864 147.390339 
L 297.156364 147.217535 
L 299.362955 147.194047 
L 307.260227 147.232116 
L 314.576818 146.972299 
L 315.505909 146.875864 
L 315.970455 147.426798 
L 316.435 147.81952 
L 316.783409 147.821448 
L 317.364091 147.52546 
L 318.757727 146.73558 
L 319.454545 146.571304 
L 319.802955 146.708716 
L 320.151364 147.203319 
L 320.383636 147.491868 
L 320.499773 147.479904 
L 320.732045 147.147516 
L 321.312727 146.113216 
L 321.777273 145.77182 
L 322.241818 145.746613 
L 322.938636 145.985862 
L 324.448409 146.552271 
L 325.145227 146.731667 
L 325.493636 147.150203 
L 326.074318 147.872022 
L 326.422727 147.988873 
L 326.887273 147.879265 
L 329.21 146.952946 
L 330.719773 146.749494 
L 333.623182 146.637009 
L 342.565682 146.342723 
L 354.76 145.818375 
L 356.0375 145.686487 
L 356.502045 145.617545 
L 358.011818 145.968868 
L 359.986136 145.748415 
L 360.450682 146.04021 
L 360.799091 146.169899 
L 361.1475 145.905618 
L 361.728182 145.46651 
L 362.192727 145.399689 
L 362.889545 145.554685 
L 364.399318 145.960081 
L 364.98 146.055126 
L 366.141364 146.66573 
L 366.954318 146.63487 
L 369.393182 146.42681 
L 373.457955 146.44508 
L 380.31 146.633783 
L 382.981136 146.584348 
L 396.801364 146.040527 
L 401.562955 146.189063 
L 412.131364 146.550435 
L 420.377045 146.493899 
L 427.925909 147.046178 
L 430.248636 146.922539 
L 432.571364 146.567464 
L 441.397727 144.94798 
L 444.649545 144.728217 
L 447.669091 144.739159 
L 450.456364 144.975171 
L 453.824318 145.51621 
L 456.727727 145.923553 
L 458.585909 145.952828 
L 460.444091 145.740881 
L 462.999091 145.187459 
L 465.9025 144.60655 
L 467.876818 144.449079 
L 469.851136 144.525381 
L 472.406136 144.867608 
L 477.4 145.566103 
L 479.606591 145.676224 
L 480.303409 145.613249 
L 480.767955 145.99413 
L 481.2325 146.313088 
L 481.697045 146.389986 
L 482.974545 146.238515 
L 484.135909 146.208887 
L 484.600455 146.345327 
L 485.297273 146.851602 
L 485.877955 147.250043 
L 486.226364 147.212189 
L 487.155455 146.709733 
L 488.084545 146.37287 
L 489.129773 146.263964 
L 489.942727 146.409231 
L 491.104091 146.522251 
L 493.542955 146.79596 
L 497.491591 147.155088 
L 510.150455 148.129392 
L 514.795909 148.649649 
L 516.886364 148.63914 
L 518.860682 148.402885 
L 521.647955 147.811495 
L 525.712727 146.977371 
L 528.732273 146.605139 
L 532.448636 146.384008 
L 536.048864 146.386254 
L 539.068409 146.612086 
L 542.320227 147.096951 
L 545.455909 147.516926 
L 547.314091 147.542168 
L 549.404545 147.340822 
L 553.585455 146.88082 
L 555.443636 146.951309 
L 556.372727 147.069304 
L 556.372727 147.069304 
" clip-path="url(#pba541ebd48)" style="fill: none; stroke: #e45756; stroke-width: 1.1; stroke-linecap: square"/>
   </g>
   <g id="patch_8">
    <path d="M 68.6 249.26 
L 68.6 137.18 
" style="fill: none; stroke: #000000; stroke-width: 0.8; stroke-linejoin: miter; stroke-linecap: square"/>
   </g>
   <g id="patch_9">
    <path d="M 579.6 249.26 
L 579.6 137.18 
" style="fill: none; stroke: #000000; stroke-width: 0.8; stroke-linejoin: miter; stroke-linecap: square"/>
   </g>
   <g id="patch_10">
    <path d="M 68.6 249.26 
L 579.6 249.26 
" style="fill: none; stroke: #000000; stroke-width: 0.8; stroke-linejoin: miter; stroke-linecap: square"/>
   </g>
   <g id="patch_11">
    <path d="M 68.6 137.18 
L 579.6 137.18 
" style="fill: none; stroke: #000000; stroke-width: 0.8; stroke-linejoin: miter; stroke-linecap: square"/>
   </g>
  </g>
  <g id="axes_3">
   <g id="patch_12">
    <path d="M 68.6 375.64 
L 579.6 375.64 
L 579.6 263.56 
L 68.6 263.56 
z
" style="fill: #ffffff"/>
   </g>
   <g id="matplotlib.axis_5">
    <g id="xtick_19">
     <g id="line2d_57">
      <path d="M 91.827273 375.64 
L 91.827273 263.56 
" clip-path="url(#p33ee6fcdb8)" style="fill: none; stroke: #b0b0b0; stroke-opacity: 0.25; stroke-width: 0.8; stroke-linecap: square"/>
     </g>
     <g id="line2d_58">
      <g>
       <use xlink:href="#mfa98faef9b" x="91.827273" y="375.64" style="stroke: #000000; stroke-width: 0.8"/>
      </g>
     </g>
     <g id="text_12">
      <!-- 0 -->
      <g transform="translate(88.646023 390.238437) scale(0.1 -0.1)">
       <use xlink:href="#DejaVuSans-30"/>
      </g>
     </g>
    </g>
    <g id="xtick_20">
     <g id="line2d_59">
      <path d="M 149.895455 375.64 
L 149.895455 263.56 
" clip-path="url(#p33ee6fcdb8)" style="fill: none; stroke: #b0b0b0; stroke-opacity: 0.25; stroke-width: 0.8; stroke-linecap: square"/>
     </g>
     <g id="line2d_60">
      <g>
       <use xlink:href="#mfa98faef9b" x="149.895455" y="375.64" style="stroke: #000000; stroke-width: 0.8"/>
      </g>
     </g>
     <g id="text_13">
      <!-- 5 -->
      <g transform="translate(146.714205 390.238437) scale(0.1 -0.1)">
       <use xlink:href="#DejaVuSans-35"/>
      </g>
     </g>
    </g>
    <g id="xtick_21">
     <g id="line2d_61">
      <path d="M 207.963636 375.64 
L 207.963636 263.56 
" clip-path="url(#p33ee6fcdb8)" style="fill: none; stroke: #b0b0b0; stroke-opacity: 0.25; stroke-width: 0.8; stroke-linecap: square"/>
     </g>
     <g id="line2d_62">
      <g>
       <use xlink:href="#mfa98faef9b" x="207.963636" y="375.64" style="stroke: #000000; stroke-width: 0.8"/>
      </g>
     </g>
     <g id="text_14">
      <!-- 10 -->
      <g transform="translate(201.601136 390.238437) scale(0.1 -0.1)">
       <use xlink:href="#DejaVuSans-31"/>
       <use xlink:href="#DejaVuSans-30" transform="translate(63.623047 0)"/>
      </g>
     </g>
    </g>
    <g id="xtick_22">
     <g id="line2d_63">
      <path d="M 266.031818 375.64 
L 266.031818 263.56 
" clip-path="url(#p33ee6fcdb8)" style="fill: none; stroke: #b0b0b0; stroke-opacity: 0.25; stroke-width: 0.8; stroke-linecap: square"/>
     </g>
     <g id="line2d_64">
      <g>
       <use xlink:href="#mfa98faef9b" x="266.031818" y="375.64" style="stroke: #000000; stroke-width: 0.8"/>
      </g>
     </g>
     <g id="text_15">
      <!-- 15 -->
      <g transform="translate(259.669318 390.238437) scale(0.1 -0.1)">
       <use xlink:href="#DejaVuSans-31"/>
       <use xlink:href="#DejaVuSans-35" transform="translate(63.623047 0)"/>
      </g>
     </g>
    </g>
    <g id="xtick_23">
     <g id="line2d_65">
      <path d="M 324.1 375.64 
L 324.1 263.56 
" clip-path="url(#p33ee6fcdb8)" style="fill: none; stroke: #b0b0b0; stroke-opacity: 0.25; stroke-width: 0.8; stroke-linecap: square"/>
     </g>
     <g id="line2d_66">
      <g>
       <use xlink:href="#mfa98faef9b" x="324.1" y="375.64" style="stroke: #000000; stroke-width: 0.8"/>
      </g>
     </g>
     <g id="text_16">
      <!-- 20 -->
      <g transform="translate(317.7375 390.238437) scale(0.1 -0.1)">
       <use xlink:href="#DejaVuSans-32"/>
       <use xlink:href="#DejaVuSans-30" transform="translate(63.623047 0)"/>
      </g>
     </g>
    </g>
    <g id="xtick_24">
     <g id="line2d_67">
      <path d="M 382.168182 375.64 
L 382.168182 263.56 
" clip-path="url(#p33ee6fcdb8)" style="fill: none; stroke: #b0b0b0; stroke-opacity: 0.25; stroke-width: 0.8; stroke-linecap: square"/>
     </g>
     <g id="line2d_68">
      <g>
       <use xlink:href="#mfa98faef9b" x="382.168182" y="375.64" style="stroke: #000000; stroke-width: 0.8"/>
      </g>
     </g>
     <g id="text_17">
      <!-- 25 -->
      <g transform="translate(375.805682 390.238437) scale(0.1 -0.1)">
       <use xlink:href="#DejaVuSans-32"/>
       <use xlink:href="#DejaVuSans-35" transform="translate(63.623047 0)"/>
      </g>
     </g>
    </g>
    <g id="xtick_25">
     <g id="line2d_69">
      <path d="M 440.236364 375.64 
L 440.236364 263.56 
" clip-path="url(#p33ee6fcdb8)" style="fill: none; stroke: #b0b0b0; stroke-opacity: 0.25; stroke-width: 0.8; stroke-linecap: square"/>
     </g>
     <g id="line2d_70">
      <g>
       <use xlink:href="#mfa98faef9b" x="440.236364" y="375.64" style="stroke: #000000; stroke-width: 0.8"/>
      </g>
     </g>
     <g id="text_18">
      <!-- 30 -->
      <g transform="translate(433.873864 390.238437) scale(0.1 -0.1)">
       <use xlink:href="#DejaVuSans-33"/>
       <use xlink:href="#DejaVuSans-30" transform="translate(63.623047 0)"/>
      </g>
     </g>
    </g>
    <g id="xtick_26">
     <g id="line2d_71">
      <path d="M 498.304545 375.64 
L 498.304545 263.56 
" clip-path="url(#p33ee6fcdb8)" style="fill: none; stroke: #b0b0b0; stroke-opacity: 0.25; stroke-width: 0.8; stroke-linecap: square"/>
     </g>
     <g id="line2d_72">
      <g>
       <use xlink:href="#mfa98faef9b" x="498.304545" y="375.64" style="stroke: #000000; stroke-width: 0.8"/>
      </g>
     </g>
     <g id="text_19">
      <!-- 35 -->
      <g transform="translate(491.942045 390.238437) scale(0.1 -0.1)">
       <use xlink:href="#DejaVuSans-33"/>
       <use xlink:href="#DejaVuSans-35" transform="translate(63.623047 0)"/>
      </g>
     </g>
    </g>
    <g id="xtick_27">
     <g id="line2d_73">
      <path d="M 556.372727 375.64 
L 556.372727 263.56 
" clip-path="url(#p33ee6fcdb8)" style="fill: none; stroke: #b0b0b0; stroke-opacity: 0.25; stroke-width: 0.8; stroke-linecap: square"/>
     </g>
     <g id="line2d_74">
      <g>
       <use xlink:href="#mfa98faef9b" x="556.372727" y="375.64" style="stroke: #000000; stroke-width: 0.8"/>
      </g>
     </g>
     <g id="text_20">
      <!-- 40 -->
      <g transform="translate(550.010227 390.238437) scale(0.1 -0.1)">
       <defs>
        <path id="DejaVuSans-34" d="M 2419 4116 
L 825 1625 
L 2419 1625 
L 2419 4116 
z
M 2253 4666 
L 3047 4666 
L 3047 1625 
L 3713 1625 
L 3713 1100 
L 3047 1100 
L 3047 0 
L 2419 0 
L 2419 1100 
L 313 1100 
L 313 1709 
L 2253 4666 
z
" transform="scale(0.015625)"/>
       </defs>
       <use xlink:href="#DejaVuSans-34"/>
       <use xlink:href="#DejaVuSans-30" transform="translate(63.623047 0)"/>
      </g>
     </g>
    </g>
    <g id="text_21">
     <!-- time [s] -->
     <g transform="translate(304.708594 403.916562) scale(0.1 -0.1)">
      <defs>
       <path id="DejaVuSans-74" d="M 1172 4494 
L 1172 3500 
L 2356 3500 
L 2356 3053 
L 1172 3053 
L 1172 1153 
Q 1172 725 1289 603 
Q 1406 481 1766 481 
L 2356 481 
L 2356 0 
L 1766 0 
Q 1100 0 847 248 
Q 594 497 594 1153 
L 594 3053 
L 172 3053 
L 172 3500 
L 594 3500 
L 594 4494 
L 1172 4494 
z
" transform="scale(0.015625)"/>
       <path id="DejaVuSans-6d" d="M 3328 2828 
Q 3544 3216 3844 3400 
Q 4144 3584 4550 3584 
Q 5097 3584 5394 3201 
Q 5691 2819 5691 2113 
L 5691 0 
L 5113 0 
L 5113 2094 
Q 5113 2597 4934 2840 
Q 4756 3084 4391 3084 
Q 3944 3084 3684 2787 
Q 3425 2491 3425 1978 
L 3425 0 
L 2847 0 
L 2847 2094 
Q 2847 2600 2669 2842 
Q 2491 3084 2119 3084 
Q 1678 3084 1418 2786 
Q 1159 2488 1159 1978 
L 1159 0 
L 581 0 
L 581 3500 
L 1159 3500 
L 1159 2956 
Q 1356 3278 1631 3431 
Q 1906 3584 2284 3584 
Q 2666 3584 2933 3390 
Q 3200 3197 3328 2828 
z
" transform="scale(0.015625)"/>
       <path id="DejaVuSans-5b" d="M 550 4863 
L 1875 4863 
L 1875 4416 
L 1125 4416 
L 1125 -397 
L 1875 -397 
L 1875 -844 
L 550 -844 
L 550 4863 
z
" transform="scale(0.015625)"/>
       <path id="DejaVuSans-5d" d="M 1947 4863 
L 1947 -844 
L 622 -844 
L 622 -397 
L 1369 -397 
L 1369 4416 
L 622 4416 
L 622 4863 
L 1947 4863 
z
" transform="scale(0.015625)"/>
      </defs>
      <use xlink:href="#DejaVuSans-74"/>
      <use xlink:href="#DejaVuSans-69" transform="translate(39.208984 0)"/>
      <use xlink:href="#DejaVuSans-6d" transform="translate(66.992188 0)"/>
      <use xlink:href="#DejaVuSans-65" transform="translate(164.404297 0)"/>
      <use xlink:href="#DejaVuSans-20" transform="translate(225.927734 0)"/>
      <use xlink:href="#DejaVuSans-5b" transform="translate(257.714844 0)"/>
      <use xlink:href="#DejaVuSans-73" transform="translate(296.728516 0)"/>
      <use xlink:href="#DejaVuSans-5d" transform="translate(348.828125 0)"/>
     </g>
    </g>
   </g>
   <g id="matplotlib.axis_6">
    <g id="ytick_8">
     <g id="line2d_75">
      <path d="M 68.6 355.307138 
L 579.6 355.307138 
" clip-path="url(#p33ee6fcdb8)" style="fill: none; stroke: #b0b0b0; stroke-opacity: 0.25; stroke-width: 0.8; stroke-linecap: square"/>
     </g>
     <g id="line2d_76">
      <g>
       <use xlink:href="#maea3bf01ab" x="68.6" y="355.307138" style="stroke: #000000; stroke-width: 0.8"/>
      </g>
     </g>
     <g id="text_22">
      <!-- −0.004 -->
      <g transform="translate(24.592188 359.106357) scale(0.1 -0.1)">
       <use xlink:href="#DejaVuSans-2212"/>
       <use xlink:href="#DejaVuSans-30" transform="translate(83.789062 0)"/>
       <use xlink:href="#DejaVuSans-2e" transform="translate(147.412109 0)"/>
       <use xlink:href="#DejaVuSans-30" transform="translate(179.199219 0)"/>
       <use xlink:href="#DejaVuSans-30" transform="translate(242.822266 0)"/>
       <use xlink:href="#DejaVuSans-34" transform="translate(306.445312 0)"/>
      </g>
     </g>
    </g>
    <g id="ytick_9">
     <g id="line2d_77">
      <path d="M 68.6 319.189544 
L 579.6 319.189544 
" clip-path="url(#p33ee6fcdb8)" style="fill: none; stroke: #b0b0b0; stroke-opacity: 0.25; stroke-width: 0.8; stroke-linecap: square"/>
     </g>
     <g id="line2d_78">
      <g>
       <use xlink:href="#maea3bf01ab" x="68.6" y="319.189544" style="stroke: #000000; stroke-width: 0.8"/>
      </g>
     </g>
     <g id="text_23">
      <!-- −0.002 -->
      <g transform="translate(24.592188 322.988762) scale(0.1 -0.1)">
       <use xlink:href="#DejaVuSans-2212"/>
       <use xlink:href="#DejaVuSans-30" transform="translate(83.789062 0)"/>
       <use xlink:href="#DejaVuSans-2e" transform="translate(147.412109 0)"/>
       <use xlink:href="#DejaVuSans-30" transform="translate(179.199219 0)"/>
       <use xlink:href="#DejaVuSans-30" transform="translate(242.822266 0)"/>
       <use xlink:href="#DejaVuSans-32" transform="translate(306.445312 0)"/>
      </g>
     </g>
    </g>
    <g id="ytick_10">
     <g id="line2d_79">
      <path d="M 68.6 283.071949 
L 579.6 283.071949 
" clip-path="url(#p33ee6fcdb8)" style="fill: none; stroke: #b0b0b0; stroke-opacity: 0.25; stroke-width: 0.8; stroke-linecap: square"/>
     </g>
     <g id="line2d_80">
      <g>
       <use xlink:href="#maea3bf01ab" x="68.6" y="283.071949" style="stroke: #000000; stroke-width: 0.8"/>
      </g>
     </g>
     <g id="text_24">
      <!-- 0.000 -->
      <g transform="translate(32.971875 286.871168) scale(0.1 -0.1)">
       <use xlink:href="#DejaVuSans-30"/>
       <use xlink:href="#DejaVuSans-2e" transform="translate(63.623047 0)"/>
       <use xlink:href="#DejaVuSans-30" transform="translate(95.410156 0)"/>
       <use xlink:href="#DejaVuSans-30" transform="translate(159.033203 0)"/>
       <use xlink:href="#DejaVuSans-30" transform="translate(222.65625 0)"/>
      </g>
     </g>
    </g>
    <g id="text_25">
     <!-- C_M -->
     <g transform="translate(18.234375 329.905469) rotate(-90) scale(0.1 -0.1)">
      <defs>
       <path id="DejaVuSans-4d" d="M 628 4666 
L 1569 4666 
L 2759 1491 
L 3956 4666 
L 4897 4666 
L 4897 0 
L 4281 0 
L 4281 4097 
L 3078 897 
L 2444 897 
L 1241 4097 
L 1241 0 
L 628 0 
L 628 4666 
z
" transform="scale(0.015625)"/>
      </defs>
      <use xlink:href="#DejaVuSans-43"/>
      <use xlink:href="#DejaVuSans-5f" transform="translate(69.824219 0)"/>
      <use xlink:href="#DejaVuSans-4d" transform="translate(119.824219 0)"/>
     </g>
    </g>
   </g>
   <g id="line2d_81">
    <path d="M 91.827273 318.321095 
L 92.407955 312.322751 
L 93.220909 306.359273 
L 93.801591 303.402266 
L 94.382273 301.44485 
L 94.962955 300.232826 
L 95.543636 299.524754 
L 96.124318 299.143481 
L 96.821136 298.955923 
L 97.750227 298.975923 
L 98.911591 299.241228 
L 100.5375 299.859194 
L 102.511818 300.853659 
L 104.834545 302.272931 
L 107.854091 304.393503 
L 115.635227 309.996156 
L 118.190227 311.489876 
L 120.396818 312.533639 
L 122.487273 313.282359 
L 124.461591 313.762121 
L 126.435909 314.019685 
L 128.526364 314.06109 
L 130.732955 313.874044 
L 133.287955 313.419978 
L 136.772045 312.547367 
L 142.927273 310.982164 
L 146.062955 310.443973 
L 149.0825 310.156548 
L 152.566591 310.063498 
L 163.483409 309.961702 
L 166.502955 309.593081 
L 169.406364 309.01566 
L 172.542045 308.160103 
L 176.606818 306.796278 
L 183.110455 304.598504 
L 186.013864 303.870018 
L 188.568864 303.455977 
L 190.775455 303.313911 
L 192.633636 303.40643 
L 194.259545 303.703672 
L 195.885455 304.217386 
L 196.466136 304.632472 
L 197.279091 305.186463 
L 198.092045 305.392169 
L 200.530909 305.620329 
L 200.879318 305.455025 
L 201.924545 304.750166 
L 202.505227 304.797572 
L 205.060227 305.632327 
L 205.640909 305.938144 
L 206.57 306.496102 
L 207.382955 306.634279 
L 214.699545 306.94876 
L 217.719091 306.799278 
L 220.506364 306.446605 
L 222.712955 305.954019 
L 224.919545 305.209428 
L 227.474545 304.388813 
L 230.377955 303.750115 
L 235.023409 302.952228 
L 238.739773 302.533905 
L 243.036818 302.284748 
L 249.656591 302.160857 
L 257.437727 301.987395 
L 266.496364 301.49367 
L 271.374091 301.37049 
L 275.206591 301.49139 
L 279.3875 301.854768 
L 283.452273 302.258073 
L 284.032955 301.937854 
L 284.613636 301.694876 
L 285.194318 301.702657 
L 286.704091 302.071919 
L 287.633182 302.416053 
L 287.981591 302.799277 
L 289.026818 304.311186 
L 289.491364 304.503633 
L 290.304318 304.497672 
L 292.510909 304.214857 
L 293.207727 303.851692 
L 293.788409 303.829232 
L 294.833636 304.096031 
L 296.691818 304.531974 
L 299.362955 304.88948 
L 303.776136 305.244207 
L 309.118409 305.446842 
L 314.809091 305.451634 
L 315.273636 305.321255 
L 315.854318 304.867098 
L 316.435 304.49416 
L 317.015682 304.393619 
L 318.641591 304.503336 
L 319.919091 304.650692 
L 320.2675 304.955246 
L 321.428864 306.462135 
L 321.893409 306.523962 
L 322.706364 306.313233 
L 324.1 305.976596 
L 325.029091 305.725369 
L 325.725909 305.150883 
L 326.306591 304.840722 
L 327.003409 304.781903 
L 330.022955 304.830838 
L 333.274773 304.494735 
L 348.720909 302.669825 
L 352.669545 302.600414 
L 356.618182 302.540575 
L 357.431136 302.35827 
L 358.360227 302.450144 
L 360.218409 302.873961 
L 360.682955 303.196741 
L 361.612045 304.008605 
L 362.192727 304.184196 
L 363.818636 304.289068 
L 364.863864 304.285392 
L 366.025227 304.113777 
L 367.070455 304.315394 
L 369.741591 304.851965 
L 372.993409 305.236409 
L 376.129091 305.400604 
L 378.684091 305.315834 
L 393.549545 304.246959 
L 396.685227 304.377138 
L 400.053182 304.749307 
L 404.117955 305.436014 
L 411.434545 306.697327 
L 416.660682 307.291362 
L 418.635 307.316403 
L 420.957727 307.108041 
L 423.977273 306.601915 
L 427.693636 305.732765 
L 433.848864 304.264273 
L 436.403864 303.899625 
L 438.726591 303.790977 
L 440.933182 303.914667 
L 443.139773 304.265384 
L 445.4625 304.86244 
L 448.133636 305.784877 
L 451.966136 307.371654 
L 457.424545 309.609078 
L 460.327955 310.541683 
L 462.766818 311.100445 
L 465.089545 311.411943 
L 467.412273 311.498582 
L 469.851136 311.356698 
L 472.522273 310.963926 
L 475.774091 310.246925 
L 479.955 309.296745 
L 480.419545 309.488605 
L 481.116364 309.814823 
L 481.697045 309.794042 
L 482.974545 309.398385 
L 484.716591 308.769016 
L 485.065 308.313779 
L 485.877955 307.010359 
L 486.3425 306.712574 
L 486.923182 306.663182 
L 489.594318 306.977454 
L 490.175 307.386599 
L 490.755682 307.715806 
L 491.336364 307.768406 
L 492.962273 307.519804 
L 494.820455 307.394713 
L 504.692045 307.070549 
L 507.711591 306.613232 
L 510.731136 305.926067 
L 514.215227 304.896645 
L 522.460909 302.350698 
L 525.015909 301.861805 
L 527.338636 301.649837 
L 529.545227 301.678153 
L 531.751818 301.930736 
L 534.190682 302.445123 
L 537.094091 303.304912 
L 547.6625 306.688256 
L 550.101364 307.10213 
L 552.424091 307.267022 
L 554.630682 307.1972 
L 556.372727 306.98292 
L 556.372727 306.98292 
" clip-path="url(#p33ee6fcdb8)" style="fill: none; stroke: #000000; stroke-width: 1.4; stroke-linecap: square"/>
   </g>
   <g id="line2d_82">
    <path d="M 91.827273 268.654545 
L 92.756364 268.654545 
L 92.8725 269.152917 
L 93.801591 301.82603 
L 95.659773 348.572199 
L 96.356591 361.123115 
L 96.937273 367.583257 
L 97.285682 369.670881 
L 97.634091 370.516778 
L 97.750227 370.545455 
L 97.9825 370.256671 
L 98.330909 369.047865 
L 98.795455 366.240144 
L 99.492273 360.196714 
L 100.769773 346.425942 
L 102.511818 328.164255 
L 103.673182 318.196317 
L 104.834545 310.141963 
L 105.879773 304.346154 
L 106.925 299.733831 
L 107.970227 296.125679 
L 109.015455 293.352114 
L 109.944545 291.46153 
L 110.873636 290.012528 
L 111.802727 288.925827 
L 112.847955 288.057315 
L 113.893182 287.494545 
L 114.938409 287.178203 
L 116.099773 287.051662 
L 117.609545 287.132828 
L 120.280682 287.566218 
L 122.835682 287.885052 
L 124.81 287.905484 
L 127.016591 287.697642 
L 133.171818 286.957497 
L 135.726818 287.000105 
L 141.301364 287.182609 
L 143.856364 286.9856 
L 146.643636 286.540034 
L 150.36 285.705349 
L 156.399091 284.093411 
L 161.276818 282.863815 
L 164.180227 282.357006 
L 167.083636 282.075461 
L 172.542045 281.846016 
L 179.7425 281.602435 
L 182.413636 281.815882 
L 187.175227 282.481972 
L 192.285227 283.085261 
L 196.233864 283.575205 
L 196.930682 283.872272 
L 197.511364 283.756647 
L 199.834091 283.017224 
L 200.879318 282.698944 
L 201.808409 282.032859 
L 202.272955 282.171025 
L 203.550455 282.650844 
L 204.595682 282.757682 
L 205.757045 282.863296 
L 206.221591 282.935955 
L 206.802273 282.740785 
L 208.544318 281.986892 
L 210.286364 281.557063 
L 212.841364 281.179219 
L 215.628636 280.996545 
L 218.648182 281.032806 
L 223.409773 281.359401 
L 226.313182 281.686539 
L 233.3975 282.837775 
L 237.462273 283.185964 
L 242.804545 283.388531 
L 248.7275 283.399902 
L 253.140682 283.381333 
L 258.134545 283.626893 
L 264.0575 284.152947 
L 283.336136 286.208621 
L 283.684545 286.328165 
L 283.916818 286.207757 
L 284.613636 285.621369 
L 285.078182 285.601304 
L 286.007273 285.939825 
L 287.0525 286.236013 
L 287.517045 286.124562 
L 287.865455 285.977934 
L 288.097727 286.216931 
L 288.910682 287.853112 
L 289.259091 287.93764 
L 289.723636 287.697335 
L 291.465682 286.492897 
L 291.930227 286.42277 
L 292.510909 286.41724 
L 292.975455 285.876106 
L 293.44 285.503112 
L 293.904545 285.488695 
L 294.833636 285.845314 
L 296.111136 286.261005 
L 297.620909 286.482763 
L 300.524318 286.624482 
L 307.840909 286.975766 
L 314.692955 287.53518 
L 315.041364 287.757854 
L 315.505909 288.154117 
L 315.738182 288.046241 
L 316.667273 287.040845 
L 317.015682 287.056954 
L 317.596364 287.345327 
L 318.99 288.110553 
L 319.454545 288.18459 
L 319.802955 287.989574 
L 320.2675 287.545405 
L 320.499773 287.872546 
L 321.312727 289.904564 
L 321.545 290.021154 
L 321.893409 289.898865 
L 322.474091 289.328784 
L 323.635455 288.148358 
L 324.332273 287.733499 
L 324.680682 287.705244 
L 325.3775 287.827892 
L 325.842045 287.127689 
L 326.306591 286.619704 
L 326.655 286.551485 
L 327.119545 286.711083 
L 329.442273 287.855052 
L 330.835909 288.142097 
L 333.158636 288.348847 
L 345.8175 289.001907 
L 352.321136 289.189489 
L 356.0375 289.307457 
L 356.502045 289.431008 
L 356.850455 289.220326 
L 357.431136 288.836668 
L 357.895682 288.77738 
L 358.824773 288.962339 
L 359.753864 289.107881 
L 360.218409 288.946225 
L 360.566818 288.766218 
L 360.799091 288.898306 
L 361.728182 289.992263 
L 362.076591 289.987625 
L 362.657273 289.701337 
L 364.167045 288.835909 
L 365.212273 288.516463 
L 365.909091 287.930481 
L 366.373636 287.816336 
L 367.186591 287.888335 
L 369.160909 288.098665 
L 371.715909 288.063951 
L 376.361364 288.026773 
L 381.006818 288.257962 
L 384.374773 288.699749 
L 387.394318 288.934732 
L 394.246364 289.194424 
L 398.427273 289.142787 
L 401.911364 288.877203 
L 405.627727 288.349312 
L 413.873409 287.094781 
L 417.241364 286.873819 
L 420.609318 286.850638 
L 423.512727 287.088548 
L 431.177727 288.031006 
L 440.004091 289.266095 
L 444.185 289.549123 
L 447.320682 289.553872 
L 449.759545 289.341929 
L 451.966136 288.934959 
L 454.405 288.25526 
L 460.908636 286.289692 
L 462.999091 285.982259 
L 464.973409 285.910968 
L 467.18 286.06352 
L 469.735 286.478566 
L 474.728864 287.593657 
L 478.096818 288.201931 
L 479.490455 288.295361 
L 479.955 288.085709 
L 480.303409 288.001797 
L 480.651818 288.305578 
L 481.2325 288.819197 
L 481.697045 288.886684 
L 482.51 288.671453 
L 483.903636 288.309266 
L 484.368182 288.406054 
L 484.716591 288.786912 
L 485.065 289.126889 
L 485.297273 288.836988 
L 486.110227 286.851073 
L 486.458636 286.681735 
L 486.807045 286.821616 
L 487.852273 287.718327 
L 488.665227 288.235305 
L 489.129773 288.352733 
L 489.826591 288.314055 
L 490.175 288.748886 
L 490.639545 289.323449 
L 490.987955 289.45046 
L 491.4525 289.337242 
L 494.820455 287.837392 
L 497.607727 287.187023 
L 502.369318 286.286215 
L 505.505 285.912614 
L 508.872955 285.745363 
L 513.402273 285.761704 
L 516.886364 285.979493 
L 520.602727 286.462336 
L 525.596591 287.076189 
L 530.590455 287.418384 
L 534.8875 287.527933 
L 537.4425 287.384872 
L 539.532955 287.047791 
L 541.507273 286.498227 
L 543.713864 285.64229 
L 548.475455 283.713548 
L 550.2175 283.295776 
L 551.843409 283.122886 
L 553.585455 283.164233 
L 555.559773 283.448959 
L 556.372727 283.621874 
L 556.372727 283.621874 
" clip-path="url(#p33ee6fcdb8)" style="fill: none; stroke: #e45756; stroke-width: 1.1; stroke-linecap: square"/>
   </g>
   <g id="patch_13">
    <path d="M 68.6 375.64 
L 68.6 263.56 
" style="fill: none; stroke: #000000; stroke-width: 0.8; stroke-linejoin: miter; stroke-linecap: square"/>
   </g>
   <g id="patch_14">
    <path d="M 579.6 375.64 
L 579.6 263.56 
" style="fill: none; stroke: #000000; stroke-width: 0.8; stroke-linejoin: miter; stroke-linecap: square"/>
   </g>
   <g id="patch_15">
    <path d="M 68.6 375.64 
L 579.6 375.64 
" style="fill: none; stroke: #000000; stroke-width: 0.8; stroke-linejoin: miter; stroke-linecap: square"/>
   </g>
   <g id="patch_16">
    <path d="M 68.6 263.56 
L 579.6 263.56 
" style="fill: none; stroke: #000000; stroke-width: 0.8; stroke-linejoin: miter; stroke-linecap: square"/>
   </g>
  </g>
 </g>
 <defs>
  <clipPath id="p2e3b08536d">
   <rect x="68.6" y="10.8" width="511" height="112.08"/>
  </clipPath>
  <clipPath id="pba541ebd48">
   <rect x="68.6" y="137.18" width="511" height="112.08"/>
  </clipPath>
  <clipPath id="p33ee6fcdb8">
   <rect x="68.6" y="263.56" width="511" height="112.08"/>
  </clipPath>
 </defs>
</svg>
