<?xml version="1.0" encoding="utf-8" standalone="no"?>
<!DOCTYPE svg PUBLIC "-//W3C//DTD SVG 1.1//EN"
  "http://www.w3.org/Graphics/SVG/1.1/DTD/svg11.dtd">
<svg xmlns:xlink="http://www.w3.org/1999/xlink" width="532.8pt" height="446.4pt" viewBox="0 0 532.8 446.4" xmlns="http://www.w3.org/2000/svg" version="1.1">
 <metadata>
  <rdf:RDF xmlns:dc="http://purl.org/dc/elements/1.1/" xmlns:cc="http://creativecommons.org/ns#" xmlns:rdf="http://www.w3.org/1999/02/22-rdf-syntax-ns#">
   <cc:Work>
    <dc:type rdf:resource="http://purl.org/dc/dcmitype/StillImage"/>
    <dc:date>2026-04-29T16:56:56.710178</dc:date>
    <dc:format>image/svg+xml</dc:format>
    <dc:creator>
     <cc:Agent>
      <dc:title>Matplotlib v3.10.9, https://matplotlib.org/</dc:title>
     </cc:Agent>
    </dc:creator>
   </cc:Work>
  </rdf:RDF>
 </metadata>
 <defs>
  <style type="text/css">*{stroke-linejoin: round; stroke-linecap: butt}</style>
 </defs>
 <g id="figure_1">
  <g id="patch_1">
   <path d="M 0 446.4 
L 532.8 446.4 
L 532.8 0 
L 0 0 
z
" style="fill: #ffffff"/>
  </g>
  <g id="axes_1">
   <g id="patch_2">
    <path d="M 57.08 131.376 
L 522 131.376 
L 522 10.8 
L 57.08 10.8 
z
" style="fill: #ffffff"/>
   </g>
   <g id="matplotlib.axis_1">
    <g id="xtick_1">
     <g id="line2d_1">
      <path d="M 202.692089 131.376 
L 202.692089 10.8 
" clip-path="url(#p30e8d1c2f8)" style="fill: none; stroke: #b0b0b0; stroke-opacity: 0.25; stroke-width: 0.8; stroke-linecap: square"/>
     </g>
     <g id="line2d_2">
      <defs>
       <path id="m9a03405562" d="M 0 0 
L 0 3.5 
" style="stroke: #000000; stroke-width: 0.8"/>
      </defs>
      <g>
       <use xlink:href="#m9a03405562" x="202.692089" y="131.376" style="stroke: #000000; stroke-width: 0.8"/>
      </g>
     </g>
    </g>
    <g id="xtick_2">
     <g id="line2d_3">
      <path d="M 378.19559 131.376 
L 378.19559 10.8 
" clip-path="url(#p30e8d1c2f8)" style="fill: none; stroke: #b0b0b0; stroke-opacity: 0.25; stroke-width: 0.8; stroke-linecap: square"/>
     </g>
     <g id="line2d_4">
      <g>
       <use xlink:href="#m9a03405562" x="378.19559" y="131.376" style="stroke: #000000; stroke-width: 0.8"/>
      </g>
     </g>
    </g>
    <g id="xtick_3">
     <g id="line2d_5">
      <path d="M 80.020406 131.376 
L 80.020406 10.8 
" clip-path="url(#p30e8d1c2f8)" style="fill: none; stroke: #b0b0b0; stroke-opacity: 0.25; stroke-width: 0.8; stroke-linecap: square"/>
     </g>
     <g id="line2d_6">
      <defs>
       <path id="m164f0b9fb9" d="M 0 0 
L 0 2 
" style="stroke: #000000; stroke-width: 0.6"/>
      </defs>
      <g>
       <use xlink:href="#m164f0b9fb9" x="80.020406" y="131.376" style="stroke: #000000; stroke-width: 0.6"/>
      </g>
     </g>
    </g>
    <g id="xtick_4">
     <g id="line2d_7">
      <path d="M 110.925038 131.376 
L 110.925038 10.8 
" clip-path="url(#p30e8d1c2f8)" style="fill: none; stroke: #b0b0b0; stroke-opacity: 0.25; stroke-width: 0.8; stroke-linecap: square"/>
     </g>
     <g id="line2d_8">
      <g>
       <use xlink:href="#m164f0b9fb9" x="110.925038" y="131.376" style="stroke: #000000; stroke-width: 0.6"/>
      </g>
     </g>
    </g>
    <g id="xtick_5">
     <g id="line2d_9">
      <path d="M 132.852224 131.376 
L 132.852224 10.8 
" clip-path="url(#p30e8d1c2f8)" style="fill: none; stroke: #b0b0b0; stroke-opacity: 0.25; stroke-width: 0.8; stroke-linecap: square"/>
     </g>
     <g id="line2d_10">
      <g>
       <use xlink:href="#m164f0b9fb9" x="132.852224" y="131.376" style="stroke: #000000; stroke-width: 0.6"/>
      </g>
     </g>
    </g>
    <g id="xtick_6">
     <g id="line2d_11">
      <path d="M 149.86027 131.376 
L 149.86027 10.8 
" clip-path="url(#p30e8d1c2f8)" style="fill: none; stroke: #b0b0b0; stroke-opacity: 0.25; stroke-width: 0.8; stroke-linecap: square"/>
     </g>
     <g id="line2d_12">
      <g>
       <use xlink:href="#m164f0b9fb9" x="149.86027" y="131.376" style="stroke: #000000; stroke-width: 0.6"/>
      </g>
     </g>
    </g>
    <g id="xtick_7">
     <g id="line2d_13">
      <path d="M 163.756856 131.376 
L 163.756856 10.8 
" clip-path="url(#p30e8d1c2f8)" style="fill: none; stroke: #b0b0b0; stroke-opacity: 0.25; stroke-width: 0.8; stroke-linecap: square"/>
     </g>
     <g id="line2d_14">
      <g>
       <use xlink:href="#m164f0b9fb9" x="163.756856" y="131.376" style="stroke: #000000; stroke-width: 0.6"/>
      </g>
     </g>
    </g>
    <g id="xtick_8">
     <g id="line2d_15">
      <path d="M 175.506252 131.376 
L 175.506252 10.8 
" clip-path="url(#p30e8d1c2f8)" style="fill: none; stroke: #b0b0b0; stroke-opacity: 0.25; stroke-width: 0.8; stroke-linecap: square"/>
     </g>
     <g id="line2d_16">
      <g>
       <use xlink:href="#m164f0b9fb9" x="175.506252" y="131.376" style="stroke: #000000; stroke-width: 0.6"/>
      </g>
     </g>
    </g>
    <g id="xtick_9">
     <g id="line2d_17">
      <path d="M 185.684042 131.376 
L 185.684042 10.8 
" clip-path="url(#p30e8d1c2f8)" style="fill: none; stroke: #b0b0b0; stroke-opacity: 0.25; stroke-width: 0.8; stroke-linecap: square"/>
     </g>
     <g id="line2d_18">
      <g>
       <use xlink:href="#m164f0b9fb9" x="185.684042" y="131.376" style="stroke: #000000; stroke-width: 0.6"/>
      </g>
     </g>
    </g>
    <g id="xtick_10">
     <g id="line2d_19">
      <path d="M 194.661489 131.376 
L 194.661489 10.8 
" clip-path="url(#p30e8d1c2f8)" style="fill: none; stroke: #b0b0b0; stroke-opacity: 0.25; stroke-width: 0.8; stroke-linecap: square"/>
     </g>
     <g id="line2d_20">
      <g>
       <use xlink:href="#m164f0b9fb9" x="194.661489" y="131.376" style="stroke: #000000; stroke-width: 0.6"/>
      </g>
     </g>
    </g>
    <g id="xtick_11">
     <g id="line2d_21">
      <path d="M 255.523907 131.376 
L 255.523907 10.8 
" clip-path="url(#p30e8d1c2f8)" style="fill: none; stroke: #b0b0b0; stroke-opacity: 0.25; stroke-width: 0.8; stroke-linecap: square"/>
     </g>
     <g id="line2d_22">
      <g>
       <use xlink:href="#m164f0b9fb9" x="255.523907" y="131.376" style="stroke: #000000; stroke-width: 0.6"/>
      </g>
     </g>
    </g>
    <g id="xtick_12">
     <g id="line2d_23">
      <path d="M 286.428539 131.376 
L 286.428539 10.8 
" clip-path="url(#p30e8d1c2f8)" style="fill: none; stroke: #b0b0b0; stroke-opacity: 0.25; stroke-width: 0.8; stroke-linecap: square"/>
     </g>
     <g id="line2d_24">
      <g>
       <use xlink:href="#m164f0b9fb9" x="286.428539" y="131.376" style="stroke: #000000; stroke-width: 0.6"/>
      </g>
     </g>
    </g>
    <g id="xtick_13">
     <g id="line2d_25">
      <path d="M 308.355725 131.376 
L 308.355725 10.8 
" clip-path="url(#p30e8d1c2f8)" style="fill: none; stroke: #b0b0b0; stroke-opacity: 0.25; stroke-width: 0.8; stroke-linecap: square"/>
     </g>
     <g id="line2d_26">
      <g>
       <use xlink:href="#m164f0b9fb9" x="308.355725" y="131.376" style="stroke: #000000; stroke-width: 0.6"/>
      </g>
     </g>
    </g>
    <g id="xtick_14">
     <g id="line2d_27">
      <path d="M 325.363772 131.376 
L 325.363772 10.8 
" clip-path="url(#p30e8d1c2f8)" style="fill: none; stroke: #b0b0b0; stroke-opacity: 0.25; stroke-width: 0.8; stroke-linecap: square"/>
     </g>
     <g id="line2d_28">
      <g>
       <use xlink:href="#m164f0b9fb9" x="325.363772" y="131.376" style="stroke: #000000; stroke-width: 0.6"/>
      </g>
     </g>
    </g>
    <g id="xtick_15">
     <g id="line2d_29">
      <path d="M 339.260358 131.376 
L 339.260358 10.8 
" clip-path="url(#p30e8d1c2f8)" style="fill: none; stroke: #b0b0b0; stroke-opacity: 0.25; stroke-width: 0.8; stroke-linecap: square"/>
     </g>
     <g id="line2d_30">
      <g>
       <use xlink:href="#m164f0b9fb9" x="339.260358" y="131.376" style="stroke: #000000; stroke-width: 0.6"/>
      </g>
     </g>
    </g>
    <g id="xtick_16">
     <g id="line2d_31">
      <path d="M 351.009753 131.376 
L 351.009753 10.8 
" clip-path="url(#p30e8d1c2f8)" style="fill: none; stroke: #b0b0b0; stroke-opacity: 0.25; stroke-width: 0.8; stroke-linecap: square"/>
     </g>
     <g id="line2d_32">
      <g>
       <use xlink:href="#m164f0b9fb9" x="351.009753" y="131.376" style="stroke: #000000; stroke-width: 0.6"/>
      </g>
     </g>
    </g>
    <g id="xtick_17">
     <g id="line2d_33">
      <path d="M 361.187543 131.376 
L 361.187543 10.8 
" clip-path="url(#p30e8d1c2f8)" style="fill: none; stroke: #b0b0b0; stroke-opacity: 0.25; stroke-width: 0.8; stroke-linecap: square"/>
     </g>
     <g id="line2d_34">
      <g>
       <use xlink:href="#m164f0b9fb9" x="361.187543" y="131.376" style="stroke: #000000; stroke-width: 0.6"/>
      </g>
     </g>
    </g>
    <g id="xtick_18">
     <g id="line2d_35">
      <path d="M 370.16499 131.376 
L 370.16499 10.8 
" clip-path="url(#p30e8d1c2f8)" style="fill: none; stroke: #b0b0b0; stroke-opacity: 0.25; stroke-width: 0.8; stroke-linecap: square"/>
     </g>
     <g id="line2d_36">
      <g>
       <use xlink:href="#m164f0b9fb9" x="370.16499" y="131.376" style="stroke: #000000; stroke-width: 0.6"/>
      </g>
     </g>
    </g>
    <g id="xtick_19">
     <g id="line2d_37">
      <path d="M 431.027408 131.376 
L 431.027408 10.8 
" clip-path="url(#p30e8d1c2f8)" style="fill: none; stroke: #b0b0b0; stroke-opacity: 0.25; stroke-width: 0.8; stroke-linecap: square"/>
     </g>
     <g id="line2d_38">
      <g>
       <use xlink:href="#m164f0b9fb9" x="431.027408" y="131.376" style="stroke: #000000; stroke-width: 0.6"/>
      </g>
     </g>
    </g>
    <g id="xtick_20">
     <g id="line2d_39">
      <path d="M 461.93204 131.376 
L 461.93204 10.8 
" clip-path="url(#p30e8d1c2f8)" style="fill: none; stroke: #b0b0b0; stroke-opacity: 0.25; stroke-width: 0.8; stroke-linecap: square"/>
     </g>
     <g id="line2d_40">
      <g>
       <use xlink:href="#m164f0b9fb9" x="461.93204" y="131.376" style="stroke: #000000; stroke-width: 0.6"/>
      </g>
     </g>
    </g>
    <g id="xtick_21">
     <g id="line2d_41">
      <path d="M 483.859226 131.376 
L 483.859226 10.8 
" clip-path="url(#p30e8d1c2f8)" style="fill: none; stroke: #b0b0b0; stroke-opacity: 0.25; stroke-width: 0.8; stroke-linecap: square"/>
     </g>
     <g id="line2d_42">
      <g>
       <use xlink:href="#m164f0b9fb9" x="483.859226" y="131.376" style="stroke: #000000; stroke-width: 0.6"/>
      </g>
     </g>
    </g>
    <g id="xtick_22">
     <g id="line2d_43">
      <path d="M 500.867273 131.376 
L 500.867273 10.8 
" clip-path="url(#p30e8d1c2f8)" style="fill: none; stroke: #b0b0b0; stroke-opacity: 0.25; stroke-width: 0.8; stroke-linecap: square"/>
     </g>
     <g id="line2d_44">
      <g>
       <use xlink:href="#m164f0b9fb9" x="500.867273" y="131.376" style="stroke: #000000; stroke-width: 0.6"/>
      </g>
     </g>
    </g>
    <g id="xtick_23">
     <g id="line2d_45">
      <path d="M 514.763859 131.376 
L 514.763859 10.8 
" clip-path="url(#p30e8d1c2f8)" style="fill: none; stroke: #b0b0b0; stroke-opacity: 0.25; stroke-width: 0.8; stroke-linecap: square"/>
     </g>
     <g id="line2d_46">
      <g>
       <use xlink:href="#m164f0b9fb9" x="514.763859" y="131.376" style="stroke: #000000; stroke-width: 0.6"/>
      </g>
     </g>
    </g>
   </g>
   <g id="matplotlib.axis_2">
    <g id="ytick_1">
     <g id="line2d_47">
      <path d="M 57.08 125.72918 
L 522 125.72918 
" clip-path="url(#p30e8d1c2f8)" style="fill: none; stroke: #b0b0b0; stroke-opacity: 0.25; stroke-width: 0.8; stroke-linecap: square"/>
     </g>
     <g id="line2d_48">
      <defs>
       <path id="m1b8ea98ab5" d="M 0 0 
L -3.5 0 
" style="stroke: #000000; stroke-width: 0.8"/>
      </defs>
      <g>
       <use xlink:href="#m1b8ea98ab5" x="57.08" y="125.72918" style="stroke: #000000; stroke-width: 0.8"/>
      </g>
     </g>
     <g id="text_1">
      <!-- −50 -->
      <g transform="translate(28.975313 129.528399) scale(0.1 -0.1)">
       <defs>
        <path id="DejaVuSans-2212" d="M 678 2272 
L 4684 2272 
L 4684 1741 
L 678 1741 
L 678 2272 
z
" transform="scale(0.015625)"/>
        <path id="DejaVuSans-35" d="M 691 4666 
L 3169 4666 
L 3169 4134 
L 1269 4134 
L 1269 2991 
Q 1406 3038 1543 3061 
Q 1681 3084 1819 3084 
Q 2600 3084 3056 2656 
Q 3513 2228 3513 1497 
Q 3513 744 3044 326 
Q 2575 -91 1722 -91 
Q 1428 -91 1123 -41 
Q 819 9 494 109 
L 494 744 
Q 775 591 1075 516 
Q 1375 441 1709 441 
Q 2250 441 2565 725 
Q 2881 1009 2881 1497 
Q 2881 1984 2565 2268 
Q 2250 2553 1709 2553 
Q 1456 2553 1204 2497 
Q 953 2441 691 2322 
L 691 4666 
z
" transform="scale(0.015625)"/>
        <path id="DejaVuSans-30" d="M 2034 4250 
Q 1547 4250 1301 3770 
Q 1056 3291 1056 2328 
Q 1056 1369 1301 889 
Q 1547 409 2034 409 
Q 2525 409 2770 889 
Q 3016 1369 3016 2328 
Q 3016 3291 2770 3770 
Q 2525 4250 2034 4250 
z
M 2034 4750 
Q 2819 4750 3233 4129 
Q 3647 3509 3647 2328 
Q 3647 1150 3233 529 
Q 2819 -91 2034 -91 
Q 1250 -91 836 529 
Q 422 1150 422 2328 
Q 422 3509 836 4129 
Q 1250 4750 2034 4750 
z
" transform="scale(0.015625)"/>
       </defs>
       <use xlink:href="#DejaVuSans-2212"/>
       <use xlink:href="#DejaVuSans-35" transform="translate(83.789062 0)"/>
       <use xlink:href="#DejaVuSans-30" transform="translate(147.412109 0)"/>
      </g>
     </g>
    </g>
    <g id="ytick_2">
     <g id="line2d_49">
      <path d="M 57.08 89.906999 
L 522 89.906999 
" clip-path="url(#p30e8d1c2f8)" style="fill: none; stroke: #b0b0b0; stroke-opacity: 0.25; stroke-width: 0.8; stroke-linecap: square"/>
     </g>
     <g id="line2d_50">
      <g>
       <use xlink:href="#m1b8ea98ab5" x="57.08" y="89.906999" style="stroke: #000000; stroke-width: 0.8"/>
      </g>
     </g>
     <g id="text_2">
      <!-- 0 -->
      <g transform="translate(43.7175 93.706217) scale(0.1 -0.1)">
       <use xlink:href="#DejaVuSans-30"/>
      </g>
     </g>
    </g>
    <g id="ytick_3">
     <g id="line2d_51">
      <path d="M 57.08 54.084817 
L 522 54.084817 
" clip-path="url(#p30e8d1c2f8)" style="fill: none; stroke: #b0b0b0; stroke-opacity: 0.25; stroke-width: 0.8; stroke-linecap: square"/>
     </g>
     <g id="line2d_52">
      <g>
       <use xlink:href="#m1b8ea98ab5" x="57.08" y="54.084817" style="stroke: #000000; stroke-width: 0.8"/>
      </g>
     </g>
     <g id="text_3">
      <!-- 50 -->
      <g transform="translate(37.355 57.884036) scale(0.1 -0.1)">
       <use xlink:href="#DejaVuSans-35"/>
       <use xlink:href="#DejaVuSans-30" transform="translate(63.623047 0)"/>
      </g>
     </g>
    </g>
    <g id="ytick_4">
     <g id="line2d_53">
      <path d="M 57.08 18.262636 
L 522 18.262636 
" clip-path="url(#p30e8d1c2f8)" style="fill: none; stroke: #b0b0b0; stroke-opacity: 0.25; stroke-width: 0.8; stroke-linecap: square"/>
     </g>
     <g id="line2d_54">
      <g>
       <use xlink:href="#m1b8ea98ab5" x="57.08" y="18.262636" style="stroke: #000000; stroke-width: 0.8"/>
      </g>
     </g>
     <g id="text_4">
      <!-- 100 -->
      <g transform="translate(30.9925 22.061854) scale(0.1 -0.1)">
       <defs>
        <path id="DejaVuSans-31" d="M 794 531 
L 1825 531 
L 1825 4091 
L 703 3866 
L 703 4441 
L 1819 4666 
L 2450 4666 
L 2450 531 
L 3481 531 
L 3481 0 
L 794 0 
L 794 531 
z
" transform="scale(0.015625)"/>
       </defs>
       <use xlink:href="#DejaVuSans-31"/>
       <use xlink:href="#DejaVuSans-30" transform="translate(63.623047 0)"/>
       <use xlink:href="#DejaVuSans-30" transform="translate(127.246094 0)"/>
      </g>
     </g>
    </g>
    <g id="text_5">
     <!-- magnitude [dB] -->
     <g transform="translate(22.895625 110.229406) rotate(-90) scale(0.1 -0.1)">
      <defs>
       <path id="DejaVuSans-6d" d="M 3328 2828 
Q 3544 3216 3844 3400 
Q 4144 3584 4550 3584 
Q 5097 3584 5394 3201 
Q 5691 2819 5691 2113 
L 5691 0 
L 5113 0 
L 5113 2094 
Q 5113 2597 4934 2840 
Q 4756 3084 4391 3084 
Q 3944 3084 3684 2787 
Q 3425 2491 3425 1978 
L 3425 0 
L 2847 0 
L 2847 2094 
Q 2847 2600 2669 2842 
Q 2491 3084 2119 3084 
Q 1678 3084 1418 2786 
Q 1159 2488 1159 1978 
L 1159 0 
L 581 0 
L 581 3500 
L 1159 3500 
L 1159 2956 
Q 1356 3278 1631 3431 
Q 1906 3584 2284 3584 
Q 2666 3584 2933 3390 
Q 3200 3197 3328 2828 
z
" transform="scale(0.015625)"/>
       <path id="DejaVuSans-61" d="M 2194 1759 
Q 1497 1759 1228 1600 
Q 959 1441 959 1056 
Q 959 750 1161 570 
Q 1363 391 1709 391 
Q 2188 391 2477 730 
Q 2766 1069 2766 1631 
L 2766 1759 
L 2194 1759 
z
M 3341 1997 
L 3341 0 
L 2766 0 
L 2766 531 
Q 2569 213 2275 61 
Q 1981 -91 1556 -91 
Q 1019 -91 701 211 
Q 384 513 384 1019 
Q 384 1609 779 1909 
Q 1175 2209 1959 2209 
L 2766 2209 
L 2766 2266 
Q 2766 2663 2505 2880 
Q 2244 3097 1772 3097 
Q 1472 3097 1187 3025 
Q 903 2953 641 2809 
L 641 3341 
Q 956 3463 1253 3523 
Q 1550 3584 1831 3584 
Q 2591 3584 2966 3190 
Q 3341 2797 3341 1997 
z
" transform="scale(0.015625)"/>
       <path id="DejaVuSans-67" d="M 2906 1791 
Q 2906 2416 2648 2759 
Q 2391 3103 1925 3103 
Q 1463 3103 1205 2759 
Q 947 2416 947 1791 
Q 947 1169 1205 825 
Q 1463 481 1925 481 
Q 2391 481 2648 825 
Q 2906 1169 2906 1791 
z
M 3481 434 
Q 3481 -459 3084 -895 
Q 2688 -1331 1869 -1331 
Q 1566 -1331 1297 -1286 
Q 1028 -1241 775 -1147 
L 775 -588 
Q 1028 -725 1275 -790 
Q 1522 -856 1778 -856 
Q 2344 -856 2625 -561 
Q 2906 -266 2906 331 
L 2906 616 
Q 2728 306 2450 153 
Q 2172 0 1784 0 
Q 1141 0 747 490 
Q 353 981 353 1791 
Q 353 2603 747 3093 
Q 1141 3584 1784 3584 
Q 2172 3584 2450 3431 
Q 2728 3278 2906 2969 
L 2906 3500 
L 3481 3500 
L 3481 434 
z
" transform="scale(0.015625)"/>
       <path id="DejaVuSans-6e" d="M 3513 2113 
L 3513 0 
L 2938 0 
L 2938 2094 
Q 2938 2591 2744 2837 
Q 2550 3084 2163 3084 
Q 1697 3084 1428 2787 
Q 1159 2491 1159 1978 
L 1159 0 
L 581 0 
L 581 3500 
L 1159 3500 
L 1159 2956 
Q 1366 3272 1645 3428 
Q 1925 3584 2291 3584 
Q 2894 3584 3203 3211 
Q 3513 2838 3513 2113 
z
" transform="scale(0.015625)"/>
       <path id="DejaVuSans-69" d="M 603 3500 
L 1178 3500 
L 1178 0 
L 603 0 
L 603 3500 
z
M 603 4863 
L 1178 4863 
L 1178 4134 
L 603 4134 
L 603 4863 
z
" transform="scale(0.015625)"/>
       <path id="DejaVuSans-74" d="M 1172 4494 
L 1172 3500 
L 2356 3500 
L 2356 3053 
L 1172 3053 
L 1172 1153 
Q 1172 725 1289 603 
Q 1406 481 1766 481 
L 2356 481 
L 2356 0 
L 1766 0 
Q 1100 0 847 248 
Q 594 497 594 1153 
L 594 3053 
L 172 3053 
L 172 3500 
L 594 3500 
L 594 4494 
L 1172 4494 
z
" transform="scale(0.015625)"/>
       <path id="DejaVuSans-75" d="M 544 1381 
L 544 3500 
L 1119 3500 
L 1119 1403 
Q 1119 906 1312 657 
Q 1506 409 1894 409 
Q 2359 409 2629 706 
Q 2900 1003 2900 1516 
L 2900 3500 
L 3475 3500 
L 3475 0 
L 2900 0 
L 2900 538 
Q 2691 219 2414 64 
Q 2138 -91 1772 -91 
Q 1169 -91 856 284 
Q 544 659 544 1381 
z
M 1991 3584 
L 1991 3584 
z
" transform="scale(0.015625)"/>
       <path id="DejaVuSans-64" d="M 2906 2969 
L 2906 4863 
L 3481 4863 
L 3481 0 
L 2906 0 
L 2906 525 
Q 2725 213 2448 61 
Q 2172 -91 1784 -91 
Q 1150 -91 751 415 
Q 353 922 353 1747 
Q 353 2572 751 3078 
Q 1150 3584 1784 3584 
Q 2172 3584 2448 3432 
Q 2725 3281 2906 2969 
z
M 947 1747 
Q 947 1113 1208 752 
Q 1469 391 1925 391 
Q 2381 391 2643 752 
Q 2906 1113 2906 1747 
Q 2906 2381 2643 2742 
Q 2381 3103 1925 3103 
Q 1469 3103 1208 2742 
Q 947 2381 947 1747 
z
" transform="scale(0.015625)"/>
       <path id="DejaVuSans-65" d="M 3597 1894 
L 3597 1613 
L 953 1613 
Q 991 1019 1311 708 
Q 1631 397 2203 397 
Q 2534 397 2845 478 
Q 3156 559 3463 722 
L 3463 178 
Q 3153 47 2828 -22 
Q 2503 -91 2169 -91 
Q 1331 -91 842 396 
Q 353 884 353 1716 
Q 353 2575 817 3079 
Q 1281 3584 2069 3584 
Q 2775 3584 3186 3129 
Q 3597 2675 3597 1894 
z
M 3022 2063 
Q 3016 2534 2758 2815 
Q 2500 3097 2075 3097 
Q 1594 3097 1305 2825 
Q 1016 2553 972 2059 
L 3022 2063 
z
" transform="scale(0.015625)"/>
       <path id="DejaVuSans-20" transform="scale(0.015625)"/>
       <path id="DejaVuSans-5b" d="M 550 4863 
L 1875 4863 
L 1875 4416 
L 1125 4416 
L 1125 -397 
L 1875 -397 
L 1875 -844 
L 550 -844 
L 550 4863 
z
" transform="scale(0.015625)"/>
       <path id="DejaVuSans-42" d="M 1259 2228 
L 1259 519 
L 2272 519 
Q 2781 519 3026 730 
Q 3272 941 3272 1375 
Q 3272 1813 3026 2020 
Q 2781 2228 2272 2228 
L 1259 2228 
z
M 1259 4147 
L 1259 2741 
L 2194 2741 
Q 2656 2741 2882 2914 
Q 3109 3088 3109 3444 
Q 3109 3797 2882 3972 
Q 2656 4147 2194 4147 
L 1259 4147 
z
M 628 4666 
L 2241 4666 
Q 2963 4666 3353 4366 
Q 3744 4066 3744 3513 
Q 3744 3084 3544 2831 
Q 3344 2578 2956 2516 
Q 3422 2416 3680 2098 
Q 3938 1781 3938 1306 
Q 3938 681 3513 340 
Q 3088 0 2303 0 
L 628 0 
L 628 4666 
z
" transform="scale(0.015625)"/>
       <path id="DejaVuSans-5d" d="M 1947 4863 
L 1947 -844 
L 622 -844 
L 622 -397 
L 1369 -397 
L 1369 4416 
L 622 4416 
L 622 4863 
L 1947 4863 
z
" transform="scale(0.015625)"/>
      </defs>
      <use xlink:href="#DejaVuSans-6d"/>
      <use xlink:href="#DejaVuSans-61" transform="translate(97.412109 0)"/>
      <use xlink:href="#DejaVuSans-67" transform="translate(158.691406 0)"/>
      <use xlink:href="#DejaVuSans-6e" transform="translate(222.167969 0)"/>
      <use xlink:href="#DejaVuSans-69" transform="translate(285.546875 0)"/>
      <use xlink:href="#DejaVuSans-74" transform="translate(313.330078 0)"/>
      <use xlink:href="#DejaVuSans-75" transform="translate(352.539062 0)"/>
      <use xlink:href="#DejaVuSans-64" transform="translate(415.917969 0)"/>
      <use xlink:href="#DejaVuSans-65" transform="translate(479.394531 0)"/>
      <use xlink:href="#DejaVuSans-20" transform="translate(540.917969 0)"/>
      <use xlink:href="#DejaVuSans-5b" transform="translate(572.705078 0)"/>
      <use xlink:href="#DejaVuSans-64" transform="translate(611.71875 0)"/>
      <use xlink:href="#DejaVuSans-42" transform="translate(675.195312 0)"/>
      <use xlink:href="#DejaVuSans-5d" transform="translate(743.798828 0)"/>
     </g>
    </g>
   </g>
   <g id="line2d_55">
    <path d="M 78.212727 96.629982 
L 131.044545 96.717109 
L 161.949178 96.410372 
L 183.876364 97.027125 
L 200.88441 97.871759 
L 214.780996 97.191222 
L 226.530392 98.653343 
L 236.708182 98.328284 
L 245.685629 97.048769 
L 253.716228 100.867557 
L 260.98079 101.008739 
L 267.612814 92.829934 
L 273.713686 81.391882 
L 279.36221 102.022408 
L 284.620861 94.716567 
L 289.54 99.143635 
L 294.160821 104.694217 
L 298.517447 100.238046 
L 302.638461 97.201126 
L 306.548047 102.272522 
L 310.266843 104.816292 
L 313.812608 108.785922 
L 317.20073 111.260322 
L 320.444632 114.501203 
L 323.556093 102.71141 
L 326.545504 91.885642 
L 329.422079 92.271638 
L 332.194028 91.383478 
L 334.868696 96.336428 
L 337.452679 95.377031 
L 339.951926 93.457775 
L 342.371818 90.528744 
L 344.71724 88.835445 
L 346.992639 83.808279 
L 349.202075 96.591144 
L 351.349265 84.954732 
L 353.43762 81.360205 
L 355.470279 82.220364 
L 357.450136 77.098126 
L 359.379865 81.269595 
L 361.261941 87.552599 
L 363.098661 83.544653 
L 364.89216 83.439951 
L 366.644426 97.097151 
L 368.357312 91.740378 
L 370.032548 87.522228 
L 371.671756 100.138284 
L 373.276451 96.041739 
L 374.848057 91.484331 
L 376.387911 82.305847 
L 377.897272 81.189625 
L 379.377322 80.501516 
L 380.829179 81.643823 
L 382.253897 83.718439 
L 383.652473 84.310805 
L 385.025847 80.214135 
L 386.374912 77.791809 
L 387.700514 74.411376 
L 389.003455 71.851423 
L 390.284497 85.605127 
L 391.544364 68.007503 
L 392.783744 66.467051 
L 395.203636 79.272865 
L 396.385369 69.272401 
L 397.549058 77.245138 
L 398.695248 80.413694 
L 399.824457 71.482705 
L 400.937181 71.773408 
L 402.033893 75.659275 
L 403.115049 72.539031 
L 404.181083 74.61616 
L 405.232413 81.009343 
L 406.269438 81.342648 
L 407.292544 73.098316 
L 408.302098 81.236804 
L 409.298454 71.623488 
L 410.281954 75.530007 
L 411.252926 71.661511 
L 412.211683 66.966117 
L 413.15853 64.570223 
L 414.093759 66.848688 
L 415.017651 60.662977 
L 415.930479 64.814548 
L 416.832504 59.028921 
L 417.723978 58.799846 
L 418.605147 54.413296 
L 419.476244 58.121258 
L 420.337498 59.957677 
L 421.18913 58.452421 
L 422.03135 63.130904 
L 422.864366 64.369947 
L 423.688377 59.95738 
L 424.503574 62.91103 
L 425.310144 68.792755 
L 426.108269 79.292582 
L 426.898123 68.473434 
L 427.679875 65.466409 
L 428.453691 54.518941 
L 429.21973 54.073949 
L 429.978146 57.949777 
L 430.72909 62.898547 
L 431.472707 54.997733 
L 432.20914 52.887017 
L 432.938526 56.181758 
L 433.660997 55.220468 
L 434.376685 56.866491 
L 435.085716 50.107706 
L 435.788211 47.300899 
L 436.484291 41.928911 
L 437.174071 43.539658 
L 437.857665 47.804403 
L 438.535182 50.451649 
L 439.20673 46.414508 
L 439.872413 51.017998 
L 440.532332 48.906866 
L 441.186587 65.375999 
L 441.835273 62.452002 
L 442.478486 53.621699 
L 443.116315 56.187917 
L 443.748852 64.756116 
L 444.376182 67.035555 
L 445.615562 41.199943 
L 446.227776 46.753936 
L 446.835112 46.993519 
L 447.437646 42.038105 
L 448.035455 43.772946 
L 448.628611 48.084704 
L 449.217187 40.00641 
L 449.801252 42.134706 
L 450.380877 36.657266 
L 450.956126 45.256109 
L 451.527067 38.782476 
L 452.093762 37.321198 
L 452.656275 39.806161 
L 453.214668 32.95273 
L 453.768999 33.514108 
L 454.319328 36.050511 
L 454.865711 37.695075 
L 455.408206 39.871554 
L 455.946867 39.061444 
L 456.481748 49.67333 
L 457.012901 41.847445 
L 457.540379 45.330031 
L 458.064231 47.139978 
L 458.584508 53.564132 
L 459.101257 41.260594 
L 459.614526 40.007297 
L 460.124362 32.431251 
L 460.63081 38.592295 
L 461.133916 36.137847 
L 461.633722 30.446147 
L 462.130273 31.330776 
L 462.623609 38.868649 
L 463.113773 29.815258 
L 463.600804 31.63356 
L 464.084744 31.322297 
L 464.56563 25.236911 
L 465.043501 22.02723 
L 465.990348 31.047037 
L 466.459397 25.446601 
L 466.925577 25.870138 
L 467.388923 32.43511 
L 467.84947 31.976346 
L 468.30725 32.393825 
L 468.762297 40.763269 
L 469.214644 39.260835 
L 469.664322 44.107578 
L 470.111363 45.106731 
L 470.555797 41.558826 
L 470.997654 29.55754 
L 471.436965 27.924196 
L 471.873758 25.689512 
L 472.308062 33.94683 
L 472.739906 22.453488 
L 473.169317 23.944008 
L 473.596322 25.988315 
L 474.020948 22.452716 
L 474.443222 24.548202 
L 474.863169 19.059914 
L 475.280815 22.456068 
L 475.696185 18.606369 
L 476.109303 19.747176 
L 476.520195 23.091967 
L 476.928883 20.196852 
L 477.335392 29.75739 
L 477.739744 24.663467 
L 478.141962 25.989292 
L 478.542069 26.636769 
L 478.940087 25.965379 
L 479.336037 28.471089 
L 479.729941 35.291298 
L 480.121819 35.779644 
L 480.511693 29.48682 
L 480.899583 28.943211 
L 481.285509 32.220725 
L 481.669491 27.001161 
L 482.051548 23.506164 
L 482.431699 22.115951 
L 482.809964 32.292926 
L 483.186361 22.705576 
L 483.560908 21.827898 
L 483.933624 19.5952 
L 484.304526 19.754533 
L 484.673631 26.309941 
L 485.040958 23.813031 
L 485.406524 30.198471 
L 485.770344 21.414478 
L 486.132436 19.113671 
L 486.492816 23.648252 
L 486.8515 39.487338 
L 487.208504 28.935086 
L 487.563843 37.2358 
L 487.917534 29.667098 
L 488.269591 28.22332 
L 488.620029 31.219783 
L 488.968864 35.471883 
L 489.316109 36.472074 
L 490.348452 24.421594 
L 490.689483 22.529073 
L 491.028994 24.488166 
L 491.367 30.586007 
L 492.038548 17.382536 
L 492.372116 17.441955 
L 492.704231 19.11443 
L 493.034905 17.106074 
L 493.36415 24.88805 
L 494.018405 18.00935 
L 494.343438 16.280727 
L 494.667092 25.342988 
L 494.989376 19.735469 
L 495.310304 19.034583 
L 495.629886 17.914305 
L 495.948134 21.782929 
L 496.265058 31.606406 
L 496.58067 30.401966 
L 496.894981 38.51227 
L 497.51974 36.663136 
L 497.83021 27.224627 
L 498.13942 22.029874 
L 498.447381 25.574261 
L 498.754102 26.088212 
L 499.059594 25.281581 
L 499.66693 19.497563 
L 499.968792 19.379843 
L 500.269464 23.690657 
L 500.568955 23.348939 
L 500.867273 28.361874 
L 500.867273 28.361874 
" clip-path="url(#p30e8d1c2f8)" style="fill: none; stroke: #4c78a8; stroke-width: 1.5; stroke-linecap: square"/>
   </g>
   <g id="line2d_56">
    <path d="M 78.212727 98.371501 
L 131.044545 99.399975 
L 161.949178 103.207461 
L 183.876364 107.793555 
L 200.88441 109.634582 
L 214.780996 113.702581 
L 226.530392 113.882347 
L 236.708182 112.450188 
L 245.685629 115.326888 
L 253.716228 112.697074 
L 260.98079 112.916591 
L 267.612814 104.365175 
L 273.713686 104.830424 
L 279.36221 121.079751 
L 284.620861 105.352791 
L 289.54 110.59973 
L 294.160821 109.907777 
L 298.517447 113.507208 
L 302.638461 116.031628 
L 306.548047 116.408043 
L 310.266843 111.212443 
L 313.812608 109.088672 
L 317.20073 117.991464 
L 320.444632 125.895273 
L 323.556093 112.46231 
L 326.545504 109.122688 
L 329.422079 110.928994 
L 332.194028 108.654469 
L 334.868696 104.791363 
L 337.452679 101.440016 
L 339.951926 109.584976 
L 342.371818 106.099144 
L 344.71724 105.161934 
L 346.992639 107.205099 
L 349.202075 98.508717 
L 351.349265 104.881151 
L 353.43762 96.236753 
L 355.470279 95.3499 
L 357.450136 101.447331 
L 359.379865 95.715952 
L 361.261941 101.179823 
L 363.098661 97.949715 
L 364.89216 96.895845 
L 366.644426 102.231923 
L 368.357312 101.487699 
L 370.032548 101.7176 
L 371.671756 108.719476 
L 373.276451 105.774632 
L 374.848057 108.491796 
L 376.387911 99.459239 
L 377.897272 98.205301 
L 379.377322 93.83955 
L 380.829179 94.145959 
L 382.253897 90.291535 
L 383.652473 93.865425 
L 385.025847 92.385042 
L 386.374912 93.357479 
L 387.700514 89.802015 
L 389.003455 97.980476 
L 390.284497 85.461818 
L 391.544364 91.024854 
L 392.783744 85.216401 
L 394.003293 84.66263 
L 395.203636 88.80381 
L 396.385369 90.988093 
L 397.549058 90.582065 
L 398.695248 92.551828 
L 399.824457 89.302824 
L 400.937181 88.188056 
L 402.033893 88.023696 
L 403.115049 85.544683 
L 404.181083 90.005255 
L 405.232413 101.45482 
L 406.269438 93.22417 
L 407.292544 90.136656 
L 408.302098 88.34817 
L 409.298454 87.188377 
L 410.281954 84.570814 
L 411.252926 86.347034 
L 412.211683 88.624837 
L 413.15853 84.69817 
L 414.093759 78.296281 
L 415.930479 72.380165 
L 416.832504 79.001579 
L 417.723978 72.008431 
L 418.605147 68.560353 
L 419.476244 72.077041 
L 420.337498 77.360512 
L 421.18913 76.164604 
L 422.03135 77.289369 
L 422.864366 81.254902 
L 423.688377 88.35937 
L 424.503574 83.216673 
L 425.310144 79.319023 
L 426.108269 87.453677 
L 426.898123 86.843398 
L 427.679875 80.972096 
L 428.453691 74.092277 
L 429.21973 73.129645 
L 429.978146 71.413568 
L 430.72909 71.055589 
L 431.472707 79.396237 
L 432.20914 72.435878 
L 432.938526 68.23908 
L 433.660997 70.733779 
L 434.376685 69.973822 
L 435.085716 73.971251 
L 435.788211 76.095291 
L 436.484291 59.662918 
L 437.174071 55.868354 
L 437.857665 60.776099 
L 438.535182 67.100452 
L 439.20673 63.291197 
L 439.872413 62.091395 
L 440.532332 73.488964 
L 441.186587 70.601709 
L 441.835273 70.552853 
L 442.478486 65.560159 
L 443.116315 69.71697 
L 443.748852 79.806125 
L 444.376182 73.726182 
L 444.998391 78.831014 
L 445.615562 65.195994 
L 446.227776 57.990242 
L 446.835112 73.943603 
L 447.437646 60.530837 
L 448.035455 56.923257 
L 448.628611 59.284658 
L 449.217187 58.873417 
L 449.801252 62.262621 
L 450.380877 53.823628 
L 451.527067 47.95098 
L 452.093762 47.791499 
L 452.656275 45.404979 
L 453.214668 50.352813 
L 453.768999 48.127067 
L 454.319328 58.729054 
L 454.865711 53.959114 
L 455.408206 55.377739 
L 455.946867 72.270427 
L 456.481748 61.278338 
L 457.012901 57.363376 
L 457.540379 68.532244 
L 458.064231 70.21327 
L 458.584508 55.43337 
L 459.101257 50.054658 
L 459.614526 48.669877 
L 460.124362 50.057414 
L 461.133916 49.201879 
L 461.633722 49.934331 
L 462.130273 44.3458 
L 462.623609 43.797718 
L 463.113773 44.168107 
L 463.600804 44.353003 
L 464.084744 43.080601 
L 464.56563 41.176361 
L 465.043501 43.06956 
L 465.518395 46.606465 
L 465.990348 38.307444 
L 466.459397 49.387958 
L 466.925577 47.263995 
L 467.388923 43.159036 
L 467.84947 46.256929 
L 468.30725 51.367196 
L 468.762297 47.94537 
L 469.214644 49.454801 
L 469.664322 58.171633 
L 470.111363 54.268334 
L 470.555797 46.118796 
L 470.997654 43.770073 
L 471.436965 44.977747 
L 471.873758 47.178527 
L 472.308062 43.69497 
L 472.739906 41.971654 
L 473.169317 41.680983 
L 473.596322 43.694612 
L 474.443222 36.900371 
L 474.863169 40.900124 
L 475.280815 43.591697 
L 475.696185 42.862532 
L 476.109303 41.160958 
L 476.520195 49.206941 
L 476.928883 38.079696 
L 477.335392 35.265258 
L 477.739744 38.171857 
L 478.141962 39.934929 
L 478.542069 40.668799 
L 479.729941 49.307631 
L 480.121819 70.675984 
L 480.511693 47.93031 
L 480.899583 42.917817 
L 481.285509 43.64277 
L 481.669491 43.091264 
L 482.051548 47.601626 
L 482.431699 37.720284 
L 482.809964 38.913041 
L 483.186361 35.179312 
L 483.560908 36.634067 
L 483.933624 34.197261 
L 484.304526 38.97895 
L 484.673631 33.386426 
L 485.040958 41.910289 
L 485.406524 34.802662 
L 485.770344 34.201196 
L 486.8515 39.750629 
L 487.208504 39.851034 
L 487.563843 39.056259 
L 487.917534 41.503332 
L 488.269591 45.803161 
L 488.620029 46.176462 
L 488.968864 52.954597 
L 489.316109 51.95084 
L 489.661779 48.454179 
L 490.005889 47.395246 
L 490.348452 49.724625 
L 491.367 36.922992 
L 491.703514 35.749571 
L 492.038548 35.098443 
L 492.372116 29.943667 
L 493.034905 37.881253 
L 493.36415 35.339078 
L 493.69198 35.14607 
L 494.018405 38.902092 
L 494.343438 39.890771 
L 494.667092 40.002962 
L 494.989376 37.421558 
L 495.310304 37.989958 
L 495.629886 37.248952 
L 495.948134 40.18544 
L 496.265058 45.770389 
L 496.58067 46.884678 
L 496.894981 60.040636 
L 497.208 47.881298 
L 497.51974 45.566466 
L 497.83021 47.152502 
L 498.13942 54.855126 
L 498.447381 40.734201 
L 498.754102 39.273384 
L 499.059594 40.310188 
L 499.363867 36.174947 
L 499.66693 34.45106 
L 499.968792 34.056226 
L 500.269464 34.698318 
L 500.568955 42.121332 
L 500.867273 39.523276 
L 500.867273 39.523276 
" clip-path="url(#p30e8d1c2f8)" style="fill: none; stroke: #f58518; stroke-width: 1.5; stroke-linecap: square"/>
   </g>
   <g id="patch_3">
    <path d="M 57.08 131.376 
L 57.08 10.8 
" style="fill: none; stroke: #000000; stroke-width: 0.8; stroke-linejoin: miter; stroke-linecap: square"/>
   </g>
   <g id="patch_4">
    <path d="M 522 131.376 
L 522 10.8 
" style="fill: none; stroke: #000000; stroke-width: 0.8; stroke-linejoin: miter; stroke-linecap: square"/>
   </g>
   <g id="patch_5">
    <path d="M 57.08 131.376 
L 522 131.376 
" style="fill: none; stroke: #000000; stroke-width: 0.8; stroke-linejoin: miter; stroke-linecap: square"/>
   </g>
   <g id="patch_6">
    <path d="M 57.08 10.8 
L 522 10.8 
" style="fill: none; stroke: #000000; stroke-width: 0.8; stroke-linejoin: miter; stroke-linecap: square"/>
   </g>
   <g id="legend_1">
    <g id="line2d_57">
     <path d="M 66.08 23.898438 
L 76.08 23.898438 
L 86.08 23.898438 
" style="fill: none; stroke: #4c78a8; stroke-width: 1.5; stroke-linecap: square"/>
    </g>
    <g id="text_6">
     <!-- Q -->
     <g transform="translate(94.08 27.398438) scale(0.1 -0.1)">
      <defs>
       <path id="DejaVuSans-51" d="M 2522 4238 
Q 1834 4238 1429 3725 
Q 1025 3213 1025 2328 
Q 1025 1447 1429 934 
Q 1834 422 2522 422 
Q 3209 422 3611 934 
Q 4013 1447 4013 2328 
Q 4013 3213 3611 3725 
Q 3209 4238 2522 4238 
z
M 3406 84 
L 4238 -825 
L 3475 -825 
L 2784 -78 
Q 2681 -84 2626 -87 
Q 2572 -91 2522 -91 
Q 1538 -91 948 567 
Q 359 1225 359 2328 
Q 359 3434 948 4092 
Q 1538 4750 2522 4750 
Q 3503 4750 4090 4092 
Q 4678 3434 4678 2328 
Q 4678 1516 4351 937 
Q 4025 359 3406 84 
z
" transform="scale(0.015625)"/>
      </defs>
      <use xlink:href="#DejaVuSans-51"/>
     </g>
    </g>
    <g id="line2d_58">
     <path d="M 66.08 38.576563 
L 76.08 38.576563 
L 86.08 38.576563 
" style="fill: none; stroke: #f58518; stroke-width: 1.5; stroke-linecap: square"/>
    </g>
    <g id="text_7">
     <!-- gamma -->
     <g transform="translate(94.08 42.076563) scale(0.1 -0.1)">
      <use xlink:href="#DejaVuSans-67"/>
      <use xlink:href="#DejaVuSans-61" transform="translate(63.476562 0)"/>
      <use xlink:href="#DejaVuSans-6d" transform="translate(124.755859 0)"/>
      <use xlink:href="#DejaVuSans-6d" transform="translate(222.167969 0)"/>
      <use xlink:href="#DejaVuSans-61" transform="translate(319.580078 0)"/>
     </g>
    </g>
   </g>
  </g>
  <g id="axes_2">
   <g id="patch_7">
    <path d="M 57.08 266.252 
L 522 266.252 
L 522 145.676 
L 57.08 145.676 
z
" style="fill: #ffffff"/>
   </g>
   <g id="matplotlib.axis_3">
    <g id="xtick_24">
     <g id="line2d_59">
      <path d="M 202.692089 266.252 
L 202.692089 145.676 
" clip-path="url(#p531c3a358b)" style="fill: none; stroke: #b0b0b0; stroke-opacity: 0.25; stroke-width: 0.8; stroke-linecap: square"/>
     </g>
     <g id="line2d_60">
      <g>
       <use xlink:href="#m9a03405562" x="202.692089" y="266.252" style="stroke: #000000; stroke-width: 0.8"/>
      </g>
     </g>
    </g>
    <g id="xtick_25">
     <g id="line2d_61">
      <path d="M 378.19559 266.252 
L 378.19559 145.676 
" clip-path="url(#p531c3a358b)" style="fill: none; stroke: #b0b0b0; stroke-opacity: 0.25; stroke-width: 0.8; stroke-linecap: square"/>
     </g>
     <g id="line2d_62">
      <g>
       <use xlink:href="#m9a03405562" x="378.19559" y="266.252" style="stroke: #000000; stroke-width: 0.8"/>
      </g>
     </g>
    </g>
    <g id="xtick_26">
     <g id="line2d_63">
      <path d="M 80.020406 266.252 
L 80.020406 145.676 
" clip-path="url(#p531c3a358b)" style="fill: none; stroke: #b0b0b0; stroke-opacity: 0.25; stroke-width: 0.8; stroke-linecap: square"/>
     </g>
     <g id="line2d_64">
      <g>
       <use xlink:href="#m164f0b9fb9" x="80.020406" y="266.252" style="stroke: #000000; stroke-width: 0.6"/>
      </g>
     </g>
    </g>
    <g id="xtick_27">
     <g id="line2d_65">
      <path d="M 110.925038 266.252 
L 110.925038 145.676 
" clip-path="url(#p531c3a358b)" style="fill: none; stroke: #b0b0b0; stroke-opacity: 0.25; stroke-width: 0.8; stroke-linecap: square"/>
     </g>
     <g id="line2d_66">
      <g>
       <use xlink:href="#m164f0b9fb9" x="110.925038" y="266.252" style="stroke: #000000; stroke-width: 0.6"/>
      </g>
     </g>
    </g>
    <g id="xtick_28">
     <g id="line2d_67">
      <path d="M 132.852224 266.252 
L 132.852224 145.676 
" clip-path="url(#p531c3a358b)" style="fill: none; stroke: #b0b0b0; stroke-opacity: 0.25; stroke-width: 0.8; stroke-linecap: square"/>
     </g>
     <g id="line2d_68">
      <g>
       <use xlink:href="#m164f0b9fb9" x="132.852224" y="266.252" style="stroke: #000000; stroke-width: 0.6"/>
      </g>
     </g>
    </g>
    <g id="xtick_29">
     <g id="line2d_69">
      <path d="M 149.86027 266.252 
L 149.86027 145.676 
" clip-path="url(#p531c3a358b)" style="fill: none; stroke: #b0b0b0; stroke-opacity: 0.25; stroke-width: 0.8; stroke-linecap: square"/>
     </g>
     <g id="line2d_70">
      <g>
       <use xlink:href="#m164f0b9fb9" x="149.86027" y="266.252" style="stroke: #000000; stroke-width: 0.6"/>
      </g>
     </g>
    </g>
    <g id="xtick_30">
     <g id="line2d_71">
      <path d="M 163.756856 266.252 
L 163.756856 145.676 
" clip-path="url(#p531c3a358b)" style="fill: none; stroke: #b0b0b0; stroke-opacity: 0.25; stroke-width: 0.8; stroke-linecap: square"/>
     </g>
     <g id="line2d_72">
      <g>
       <use xlink:href="#m164f0b9fb9" x="163.756856" y="266.252" style="stroke: #000000; stroke-width: 0.6"/>
      </g>
     </g>
    </g>
    <g id="xtick_31">
     <g id="line2d_73">
      <path d="M 175.506252 266.252 
L 175.506252 145.676 
" clip-path="url(#p531c3a358b)" style="fill: none; stroke: #b0b0b0; stroke-opacity: 0.25; stroke-width: 0.8; stroke-linecap: square"/>
     </g>
     <g id="line2d_74">
      <g>
       <use xlink:href="#m164f0b9fb9" x="175.506252" y="266.252" style="stroke: #000000; stroke-width: 0.6"/>
      </g>
     </g>
    </g>
    <g id="xtick_32">
     <g id="line2d_75">
      <path d="M 185.684042 266.252 
L 185.684042 145.676 
" clip-path="url(#p531c3a358b)" style="fill: none; stroke: #b0b0b0; stroke-opacity: 0.25; stroke-width: 0.8; stroke-linecap: square"/>
     </g>
     <g id="line2d_76">
      <g>
       <use xlink:href="#m164f0b9fb9" x="185.684042" y="266.252" style="stroke: #000000; stroke-width: 0.6"/>
      </g>
     </g>
    </g>
    <g id="xtick_33">
     <g id="line2d_77">
      <path d="M 194.661489 266.252 
L 194.661489 145.676 
" clip-path="url(#p531c3a358b)" style="fill: none; stroke: #b0b0b0; stroke-opacity: 0.25; stroke-width: 0.8; stroke-linecap: square"/>
     </g>
     <g id="line2d_78">
      <g>
       <use xlink:href="#m164f0b9fb9" x="194.661489" y="266.252" style="stroke: #000000; stroke-width: 0.6"/>
      </g>
     </g>
    </g>
    <g id="xtick_34">
     <g id="line2d_79">
      <path d="M 255.523907 266.252 
L 255.523907 145.676 
" clip-path="url(#p531c3a358b)" style="fill: none; stroke: #b0b0b0; stroke-opacity: 0.25; stroke-width: 0.8; stroke-linecap: square"/>
     </g>
     <g id="line2d_80">
      <g>
       <use xlink:href="#m164f0b9fb9" x="255.523907" y="266.252" style="stroke: #000000; stroke-width: 0.6"/>
      </g>
     </g>
    </g>
    <g id="xtick_35">
     <g id="line2d_81">
      <path d="M 286.428539 266.252 
L 286.428539 145.676 
" clip-path="url(#p531c3a358b)" style="fill: none; stroke: #b0b0b0; stroke-opacity: 0.25; stroke-width: 0.8; stroke-linecap: square"/>
     </g>
     <g id="line2d_82">
      <g>
       <use xlink:href="#m164f0b9fb9" x="286.428539" y="266.252" style="stroke: #000000; stroke-width: 0.6"/>
      </g>
     </g>
    </g>
    <g id="xtick_36">
     <g id="line2d_83">
      <path d="M 308.355725 266.252 
L 308.355725 145.676 
" clip-path="url(#p531c3a358b)" style="fill: none; stroke: #b0b0b0; stroke-opacity: 0.25; stroke-width: 0.8; stroke-linecap: square"/>
     </g>
     <g id="line2d_84">
      <g>
       <use xlink:href="#m164f0b9fb9" x="308.355725" y="266.252" style="stroke: #000000; stroke-width: 0.6"/>
      </g>
     </g>
    </g>
    <g id="xtick_37">
     <g id="line2d_85">
      <path d="M 325.363772 266.252 
L 325.363772 145.676 
" clip-path="url(#p531c3a358b)" style="fill: none; stroke: #b0b0b0; stroke-opacity: 0.25; stroke-width: 0.8; stroke-linecap: square"/>
     </g>
     <g id="line2d_86">
      <g>
       <use xlink:href="#m164f0b9fb9" x="325.363772" y="266.252" style="stroke: #000000; stroke-width: 0.6"/>
      </g>
     </g>
    </g>
    <g id="xtick_38">
     <g id="line2d_87">
      <path d="M 339.260358 266.252 
L 339.260358 145.676 
" clip-path="url(#p531c3a358b)" style="fill: none; stroke: #b0b0b0; stroke-opacity: 0.25; stroke-width: 0.8; stroke-linecap: square"/>
     </g>
     <g id="line2d_88">
      <g>
       <use xlink:href="#m164f0b9fb9" x="339.260358" y="266.252" style="stroke: #000000; stroke-width: 0.6"/>
      </g>
     </g>
    </g>
    <g id="xtick_39">
     <g id="line2d_89">
      <path d="M 351.009753 266.252 
L 351.009753 145.676 
" clip-path="url(#p531c3a358b)" style="fill: none; stroke: #b0b0b0; stroke-opacity: 0.25; stroke-width: 0.8; stroke-linecap: square"/>
     </g>
     <g id="line2d_90">
      <g>
       <use xlink:href="#m164f0b9fb9" x="351.009753" y="266.252" style="stroke: #000000; stroke-width: 0.6"/>
      </g>
     </g>
    </g>
    <g id="xtick_40">
     <g id="line2d_91">
      <path d="M 361.187543 266.252 
L 361.187543 145.676 
" clip-path="url(#p531c3a358b)" style="fill: none; stroke: #b0b0b0; stroke-opacity: 0.25; stroke-width: 0.8; stroke-linecap: square"/>
     </g>
     <g id="line2d_92">
      <g>
       <use xlink:href="#m164f0b9fb9" x="361.187543" y="266.252" style="stroke: #000000; stroke-width: 0.6"/>
      </g>
     </g>
    </g>
    <g id="xtick_41">
     <g id="line2d_93">
      <path d="M 370.16499 266.252 
L 370.16499 145.676 
" clip-path="url(#p531c3a358b)" style="fill: none; stroke: #b0b0b0; stroke-opacity: 0.25; stroke-width: 0.8; stroke-linecap: square"/>
     </g>
     <g id="line2d_94">
      <g>
       <use xlink:href="#m164f0b9fb9" x="370.16499" y="266.252" style="stroke: #000000; stroke-width: 0.6"/>
      </g>
     </g>
    </g>
    <g id="xtick_42">
     <g id="line2d_95">
      <path d="M 431.027408 266.252 
L 431.027408 145.676 
" clip-path="url(#p531c3a358b)" style="fill: none; stroke: #b0b0b0; stroke-opacity: 0.25; stroke-width: 0.8; stroke-linecap: square"/>
     </g>
     <g id="line2d_96">
      <g>
       <use xlink:href="#m164f0b9fb9" x="431.027408" y="266.252" style="stroke: #000000; stroke-width: 0.6"/>
      </g>
     </g>
    </g>
    <g id="xtick_43">
     <g id="line2d_97">
      <path d="M 461.93204 266.252 
L 461.93204 145.676 
" clip-path="url(#p531c3a358b)" style="fill: none; stroke: #b0b0b0; stroke-opacity: 0.25; stroke-width: 0.8; stroke-linecap: square"/>
     </g>
     <g id="line2d_98">
      <g>
       <use xlink:href="#m164f0b9fb9" x="461.93204" y="266.252" style="stroke: #000000; stroke-width: 0.6"/>
      </g>
     </g>
    </g>
    <g id="xtick_44">
     <g id="line2d_99">
      <path d="M 483.859226 266.252 
L 483.859226 145.676 
" clip-path="url(#p531c3a358b)" style="fill: none; stroke: #b0b0b0; stroke-opacity: 0.25; stroke-width: 0.8; stroke-linecap: square"/>
     </g>
     <g id="line2d_100">
      <g>
       <use xlink:href="#m164f0b9fb9" x="483.859226" y="266.252" style="stroke: #000000; stroke-width: 0.6"/>
      </g>
     </g>
    </g>
    <g id="xtick_45">
     <g id="line2d_101">
      <path d="M 500.867273 266.252 
L 500.867273 145.676 
" clip-path="url(#p531c3a358b)" style="fill: none; stroke: #b0b0b0; stroke-opacity: 0.25; stroke-width: 0.8; stroke-linecap: square"/>
     </g>
     <g id="line2d_102">
      <g>
       <use xlink:href="#m164f0b9fb9" x="500.867273" y="266.252" style="stroke: #000000; stroke-width: 0.6"/>
      </g>
     </g>
    </g>
    <g id="xtick_46">
     <g id="line2d_103">
      <path d="M 514.763859 266.252 
L 514.763859 145.676 
" clip-path="url(#p531c3a358b)" style="fill: none; stroke: #b0b0b0; stroke-opacity: 0.25; stroke-width: 0.8; stroke-linecap: square"/>
     </g>
     <g id="line2d_104">
      <g>
       <use xlink:href="#m164f0b9fb9" x="514.763859" y="266.252" style="stroke: #000000; stroke-width: 0.6"/>
      </g>
     </g>
    </g>
   </g>
   <g id="matplotlib.axis_4">
    <g id="ytick_5">
     <g id="line2d_105">
      <path d="M 57.08 233.980731 
L 522 233.980731 
" clip-path="url(#p531c3a358b)" style="fill: none; stroke: #b0b0b0; stroke-opacity: 0.25; stroke-width: 0.8; stroke-linecap: square"/>
     </g>
     <g id="line2d_106">
      <g>
       <use xlink:href="#m1b8ea98ab5" x="57.08" y="233.980731" style="stroke: #000000; stroke-width: 0.8"/>
      </g>
     </g>
     <g id="text_8">
      <!-- 0 -->
      <g transform="translate(43.7175 237.77995) scale(0.1 -0.1)">
       <use xlink:href="#DejaVuSans-30"/>
      </g>
     </g>
    </g>
    <g id="ytick_6">
     <g id="line2d_107">
      <path d="M 57.08 198.244405 
L 522 198.244405 
" clip-path="url(#p531c3a358b)" style="fill: none; stroke: #b0b0b0; stroke-opacity: 0.25; stroke-width: 0.8; stroke-linecap: square"/>
     </g>
     <g id="line2d_108">
      <g>
       <use xlink:href="#m1b8ea98ab5" x="57.08" y="198.244405" style="stroke: #000000; stroke-width: 0.8"/>
      </g>
     </g>
     <g id="text_9">
      <!-- 2000 -->
      <g transform="translate(24.63 202.043623) scale(0.1 -0.1)">
       <defs>
        <path id="DejaVuSans-32" d="M 1228 531 
L 3431 531 
L 3431 0 
L 469 0 
L 469 531 
Q 828 903 1448 1529 
Q 2069 2156 2228 2338 
Q 2531 2678 2651 2914 
Q 2772 3150 2772 3378 
Q 2772 3750 2511 3984 
Q 2250 4219 1831 4219 
Q 1534 4219 1204 4116 
Q 875 4013 500 3803 
L 500 4441 
Q 881 4594 1212 4672 
Q 1544 4750 1819 4750 
Q 2544 4750 2975 4387 
Q 3406 4025 3406 3419 
Q 3406 3131 3298 2873 
Q 3191 2616 2906 2266 
Q 2828 2175 2409 1742 
Q 1991 1309 1228 531 
z
" transform="scale(0.015625)"/>
       </defs>
       <use xlink:href="#DejaVuSans-32"/>
       <use xlink:href="#DejaVuSans-30" transform="translate(63.623047 0)"/>
       <use xlink:href="#DejaVuSans-30" transform="translate(127.246094 0)"/>
       <use xlink:href="#DejaVuSans-30" transform="translate(190.869141 0)"/>
      </g>
     </g>
    </g>
    <g id="ytick_7">
     <g id="line2d_109">
      <path d="M 57.08 162.508078 
L 522 162.508078 
" clip-path="url(#p531c3a358b)" style="fill: none; stroke: #b0b0b0; stroke-opacity: 0.25; stroke-width: 0.8; stroke-linecap: square"/>
     </g>
     <g id="line2d_110">
      <g>
       <use xlink:href="#m1b8ea98ab5" x="57.08" y="162.508078" style="stroke: #000000; stroke-width: 0.8"/>
      </g>
     </g>
     <g id="text_10">
      <!-- 4000 -->
      <g transform="translate(24.63 166.307297) scale(0.1 -0.1)">
       <defs>
        <path id="DejaVuSans-34" d="M 2419 4116 
L 825 1625 
L 2419 1625 
L 2419 4116 
z
M 2253 4666 
L 3047 4666 
L 3047 1625 
L 3713 1625 
L 3713 1100 
L 3047 1100 
L 3047 0 
L 2419 0 
L 2419 1100 
L 313 1100 
L 313 1709 
L 2253 4666 
z
" transform="scale(0.015625)"/>
       </defs>
       <use xlink:href="#DejaVuSans-34"/>
       <use xlink:href="#DejaVuSans-30" transform="translate(63.623047 0)"/>
       <use xlink:href="#DejaVuSans-30" transform="translate(127.246094 0)"/>
       <use xlink:href="#DejaVuSans-30" transform="translate(190.869141 0)"/>
      </g>
     </g>
    </g>
    <g id="text_11">
     <!-- phase [deg] -->
     <g transform="translate(18.550313 235.967906) rotate(-90) scale(0.1 -0.1)">
      <defs>
       <path id="DejaVuSans-70" d="M 1159 525 
L 1159 -1331 
L 581 -1331 
L 581 3500 
L 1159 3500 
L 1159 2969 
Q 1341 3281 1617 3432 
Q 1894 3584 2278 3584 
Q 2916 3584 3314 3078 
Q 3713 2572 3713 1747 
Q 3713 922 3314 415 
Q 2916 -91 2278 -91 
Q 1894 -91 1617 61 
Q 1341 213 1159 525 
z
M 3116 1747 
Q 3116 2381 2855 2742 
Q 2594 3103 2138 3103 
Q 1681 3103 1420 2742 
Q 1159 2381 1159 1747 
Q 1159 1113 1420 752 
Q 1681 391 2138 391 
Q 2594 391 2855 752 
Q 3116 1113 3116 1747 
z
" transform="scale(0.015625)"/>
       <path id="DejaVuSans-68" d="M 3513 2113 
L 3513 0 
L 2938 0 
L 2938 2094 
Q 2938 2591 2744 2837 
Q 2550 3084 2163 3084 
Q 1697 3084 1428 2787 
Q 1159 2491 1159 1978 
L 1159 0 
L 581 0 
L 581 4863 
L 1159 4863 
L 1159 2956 
Q 1366 3272 1645 3428 
Q 1925 3584 2291 3584 
Q 2894 3584 3203 3211 
Q 3513 2838 3513 2113 
z
" transform="scale(0.015625)"/>
       <path id="DejaVuSans-73" d="M 2834 3397 
L 2834 2853 
Q 2591 2978 2328 3040 
Q 2066 3103 1784 3103 
Q 1356 3103 1142 2972 
Q 928 2841 928 2578 
Q 928 2378 1081 2264 
Q 1234 2150 1697 2047 
L 1894 2003 
Q 2506 1872 2764 1633 
Q 3022 1394 3022 966 
Q 3022 478 2636 193 
Q 2250 -91 1575 -91 
Q 1294 -91 989 -36 
Q 684 19 347 128 
L 347 722 
Q 666 556 975 473 
Q 1284 391 1588 391 
Q 1994 391 2212 530 
Q 2431 669 2431 922 
Q 2431 1156 2273 1281 
Q 2116 1406 1581 1522 
L 1381 1569 
Q 847 1681 609 1914 
Q 372 2147 372 2553 
Q 372 3047 722 3315 
Q 1072 3584 1716 3584 
Q 2034 3584 2315 3537 
Q 2597 3491 2834 3397 
z
" transform="scale(0.015625)"/>
      </defs>
      <use xlink:href="#DejaVuSans-70"/>
      <use xlink:href="#DejaVuSans-68" transform="translate(63.476562 0)"/>
      <use xlink:href="#DejaVuSans-61" transform="translate(126.855469 0)"/>
      <use xlink:href="#DejaVuSans-73" transform="translate(188.134766 0)"/>
      <use xlink:href="#DejaVuSans-65" transform="translate(240.234375 0)"/>
      <use xlink:href="#DejaVuSans-20" transform="translate(301.757812 0)"/>
      <use xlink:href="#DejaVuSans-5b" transform="translate(333.544922 0)"/>
      <use xlink:href="#DejaVuSans-64" transform="translate(372.558594 0)"/>
      <use xlink:href="#DejaVuSans-65" transform="translate(436.035156 0)"/>
      <use xlink:href="#DejaVuSans-67" transform="translate(497.558594 0)"/>
      <use xlink:href="#DejaVuSans-5d" transform="translate(561.035156 0)"/>
     </g>
    </g>
   </g>
   <g id="line2d_111">
    <path d="M 78.212727 234.028261 
L 161.949178 233.885041 
L 236.708182 233.270383 
L 245.685629 233.727673 
L 253.716228 232.935546 
L 260.98079 233.037063 
L 267.612814 232.107657 
L 273.713686 231.77895 
L 279.36221 231.925038 
L 284.620861 233.434295 
L 289.54 233.608913 
L 294.160821 235.688678 
L 298.517447 234.966171 
L 302.638461 233.921012 
L 306.548047 230.820981 
L 310.266843 231.108223 
L 313.812608 231.575834 
L 317.20073 228.790209 
L 320.444632 227.243473 
L 323.556093 230.097336 
L 326.545504 229.779953 
L 329.422079 228.311748 
L 332.194028 227.078808 
L 337.452679 226.184646 
L 339.951926 227.796879 
L 342.371818 225.216002 
L 344.71724 225.733849 
L 346.992639 225.622298 
L 349.202075 223.994572 
L 351.349265 222.244422 
L 353.43762 223.372885 
L 355.470279 221.680817 
L 357.450136 219.835006 
L 359.379865 218.633504 
L 361.261941 220.044193 
L 363.098661 221.566469 
L 364.89216 220.550111 
L 366.644426 221.39395 
L 368.357312 222.587448 
L 370.032548 220.289367 
L 371.671756 218.393277 
L 373.276451 215.316861 
L 374.848057 216.897176 
L 376.387911 215.9298 
L 377.897272 213.411081 
L 379.377322 213.603156 
L 382.253897 212.342808 
L 383.652473 211.46688 
L 385.025847 209.949225 
L 386.374912 211.187451 
L 387.700514 211.070866 
L 389.003455 212.454933 
L 390.284497 214.279614 
L 391.544364 212.090693 
L 392.783744 211.576828 
L 394.003293 211.516814 
L 395.203636 209.933783 
L 396.385369 209.843549 
L 397.549058 209.477872 
L 398.695248 206.412338 
L 400.937181 205.807089 
L 404.181083 202.388649 
L 405.232413 202.313056 
L 406.269438 202.926538 
L 407.292544 201.721019 
L 408.302098 200.159766 
L 409.298454 201.266182 
L 410.281954 201.430384 
L 411.252926 202.191549 
L 412.211683 199.576022 
L 413.15853 198.269068 
L 414.093759 197.440475 
L 415.017651 197.161467 
L 415.930479 198.856904 
L 416.832504 197.225579 
L 417.723978 198.260663 
L 418.605147 199.696566 
L 419.476244 198.641802 
L 420.337498 197.98713 
L 421.18913 196.223121 
L 422.03135 197.035268 
L 422.864366 195.810163 
L 423.688377 195.640477 
L 424.503574 196.238793 
L 425.310144 197.431832 
L 426.108269 197.116731 
L 426.898123 196.44449 
L 427.679875 195.017138 
L 428.453691 193.983379 
L 429.21973 193.224554 
L 429.978146 193.345743 
L 430.72909 192.545511 
L 431.472707 191.920384 
L 432.20914 191.704903 
L 432.938526 191.235013 
L 433.660997 191.195742 
L 434.376685 189.9861 
L 435.085716 189.095568 
L 435.788211 191.626419 
L 436.484291 191.696282 
L 437.174071 191.002509 
L 438.535182 188.918492 
L 439.20673 188.695809 
L 439.872413 189.160039 
L 440.532332 189.155191 
L 441.186587 190.38367 
L 441.835273 193.144034 
L 442.478486 192.575454 
L 443.116315 191.391061 
L 443.748852 192.546385 
L 444.376182 194.499822 
L 444.998391 191.611887 
L 445.615562 192.531461 
L 446.227776 191.263237 
L 446.835112 191.44207 
L 448.035455 190.210789 
L 448.628611 193.344355 
L 449.217187 193.214473 
L 449.801252 192.210399 
L 450.956126 188.937478 
L 451.527067 191.323922 
L 452.093762 190.133766 
L 452.656275 192.539031 
L 453.214668 190.224304 
L 453.768999 189.595303 
L 454.319328 188.270782 
L 454.865711 188.516138 
L 455.408206 191.705284 
L 455.946867 190.923513 
L 456.481748 188.976753 
L 457.012901 189.648329 
L 457.540379 190.590412 
L 458.064231 190.45804 
L 458.584508 189.34865 
L 459.101257 191.137777 
L 459.614526 189.556202 
L 460.124362 191.422226 
L 460.63081 192.504041 
L 461.133916 192.469065 
L 461.633722 193.175629 
L 462.130273 194.793378 
L 462.623609 197.662893 
L 463.113773 197.592728 
L 463.600804 200.601106 
L 464.084744 200.92135 
L 464.56563 200.632926 
L 465.990348 198.96855 
L 466.459397 199.10907 
L 466.925577 200.342574 
L 467.388923 202.485474 
L 467.84947 202.631235 
L 468.30725 199.800348 
L 468.762297 200.229081 
L 469.214644 202.680623 
L 469.664322 201.81508 
L 470.111363 203.447416 
L 470.555797 204.518108 
L 471.436965 198.937259 
L 471.873758 196.787178 
L 472.739906 202.423208 
L 473.169317 203.335327 
L 473.596322 201.337848 
L 474.020948 198.510942 
L 474.443222 199.507083 
L 474.863169 202.618484 
L 475.280815 201.061071 
L 475.696185 204.047284 
L 476.109303 201.225848 
L 476.520195 204.251845 
L 477.739744 196.409251 
L 478.141962 199.525708 
L 478.542069 201.664218 
L 478.940087 199.526239 
L 479.729941 203.667069 
L 480.121819 203.649517 
L 480.899583 209.212678 
L 481.285509 206.894059 
L 481.669491 210.074729 
L 482.051548 211.814564 
L 482.431699 208.620307 
L 482.809964 211.385826 
L 483.186361 211.631044 
L 483.560908 214.628398 
L 483.933624 211.562306 
L 484.304526 214.578228 
L 484.673631 216.045469 
L 485.040958 218.502076 
L 485.406524 217.690262 
L 485.770344 215.880855 
L 486.8515 208.0727 
L 487.208504 208.25499 
L 487.563843 205.638288 
L 487.917534 204.858558 
L 488.968864 197.155146 
L 489.316109 200.138038 
L 489.661779 202.119776 
L 490.689483 194.240852 
L 491.367 199.853377 
L 491.703514 198.947515 
L 492.372116 192.979525 
L 492.704231 191.328292 
L 493.36415 186.668564 
L 493.69198 186.512014 
L 494.343438 181.930909 
L 494.667092 184.757621 
L 494.989376 185.601472 
L 495.948134 176.636105 
L 496.265058 174.837227 
L 496.894981 169.465716 
L 497.208 168.399265 
L 497.51974 165.358725 
L 497.83021 167.798362 
L 498.447381 162.059754 
L 498.754102 161.314222 
L 499.059594 158.436232 
L 499.363867 161.371377 
L 500.568955 151.156727 
L 500.867273 153.573997 
L 500.867273 153.573997 
" clip-path="url(#p531c3a358b)" style="fill: none; stroke: #4c78a8; stroke-width: 1.5; stroke-linecap: square"/>
   </g>
   <g id="line2d_112">
    <path d="M 78.212727 232.453431 
L 131.044545 232.342571 
L 161.949178 232.031567 
L 183.876364 231.671571 
L 200.88441 231.187668 
L 214.780996 230.995493 
L 226.530392 231.295393 
L 236.708182 230.892955 
L 245.685629 231.714119 
L 253.716228 231.0063 
L 260.98079 228.500232 
L 267.612814 230.327191 
L 273.713686 229.633523 
L 279.36221 230.938781 
L 284.620861 230.229153 
L 289.54 227.499006 
L 294.160821 227.028204 
L 298.517447 224.586295 
L 302.638461 225.078845 
L 306.548047 228.083231 
L 310.266843 228.700607 
L 313.812608 228.464343 
L 317.20073 228.739096 
L 320.444632 230.203743 
L 323.556093 227.367378 
L 326.545504 224.192768 
L 329.422079 224.329978 
L 332.194028 226.661468 
L 334.868696 226.678243 
L 337.452679 226.995168 
L 339.951926 226.586902 
L 342.371818 229.516997 
L 344.71724 230.264324 
L 346.992639 230.803779 
L 349.202075 231.153736 
L 351.349265 232.207866 
L 353.43762 235.350509 
L 355.470279 234.040207 
L 357.450136 230.913973 
L 359.379865 231.320379 
L 361.261941 230.411608 
L 363.098661 227.592776 
L 364.89216 227.308223 
L 366.644426 228.093482 
L 368.357312 225.708018 
L 370.032548 224.769699 
L 371.671756 223.098544 
L 373.276451 221.251444 
L 374.848057 219.761422 
L 376.387911 218.585097 
L 377.897272 216.951866 
L 379.377322 215.998027 
L 380.829179 218.939702 
L 382.253897 219.697307 
L 383.652473 220.92898 
L 385.025847 222.684679 
L 386.374912 222.968849 
L 387.700514 220.382789 
L 389.003455 219.602228 
L 390.284497 218.640979 
L 391.544364 218.645077 
L 392.783744 217.3448 
L 394.003293 217.00103 
L 395.203636 214.443085 
L 396.385369 216.201014 
L 397.549058 217.686567 
L 398.695248 216.028406 
L 399.824457 217.521 
L 400.937181 216.32634 
L 402.033893 214.31366 
L 403.115049 213.844605 
L 404.181083 213.727555 
L 405.232413 212.693502 
L 406.269438 215.887678 
L 407.292544 214.606404 
L 408.302098 217.756236 
L 409.298454 217.727275 
L 410.281954 218.579766 
L 411.252926 216.96309 
L 412.211683 215.893187 
L 413.15853 213.608002 
L 414.093759 213.244175 
L 415.017651 213.342624 
L 415.930479 213.672673 
L 416.832504 212.710705 
L 417.723978 215.358394 
L 418.605147 214.922508 
L 419.476244 215.289501 
L 420.337498 215.98019 
L 421.18913 218.787146 
L 422.03135 217.735037 
L 423.688377 221.713168 
L 424.503574 221.836397 
L 425.310144 223.001405 
L 426.108269 223.8953 
L 426.898123 223.961277 
L 427.679875 224.22926 
L 428.453691 222.10227 
L 429.21973 223.078609 
L 429.978146 222.036924 
L 430.72909 221.697041 
L 431.472707 222.607638 
L 432.20914 224.686176 
L 432.938526 225.041834 
L 433.660997 225.219473 
L 434.376685 223.666495 
L 435.085716 225.29093 
L 435.788211 224.719866 
L 436.484291 222.761902 
L 437.174071 222.138108 
L 437.857665 220.847107 
L 438.535182 222.484338 
L 439.20673 222.949153 
L 439.872413 220.611858 
L 440.532332 221.603377 
L 441.186587 221.408432 
L 441.835273 223.009134 
L 442.478486 223.60913 
L 443.116315 223.278808 
L 443.748852 220.417974 
L 444.376182 218.15502 
L 444.998391 215.371184 
L 445.615562 214.4746 
L 447.437646 207.998304 
L 448.628611 208.752384 
L 449.217187 210.267567 
L 449.801252 209.265 
L 450.380877 211.256442 
L 450.956126 210.944478 
L 451.527067 209.759885 
L 452.656275 208.144076 
L 453.214668 208.578174 
L 453.768999 210.39019 
L 454.319328 208.0113 
L 455.408206 205.569005 
L 455.946867 205.706979 
L 456.481748 207.433585 
L 457.012901 207.25348 
L 457.540379 205.875114 
L 458.064231 207.744121 
L 458.584508 206.790138 
L 459.101257 206.5861 
L 459.614526 206.710775 
L 460.124362 207.121714 
L 460.63081 205.971986 
L 461.133916 206.261618 
L 461.633722 208.014248 
L 462.130273 207.232857 
L 462.623609 208.350116 
L 463.113773 210.12162 
L 463.600804 210.600201 
L 464.084744 209.51572 
L 464.56563 212.649598 
L 465.043501 211.351914 
L 465.518395 209.021795 
L 465.990348 208.398629 
L 466.459397 209.852714 
L 466.925577 210.269798 
L 467.388923 208.922857 
L 467.84947 211.478054 
L 468.30725 212.086177 
L 469.214644 218.036747 
L 469.664322 215.190075 
L 470.111363 216.124361 
L 470.555797 215.50127 
L 471.436965 220.580781 
L 472.308062 221.884302 
L 472.739906 219.706201 
L 473.169317 221.834567 
L 473.596322 219.609576 
L 474.020948 222.471543 
L 474.443222 222.780227 
L 475.280815 218.008412 
L 475.696185 220.887716 
L 476.109303 219.174528 
L 476.520195 216.560015 
L 477.335392 221.164667 
L 477.739744 218.507227 
L 478.940087 227.005282 
L 479.336037 225.755505 
L 480.121819 231.858019 
L 480.511693 233.116643 
L 481.285509 229.293722 
L 481.669491 232.419286 
L 482.051548 233.101533 
L 482.809964 238.187709 
L 483.560908 232.73411 
L 483.933624 230.90793 
L 484.673631 235.523073 
L 485.040958 232.739468 
L 485.406524 231.397032 
L 486.132436 237.262886 
L 486.8515 233.346203 
L 487.208504 232.151093 
L 487.563843 229.593526 
L 488.269591 235.434962 
L 488.968864 230.501659 
L 489.316109 230.666643 
L 489.661779 233.723146 
L 490.689483 239.187335 
L 491.028994 237.644629 
L 491.703514 242.496303 
L 492.038548 243.430041 
L 492.372116 246.211263 
L 493.034905 240.97745 
L 493.69198 247.006184 
L 494.018405 244.311289 
L 494.343438 243.160138 
L 494.989376 248.745903 
L 495.629886 243.585697 
L 496.265058 249.68436 
L 496.58067 247.771919 
L 497.208 252.431203 
L 497.51974 249.359819 
L 497.83021 252.062953 
L 498.447381 254.325553 
L 498.754102 257.438674 
L 499.363867 251.759206 
L 500.269464 260.771273 
L 500.568955 258.057135 
L 500.867273 259.710886 
L 500.867273 259.710886 
" clip-path="url(#p531c3a358b)" style="fill: none; stroke: #f58518; stroke-width: 1.5; stroke-linecap: square"/>
   </g>
   <g id="patch_8">
    <path d="M 57.08 266.252 
L 57.08 145.676 
" style="fill: none; stroke: #000000; stroke-width: 0.8; stroke-linejoin: miter; stroke-linecap: square"/>
   </g>
   <g id="patch_9">
    <path d="M 522 266.252 
L 522 145.676 
" style="fill: none; stroke: #000000; stroke-width: 0.8; stroke-linejoin: miter; stroke-linecap: square"/>
   </g>
   <g id="patch_10">
    <path d="M 57.08 266.252 
L 522 266.252 
" style="fill: none; stroke: #000000; stroke-width: 0.8; stroke-linejoin: miter; stroke-linecap: square"/>
   </g>
   <g id="patch_11">
    <path d="M 57.08 145.676 
L 522 145.676 
" style="fill: none; stroke: #000000; stroke-width: 0.8; stroke-linejoin: miter; stroke-linecap: square"/>
   </g>
  </g>
  <g id="axes_3">
   <g id="patch_12">
    <path d="M 57.08 401.128 
L 522 401.128 
L 522 280.552 
L 57.08 280.552 
z
" style="fill: #ffffff"/>
   </g>
   <g id="matplotlib.axis_5">
    <g id="xtick_47">
     <g id="line2d_113">
      <path d="M 202.692089 401.128 
L 202.692089 280.552 
" clip-path="url(#p2b878a5d29)" style="fill: none; stroke: #b0b0b0; stroke-opacity: 0.25; stroke-width: 0.8; stroke-linecap: square"/>
     </g>
     <g id="line2d_114">
      <g>
       <use xlink:href="#m9a03405562" x="202.692089" y="401.128" style="stroke: #000000; stroke-width: 0.8"/>
      </g>
     </g>
     <g id="text_12">
      <!-- $\mathdefault{10^{0}}$ -->
      <g transform="translate(193.892089 415.726438) scale(0.1 -0.1)">
       <use xlink:href="#DejaVuSans-31" transform="translate(0 0.765625)"/>
       <use xlink:href="#DejaVuSans-30" transform="translate(63.623047 0.765625)"/>
       <use xlink:href="#DejaVuSans-30" transform="translate(128.203125 39.046875) scale(0.7)"/>
      </g>
     </g>
    </g>
    <g id="xtick_48">
     <g id="line2d_115">
      <path d="M 378.19559 401.128 
L 378.19559 280.552 
" clip-path="url(#p2b878a5d29)" style="fill: none; stroke: #b0b0b0; stroke-opacity: 0.25; stroke-width: 0.8; stroke-linecap: square"/>
     </g>
     <g id="line2d_116">
      <g>
       <use xlink:href="#m9a03405562" x="378.19559" y="401.128" style="stroke: #000000; stroke-width: 0.8"/>
      </g>
     </g>
     <g id="text_13">
      <!-- $\mathdefault{10^{1}}$ -->
      <g transform="translate(369.39559 415.726438) scale(0.1 -0.1)">
       <use xlink:href="#DejaVuSans-31" transform="translate(0 0.684375)"/>
       <use xlink:href="#DejaVuSans-30" transform="translate(63.623047 0.684375)"/>
       <use xlink:href="#DejaVuSans-31" transform="translate(128.203125 38.965625) scale(0.7)"/>
      </g>
     </g>
    </g>
    <g id="xtick_49">
     <g id="line2d_117">
      <path d="M 80.020406 401.128 
L 80.020406 280.552 
" clip-path="url(#p2b878a5d29)" style="fill: none; stroke: #b0b0b0; stroke-opacity: 0.25; stroke-width: 0.8; stroke-linecap: square"/>
     </g>
     <g id="line2d_118">
      <g>
       <use xlink:href="#m164f0b9fb9" x="80.020406" y="401.128" style="stroke: #000000; stroke-width: 0.6"/>
      </g>
     </g>
    </g>
    <g id="xtick_50">
     <g id="line2d_119">
      <path d="M 110.925038 401.128 
L 110.925038 280.552 
" clip-path="url(#p2b878a5d29)" style="fill: none; stroke: #b0b0b0; stroke-opacity: 0.25; stroke-width: 0.8; stroke-linecap: square"/>
     </g>
     <g id="line2d_120">
      <g>
       <use xlink:href="#m164f0b9fb9" x="110.925038" y="401.128" style="stroke: #000000; stroke-width: 0.6"/>
      </g>
     </g>
    </g>
    <g id="xtick_51">
     <g id="line2d_121">
      <path d="M 132.852224 401.128 
L 132.852224 280.552 
" clip-path="url(#p2b878a5d29)" style="fill: none; stroke: #b0b0b0; stroke-opacity: 0.25; stroke-width: 0.8; stroke-linecap: square"/>
     </g>
     <g id="line2d_122">
      <g>
       <use xlink:href="#m164f0b9fb9" x="132.852224" y="401.128" style="stroke: #000000; stroke-width: 0.6"/>
      </g>
     </g>
    </g>
    <g id="xtick_52">
     <g id="line2d_123">
      <path d="M 149.86027 401.128 
L 149.86027 280.552 
" clip-path="url(#p2b878a5d29)" style="fill: none; stroke: #b0b0b0; stroke-opacity: 0.25; stroke-width: 0.8; stroke-linecap: square"/>
     </g>
     <g id="line2d_124">
      <g>
       <use xlink:href="#m164f0b9fb9" x="149.86027" y="401.128" style="stroke: #000000; stroke-width: 0.6"/>
      </g>
     </g>
    </g>
    <g id="xtick_53">
     <g id="line2d_125">
      <path d="M 163.756856 401.128 
L 163.756856 280.552 
" clip-path="url(#p2b878a5d29)" style="fill: none; stroke: #b0b0b0; stroke-opacity: 0.25; stroke-width: 0.8; stroke-linecap: square"/>
     </g>
     <g id="line2d_126">
      <g>
       <use xlink:href="#m164f0b9fb9" x="163.756856" y="401.128" style="stroke: #000000; stroke-width: 0.6"/>
      </g>
     </g>
    </g>
    <g id="xtick_54">
     <g id="line2d_127">
      <path d="M 175.506252 401.128 
L 175.506252 280.552 
" clip-path="url(#p2b878a5d29)" style="fill: none; stroke: #b0b0b0; stroke-opacity: 0.25; stroke-width: 0.8; stroke-linecap: square"/>
     </g>
     <g id="line2d_128">
      <g>
       <use xlink:href="#m164f0b9fb9" x="175.506252" y="401.128" style="stroke: #000000; stroke-width: 0.6"/>
      </g>
     </g>
    </g>
    <g id="xtick_55">
     <g id="line2d_129">
      <path d="M 185.684042 401.128 
L 185.684042 280.552 
" clip-path="url(#p2b878a5d29)" style="fill: none; stroke: #b0b0b0; stroke-opacity: 0.25; stroke-width: 0.8; stroke-linecap: square"/>
     </g>
     <g id="line2d_130">
      <g>
       <use xlink:href="#m164f0b9fb9" x="185.684042" y="401.128" style="stroke: #000000; stroke-width: 0.6"/>
      </g>
     </g>
    </g>
    <g id="xtick_56">
     <g id="line2d_131">
      <path d="M 194.661489 401.128 
L 194.661489 280.552 
" clip-path="url(#p2b878a5d29)" style="fill: none; stroke: #b0b0b0; stroke-opacity: 0.25; stroke-width: 0.8; stroke-linecap: square"/>
     </g>
     <g id="line2d_132">
      <g>
       <use xlink:href="#m164f0b9fb9" x="194.661489" y="401.128" style="stroke: #000000; stroke-width: 0.6"/>
      </g>
     </g>
    </g>
    <g id="xtick_57">
     <g id="line2d_133">
      <path d="M 255.523907 401.128 
L 255.523907 280.552 
" clip-path="url(#p2b878a5d29)" style="fill: none; stroke: #b0b0b0; stroke-opacity: 0.25; stroke-width: 0.8; stroke-linecap: square"/>
     </g>
     <g id="line2d_134">
      <g>
       <use xlink:href="#m164f0b9fb9" x="255.523907" y="401.128" style="stroke: #000000; stroke-width: 0.6"/>
      </g>
     </g>
    </g>
    <g id="xtick_58">
     <g id="line2d_135">
      <path d="M 286.428539 401.128 
L 286.428539 280.552 
" clip-path="url(#p2b878a5d29)" style="fill: none; stroke: #b0b0b0; stroke-opacity: 0.25; stroke-width: 0.8; stroke-linecap: square"/>
     </g>
     <g id="line2d_136">
      <g>
       <use xlink:href="#m164f0b9fb9" x="286.428539" y="401.128" style="stroke: #000000; stroke-width: 0.6"/>
      </g>
     </g>
    </g>
    <g id="xtick_59">
     <g id="line2d_137">
      <path d="M 308.355725 401.128 
L 308.355725 280.552 
" clip-path="url(#p2b878a5d29)" style="fill: none; stroke: #b0b0b0; stroke-opacity: 0.25; stroke-width: 0.8; stroke-linecap: square"/>
     </g>
     <g id="line2d_138">
      <g>
       <use xlink:href="#m164f0b9fb9" x="308.355725" y="401.128" style="stroke: #000000; stroke-width: 0.6"/>
      </g>
     </g>
    </g>
    <g id="xtick_60">
     <g id="line2d_139">
      <path d="M 325.363772 401.128 
L 325.363772 280.552 
" clip-path="url(#p2b878a5d29)" style="fill: none; stroke: #b0b0b0; stroke-opacity: 0.25; stroke-width: 0.8; stroke-linecap: square"/>
     </g>
     <g id="line2d_140">
      <g>
       <use xlink:href="#m164f0b9fb9" x="325.363772" y="401.128" style="stroke: #000000; stroke-width: 0.6"/>
      </g>
     </g>
    </g>
    <g id="xtick_61">
     <g id="line2d_141">
      <path d="M 339.260358 401.128 
L 339.260358 280.552 
" clip-path="url(#p2b878a5d29)" style="fill: none; stroke: #b0b0b0; stroke-opacity: 0.25; stroke-width: 0.8; stroke-linecap: square"/>
     </g>
     <g id="line2d_142">
      <g>
       <use xlink:href="#m164f0b9fb9" x="339.260358" y="401.128" style="stroke: #000000; stroke-width: 0.6"/>
      </g>
     </g>
    </g>
    <g id="xtick_62">
     <g id="line2d_143">
      <path d="M 351.009753 401.128 
L 351.009753 280.552 
" clip-path="url(#p2b878a5d29)" style="fill: none; stroke: #b0b0b0; stroke-opacity: 0.25; stroke-width: 0.8; stroke-linecap: square"/>
     </g>
     <g id="line2d_144">
      <g>
       <use xlink:href="#m164f0b9fb9" x="351.009753" y="401.128" style="stroke: #000000; stroke-width: 0.6"/>
      </g>
     </g>
    </g>
    <g id="xtick_63">
     <g id="line2d_145">
      <path d="M 361.187543 401.128 
L 361.187543 280.552 
" clip-path="url(#p2b878a5d29)" style="fill: none; stroke: #b0b0b0; stroke-opacity: 0.25; stroke-width: 0.8; stroke-linecap: square"/>
     </g>
     <g id="line2d_146">
      <g>
       <use xlink:href="#m164f0b9fb9" x="361.187543" y="401.128" style="stroke: #000000; stroke-width: 0.6"/>
      </g>
     </g>
    </g>
    <g id="xtick_64">
     <g id="line2d_147">
      <path d="M 370.16499 401.128 
L 370.16499 280.552 
" clip-path="url(#p2b878a5d29)" style="fill: none; stroke: #b0b0b0; stroke-opacity: 0.25; stroke-width: 0.8; stroke-linecap: square"/>
     </g>
     <g id="line2d_148">
      <g>
       <use xlink:href="#m164f0b9fb9" x="370.16499" y="401.128" style="stroke: #000000; stroke-width: 0.6"/>
      </g>
     </g>
    </g>
    <g id="xtick_65">
     <g id="line2d_149">
      <path d="M 431.027408 401.128 
L 431.027408 280.552 
" clip-path="url(#p2b878a5d29)" style="fill: none; stroke: #b0b0b0; stroke-opacity: 0.25; stroke-width: 0.8; stroke-linecap: square"/>
     </g>
     <g id="line2d_150">
      <g>
       <use xlink:href="#m164f0b9fb9" x="431.027408" y="401.128" style="stroke: #000000; stroke-width: 0.6"/>
      </g>
     </g>
    </g>
    <g id="xtick_66">
     <g id="line2d_151">
      <path d="M 461.93204 401.128 
L 461.93204 280.552 
" clip-path="url(#p2b878a5d29)" style="fill: none; stroke: #b0b0b0; stroke-opacity: 0.25; stroke-width: 0.8; stroke-linecap: square"/>
     </g>
     <g id="line2d_152">
      <g>
       <use xlink:href="#m164f0b9fb9" x="461.93204" y="401.128" style="stroke: #000000; stroke-width: 0.6"/>
      </g>
     </g>
    </g>
    <g id="xtick_67">
     <g id="line2d_153">
      <path d="M 483.859226 401.128 
L 483.859226 280.552 
" clip-path="url(#p2b878a5d29)" style="fill: none; stroke: #b0b0b0; stroke-opacity: 0.25; stroke-width: 0.8; stroke-linecap: square"/>
     </g>
     <g id="line2d_154">
      <g>
       <use xlink:href="#m164f0b9fb9" x="483.859226" y="401.128" style="stroke: #000000; stroke-width: 0.6"/>
      </g>
     </g>
    </g>
    <g id="xtick_68">
     <g id="line2d_155">
      <path d="M 500.867273 401.128 
L 500.867273 280.552 
" clip-path="url(#p2b878a5d29)" style="fill: none; stroke: #b0b0b0; stroke-opacity: 0.25; stroke-width: 0.8; stroke-linecap: square"/>
     </g>
     <g id="line2d_156">
      <g>
       <use xlink:href="#m164f0b9fb9" x="500.867273" y="401.128" style="stroke: #000000; stroke-width: 0.6"/>
      </g>
     </g>
    </g>
    <g id="xtick_69">
     <g id="line2d_157">
      <path d="M 514.763859 401.128 
L 514.763859 280.552 
" clip-path="url(#p2b878a5d29)" style="fill: none; stroke: #b0b0b0; stroke-opacity: 0.25; stroke-width: 0.8; stroke-linecap: square"/>
     </g>
     <g id="line2d_158">
      <g>
       <use xlink:href="#m164f0b9fb9" x="514.763859" y="401.128" style="stroke: #000000; stroke-width: 0.6"/>
      </g>
     </g>
    </g>
    <g id="text_14">
     <!-- frequency [Hz] -->
     <g transform="translate(252.588438 429.404562) scale(0.1 -0.1)">
      <defs>
       <path id="DejaVuSans-66" d="M 2375 4863 
L 2375 4384 
L 1825 4384 
Q 1516 4384 1395 4259 
Q 1275 4134 1275 3809 
L 1275 3500 
L 2222 3500 
L 2222 3053 
L 1275 3053 
L 1275 0 
L 697 0 
L 697 3053 
L 147 3053 
L 147 3500 
L 697 3500 
L 697 3744 
Q 697 4328 969 4595 
Q 1241 4863 1831 4863 
L 2375 4863 
z
" transform="scale(0.015625)"/>
       <path id="DejaVuSans-72" d="M 2631 2963 
Q 2534 3019 2420 3045 
Q 2306 3072 2169 3072 
Q 1681 3072 1420 2755 
Q 1159 2438 1159 1844 
L 1159 0 
L 581 0 
L 581 3500 
L 1159 3500 
L 1159 2956 
Q 1341 3275 1631 3429 
Q 1922 3584 2338 3584 
Q 2397 3584 2469 3576 
Q 2541 3569 2628 3553 
L 2631 2963 
z
" transform="scale(0.015625)"/>
       <path id="DejaVuSans-71" d="M 947 1747 
Q 947 1113 1208 752 
Q 1469 391 1925 391 
Q 2381 391 2643 752 
Q 2906 1113 2906 1747 
Q 2906 2381 2643 2742 
Q 2381 3103 1925 3103 
Q 1469 3103 1208 2742 
Q 947 2381 947 1747 
z
M 2906 525 
Q 2725 213 2448 61 
Q 2172 -91 1784 -91 
Q 1150 -91 751 415 
Q 353 922 353 1747 
Q 353 2572 751 3078 
Q 1150 3584 1784 3584 
Q 2172 3584 2448 3432 
Q 2725 3281 2906 2969 
L 2906 3500 
L 3481 3500 
L 3481 -1331 
L 2906 -1331 
L 2906 525 
z
" transform="scale(0.015625)"/>
       <path id="DejaVuSans-63" d="M 3122 3366 
L 3122 2828 
Q 2878 2963 2633 3030 
Q 2388 3097 2138 3097 
Q 1578 3097 1268 2742 
Q 959 2388 959 1747 
Q 959 1106 1268 751 
Q 1578 397 2138 397 
Q 2388 397 2633 464 
Q 2878 531 3122 666 
L 3122 134 
Q 2881 22 2623 -34 
Q 2366 -91 2075 -91 
Q 1284 -91 818 406 
Q 353 903 353 1747 
Q 353 2603 823 3093 
Q 1294 3584 2113 3584 
Q 2378 3584 2631 3529 
Q 2884 3475 3122 3366 
z
" transform="scale(0.015625)"/>
       <path id="DejaVuSans-79" d="M 2059 -325 
Q 1816 -950 1584 -1140 
Q 1353 -1331 966 -1331 
L 506 -1331 
L 506 -850 
L 844 -850 
Q 1081 -850 1212 -737 
Q 1344 -625 1503 -206 
L 1606 56 
L 191 3500 
L 800 3500 
L 1894 763 
L 2988 3500 
L 3597 3500 
L 2059 -325 
z
" transform="scale(0.015625)"/>
       <path id="DejaVuSans-48" d="M 628 4666 
L 1259 4666 
L 1259 2753 
L 3553 2753 
L 3553 4666 
L 4184 4666 
L 4184 0 
L 3553 0 
L 3553 2222 
L 1259 2222 
L 1259 0 
L 628 0 
L 628 4666 
z
" transform="scale(0.015625)"/>
       <path id="DejaVuSans-7a" d="M 353 3500 
L 3084 3500 
L 3084 2975 
L 922 459 
L 3084 459 
L 3084 0 
L 275 0 
L 275 525 
L 2438 3041 
L 353 3041 
L 353 3500 
z
" transform="scale(0.015625)"/>
      </defs>
      <use xlink:href="#DejaVuSans-66"/>
      <use xlink:href="#DejaVuSans-72" transform="translate(35.205078 0)"/>
      <use xlink:href="#DejaVuSans-65" transform="translate(74.068359 0)"/>
      <use xlink:href="#DejaVuSans-71" transform="translate(135.591797 0)"/>
      <use xlink:href="#DejaVuSans-75" transform="translate(199.068359 0)"/>
      <use xlink:href="#DejaVuSans-65" transform="translate(262.447266 0)"/>
      <use xlink:href="#DejaVuSans-6e" transform="translate(323.970703 0)"/>
      <use xlink:href="#DejaVuSans-63" transform="translate(387.349609 0)"/>
      <use xlink:href="#DejaVuSans-79" transform="translate(442.330078 0)"/>
      <use xlink:href="#DejaVuSans-20" transform="translate(501.509766 0)"/>
      <use xlink:href="#DejaVuSans-5b" transform="translate(533.296875 0)"/>
      <use xlink:href="#DejaVuSans-48" transform="translate(572.310547 0)"/>
      <use xlink:href="#DejaVuSans-7a" transform="translate(647.505859 0)"/>
      <use xlink:href="#DejaVuSans-5d" transform="translate(699.996094 0)"/>
     </g>
    </g>
   </g>
   <g id="matplotlib.axis_6">
    <g id="ytick_8">
     <g id="line2d_159">
      <path d="M 57.08 401.128 
L 522 401.128 
" clip-path="url(#p2b878a5d29)" style="fill: none; stroke: #b0b0b0; stroke-opacity: 0.25; stroke-width: 0.8; stroke-linecap: square"/>
     </g>
     <g id="line2d_160">
      <g>
       <use xlink:href="#m1b8ea98ab5" x="57.08" y="401.128" style="stroke: #000000; stroke-width: 0.8"/>
      </g>
     </g>
     <g id="text_15">
      <!-- 0.0 -->
      <g transform="translate(34.176875 404.927219) scale(0.1 -0.1)">
       <defs>
        <path id="DejaVuSans-2e" d="M 684 794 
L 1344 794 
L 1344 0 
L 684 0 
L 684 794 
z
" transform="scale(0.015625)"/>
       </defs>
       <use xlink:href="#DejaVuSans-30"/>
       <use xlink:href="#DejaVuSans-2e" transform="translate(63.623047 0)"/>
       <use xlink:href="#DejaVuSans-30" transform="translate(95.410156 0)"/>
      </g>
     </g>
    </g>
    <g id="ytick_9">
     <g id="line2d_161">
      <path d="M 57.08 378.161143 
L 522 378.161143 
" clip-path="url(#p2b878a5d29)" style="fill: none; stroke: #b0b0b0; stroke-opacity: 0.25; stroke-width: 0.8; stroke-linecap: square"/>
     </g>
     <g id="line2d_162">
      <g>
       <use xlink:href="#m1b8ea98ab5" x="57.08" y="378.161143" style="stroke: #000000; stroke-width: 0.8"/>
      </g>
     </g>
     <g id="text_16">
      <!-- 0.2 -->
      <g transform="translate(34.176875 381.960362) scale(0.1 -0.1)">
       <use xlink:href="#DejaVuSans-30"/>
       <use xlink:href="#DejaVuSans-2e" transform="translate(63.623047 0)"/>
       <use xlink:href="#DejaVuSans-32" transform="translate(95.410156 0)"/>
      </g>
     </g>
    </g>
    <g id="ytick_10">
     <g id="line2d_163">
      <path d="M 57.08 355.194286 
L 522 355.194286 
" clip-path="url(#p2b878a5d29)" style="fill: none; stroke: #b0b0b0; stroke-opacity: 0.25; stroke-width: 0.8; stroke-linecap: square"/>
     </g>
     <g id="line2d_164">
      <g>
       <use xlink:href="#m1b8ea98ab5" x="57.08" y="355.194286" style="stroke: #000000; stroke-width: 0.8"/>
      </g>
     </g>
     <g id="text_17">
      <!-- 0.4 -->
      <g transform="translate(34.176875 358.993504) scale(0.1 -0.1)">
       <use xlink:href="#DejaVuSans-30"/>
       <use xlink:href="#DejaVuSans-2e" transform="translate(63.623047 0)"/>
       <use xlink:href="#DejaVuSans-34" transform="translate(95.410156 0)"/>
      </g>
     </g>
    </g>
    <g id="ytick_11">
     <g id="line2d_165">
      <path d="M 57.08 332.227429 
L 522 332.227429 
" clip-path="url(#p2b878a5d29)" style="fill: none; stroke: #b0b0b0; stroke-opacity: 0.25; stroke-width: 0.8; stroke-linecap: square"/>
     </g>
     <g id="line2d_166">
      <g>
       <use xlink:href="#m1b8ea98ab5" x="57.08" y="332.227429" style="stroke: #000000; stroke-width: 0.8"/>
      </g>
     </g>
     <g id="text_18">
      <!-- 0.6 -->
      <g transform="translate(34.176875 336.026647) scale(0.1 -0.1)">
       <defs>
        <path id="DejaVuSans-36" d="M 2113 2584 
Q 1688 2584 1439 2293 
Q 1191 2003 1191 1497 
Q 1191 994 1439 701 
Q 1688 409 2113 409 
Q 2538 409 2786 701 
Q 3034 994 3034 1497 
Q 3034 2003 2786 2293 
Q 2538 2584 2113 2584 
z
M 3366 4563 
L 3366 3988 
Q 3128 4100 2886 4159 
Q 2644 4219 2406 4219 
Q 1781 4219 1451 3797 
Q 1122 3375 1075 2522 
Q 1259 2794 1537 2939 
Q 1816 3084 2150 3084 
Q 2853 3084 3261 2657 
Q 3669 2231 3669 1497 
Q 3669 778 3244 343 
Q 2819 -91 2113 -91 
Q 1303 -91 875 529 
Q 447 1150 447 2328 
Q 447 3434 972 4092 
Q 1497 4750 2381 4750 
Q 2619 4750 2861 4703 
Q 3103 4656 3366 4563 
z
" transform="scale(0.015625)"/>
       </defs>
       <use xlink:href="#DejaVuSans-30"/>
       <use xlink:href="#DejaVuSans-2e" transform="translate(63.623047 0)"/>
       <use xlink:href="#DejaVuSans-36" transform="translate(95.410156 0)"/>
      </g>
     </g>
    </g>
    <g id="ytick_12">
     <g id="line2d_167">
      <path d="M 57.08 309.260571 
L 522 309.260571 
" clip-path="url(#p2b878a5d29)" style="fill: none; stroke: #b0b0b0; stroke-opacity: 0.25; stroke-width: 0.8; stroke-linecap: square"/>
     </g>
     <g id="line2d_168">
      <g>
       <use xlink:href="#m1b8ea98ab5" x="57.08" y="309.260571" style="stroke: #000000; stroke-width: 0.8"/>
      </g>
     </g>
     <g id="text_19">
      <!-- 0.8 -->
      <g transform="translate(34.176875 313.05979) scale(0.1 -0.1)">
       <defs>
        <path id="DejaVuSans-38" d="M 2034 2216 
Q 1584 2216 1326 1975 
Q 1069 1734 1069 1313 
Q 1069 891 1326 650 
Q 1584 409 2034 409 
Q 2484 409 2743 651 
Q 3003 894 3003 1313 
Q 3003 1734 2745 1975 
Q 2488 2216 2034 2216 
z
M 1403 2484 
Q 997 2584 770 2862 
Q 544 3141 544 3541 
Q 544 4100 942 4425 
Q 1341 4750 2034 4750 
Q 2731 4750 3128 4425 
Q 3525 4100 3525 3541 
Q 3525 3141 3298 2862 
Q 3072 2584 2669 2484 
Q 3125 2378 3379 2068 
Q 3634 1759 3634 1313 
Q 3634 634 3220 271 
Q 2806 -91 2034 -91 
Q 1263 -91 848 271 
Q 434 634 434 1313 
Q 434 1759 690 2068 
Q 947 2378 1403 2484 
z
M 1172 3481 
Q 1172 3119 1398 2916 
Q 1625 2713 2034 2713 
Q 2441 2713 2670 2916 
Q 2900 3119 2900 3481 
Q 2900 3844 2670 4047 
Q 2441 4250 2034 4250 
Q 1625 4250 1398 4047 
Q 1172 3844 1172 3481 
z
" transform="scale(0.015625)"/>
       </defs>
       <use xlink:href="#DejaVuSans-30"/>
       <use xlink:href="#DejaVuSans-2e" transform="translate(63.623047 0)"/>
       <use xlink:href="#DejaVuSans-38" transform="translate(95.410156 0)"/>
      </g>
     </g>
    </g>
    <g id="ytick_13">
     <g id="line2d_169">
      <path d="M 57.08 286.293714 
L 522 286.293714 
" clip-path="url(#p2b878a5d29)" style="fill: none; stroke: #b0b0b0; stroke-opacity: 0.25; stroke-width: 0.8; stroke-linecap: square"/>
     </g>
     <g id="line2d_170">
      <g>
       <use xlink:href="#m1b8ea98ab5" x="57.08" y="286.293714" style="stroke: #000000; stroke-width: 0.8"/>
      </g>
     </g>
     <g id="text_20">
      <!-- 1.0 -->
      <g transform="translate(34.176875 290.092933) scale(0.1 -0.1)">
       <use xlink:href="#DejaVuSans-31"/>
       <use xlink:href="#DejaVuSans-2e" transform="translate(63.623047 0)"/>
       <use xlink:href="#DejaVuSans-30" transform="translate(95.410156 0)"/>
      </g>
     </g>
    </g>
    <g id="text_21">
     <!-- coherence -->
     <g transform="translate(28.097188 366.907969) rotate(-90) scale(0.1 -0.1)">
      <defs>
       <path id="DejaVuSans-6f" d="M 1959 3097 
Q 1497 3097 1228 2736 
Q 959 2375 959 1747 
Q 959 1119 1226 758 
Q 1494 397 1959 397 
Q 2419 397 2687 759 
Q 2956 1122 2956 1747 
Q 2956 2369 2687 2733 
Q 2419 3097 1959 3097 
z
M 1959 3584 
Q 2709 3584 3137 3096 
Q 3566 2609 3566 1747 
Q 3566 888 3137 398 
Q 2709 -91 1959 -91 
Q 1206 -91 779 398 
Q 353 888 353 1747 
Q 353 2609 779 3096 
Q 1206 3584 1959 3584 
z
" transform="scale(0.015625)"/>
      </defs>
      <use xlink:href="#DejaVuSans-63"/>
      <use xlink:href="#DejaVuSans-6f" transform="translate(54.980469 0)"/>
      <use xlink:href="#DejaVuSans-68" transform="translate(116.162109 0)"/>
      <use xlink:href="#DejaVuSans-65" transform="translate(179.541016 0)"/>
      <use xlink:href="#DejaVuSans-72" transform="translate(241.064453 0)"/>
      <use xlink:href="#DejaVuSans-65" transform="translate(279.927734 0)"/>
      <use xlink:href="#DejaVuSans-6e" transform="translate(341.451172 0)"/>
      <use xlink:href="#DejaVuSans-63" transform="translate(404.830078 0)"/>
      <use xlink:href="#DejaVuSans-65" transform="translate(459.810547 0)"/>
     </g>
    </g>
   </g>
   <g id="line2d_171">
    <path d="M 78.212727 288.512891 
L 131.044545 287.155447 
L 161.949178 294.593744 
L 183.876364 300.369779 
L 200.88441 306.768257 
L 214.780996 315.645732 
L 226.530392 336.676646 
L 236.708182 357.059274 
L 253.716228 397.776871 
L 260.98079 400.392647 
L 267.612814 399.350869 
L 273.713686 383.262446 
L 279.36221 400.937508 
L 284.620861 393.412896 
L 289.54 397.370977 
L 294.160821 400.352706 
L 298.517447 396.874495 
L 302.638461 387.385966 
L 306.548047 397.541189 
L 310.266843 397.019397 
L 313.812608 400.401321 
L 317.20073 400.864544 
L 320.444632 400.894378 
L 323.556093 398.757724 
L 326.545504 391.73484 
L 329.422079 395.419779 
L 332.194028 390.19555 
L 334.868696 397.171458 
L 337.452679 397.194656 
L 339.951926 395.731094 
L 342.371818 393.009089 
L 344.71724 394.17195 
L 346.992639 377.50293 
L 349.202075 400.950035 
L 351.349265 396.29881 
L 353.43762 391.105066 
L 355.470279 395.97412 
L 357.450136 387.17907 
L 359.379865 393.677288 
L 361.261941 399.221028 
L 363.098661 388.472601 
L 364.89216 379.845828 
L 366.644426 400.761786 
L 368.357312 399.126684 
L 370.032548 392.021735 
L 371.671756 400.90944 
L 373.276451 399.611201 
L 374.848057 384.101338 
L 376.387911 376.783427 
L 377.897272 391.403629 
L 379.377322 392.123923 
L 380.829179 395.231916 
L 382.253897 397.219444 
L 383.652473 399.398346 
L 385.025847 397.375757 
L 386.374912 396.107183 
L 387.700514 393.331749 
L 389.003455 389.270556 
L 390.284497 401.021107 
L 392.783744 369.183973 
L 394.003293 395.610198 
L 395.203636 400.396985 
L 396.385369 384.056945 
L 397.549058 398.814748 
L 398.695248 400.268255 
L 399.824457 384.216067 
L 400.937181 380.127808 
L 402.033893 392.496489 
L 403.115049 378.48697 
L 404.181083 379.917674 
L 405.232413 387.13085 
L 406.269438 398.141874 
L 407.292544 387.349509 
L 408.302098 400.828347 
L 409.298454 395.192997 
L 410.281954 400.353177 
L 411.252926 398.934873 
L 412.211683 395.221536 
L 413.15853 392.617205 
L 414.093759 397.780605 
L 415.017651 390.106305 
L 415.930479 399.527024 
L 416.832504 392.227385 
L 417.723978 395.830518 
L 418.605147 377.932855 
L 419.476244 388.83313 
L 420.337498 396.05901 
L 421.18913 379.203003 
L 422.03135 396.100408 
L 422.864366 395.791605 
L 423.688377 383.047943 
L 424.503574 393.473085 
L 425.310144 399.667102 
L 426.108269 401.063748 
L 426.898123 396.122194 
L 427.679875 393.92492 
L 428.453691 347.321684 
L 429.21973 382.077243 
L 429.978146 389.660475 
L 430.72909 399.565563 
L 431.472707 383.432067 
L 432.20914 384.251163 
L 432.938526 395.779934 
L 434.376685 399.249772 
L 435.085716 387.671644 
L 435.788211 390.555834 
L 436.484291 366.200627 
L 437.174071 385.252417 
L 437.857665 397.345524 
L 438.535182 399.487671 
L 439.20673 386.614937 
L 439.872413 396.555533 
L 440.532332 384.202252 
L 441.186587 401.034477 
L 441.835273 400.686059 
L 442.478486 394.927561 
L 443.116315 396.653797 
L 443.748852 400.605868 
L 444.376182 400.545998 
L 444.998391 398.520534 
L 445.615562 371.927759 
L 446.227776 396.369522 
L 446.835112 397.073541 
L 447.437646 380.615989 
L 448.035455 395.136296 
L 448.628611 399.068115 
L 449.217187 382.23549 
L 449.801252 391.447559 
L 450.380877 382.17907 
L 450.956126 400.556678 
L 451.527067 396.744751 
L 452.093762 396.873868 
L 452.656275 399.372308 
L 453.214668 390.58148 
L 453.768999 389.909727 
L 454.319328 394.926993 
L 454.865711 391.012744 
L 455.408206 393.768073 
L 455.946867 390.735316 
L 456.481748 400.779635 
L 457.012901 383.661883 
L 457.540379 389.385843 
L 458.064231 391.40376 
L 458.584508 400.526869 
L 459.101257 397.820952 
L 459.614526 399.249864 
L 460.124362 389.174631 
L 460.63081 399.092358 
L 461.133916 397.804126 
L 461.633722 383.094512 
L 462.130273 386.799679 
L 462.623609 399.879864 
L 463.113773 393.602109 
L 463.600804 399.029379 
L 464.084744 399.47539 
L 465.043501 377.178409 
L 465.518395 395.944756 
L 465.990348 399.185288 
L 466.459397 383.987957 
L 466.925577 391.860667 
L 467.388923 397.230587 
L 467.84947 396.279631 
L 468.30725 397.85954 
L 468.762297 400.586986 
L 469.214644 398.153652 
L 469.664322 398.155028 
L 470.555797 400.590025 
L 470.997654 392.92227 
L 471.436965 393.024996 
L 471.873758 385.649651 
L 472.308062 400.092675 
L 472.739906 374.568569 
L 473.169317 389.436183 
L 473.596322 398.542704 
L 474.020948 393.257856 
L 474.443222 396.655088 
L 474.863169 373.464377 
L 475.280815 394.639982 
L 475.696185 383.818969 
L 476.520195 394.813561 
L 476.928883 379.29134 
L 477.335392 400.155487 
L 477.739744 395.418533 
L 478.141962 393.469221 
L 478.542069 394.524295 
L 478.940087 387.325241 
L 479.336037 389.02399 
L 479.729941 397.69569 
L 480.121819 392.355939 
L 480.511693 384.046061 
L 481.285509 399.561298 
L 481.669491 397.176051 
L 482.431699 388.621518 
L 482.809964 400.796874 
L 483.186361 396.71906 
L 483.560908 394.309489 
L 483.933624 390.0233 
L 484.304526 389.203352 
L 484.673631 398.161034 
L 485.040958 394.719759 
L 485.406524 400.518734 
L 486.132436 384.122431 
L 486.8515 401.07252 
L 487.208504 399.901223 
L 487.563843 401.01469 
L 487.917534 398.978471 
L 488.269591 395.822376 
L 488.620029 397.715612 
L 488.968864 396.510177 
L 489.316109 397.232706 
L 489.661779 399.103343 
L 490.005889 396.633379 
L 490.348452 390.886233 
L 490.689483 388.928075 
L 491.028994 396.791124 
L 491.367 400.745294 
L 491.703514 396.371589 
L 492.038548 376.906492 
L 492.704231 390.098974 
L 493.034905 385.045579 
L 493.36415 399.223056 
L 493.69198 396.766115 
L 494.018405 387.80292 
L 494.343438 365.614065 
L 494.667092 397.98503 
L 494.989376 390.788482 
L 495.310304 379.239563 
L 495.629886 362.422414 
L 495.948134 388.730916 
L 496.265058 399.78502 
L 496.58067 397.458948 
L 496.894981 400.128237 
L 497.208 396.501817 
L 497.51974 398.458643 
L 498.13942 374.717784 
L 498.447381 395.128339 
L 498.754102 398.257468 
L 499.059594 398.852417 
L 499.66693 391.566159 
L 499.968792 387.842608 
L 500.269464 398.564967 
L 500.568955 398.107624 
L 500.867273 397.967446 
L 500.867273 397.967446 
" clip-path="url(#p2b878a5d29)" style="fill: none; stroke: #4c78a8; stroke-width: 1.5; stroke-linecap: square"/>
   </g>
   <g id="line2d_172">
    <path d="M 78.212727 316.89058 
L 131.044545 299.115821 
L 161.949178 342.490904 
L 183.876364 322.473293 
L 200.88441 320.886446 
L 214.780996 340.351785 
L 226.530392 348.334417 
L 236.708182 338.671629 
L 245.685629 386.831509 
L 253.716228 391.098042 
L 260.98079 399.022608 
L 267.612814 395.786697 
L 273.713686 400.152115 
L 279.36221 401.104011 
L 284.620861 386.948765 
L 289.54 394.666346 
L 294.160821 391.246841 
L 298.517447 393.47758 
L 302.638461 395.455333 
L 306.548047 396.105978 
L 310.266843 383.841246 
L 313.812608 358.727604 
L 317.20073 397.415851 
L 320.444632 400.474893 
L 323.556093 394.715842 
L 326.545504 397.023341 
L 329.422079 398.806798 
L 332.194028 396.73604 
L 334.868696 383.69178 
L 337.452679 365.10177 
L 339.951926 397.19751 
L 344.71724 388.352823 
L 346.992639 398.504603 
L 349.202075 386.194264 
L 351.349265 399.329576 
L 353.43762 387.705468 
L 355.470279 396.199316 
L 357.450136 400.30122 
L 359.379865 388.095132 
L 361.261941 396.940137 
L 363.098661 386.970526 
L 364.89216 384.460354 
L 366.644426 397.210798 
L 368.357312 393.521496 
L 370.032548 391.936239 
L 371.671756 399.572294 
L 373.276451 381.935185 
L 374.848057 390.495753 
L 376.387911 382.916431 
L 377.897272 394.602003 
L 379.377322 388.924093 
L 380.829179 389.576864 
L 382.253897 358.848311 
L 383.652473 392.521484 
L 385.025847 391.339985 
L 386.374912 395.116924 
L 387.700514 392.145893 
L 389.003455 400.704492 
L 390.284497 386.003264 
L 391.544364 396.635164 
L 392.783744 379.056373 
L 394.003293 385.593714 
L 395.203636 396.775587 
L 396.385369 398.542896 
L 397.549058 398.355624 
L 398.695248 399.253432 
L 399.824457 394.873974 
L 400.937181 393.296333 
L 402.033893 389.7591 
L 403.115049 368.669609 
L 404.181083 385.932215 
L 405.232413 399.283448 
L 406.269438 394.119898 
L 407.292544 396.449401 
L 408.302098 397.596168 
L 410.281954 391.143374 
L 411.252926 398.429353 
L 412.211683 400.088803 
L 413.15853 397.29636 
L 414.093759 388.212645 
L 415.017651 381.893647 
L 415.930479 387.417781 
L 416.832504 399.896577 
L 417.723978 390.769788 
L 418.605147 374.891084 
L 419.476244 385.498126 
L 420.337498 398.914016 
L 421.18913 392.540536 
L 422.03135 395.079551 
L 422.864366 398.821372 
L 423.688377 400.796386 
L 424.503574 399.241958 
L 425.310144 392.881333 
L 426.108269 399.999308 
L 426.898123 398.665182 
L 427.679875 393.853276 
L 428.453691 385.176042 
L 429.21973 395.228703 
L 429.978146 386.523681 
L 430.72909 389.470414 
L 431.472707 400.328063 
L 432.20914 396.168493 
L 432.938526 380.3889 
L 433.660997 396.364155 
L 435.085716 400.682727 
L 435.788211 401.024456 
L 436.484291 391.270012 
L 437.174071 368.358126 
L 437.857665 388.920382 
L 438.535182 399.757989 
L 439.20673 394.057341 
L 439.872413 391.850098 
L 440.532332 400.493563 
L 441.835273 398.449624 
L 442.478486 389.042857 
L 443.748852 400.635147 
L 444.376182 392.685632 
L 444.998391 400.923263 
L 445.615562 397.999066 
L 446.227776 378.779256 
L 446.835112 401.032975 
L 448.035455 389.279347 
L 448.628611 392.506682 
L 449.217187 394.266822 
L 449.801252 399.805741 
L 450.380877 389.841924 
L 450.956126 376.171001 
L 451.527067 369.518205 
L 452.093762 380.081721 
L 452.656275 366.0354 
L 453.214668 396.54992 
L 453.768999 388.994343 
L 454.319328 400.27404 
L 454.865711 388.505248 
L 455.408206 395.603638 
L 455.946867 401.087043 
L 456.481748 399.378524 
L 457.012901 387.539851 
L 457.540379 400.692523 
L 458.064231 400.555303 
L 458.584508 348.896786 
L 459.101257 368.481575 
L 459.614526 382.910191 
L 460.124362 394.050416 
L 460.63081 391.208451 
L 461.633722 398.577826 
L 462.130273 390.716785 
L 462.623609 386.810487 
L 463.113773 393.557907 
L 463.600804 392.411997 
L 464.084744 388.798816 
L 464.56563 390.680231 
L 465.043501 397.410778 
L 465.518395 399.476329 
L 465.990348 381.672532 
L 466.459397 400.150734 
L 466.925577 399.212513 
L 467.388923 393.640288 
L 468.30725 399.705953 
L 468.762297 392.106365 
L 469.214644 392.303244 
L 469.664322 399.102983 
L 470.111363 394.459382 
L 470.555797 384.742477 
L 470.997654 377.879781 
L 471.436965 393.378213 
L 471.873758 398.512054 
L 472.308062 397.253051 
L 472.739906 397.827501 
L 473.169317 397.25401 
L 473.596322 399.755709 
L 474.020948 398.277936 
L 474.443222 393.504088 
L 474.863169 398.954534 
L 475.280815 399.758839 
L 475.696185 399.486717 
L 476.109303 398.476856 
L 476.520195 400.941893 
L 476.928883 395.350354 
L 477.335392 386.943443 
L 477.739744 387.560404 
L 478.141962 391.466643 
L 478.542069 390.283172 
L 478.940087 395.904242 
L 479.336037 396.038247 
L 479.729941 392.991845 
L 480.121819 401.08205 
L 480.899583 388.535819 
L 481.285509 394.969013 
L 482.051548 400.618286 
L 482.431699 390.03273 
L 482.809964 394.34023 
L 483.186361 385.715052 
L 483.560908 393.622642 
L 483.933624 391.130354 
L 484.304526 398.135861 
L 484.673631 382.179791 
L 485.040958 399.846167 
L 485.406524 388.352118 
L 485.770344 389.82977 
L 486.132436 394.740998 
L 486.492816 393.515278 
L 486.8515 398.220472 
L 487.208504 397.486364 
L 487.563843 393.807163 
L 487.917534 393.611751 
L 488.269591 394.856455 
L 488.620029 391.486147 
L 488.968864 397.614152 
L 489.316109 398.569184 
L 489.661779 398.982041 
L 490.348452 400.625207 
L 491.028994 399.50051 
L 491.367 394.971575 
L 491.703514 388.914856 
L 492.038548 390.267556 
L 492.372116 364.661524 
L 492.704231 382.422359 
L 493.034905 393.746089 
L 493.36415 392.373593 
L 493.69198 392.971484 
L 494.018405 398.683071 
L 494.343438 399.457841 
L 494.667092 398.856359 
L 494.989376 390.189745 
L 495.310304 391.961196 
L 495.629886 390.07089 
L 495.948134 393.421723 
L 496.265058 399.208822 
L 496.58067 398.312331 
L 496.894981 400.981725 
L 497.208 370.498953 
L 497.83021 398.163449 
L 498.13942 400.968038 
L 498.447381 394.849326 
L 498.754102 395.031093 
L 499.059594 398.439177 
L 499.363867 393.858789 
L 499.968792 387.298712 
L 500.269464 390.150797 
L 500.568955 399.679616 
L 500.867273 392.887199 
L 500.867273 392.887199 
" clip-path="url(#p2b878a5d29)" style="fill: none; stroke: #f58518; stroke-width: 1.5; stroke-linecap: square"/>
   </g>
   <g id="patch_13">
    <path d="M 57.08 401.128 
L 57.08 280.552 
" style="fill: none; stroke: #000000; stroke-width: 0.8; stroke-linejoin: miter; stroke-linecap: square"/>
   </g>
   <g id="patch_14">
    <path d="M 522 401.128 
L 522 280.552 
" style="fill: none; stroke: #000000; stroke-width: 0.8; stroke-linejoin: miter; stroke-linecap: square"/>
   </g>
   <g id="patch_15">
    <path d="M 57.08 401.128 
L 522 401.128 
" style="fill: none; stroke: #000000; stroke-width: 0.8; stroke-linejoin: miter; stroke-linecap: square"/>
   </g>
   <g id="patch_16">
    <path d="M 57.08 280.552 
L 522 280.552 
" style="fill: none; stroke: #000000; stroke-width: 0.8; stroke-linejoin: miter; stroke-linecap: square"/>
   </g>
  </g>
 </g>
 <defs>
  <clipPath id="p30e8d1c2f8">
   <rect x="57.08" y="10.8" width="464.92" height="120.576"/>
  </clipPath>
  <clipPath id="p531c3a358b">
   <rect x="57.08" y="145.676" width="464.92" height="120.576"/>
  </clipPath>
  <clipPath id="p2b878a5d29">
   <rect x="57.08" y="280.552" width="464.92" height="120.576"/>
  </clipPath>
 </defs>
</svg>
