<?xml version="1.0" encoding="utf-8" standalone="no"?>
<!DOCTYPE svg PUBLIC "-//W3C//DTD SVG 1.1//EN"
  "http://www.w3.org/Graphics/SVG/1.1/DTD/svg11.dtd">
<svg xmlns:xlink="http://www.w3.org/1999/xlink" width="590.4pt" height="417.6pt" viewBox="0 0 590.4 417.6" xmlns="http://www.w3.org/2000/svg" version="1.1">
 <metadata>
  <rdf:RDF xmlns:dc="http://purl.org/dc/elements/1.1/" xmlns:cc="http://creativecommons.org/ns#" xmlns:rdf="http://www.w3.org/1999/02/22-rdf-syntax-ns#">
   <cc:Work>
    <dc:type rdf:resource="http://purl.org/dc/dcmitype/StillImage"/>
    <dc:date>2026-04-30T01:25:16.559765</dc:date>
    <dc:format>image/svg+xml</dc:format>
    <dc:creator>
     <cc:Agent>
      <dc:title>Matplotlib v3.10.9, https://matplotlib.org/</dc:title>
     </cc:Agent>
    </dc:creator>
   </cc:Work>
  </rdf:RDF>
 </metadata>
 <defs>
  <style type="text/css">*{stroke-linejoin: round; stroke-linecap: butt}</style>
 </defs>
 <g id="figure_1">
  <g id="patch_1">
   <path d="M 0 417.6 
L 590.4 417.6 
L 590.4 0 
L 0 0 
z
" style="fill: #ffffff"/>
  </g>
  <g id="axes_1">
   <g id="patch_2">
    <path d="M 56.09 120.421582 
L 579.6 120.421582 
L 579.6 10.8 
L 56.09 10.8 
z
" style="fill: #ffffff"/>
   </g>
   <g id="matplotlib.axis_1">
    <g id="xtick_1">
     <g id="line2d_1">
      <path d="M 79.885909 120.421582 
L 79.885909 10.8 
" clip-path="url(#p2727dc319e)" style="fill: none; stroke: #b0b0b0; stroke-opacity: 0.25; stroke-width: 0.8; stroke-linecap: square"/>
     </g>
     <g id="line2d_2">
      <defs>
       <path id="me21e4e3a5c" d="M 0 0 
L 0 3.5 
" style="stroke: #000000; stroke-width: 0.8"/>
      </defs>
      <g>
       <use xlink:href="#me21e4e3a5c" x="79.885909" y="120.421582" style="stroke: #000000; stroke-width: 0.8"/>
      </g>
     </g>
    </g>
    <g id="xtick_2">
     <g id="line2d_3">
      <path d="M 139.375682 120.421582 
L 139.375682 10.8 
" clip-path="url(#p2727dc319e)" style="fill: none; stroke: #b0b0b0; stroke-opacity: 0.25; stroke-width: 0.8; stroke-linecap: square"/>
     </g>
     <g id="line2d_4">
      <g>
       <use xlink:href="#me21e4e3a5c" x="139.375682" y="120.421582" style="stroke: #000000; stroke-width: 0.8"/>
      </g>
     </g>
    </g>
    <g id="xtick_3">
     <g id="line2d_5">
      <path d="M 198.865455 120.421582 
L 198.865455 10.8 
" clip-path="url(#p2727dc319e)" style="fill: none; stroke: #b0b0b0; stroke-opacity: 0.25; stroke-width: 0.8; stroke-linecap: square"/>
     </g>
     <g id="line2d_6">
      <g>
       <use xlink:href="#me21e4e3a5c" x="198.865455" y="120.421582" style="stroke: #000000; stroke-width: 0.8"/>
      </g>
     </g>
    </g>
    <g id="xtick_4">
     <g id="line2d_7">
      <path d="M 258.355227 120.421582 
L 258.355227 10.8 
" clip-path="url(#p2727dc319e)" style="fill: none; stroke: #b0b0b0; stroke-opacity: 0.25; stroke-width: 0.8; stroke-linecap: square"/>
     </g>
     <g id="line2d_8">
      <g>
       <use xlink:href="#me21e4e3a5c" x="258.355227" y="120.421582" style="stroke: #000000; stroke-width: 0.8"/>
      </g>
     </g>
    </g>
    <g id="xtick_5">
     <g id="line2d_9">
      <path d="M 317.845 120.421582 
L 317.845 10.8 
" clip-path="url(#p2727dc319e)" style="fill: none; stroke: #b0b0b0; stroke-opacity: 0.25; stroke-width: 0.8; stroke-linecap: square"/>
     </g>
     <g id="line2d_10">
      <g>
       <use xlink:href="#me21e4e3a5c" x="317.845" y="120.421582" style="stroke: #000000; stroke-width: 0.8"/>
      </g>
     </g>
    </g>
    <g id="xtick_6">
     <g id="line2d_11">
      <path d="M 377.334773 120.421582 
L 377.334773 10.8 
" clip-path="url(#p2727dc319e)" style="fill: none; stroke: #b0b0b0; stroke-opacity: 0.25; stroke-width: 0.8; stroke-linecap: square"/>
     </g>
     <g id="line2d_12">
      <g>
       <use xlink:href="#me21e4e3a5c" x="377.334773" y="120.421582" style="stroke: #000000; stroke-width: 0.8"/>
      </g>
     </g>
    </g>
    <g id="xtick_7">
     <g id="line2d_13">
      <path d="M 436.824545 120.421582 
L 436.824545 10.8 
" clip-path="url(#p2727dc319e)" style="fill: none; stroke: #b0b0b0; stroke-opacity: 0.25; stroke-width: 0.8; stroke-linecap: square"/>
     </g>
     <g id="line2d_14">
      <g>
       <use xlink:href="#me21e4e3a5c" x="436.824545" y="120.421582" style="stroke: #000000; stroke-width: 0.8"/>
      </g>
     </g>
    </g>
    <g id="xtick_8">
     <g id="line2d_15">
      <path d="M 496.314318 120.421582 
L 496.314318 10.8 
" clip-path="url(#p2727dc319e)" style="fill: none; stroke: #b0b0b0; stroke-opacity: 0.25; stroke-width: 0.8; stroke-linecap: square"/>
     </g>
     <g id="line2d_16">
      <g>
       <use xlink:href="#me21e4e3a5c" x="496.314318" y="120.421582" style="stroke: #000000; stroke-width: 0.8"/>
      </g>
     </g>
    </g>
    <g id="xtick_9">
     <g id="line2d_17">
      <path d="M 555.804091 120.421582 
L 555.804091 10.8 
" clip-path="url(#p2727dc319e)" style="fill: none; stroke: #b0b0b0; stroke-opacity: 0.25; stroke-width: 0.8; stroke-linecap: square"/>
     </g>
     <g id="line2d_18">
      <g>
       <use xlink:href="#me21e4e3a5c" x="555.804091" y="120.421582" style="stroke: #000000; stroke-width: 0.8"/>
      </g>
     </g>
    </g>
   </g>
   <g id="matplotlib.axis_2">
    <g id="ytick_1">
     <g id="line2d_19">
      <path d="M 56.09 105.504682 
L 579.6 105.504682 
" clip-path="url(#p2727dc319e)" style="fill: none; stroke: #b0b0b0; stroke-opacity: 0.25; stroke-width: 0.8; stroke-linecap: square"/>
     </g>
     <g id="line2d_20">
      <defs>
       <path id="me23ca633ce" d="M 0 0 
L -3.5 0 
" style="stroke: #000000; stroke-width: 0.8"/>
      </defs>
      <g>
       <use xlink:href="#me23ca633ce" x="56.09" y="105.504682" style="stroke: #000000; stroke-width: 0.8"/>
      </g>
     </g>
     <g id="text_1">
      <!-- −0.75 -->
      <g transform="translate(18.444688 109.303901) scale(0.1 -0.1)">
       <defs>
        <path id="DejaVuSans-2212" d="M 678 2272 
L 4684 2272 
L 4684 1741 
L 678 1741 
L 678 2272 
z
" transform="scale(0.015625)"/>
        <path id="DejaVuSans-30" d="M 2034 4250 
Q 1547 4250 1301 3770 
Q 1056 3291 1056 2328 
Q 1056 1369 1301 889 
Q 1547 409 2034 409 
Q 2525 409 2770 889 
Q 3016 1369 3016 2328 
Q 3016 3291 2770 3770 
Q 2525 4250 2034 4250 
z
M 2034 4750 
Q 2819 4750 3233 4129 
Q 3647 3509 3647 2328 
Q 3647 1150 3233 529 
Q 2819 -91 2034 -91 
Q 1250 -91 836 529 
Q 422 1150 422 2328 
Q 422 3509 836 4129 
Q 1250 4750 2034 4750 
z
" transform="scale(0.015625)"/>
        <path id="DejaVuSans-2e" d="M 684 794 
L 1344 794 
L 1344 0 
L 684 0 
L 684 794 
z
" transform="scale(0.015625)"/>
        <path id="DejaVuSans-37" d="M 525 4666 
L 3525 4666 
L 3525 4397 
L 1831 0 
L 1172 0 
L 2766 4134 
L 525 4134 
L 525 4666 
z
" transform="scale(0.015625)"/>
        <path id="DejaVuSans-35" d="M 691 4666 
L 3169 4666 
L 3169 4134 
L 1269 4134 
L 1269 2991 
Q 1406 3038 1543 3061 
Q 1681 3084 1819 3084 
Q 2600 3084 3056 2656 
Q 3513 2228 3513 1497 
Q 3513 744 3044 326 
Q 2575 -91 1722 -91 
Q 1428 -91 1123 -41 
Q 819 9 494 109 
L 494 744 
Q 775 591 1075 516 
Q 1375 441 1709 441 
Q 2250 441 2565 725 
Q 2881 1009 2881 1497 
Q 2881 1984 2565 2268 
Q 2250 2553 1709 2553 
Q 1456 2553 1204 2497 
Q 953 2441 691 2322 
L 691 4666 
z
" transform="scale(0.015625)"/>
       </defs>
       <use xlink:href="#DejaVuSans-2212"/>
       <use xlink:href="#DejaVuSans-30" transform="translate(83.789062 0)"/>
       <use xlink:href="#DejaVuSans-2e" transform="translate(147.412109 0)"/>
       <use xlink:href="#DejaVuSans-37" transform="translate(179.199219 0)"/>
       <use xlink:href="#DejaVuSans-35" transform="translate(242.822266 0)"/>
      </g>
     </g>
    </g>
    <g id="ytick_2">
     <g id="line2d_21">
      <path d="M 56.09 81.016668 
L 579.6 81.016668 
" clip-path="url(#p2727dc319e)" style="fill: none; stroke: #b0b0b0; stroke-opacity: 0.25; stroke-width: 0.8; stroke-linecap: square"/>
     </g>
     <g id="line2d_22">
      <g>
       <use xlink:href="#me23ca633ce" x="56.09" y="81.016668" style="stroke: #000000; stroke-width: 0.8"/>
      </g>
     </g>
     <g id="text_2">
      <!-- −0.50 -->
      <g transform="translate(18.444688 84.815887) scale(0.1 -0.1)">
       <use xlink:href="#DejaVuSans-2212"/>
       <use xlink:href="#DejaVuSans-30" transform="translate(83.789062 0)"/>
       <use xlink:href="#DejaVuSans-2e" transform="translate(147.412109 0)"/>
       <use xlink:href="#DejaVuSans-35" transform="translate(179.199219 0)"/>
       <use xlink:href="#DejaVuSans-30" transform="translate(242.822266 0)"/>
      </g>
     </g>
    </g>
    <g id="ytick_3">
     <g id="line2d_23">
      <path d="M 56.09 56.528654 
L 579.6 56.528654 
" clip-path="url(#p2727dc319e)" style="fill: none; stroke: #b0b0b0; stroke-opacity: 0.25; stroke-width: 0.8; stroke-linecap: square"/>
     </g>
     <g id="line2d_24">
      <g>
       <use xlink:href="#me23ca633ce" x="56.09" y="56.528654" style="stroke: #000000; stroke-width: 0.8"/>
      </g>
     </g>
     <g id="text_3">
      <!-- −0.25 -->
      <g transform="translate(18.444688 60.327873) scale(0.1 -0.1)">
       <defs>
        <path id="DejaVuSans-32" d="M 1228 531 
L 3431 531 
L 3431 0 
L 469 0 
L 469 531 
Q 828 903 1448 1529 
Q 2069 2156 2228 2338 
Q 2531 2678 2651 2914 
Q 2772 3150 2772 3378 
Q 2772 3750 2511 3984 
Q 2250 4219 1831 4219 
Q 1534 4219 1204 4116 
Q 875 4013 500 3803 
L 500 4441 
Q 881 4594 1212 4672 
Q 1544 4750 1819 4750 
Q 2544 4750 2975 4387 
Q 3406 4025 3406 3419 
Q 3406 3131 3298 2873 
Q 3191 2616 2906 2266 
Q 2828 2175 2409 1742 
Q 1991 1309 1228 531 
z
" transform="scale(0.015625)"/>
       </defs>
       <use xlink:href="#DejaVuSans-2212"/>
       <use xlink:href="#DejaVuSans-30" transform="translate(83.789062 0)"/>
       <use xlink:href="#DejaVuSans-2e" transform="translate(147.412109 0)"/>
       <use xlink:href="#DejaVuSans-32" transform="translate(179.199219 0)"/>
       <use xlink:href="#DejaVuSans-35" transform="translate(242.822266 0)"/>
      </g>
     </g>
    </g>
    <g id="ytick_4">
     <g id="line2d_25">
      <path d="M 56.09 32.04064 
L 579.6 32.04064 
" clip-path="url(#p2727dc319e)" style="fill: none; stroke: #b0b0b0; stroke-opacity: 0.25; stroke-width: 0.8; stroke-linecap: square"/>
     </g>
     <g id="line2d_26">
      <g>
       <use xlink:href="#me23ca633ce" x="56.09" y="32.04064" style="stroke: #000000; stroke-width: 0.8"/>
      </g>
     </g>
     <g id="text_4">
      <!-- 0.00 -->
      <g transform="translate(26.824375 35.839858) scale(0.1 -0.1)">
       <use xlink:href="#DejaVuSans-30"/>
       <use xlink:href="#DejaVuSans-2e" transform="translate(63.623047 0)"/>
       <use xlink:href="#DejaVuSans-30" transform="translate(95.410156 0)"/>
       <use xlink:href="#DejaVuSans-30" transform="translate(159.033203 0)"/>
      </g>
     </g>
    </g>
    <g id="text_5">
     <!-- C_L -->
     <g transform="translate(12.086875 74.388135) rotate(-90) scale(0.1 -0.1)">
      <defs>
       <path id="DejaVuSans-43" d="M 4122 4306 
L 4122 3641 
Q 3803 3938 3442 4084 
Q 3081 4231 2675 4231 
Q 1875 4231 1450 3742 
Q 1025 3253 1025 2328 
Q 1025 1406 1450 917 
Q 1875 428 2675 428 
Q 3081 428 3442 575 
Q 3803 722 4122 1019 
L 4122 359 
Q 3791 134 3420 21 
Q 3050 -91 2638 -91 
Q 1578 -91 968 557 
Q 359 1206 359 2328 
Q 359 3453 968 4101 
Q 1578 4750 2638 4750 
Q 3056 4750 3426 4639 
Q 3797 4528 4122 4306 
z
" transform="scale(0.015625)"/>
       <path id="DejaVuSans-5f" d="M 3263 -1063 
L 3263 -1509 
L -63 -1509 
L -63 -1063 
L 3263 -1063 
z
" transform="scale(0.015625)"/>
       <path id="DejaVuSans-4c" d="M 628 4666 
L 1259 4666 
L 1259 531 
L 3531 531 
L 3531 0 
L 628 0 
L 628 4666 
z
" transform="scale(0.015625)"/>
      </defs>
      <use xlink:href="#DejaVuSans-43"/>
      <use xlink:href="#DejaVuSans-5f" transform="translate(69.824219 0)"/>
      <use xlink:href="#DejaVuSans-4c" transform="translate(119.824219 0)"/>
     </g>
    </g>
   </g>
   <g id="line2d_27">
    <path d="M 79.885909 30.599567 
L 80.242848 31.228579 
L 80.718766 31.479409 
L 81.551623 31.567688 
L 83.574275 31.4775 
L 93.806516 30.882891 
L 100.46937 30.746424 
L 107.489164 30.839396 
L 120.814873 31.067013 
L 125.217116 30.914801 
L 128.191605 30.596344 
L 130.571195 30.114011 
L 132.950786 29.393126 
L 138.899764 27.448139 
L 140.684457 27.160768 
L 142.35017 27.107038 
L 144.134864 27.286342 
L 146.395475 27.773326 
L 149.488943 28.439048 
L 150.678739 28.48168 
L 151.630575 28.319319 
L 152.582411 27.933265 
L 153.891186 27.128624 
L 159.721184 23.342614 
L 161.267918 22.573378 
L 163.052611 21.966603 
L 167.335875 20.559577 
L 174.117709 17.92994 
L 175.545464 17.462404 
L 176.854239 17.297122 
L 179.23383 17.301605 
L 181.375461 17.192067 
L 184.23097 16.766424 
L 185.896684 16.520216 
L 187.562398 16.534708 
L 189.823009 16.795974 
L 192.916477 17.367924 
L 193.630355 17.790348 
L 194.344232 18.476501 
L 195.058109 19.486447 
L 195.890966 21.096229 
L 198.151577 25.825075 
L 199.222393 27.448137 
L 200.17423 28.536904 
L 201.007086 29.175609 
L 201.720964 29.465809 
L 202.434841 29.532357 
L 203.386677 29.378847 
L 205.29035 29.013193 
L 206.242186 29.093982 
L 207.194023 29.420772 
L 208.383818 30.091683 
L 210.64443 31.399134 
L 212.072184 31.923279 
L 213.618918 32.245186 
L 215.76055 32.448181 
L 216.831366 32.363749 
L 217.783202 32.048828 
L 220.87667 30.708473 
L 221.828507 30.667355 
L 222.899323 30.859396 
L 224.327077 31.389351 
L 226.34973 32.121084 
L 228.015443 32.465777 
L 229.443198 32.552108 
L 230.514014 32.401607 
L 231.34687 32.042476 
L 232.417686 31.272343 
L 233.369523 30.679372 
L 233.96442 30.543523 
L 234.916257 30.622125 
L 236.225032 30.564923 
L 239.19952 30.460109 
L 240.746255 30.315551 
L 242.530948 30.270011 
L 247.17115 30.327327 
L 253.001148 29.974574 
L 254.547882 29.779834 
L 256.213595 29.818962 
L 257.165432 29.815946 
L 259.545023 29.399995 
L 263.114409 28.629559 
L 264.185225 28.237751 
L 265.37502 27.79984 
L 266.921755 27.548236 
L 268.23053 27.221288 
L 268.944407 26.865105 
L 269.658284 26.192006 
L 270.84808 24.694463 
L 272.751752 21.927519 
L 273.822568 20.226277 
L 274.298486 19.877961 
L 274.655425 19.858145 
L 275.131343 20.10666 
L 276.559098 21.167519 
L 277.153995 21.223181 
L 277.867873 21.020886 
L 279.771545 20.246393 
L 280.128484 20.509389 
L 280.485423 21.227766 
L 280.842361 22.666814 
L 281.1993 25.066614 
L 281.675218 29.947081 
L 282.270116 38.792816 
L 283.102973 55.469862 
L 285.482564 106.543514 
L 285.958482 112.359898 
L 286.31542 114.818027 
L 286.55338 115.438783 
L 286.672359 115.42951 
L 286.910318 114.740629 
L 287.148277 113.122963 
L 287.505216 108.883919 
L 287.981134 99.75032 
L 288.576032 82.724982 
L 289.289909 54.652507 
L 290.003786 25.812275 
L 290.241745 21.900829 
L 290.360725 21.647267 
L 290.598684 23.337243 
L 291.193582 28.820289 
L 291.55052 30.261216 
L 291.907459 30.856195 
L 292.383377 31.164756 
L 295.714805 32.282348 
L 297.499498 32.364281 
L 299.998068 32.44107 
L 300.711945 32.029999 
L 301.782761 31.401626 
L 302.496639 31.280682 
L 303.210516 31.425598 
L 304.162352 31.900437 
L 305.471127 32.519178 
L 306.660923 32.81263 
L 307.612759 32.852025 
L 308.207657 32.663836 
L 308.683575 32.295468 
L 310.11133 30.927097 
L 310.587248 30.927511 
L 311.658064 30.950686 
L 313.561736 30.754416 
L 314.632552 30.579245 
L 315.703368 30.652844 
L 317.369082 30.792282 
L 318.439898 30.855371 
L 319.272755 30.993019 
L 321.533366 30.983633 
L 322.604182 30.886594 
L 323.793977 30.685232 
L 324.983773 30.786425 
L 326.292548 30.84328 
L 327.125405 30.893699 
L 328.077241 31.037962 
L 330.81377 31.004145 
L 333.312341 30.748439 
L 334.859075 30.814244 
L 335.691932 30.905112 
L 336.643768 31.010653 
L 339.380298 30.93493 
L 341.164991 30.640049 
L 343.90152 30.840379 
L 344.853357 30.921207 
L 347.708866 30.793121 
L 349.2556 30.511708 
L 351.397232 30.610861 
L 352.587027 30.766474 
L 355.323557 30.620498 
L 357.22723 30.312036 
L 359.249882 30.605518 
L 361.867432 30.287596 
L 362.46233 30.403138 
L 363.057227 30.761204 
L 364.84192 32.045499 
L 365.555798 32.247799 
L 366.150695 32.221347 
L 366.626614 32.023623 
L 367.221511 31.520206 
L 368.173348 30.646733 
L 368.887225 30.329869 
L 369.720082 30.214582 
L 370.31498 30.357228 
L 371.147836 30.838178 
L 372.337632 31.521915 
L 373.051509 31.696068 
L 373.646407 31.613284 
L 374.122325 31.333647 
L 374.836202 30.598231 
L 375.669059 29.825344 
L 376.858855 29.131963 
L 377.453752 28.966924 
L 378.04865 29.037187 
L 379.000486 29.444838 
L 379.952323 29.79316 
L 380.54722 29.797086 
L 381.023139 29.585715 
L 381.499057 29.117974 
L 382.450893 27.713061 
L 384.116607 25.061374 
L 384.830484 24.046779 
L 385.425382 23.547187 
L 386.139259 23.261083 
L 387.210075 22.889638 
L 387.685993 22.520493 
L 388.161911 21.869351 
L 388.756809 20.558442 
L 389.946605 17.79211 
L 390.541502 16.885648 
L 391.01742 16.534449 
L 391.25538 16.549649 
L 391.612318 16.867526 
L 391.969257 17.557328 
L 392.445175 18.997562 
L 393.278032 22.418186 
L 394.229868 26.235087 
L 394.824766 27.815441 
L 395.538643 29.60775 
L 397.680275 36.307356 
L 398.037214 36.731196 
L 398.275173 36.803224 
L 398.513132 36.686166 
L 398.87007 36.125168 
L 399.227009 35.074274 
L 399.702927 32.901626 
L 400.297825 29.074398 
L 401.72558 19.12814 
L 402.082518 17.837669 
L 402.439457 17.275597 
L 402.677416 17.239739 
L 403.034355 17.530745 
L 404.938027 19.861902 
L 405.651905 20.130624 
L 406.365782 20.160095 
L 407.198639 20.179605 
L 407.793536 20.418593 
L 412.19578 23.002851 
L 413.980473 24.07161 
L 415.527207 25.351616 
L 416.479043 25.642446 
L 420.286389 26.567234 
L 421.952102 27.523672 
L 422.784959 27.569992 
L 426.116386 27.537591 
L 427.425161 28.080848 
L 428.020059 28.283609 
L 428.733936 28.277233 
L 430.756589 27.948184 
L 431.470466 27.805029 
L 431.946384 27.94636 
L 432.660261 28.454432 
L 433.374139 28.904416 
L 433.969036 29.019845 
L 435.991689 29.166607 
L 436.467607 29.589629 
L 438.2523 31.647589 
L 438.966177 31.967315 
L 439.561075 32.039625 
L 440.036993 31.877113 
L 441.702707 30.903455 
L 442.178625 31.043502 
L 444.558216 32.195388 
L 445.510052 32.264548 
L 445.98597 32.07134 
L 447.532705 31.071091 
L 448.008623 31.173089 
L 448.84148 31.664974 
L 449.793316 32.129694 
L 450.745152 32.322375 
L 451.45903 32.291506 
L 451.934948 32.025956 
L 453.124743 31.160663 
L 453.600661 31.166406 
L 454.195559 31.446265 
L 455.504334 32.168864 
L 456.45617 32.371225 
L 457.170048 32.326389 
L 457.645966 32.051522 
L 458.835761 31.114537 
L 459.31168 31.071654 
L 459.906577 31.313276 
L 461.572291 32.231132 
L 462.405148 32.389453 
L 463.000045 32.287821 
L 463.594943 31.866082 
L 464.30882 31.353456 
L 464.784739 31.273557 
L 465.379636 31.442647 
L 467.521268 32.377349 
L 468.235145 32.337902 
L 468.711064 32.076721 
L 470.019839 31.07473 
L 470.495757 31.074869 
L 471.090655 31.347426 
L 472.637389 32.224564 
L 473.351266 32.327637 
L 473.827184 32.210344 
L 474.303102 31.866913 
L 475.254939 31.043881 
L 475.730857 30.91827 
L 476.206775 31.003368 
L 476.920652 31.392969 
L 478.110448 32.051589 
L 478.705345 32.135237 
L 479.181264 31.95833 
L 479.657182 31.497076 
L 480.490039 30.585725 
L 481.084936 30.318936 
L 482.512691 30.056082 
L 484.773302 30.004511 
L 485.606159 30.051709 
L 487.390852 29.740793 
L 488.10473 29.536827 
L 488.937586 29.370058 
L 489.770443 29.473822 
L 490.48432 29.547882 
L 491.793095 29.378678 
L 493.696768 28.954723 
L 494.410645 28.857322 
L 496.195339 28.833828 
L 498.33697 28.251254 
L 499.526766 27.832341 
L 501.311459 27.529159 
L 502.977173 26.709973 
L 504.047989 26.011461 
L 504.880845 25.590116 
L 505.832682 25.203158 
L 506.784518 24.451407 
L 508.212273 22.987725 
L 511.900639 18.71594 
L 513.566352 16.494728 
L 514.16125 15.955486 
L 514.637168 15.784844 
L 515.113086 15.881593 
L 515.589005 16.289456 
L 516.064923 17.072731 
L 516.540841 18.39338 
L 517.016759 20.42876 
L 517.611657 24.223057 
L 518.206555 29.598865 
L 518.920432 38.137087 
L 519.991248 54.137515 
L 522.251859 88.977331 
L 522.846757 95.174892 
L 523.322675 98.179273 
L 523.560634 98.890279 
L 523.798593 99.007933 
L 524.036552 98.450595 
L 524.274511 97.188872 
L 524.63145 93.929615 
L 525.107368 86.919409 
L 525.702266 73.951556 
L 526.416143 52.776447 
L 527.486959 20.282093 
L 527.724918 18.036529 
L 527.843898 17.965881 
L 528.081857 19.20792 
L 528.914714 25.563201 
L 529.390632 27.321546 
L 529.86655 28.1978 
L 530.342468 28.654417 
L 530.818386 28.804574 
L 531.294305 28.687354 
L 531.889202 28.275367 
L 532.4841 27.569084 
L 533.435936 26.406886 
L 534.030834 26.026973 
L 534.625732 25.956542 
L 535.22063 26.145921 
L 536.172466 26.489345 
L 537.005323 26.581456 
L 537.7192 26.696919 
L 538.433077 27.091477 
L 540.33675 28.341953 
L 541.050627 28.528241 
L 541.883484 28.719956 
L 542.359402 29.067589 
L 543.311239 30.150607 
L 543.906136 30.685259 
L 544.501034 30.902292 
L 545.928789 31.179148 
L 548.1894 32.26558 
L 548.903277 32.258819 
L 550.568991 31.987812 
L 551.996745 32.361718 
L 553.067561 32.4868 
L 554.019398 32.331333 
L 554.971234 32.233789 
L 555.804091 32.333188 
L 555.804091 32.333188 
" clip-path="url(#p2727dc319e)" style="fill: none; stroke: #000000; stroke-width: 1.4; stroke-linecap: square"/>
   </g>
   <g id="line2d_28">
    <path d="M 79.885909 29.943867 
L 80.599786 30.497349 
L 81.313664 30.777516 
L 82.2655 30.831336 
L 85.715907 30.927135 
L 101.897125 31.64946 
L 113.438141 31.922239 
L 125.574055 31.977997 
L 142.826089 31.965467 
L 150.3218 32.017052 
L 154.129145 31.792578 
L 158.29343 31.651695 
L 170.072405 31.249305 
L 173.87975 30.832725 
L 177.449136 30.448181 
L 179.709748 30.394797 
L 181.137502 30.573009 
L 182.684236 31.010425 
L 184.825868 31.869855 
L 186.84852 32.976614 
L 190.179948 34.760618 
L 192.08362 35.536922 
L 194.106273 36.140086 
L 195.653007 36.373641 
L 198.865455 36.49342 
L 201.601984 36.531955 
L 202.79178 36.32011 
L 203.743616 35.942587 
L 204.695452 35.32778 
L 205.647289 34.441005 
L 208.621777 31.34549 
L 209.454634 30.922565 
L 210.287491 30.752346 
L 211.239327 30.782617 
L 212.548102 31.066604 
L 215.403611 31.791063 
L 216.831366 31.846096 
L 222.066466 31.773487 
L 226.468709 32.187829 
L 228.72932 32.039771 
L 232.774625 31.733954 
L 234.916257 31.722959 
L 238.366664 31.890508 
L 258.712166 31.710533 
L 266.564816 31.468827 
L 269.063386 31.239325 
L 275.131343 30.42404 
L 277.510934 30.592551 
L 279.295627 30.874063 
L 280.247464 31.2482 
L 281.556239 32.068213 
L 285.720523 34.751091 
L 287.029298 35.38684 
L 288.813991 35.986888 
L 290.360725 36.314987 
L 291.312561 36.279375 
L 292.264398 36.013154 
L 293.573173 35.381812 
L 295.000927 34.449308 
L 296.190723 33.391533 
L 298.213375 31.518435 
L 299.046232 31.071836 
L 299.998068 30.836867 
L 301.544802 30.70139 
L 303.329495 30.794518 
L 304.519291 31.08127 
L 307.3748 31.903724 
L 308.326636 31.885861 
L 309.99235 31.566498 
L 311.539084 31.323551 
L 313.442757 31.378636 
L 315.584389 31.746942 
L 317.012143 31.865696 
L 318.796836 31.713619 
L 320.58153 31.762796 
L 326.649486 31.926456 
L 328.43418 31.725031 
L 331.884586 31.880949 
L 333.788259 32.014618 
L 335.097034 31.896332 
L 336.762748 31.69741 
L 344.734377 31.480035 
L 350.326416 31.173382 
L 351.635191 31.042504 
L 355.204577 30.364695 
L 356.632332 30.243912 
L 358.179066 30.354968 
L 360.677636 30.873864 
L 362.700289 31.371862 
L 364.128043 32.032568 
L 365.436818 32.798756 
L 366.507634 33.751108 
L 367.57845 34.613053 
L 368.530286 35.029013 
L 369.958041 35.369134 
L 373.884366 36.207229 
L 374.836202 36.377544 
L 375.669059 36.278037 
L 376.858855 35.874001 
L 380.904159 34.107008 
L 381.618036 33.545289 
L 383.878648 31.449591 
L 384.949464 30.909507 
L 386.02028 30.639199 
L 387.210075 30.598587 
L 389.827625 30.616345 
L 391.850277 30.606278 
L 395.419664 31.112454 
L 397.442316 30.95903 
L 400.654764 31.082867 
L 402.320477 31.141548 
L 413.623534 31.227457 
L 414.932309 31.20737 
L 419.334552 30.995338 
L 422.071082 30.91242 
L 425.640468 30.559697 
L 430.28067 30.456734 
L 431.470466 30.386446 
L 432.89822 30.527372 
L 434.563934 30.750907 
L 438.37128 30.699803 
L 440.98883 30.991817 
L 443.4874 30.685424 
L 445.272093 30.863955 
L 446.461889 30.909561 
L 447.532705 30.671865 
L 448.60352 30.48262 
L 449.912295 30.50769 
L 452.291886 30.610477 
L 454.552498 30.481248 
L 456.218211 30.898653 
L 457.289027 31.020325 
L 460.382495 31.070828 
L 462.762086 31.681397 
L 464.070861 31.54075 
L 465.141677 31.515666 
L 466.212493 31.735285 
L 467.759227 32.042698 
L 468.592084 31.964542 
L 470.376777 31.674668 
L 471.328614 31.838065 
L 472.994327 32.160699 
L 473.827184 32.076717 
L 475.849836 31.709232 
L 476.920652 31.928542 
L 478.229427 32.148481 
L 479.062284 32.046969 
L 480.965957 31.632597 
L 481.917793 31.65586 
L 484.416364 31.86103 
L 488.223709 31.716095 
L 489.770443 31.782957 
L 490.960239 31.688722 
L 494.410645 31.723713 
L 500.478602 31.569775 
L 509.521048 30.969165 
L 511.42472 30.73431 
L 514.399209 30.399573 
L 516.421861 30.486382 
L 517.730636 30.751973 
L 519.634309 31.376654 
L 524.869409 34.122436 
L 525.702266 34.608017 
L 527.843898 35.526302 
L 530.580427 36.412209 
L 533.078998 36.728777 
L 536.529405 36.975444 
L 540.812668 36.767001 
L 542.002464 36.317226 
L 543.906136 35.607716 
L 544.738993 35.259248 
L 545.45287 34.718049 
L 546.642666 33.445301 
L 548.1894 31.824741 
L 549.141236 31.156341 
L 549.974093 30.810151 
L 550.80695 30.68336 
L 551.877766 30.761637 
L 555.804091 31.447746 
L 555.804091 31.447746 
" clip-path="url(#p2727dc319e)" style="fill: none; stroke: #e45756; stroke-width: 1.1; stroke-linecap: square"/>
   </g>
   <g id="patch_3">
    <path d="M 56.09 120.421582 
L 56.09 10.8 
" style="fill: none; stroke: #000000; stroke-width: 0.8; stroke-linejoin: miter; stroke-linecap: square"/>
   </g>
   <g id="patch_4">
    <path d="M 579.6 120.421582 
L 579.6 10.8 
" style="fill: none; stroke: #000000; stroke-width: 0.8; stroke-linejoin: miter; stroke-linecap: square"/>
   </g>
   <g id="patch_5">
    <path d="M 56.09 120.421582 
L 579.6 120.421582 
" style="fill: none; stroke: #000000; stroke-width: 0.8; stroke-linejoin: miter; stroke-linecap: square"/>
   </g>
   <g id="patch_6">
    <path d="M 56.09 10.8 
L 579.6 10.8 
" style="fill: none; stroke: #000000; stroke-width: 0.8; stroke-linejoin: miter; stroke-linecap: square"/>
   </g>
   <g id="legend_1">
    <g id="line2d_29">
     <path d="M 65.09 91.16377 
L 75.09 91.16377 
L 85.09 91.16377 
" style="fill: none; stroke: #000000; stroke-width: 1.4; stroke-linecap: square"/>
    </g>
    <g id="text_6">
     <!-- True residual -->
     <g transform="translate(93.09 94.66377) scale(0.1 -0.1)">
      <defs>
       <path id="DejaVuSans-54" d="M -19 4666 
L 3928 4666 
L 3928 4134 
L 2272 4134 
L 2272 0 
L 1638 0 
L 1638 4134 
L -19 4134 
L -19 4666 
z
" transform="scale(0.015625)"/>
       <path id="DejaVuSans-72" d="M 2631 2963 
Q 2534 3019 2420 3045 
Q 2306 3072 2169 3072 
Q 1681 3072 1420 2755 
Q 1159 2438 1159 1844 
L 1159 0 
L 581 0 
L 581 3500 
L 1159 3500 
L 1159 2956 
Q 1341 3275 1631 3429 
Q 1922 3584 2338 3584 
Q 2397 3584 2469 3576 
Q 2541 3569 2628 3553 
L 2631 2963 
z
" transform="scale(0.015625)"/>
       <path id="DejaVuSans-75" d="M 544 1381 
L 544 3500 
L 1119 3500 
L 1119 1403 
Q 1119 906 1312 657 
Q 1506 409 1894 409 
Q 2359 409 2629 706 
Q 2900 1003 2900 1516 
L 2900 3500 
L 3475 3500 
L 3475 0 
L 2900 0 
L 2900 538 
Q 2691 219 2414 64 
Q 2138 -91 1772 -91 
Q 1169 -91 856 284 
Q 544 659 544 1381 
z
M 1991 3584 
L 1991 3584 
z
" transform="scale(0.015625)"/>
       <path id="DejaVuSans-65" d="M 3597 1894 
L 3597 1613 
L 953 1613 
Q 991 1019 1311 708 
Q 1631 397 2203 397 
Q 2534 397 2845 478 
Q 3156 559 3463 722 
L 3463 178 
Q 3153 47 2828 -22 
Q 2503 -91 2169 -91 
Q 1331 -91 842 396 
Q 353 884 353 1716 
Q 353 2575 817 3079 
Q 1281 3584 2069 3584 
Q 2775 3584 3186 3129 
Q 3597 2675 3597 1894 
z
M 3022 2063 
Q 3016 2534 2758 2815 
Q 2500 3097 2075 3097 
Q 1594 3097 1305 2825 
Q 1016 2553 972 2059 
L 3022 2063 
z
" transform="scale(0.015625)"/>
       <path id="DejaVuSans-20" transform="scale(0.015625)"/>
       <path id="DejaVuSans-73" d="M 2834 3397 
L 2834 2853 
Q 2591 2978 2328 3040 
Q 2066 3103 1784 3103 
Q 1356 3103 1142 2972 
Q 928 2841 928 2578 
Q 928 2378 1081 2264 
Q 1234 2150 1697 2047 
L 1894 2003 
Q 2506 1872 2764 1633 
Q 3022 1394 3022 966 
Q 3022 478 2636 193 
Q 2250 -91 1575 -91 
Q 1294 -91 989 -36 
Q 684 19 347 128 
L 347 722 
Q 666 556 975 473 
Q 1284 391 1588 391 
Q 1994 391 2212 530 
Q 2431 669 2431 922 
Q 2431 1156 2273 1281 
Q 2116 1406 1581 1522 
L 1381 1569 
Q 847 1681 609 1914 
Q 372 2147 372 2553 
Q 372 3047 722 3315 
Q 1072 3584 1716 3584 
Q 2034 3584 2315 3537 
Q 2597 3491 2834 3397 
z
" transform="scale(0.015625)"/>
       <path id="DejaVuSans-69" d="M 603 3500 
L 1178 3500 
L 1178 0 
L 603 0 
L 603 3500 
z
M 603 4863 
L 1178 4863 
L 1178 4134 
L 603 4134 
L 603 4863 
z
" transform="scale(0.015625)"/>
       <path id="DejaVuSans-64" d="M 2906 2969 
L 2906 4863 
L 3481 4863 
L 3481 0 
L 2906 0 
L 2906 525 
Q 2725 213 2448 61 
Q 2172 -91 1784 -91 
Q 1150 -91 751 415 
Q 353 922 353 1747 
Q 353 2572 751 3078 
Q 1150 3584 1784 3584 
Q 2172 3584 2448 3432 
Q 2725 3281 2906 2969 
z
M 947 1747 
Q 947 1113 1208 752 
Q 1469 391 1925 391 
Q 2381 391 2643 752 
Q 2906 1113 2906 1747 
Q 2906 2381 2643 2742 
Q 2381 3103 1925 3103 
Q 1469 3103 1208 2742 
Q 947 2381 947 1747 
z
" transform="scale(0.015625)"/>
       <path id="DejaVuSans-61" d="M 2194 1759 
Q 1497 1759 1228 1600 
Q 959 1441 959 1056 
Q 959 750 1161 570 
Q 1363 391 1709 391 
Q 2188 391 2477 730 
Q 2766 1069 2766 1631 
L 2766 1759 
L 2194 1759 
z
M 3341 1997 
L 3341 0 
L 2766 0 
L 2766 531 
Q 2569 213 2275 61 
Q 1981 -91 1556 -91 
Q 1019 -91 701 211 
Q 384 513 384 1019 
Q 384 1609 779 1909 
Q 1175 2209 1959 2209 
L 2766 2209 
L 2766 2266 
Q 2766 2663 2505 2880 
Q 2244 3097 1772 3097 
Q 1472 3097 1187 3025 
Q 903 2953 641 2809 
L 641 3341 
Q 956 3463 1253 3523 
Q 1550 3584 1831 3584 
Q 2591 3584 2966 3190 
Q 3341 2797 3341 1997 
z
" transform="scale(0.015625)"/>
       <path id="DejaVuSans-6c" d="M 603 4863 
L 1178 4863 
L 1178 0 
L 603 0 
L 603 4863 
z
" transform="scale(0.015625)"/>
      </defs>
      <use xlink:href="#DejaVuSans-54"/>
      <use xlink:href="#DejaVuSans-72" transform="translate(46.333984 0)"/>
      <use xlink:href="#DejaVuSans-75" transform="translate(87.447266 0)"/>
      <use xlink:href="#DejaVuSans-65" transform="translate(150.826172 0)"/>
      <use xlink:href="#DejaVuSans-20" transform="translate(212.349609 0)"/>
      <use xlink:href="#DejaVuSans-72" transform="translate(244.136719 0)"/>
      <use xlink:href="#DejaVuSans-65" transform="translate(283 0)"/>
      <use xlink:href="#DejaVuSans-73" transform="translate(344.523438 0)"/>
      <use xlink:href="#DejaVuSans-69" transform="translate(396.623047 0)"/>
      <use xlink:href="#DejaVuSans-64" transform="translate(424.40625 0)"/>
      <use xlink:href="#DejaVuSans-75" transform="translate(487.882812 0)"/>
      <use xlink:href="#DejaVuSans-61" transform="translate(551.261719 0)"/>
      <use xlink:href="#DejaVuSans-6c" transform="translate(612.541016 0)"/>
     </g>
    </g>
    <g id="line2d_30">
     <path d="M 65.09 105.841895 
L 75.09 105.841895 
L 85.09 105.841895 
" style="fill: none; stroke: #e45756; stroke-width: 1.1; stroke-linecap: square"/>
    </g>
    <g id="text_7">
     <!-- PINN-CoeffClosure -->
     <g transform="translate(93.09 109.341895) scale(0.1 -0.1)">
      <defs>
       <path id="DejaVuSans-50" d="M 1259 4147 
L 1259 2394 
L 2053 2394 
Q 2494 2394 2734 2622 
Q 2975 2850 2975 3272 
Q 2975 3691 2734 3919 
Q 2494 4147 2053 4147 
L 1259 4147 
z
M 628 4666 
L 2053 4666 
Q 2838 4666 3239 4311 
Q 3641 3956 3641 3272 
Q 3641 2581 3239 2228 
Q 2838 1875 2053 1875 
L 1259 1875 
L 1259 0 
L 628 0 
L 628 4666 
z
" transform="scale(0.015625)"/>
       <path id="DejaVuSans-49" d="M 628 4666 
L 1259 4666 
L 1259 0 
L 628 0 
L 628 4666 
z
" transform="scale(0.015625)"/>
       <path id="DejaVuSans-4e" d="M 628 4666 
L 1478 4666 
L 3547 763 
L 3547 4666 
L 4159 4666 
L 4159 0 
L 3309 0 
L 1241 3903 
L 1241 0 
L 628 0 
L 628 4666 
z
" transform="scale(0.015625)"/>
       <path id="DejaVuSans-2d" d="M 313 2009 
L 1997 2009 
L 1997 1497 
L 313 1497 
L 313 2009 
z
" transform="scale(0.015625)"/>
       <path id="DejaVuSans-6f" d="M 1959 3097 
Q 1497 3097 1228 2736 
Q 959 2375 959 1747 
Q 959 1119 1226 758 
Q 1494 397 1959 397 
Q 2419 397 2687 759 
Q 2956 1122 2956 1747 
Q 2956 2369 2687 2733 
Q 2419 3097 1959 3097 
z
M 1959 3584 
Q 2709 3584 3137 3096 
Q 3566 2609 3566 1747 
Q 3566 888 3137 398 
Q 2709 -91 1959 -91 
Q 1206 -91 779 398 
Q 353 888 353 1747 
Q 353 2609 779 3096 
Q 1206 3584 1959 3584 
z
" transform="scale(0.015625)"/>
       <path id="DejaVuSans-66" d="M 2375 4863 
L 2375 4384 
L 1825 4384 
Q 1516 4384 1395 4259 
Q 1275 4134 1275 3809 
L 1275 3500 
L 2222 3500 
L 2222 3053 
L 1275 3053 
L 1275 0 
L 697 0 
L 697 3053 
L 147 3053 
L 147 3500 
L 697 3500 
L 697 3744 
Q 697 4328 969 4595 
Q 1241 4863 1831 4863 
L 2375 4863 
z
" transform="scale(0.015625)"/>
      </defs>
      <use xlink:href="#DejaVuSans-50"/>
      <use xlink:href="#DejaVuSans-49" transform="translate(60.302734 0)"/>
      <use xlink:href="#DejaVuSans-4e" transform="translate(89.794922 0)"/>
      <use xlink:href="#DejaVuSans-4e" transform="translate(164.599609 0)"/>
      <use xlink:href="#DejaVuSans-2d" transform="translate(239.404297 0)"/>
      <use xlink:href="#DejaVuSans-43" transform="translate(275.488281 0)"/>
      <use xlink:href="#DejaVuSans-6f" transform="translate(345.3125 0)"/>
      <use xlink:href="#DejaVuSans-65" transform="translate(406.494141 0)"/>
      <use xlink:href="#DejaVuSans-66" transform="translate(468.017578 0)"/>
      <use xlink:href="#DejaVuSans-66" transform="translate(503.222656 0)"/>
      <use xlink:href="#DejaVuSans-43" transform="translate(538.427734 0)"/>
      <use xlink:href="#DejaVuSans-6c" transform="translate(608.251953 0)"/>
      <use xlink:href="#DejaVuSans-6f" transform="translate(636.035156 0)"/>
      <use xlink:href="#DejaVuSans-73" transform="translate(697.216797 0)"/>
      <use xlink:href="#DejaVuSans-75" transform="translate(749.316406 0)"/>
      <use xlink:href="#DejaVuSans-72" transform="translate(812.695312 0)"/>
      <use xlink:href="#DejaVuSans-65" transform="translate(851.558594 0)"/>
     </g>
    </g>
   </g>
  </g>
  <g id="axes_2">
   <g id="patch_7">
    <path d="M 56.09 248.030791 
L 579.6 248.030791 
L 579.6 138.409209 
L 56.09 138.409209 
z
" style="fill: #ffffff"/>
   </g>
   <g id="matplotlib.axis_3">
    <g id="xtick_10">
     <g id="line2d_31">
      <path d="M 79.885909 248.030791 
L 79.885909 138.409209 
" clip-path="url(#p384f45823b)" style="fill: none; stroke: #b0b0b0; stroke-opacity: 0.25; stroke-width: 0.8; stroke-linecap: square"/>
     </g>
     <g id="line2d_32">
      <g>
       <use xlink:href="#me21e4e3a5c" x="79.885909" y="248.030791" style="stroke: #000000; stroke-width: 0.8"/>
      </g>
     </g>
    </g>
    <g id="xtick_11">
     <g id="line2d_33">
      <path d="M 139.375682 248.030791 
L 139.375682 138.409209 
" clip-path="url(#p384f45823b)" style="fill: none; stroke: #b0b0b0; stroke-opacity: 0.25; stroke-width: 0.8; stroke-linecap: square"/>
     </g>
     <g id="line2d_34">
      <g>
       <use xlink:href="#me21e4e3a5c" x="139.375682" y="248.030791" style="stroke: #000000; stroke-width: 0.8"/>
      </g>
     </g>
    </g>
    <g id="xtick_12">
     <g id="line2d_35">
      <path d="M 198.865455 248.030791 
L 198.865455 138.409209 
" clip-path="url(#p384f45823b)" style="fill: none; stroke: #b0b0b0; stroke-opacity: 0.25; stroke-width: 0.8; stroke-linecap: square"/>
     </g>
     <g id="line2d_36">
      <g>
       <use xlink:href="#me21e4e3a5c" x="198.865455" y="248.030791" style="stroke: #000000; stroke-width: 0.8"/>
      </g>
     </g>
    </g>
    <g id="xtick_13">
     <g id="line2d_37">
      <path d="M 258.355227 248.030791 
L 258.355227 138.409209 
" clip-path="url(#p384f45823b)" style="fill: none; stroke: #b0b0b0; stroke-opacity: 0.25; stroke-width: 0.8; stroke-linecap: square"/>
     </g>
     <g id="line2d_38">
      <g>
       <use xlink:href="#me21e4e3a5c" x="258.355227" y="248.030791" style="stroke: #000000; stroke-width: 0.8"/>
      </g>
     </g>
    </g>
    <g id="xtick_14">
     <g id="line2d_39">
      <path d="M 317.845 248.030791 
L 317.845 138.409209 
" clip-path="url(#p384f45823b)" style="fill: none; stroke: #b0b0b0; stroke-opacity: 0.25; stroke-width: 0.8; stroke-linecap: square"/>
     </g>
     <g id="line2d_40">
      <g>
       <use xlink:href="#me21e4e3a5c" x="317.845" y="248.030791" style="stroke: #000000; stroke-width: 0.8"/>
      </g>
     </g>
    </g>
    <g id="xtick_15">
     <g id="line2d_41">
      <path d="M 377.334773 248.030791 
L 377.334773 138.409209 
" clip-path="url(#p384f45823b)" style="fill: none; stroke: #b0b0b0; stroke-opacity: 0.25; stroke-width: 0.8; stroke-linecap: square"/>
     </g>
     <g id="line2d_42">
      <g>
       <use xlink:href="#me21e4e3a5c" x="377.334773" y="248.030791" style="stroke: #000000; stroke-width: 0.8"/>
      </g>
     </g>
    </g>
    <g id="xtick_16">
     <g id="line2d_43">
      <path d="M 436.824545 248.030791 
L 436.824545 138.409209 
" clip-path="url(#p384f45823b)" style="fill: none; stroke: #b0b0b0; stroke-opacity: 0.25; stroke-width: 0.8; stroke-linecap: square"/>
     </g>
     <g id="line2d_44">
      <g>
       <use xlink:href="#me21e4e3a5c" x="436.824545" y="248.030791" style="stroke: #000000; stroke-width: 0.8"/>
      </g>
     </g>
    </g>
    <g id="xtick_17">
     <g id="line2d_45">
      <path d="M 496.314318 248.030791 
L 496.314318 138.409209 
" clip-path="url(#p384f45823b)" style="fill: none; stroke: #b0b0b0; stroke-opacity: 0.25; stroke-width: 0.8; stroke-linecap: square"/>
     </g>
     <g id="line2d_46">
      <g>
       <use xlink:href="#me21e4e3a5c" x="496.314318" y="248.030791" style="stroke: #000000; stroke-width: 0.8"/>
      </g>
     </g>
    </g>
    <g id="xtick_18">
     <g id="line2d_47">
      <path d="M 555.804091 248.030791 
L 555.804091 138.409209 
" clip-path="url(#p384f45823b)" style="fill: none; stroke: #b0b0b0; stroke-opacity: 0.25; stroke-width: 0.8; stroke-linecap: square"/>
     </g>
     <g id="line2d_48">
      <g>
       <use xlink:href="#me21e4e3a5c" x="555.804091" y="248.030791" style="stroke: #000000; stroke-width: 0.8"/>
      </g>
     </g>
    </g>
   </g>
   <g id="matplotlib.axis_4">
    <g id="ytick_5">
     <g id="line2d_49">
      <path d="M 56.09 225.177897 
L 579.6 225.177897 
" clip-path="url(#p384f45823b)" style="fill: none; stroke: #b0b0b0; stroke-opacity: 0.25; stroke-width: 0.8; stroke-linecap: square"/>
     </g>
     <g id="line2d_50">
      <g>
       <use xlink:href="#me23ca633ce" x="56.09" y="225.177897" style="stroke: #000000; stroke-width: 0.8"/>
      </g>
     </g>
     <g id="text_8">
      <!-- 0.0 -->
      <g transform="translate(33.186875 228.977116) scale(0.1 -0.1)">
       <use xlink:href="#DejaVuSans-30"/>
       <use xlink:href="#DejaVuSans-2e" transform="translate(63.623047 0)"/>
       <use xlink:href="#DejaVuSans-30" transform="translate(95.410156 0)"/>
      </g>
     </g>
    </g>
    <g id="ytick_6">
     <g id="line2d_51">
      <path d="M 56.09 202.123769 
L 579.6 202.123769 
" clip-path="url(#p384f45823b)" style="fill: none; stroke: #b0b0b0; stroke-opacity: 0.25; stroke-width: 0.8; stroke-linecap: square"/>
     </g>
     <g id="line2d_52">
      <g>
       <use xlink:href="#me23ca633ce" x="56.09" y="202.123769" style="stroke: #000000; stroke-width: 0.8"/>
      </g>
     </g>
     <g id="text_9">
      <!-- 0.2 -->
      <g transform="translate(33.186875 205.922988) scale(0.1 -0.1)">
       <use xlink:href="#DejaVuSans-30"/>
       <use xlink:href="#DejaVuSans-2e" transform="translate(63.623047 0)"/>
       <use xlink:href="#DejaVuSans-32" transform="translate(95.410156 0)"/>
      </g>
     </g>
    </g>
    <g id="ytick_7">
     <g id="line2d_53">
      <path d="M 56.09 179.069642 
L 579.6 179.069642 
" clip-path="url(#p384f45823b)" style="fill: none; stroke: #b0b0b0; stroke-opacity: 0.25; stroke-width: 0.8; stroke-linecap: square"/>
     </g>
     <g id="line2d_54">
      <g>
       <use xlink:href="#me23ca633ce" x="56.09" y="179.069642" style="stroke: #000000; stroke-width: 0.8"/>
      </g>
     </g>
     <g id="text_10">
      <!-- 0.4 -->
      <g transform="translate(33.186875 182.868861) scale(0.1 -0.1)">
       <defs>
        <path id="DejaVuSans-34" d="M 2419 4116 
L 825 1625 
L 2419 1625 
L 2419 4116 
z
M 2253 4666 
L 3047 4666 
L 3047 1625 
L 3713 1625 
L 3713 1100 
L 3047 1100 
L 3047 0 
L 2419 0 
L 2419 1100 
L 313 1100 
L 313 1709 
L 2253 4666 
z
" transform="scale(0.015625)"/>
       </defs>
       <use xlink:href="#DejaVuSans-30"/>
       <use xlink:href="#DejaVuSans-2e" transform="translate(63.623047 0)"/>
       <use xlink:href="#DejaVuSans-34" transform="translate(95.410156 0)"/>
      </g>
     </g>
    </g>
    <g id="ytick_8">
     <g id="line2d_55">
      <path d="M 56.09 156.015515 
L 579.6 156.015515 
" clip-path="url(#p384f45823b)" style="fill: none; stroke: #b0b0b0; stroke-opacity: 0.25; stroke-width: 0.8; stroke-linecap: square"/>
     </g>
     <g id="line2d_56">
      <g>
       <use xlink:href="#me23ca633ce" x="56.09" y="156.015515" style="stroke: #000000; stroke-width: 0.8"/>
      </g>
     </g>
     <g id="text_11">
      <!-- 0.6 -->
      <g transform="translate(33.186875 159.814733) scale(0.1 -0.1)">
       <defs>
        <path id="DejaVuSans-36" d="M 2113 2584 
Q 1688 2584 1439 2293 
Q 1191 2003 1191 1497 
Q 1191 994 1439 701 
Q 1688 409 2113 409 
Q 2538 409 2786 701 
Q 3034 994 3034 1497 
Q 3034 2003 2786 2293 
Q 2538 2584 2113 2584 
z
M 3366 4563 
L 3366 3988 
Q 3128 4100 2886 4159 
Q 2644 4219 2406 4219 
Q 1781 4219 1451 3797 
Q 1122 3375 1075 2522 
Q 1259 2794 1537 2939 
Q 1816 3084 2150 3084 
Q 2853 3084 3261 2657 
Q 3669 2231 3669 1497 
Q 3669 778 3244 343 
Q 2819 -91 2113 -91 
Q 1303 -91 875 529 
Q 447 1150 447 2328 
Q 447 3434 972 4092 
Q 1497 4750 2381 4750 
Q 2619 4750 2861 4703 
Q 3103 4656 3366 4563 
z
" transform="scale(0.015625)"/>
       </defs>
       <use xlink:href="#DejaVuSans-30"/>
       <use xlink:href="#DejaVuSans-2e" transform="translate(63.623047 0)"/>
       <use xlink:href="#DejaVuSans-36" transform="translate(95.410156 0)"/>
      </g>
     </g>
    </g>
    <g id="text_12">
     <!-- C_D -->
     <g transform="translate(26.829063 203.061406) rotate(-90) scale(0.1 -0.1)">
      <defs>
       <path id="DejaVuSans-44" d="M 1259 4147 
L 1259 519 
L 2022 519 
Q 2988 519 3436 956 
Q 3884 1394 3884 2338 
Q 3884 3275 3436 3711 
Q 2988 4147 2022 4147 
L 1259 4147 
z
M 628 4666 
L 1925 4666 
Q 3281 4666 3915 4102 
Q 4550 3538 4550 2338 
Q 4550 1131 3912 565 
Q 3275 0 1925 0 
L 628 0 
L 628 4666 
z
" transform="scale(0.015625)"/>
      </defs>
      <use xlink:href="#DejaVuSans-43"/>
      <use xlink:href="#DejaVuSans-5f" transform="translate(69.824219 0)"/>
      <use xlink:href="#DejaVuSans-44" transform="translate(119.824219 0)"/>
     </g>
    </g>
   </g>
   <g id="line2d_57">
    <path d="M 79.885909 224.799182 
L 80.361827 224.990658 
L 81.551623 225.07958 
L 86.667743 225.088492 
L 120.576914 224.835697 
L 137.11507 224.461348 
L 141.874252 224.267204 
L 146.276495 224.359818 
L 152.344452 224.4515 
L 153.891186 224.260937 
L 155.67588 223.78478 
L 160.554041 222.359255 
L 163.29057 221.964242 
L 167.454855 221.334005 
L 170.905261 220.579521 
L 175.783423 219.458124 
L 177.806075 219.416298 
L 180.423625 219.324924 
L 181.85138 219.058951 
L 183.160155 218.586037 
L 185.063827 217.819921 
L 186.253623 217.585886 
L 187.443418 217.603744 
L 188.990152 217.887723 
L 191.488723 218.587564 
L 192.678518 219.217754 
L 193.987293 220.174688 
L 196.723823 222.270789 
L 198.270557 223.095011 
L 200.293209 223.9143 
L 201.958923 224.37731 
L 203.505657 224.577258 
L 207.313002 224.691753 
L 211.358307 224.786162 
L 215.64157 224.828346 
L 219.448916 225.087623 
L 223.256261 225.068494 
L 226.587689 225.058963 
L 230.157075 225.052921 
L 232.536666 225.094906 
L 233.726461 224.839049 
L 235.630134 224.338226 
L 237.771766 224.277613 
L 240.389316 224.364945 
L 242.649927 224.527815 
L 243.958702 224.390052 
L 245.267477 224.281618 
L 250.978495 224.229999 
L 253.358086 224.314069 
L 255.261759 224.462993 
L 256.451555 224.314103 
L 257.76033 224.177918 
L 264.066245 223.961866 
L 267.040734 224.174335 
L 268.11155 223.968359 
L 271.323998 222.750628 
L 273.703589 221.758618 
L 275.250323 221.344663 
L 276.321139 220.80574 
L 277.272975 220.100838 
L 278.105832 219.217413 
L 278.819709 218.123507 
L 279.414607 216.813919 
L 280.009505 214.956836 
L 280.604402 212.363039 
L 281.1993 208.856884 
L 281.913177 203.216553 
L 282.627055 195.767355 
L 283.459911 184.555342 
L 284.649707 164.832452 
L 285.601543 150.149791 
L 286.077461 145.34921 
L 286.4344 143.574449 
L 286.55338 143.392008 
L 286.672359 143.428658 
L 286.910318 144.183402 
L 287.148277 145.869229 
L 287.505216 150.134107 
L 287.981134 158.799808 
L 288.695011 176.455552 
L 290.241745 216.167503 
L 290.598684 221.043355 
L 290.955623 223.367076 
L 291.312561 224.338395 
L 291.6695 224.743768 
L 292.145418 224.955251 
L 293.097255 225.075219 
L 294.643989 225.059638 
L 298.927252 224.780697 
L 301.306843 225.12394 
L 306.422964 224.975161 
L 307.850718 225.045441 
L 309.278473 225.126695 
L 309.99235 224.914552 
L 311.301125 224.428184 
L 312.72888 224.33438 
L 313.561736 224.428288 
L 316.060307 224.907764 
L 317.369082 224.901204 
L 318.320918 224.673593 
L 319.272755 224.41623 
L 320.819489 224.340662 
L 322.604182 224.41537 
L 324.983773 224.904063 
L 326.173568 224.891958 
L 327.006425 224.693158 
L 327.958261 224.424504 
L 329.386016 224.345827 
L 331.289689 224.424266 
L 333.5503 224.892085 
L 334.621116 224.882062 
L 335.453973 224.681367 
L 336.405809 224.418955 
L 337.952543 224.340821 
L 339.737236 224.425203 
L 341.878868 224.864528 
L 342.949684 224.83349 
L 343.782541 224.587389 
L 344.615398 224.399755 
L 346.281111 224.328769 
L 347.946825 224.406878 
L 350.088457 224.820622 
L 351.040293 224.754908 
L 353.419884 224.322777 
L 355.561516 224.342231 
L 358.654984 224.997065 
L 359.84478 224.90474 
L 361.391514 224.757356 
L 362.700289 224.992669 
L 363.890084 225.095551 
L 368.411307 224.965463 
L 369.482123 224.910161 
L 372.218652 224.999725 
L 374.122325 225.029505 
L 375.074161 224.971528 
L 376.977834 224.708313 
L 379.357425 224.642221 
L 381.380077 224.610071 
L 382.212934 224.477265 
L 383.40273 223.982602 
L 385.306402 223.034311 
L 387.567014 221.767785 
L 388.756809 221.131193 
L 389.351707 220.53681 
L 390.065584 219.459922 
L 390.898441 217.774058 
L 391.850277 215.308313 
L 393.278032 210.810727 
L 395.062725 205.316758 
L 396.609459 201.181026 
L 397.323336 199.833327 
L 397.799255 199.276745 
L 398.156193 199.104892 
L 398.513132 199.18527 
L 398.87007 199.548505 
L 399.345989 200.506286 
L 399.821907 202.039503 
L 400.535784 205.341776 
L 402.796395 216.89525 
L 403.391293 218.573879 
L 403.986191 219.621902 
L 404.581089 220.236295 
L 405.294966 220.624454 
L 407.912516 221.405675 
L 409.697209 221.751944 
L 412.909657 222.630182 
L 414.218432 223.149443 
L 415.051289 223.168494 
L 418.382716 223.351645 
L 419.096593 223.499581 
L 420.643327 223.981988 
L 421.238225 223.931026 
L 422.190061 223.783109 
L 424.450673 223.723762 
L 425.16455 223.853525 
L 426.830264 224.240851 
L 427.544141 224.126014 
L 428.495977 223.946624 
L 430.39965 223.851066 
L 431.113527 224.054252 
L 432.779241 224.625459 
L 433.850057 224.71081 
L 435.75373 224.702018 
L 437.181484 224.898199 
L 439.918014 224.953138 
L 440.86985 225.053777 
L 443.36842 224.928687 
L 445.034134 224.797514 
L 447.770664 225.057488 
L 449.436377 224.921009 
L 450.864132 224.820369 
L 453.719641 225.068641 
L 455.266375 224.941052 
L 456.57515 224.851234 
L 459.668618 225.075029 
L 461.334332 224.957866 
L 462.524127 224.908882 
L 464.665759 225.093429 
L 466.92637 224.967521 
L 467.997186 224.954819 
L 469.78188 225.092802 
L 473.827184 225.037165 
L 475.01698 225.096727 
L 476.920652 225.089262 
L 480.609018 224.94405 
L 481.560855 224.76095 
L 482.86963 224.820271 
L 484.059425 224.817327 
L 484.654323 224.641682 
L 485.3682 224.366315 
L 486.557995 224.209621 
L 487.98575 224.219116 
L 489.294525 224.416789 
L 490.127382 224.252454 
L 491.555136 224.121162 
L 493.458809 224.14141 
L 494.648605 224.249478 
L 497.266155 223.953581 
L 498.812889 223.956043 
L 499.764725 224.000905 
L 503.81003 223.472852 
L 504.880845 223.433818 
L 507.498395 222.661655 
L 510.353905 221.540737 
L 511.781659 220.434593 
L 512.733495 219.407888 
L 514.04227 217.611226 
L 514.875127 216.135988 
L 515.589005 214.39444 
L 516.421861 211.83703 
L 517.135739 208.973339 
L 517.849616 205.286172 
L 518.682473 199.82361 
L 519.51533 192.8609 
L 520.467166 182.786628 
L 522.846757 156.008436 
L 523.322675 153.366745 
L 523.560634 152.799057 
L 523.679614 152.726422 
L 523.798593 152.80194 
L 524.036552 153.415057 
L 524.393491 155.529507 
L 524.869409 160.55072 
L 525.464307 169.909251 
L 526.416143 189.41715 
L 527.605939 213.260615 
L 528.081857 219.165744 
L 528.438795 221.56343 
L 528.795734 222.848465 
L 529.271652 223.673758 
L 529.74757 223.995798 
L 530.223489 224.038073 
L 532.722059 223.755265 
L 534.744711 223.701433 
L 536.529405 223.494124 
L 537.362261 223.722539 
L 539.146955 224.278494 
L 539.979811 224.288977 
L 541.050627 224.307033 
L 542.359402 224.724843 
L 543.549198 224.953179 
L 545.928789 225.068124 
L 551.639807 225.079204 
L 553.900418 225.095585 
L 555.804091 225.105201 
L 555.804091 225.105201 
" clip-path="url(#p384f45823b)" style="fill: none; stroke: #000000; stroke-width: 1.4; stroke-linecap: square"/>
   </g>
   <g id="line2d_58">
    <path d="M 79.885909 243.047992 
L 80.599786 233.141993 
L 81.075705 229.491776 
L 81.551623 227.458512 
L 82.027541 226.285917 
L 82.38448 225.997158 
L 82.741418 226.085047 
L 83.336316 226.597425 
L 84.288152 227.367793 
L 85.121009 227.706411 
L 86.191825 227.861657 
L 88.214477 227.873896 
L 93.092639 227.641666 
L 96.899984 227.254082 
L 101.659166 226.51052 
L 106.775286 225.771329 
L 110.582632 225.451825 
L 114.984875 225.315765 
L 136.282214 224.970709 
L 140.089559 224.693361 
L 149.250984 224.346387 
L 151.273636 224.622222 
L 154.486084 225.155519 
L 156.270777 225.011407 
L 158.412409 224.900697 
L 162.933632 224.802443 
L 169.120568 224.891752 
L 173.046893 225.169829 
L 179.352809 225.646143 
L 180.423625 225.504442 
L 181.61342 225.071693 
L 182.565257 224.806257 
L 183.279134 224.838444 
L 184.46893 225.241978 
L 184.825868 225.07761 
L 185.182807 224.653851 
L 185.777705 223.463389 
L 186.84852 221.226441 
L 187.562398 220.260299 
L 188.395255 219.546403 
L 190.298927 218.086601 
L 191.369743 217.264103 
L 193.868314 215.775489 
L 194.82015 215.40315 
L 195.534027 215.330748 
L 196.247905 215.473176 
L 197.31872 215.963966 
L 201.839943 218.487289 
L 202.79178 219.453443 
L 205.766268 222.740644 
L 207.194023 224.432452 
L 208.145859 225.444607 
L 208.859736 225.920123 
L 209.573614 226.145327 
L 210.40647 226.158 
L 211.596266 225.897323 
L 212.667082 225.741117 
L 213.499939 225.87225 
L 215.522591 226.387575 
L 216.355448 226.232369 
L 219.567895 225.257925 
L 220.519732 225.362261 
L 221.471568 225.697734 
L 224.684016 227.084756 
L 225.516873 227.091602 
L 226.34973 226.889845 
L 227.301566 226.425646 
L 228.372382 225.652622 
L 231.108911 223.483844 
L 231.703809 223.427899 
L 232.417686 223.653257 
L 235.868093 225.209573 
L 236.70095 225.136592 
L 237.890745 225.050558 
L 240.032377 225.094439 
L 242.292989 224.856449 
L 243.482784 224.986492 
L 244.196661 225.034828 
L 246.219314 225.01655 
L 250.145639 224.97135 
L 255.856657 224.833713 
L 256.927473 224.937282 
L 261.686655 224.834993 
L 265.37502 224.59242 
L 267.873591 224.529347 
L 270.84808 224.742788 
L 272.037875 225.053094 
L 272.989711 225.47838 
L 274.298486 226.168904 
L 275.131343 226.315744 
L 276.202159 226.284872 
L 277.510934 225.950779 
L 279.176648 225.384384 
L 279.890525 225.288224 
L 280.485423 224.958898 
L 281.08032 224.404972 
L 282.865014 222.134888 
L 283.81685 221.522105 
L 284.649707 220.897345 
L 286.31542 219.481166 
L 287.148277 219.096043 
L 287.981134 218.937938 
L 290.598684 218.869467 
L 291.193582 219.058351 
L 291.78848 219.487739 
L 292.621336 220.438521 
L 294.762968 223.072157 
L 297.499498 225.905296 
L 298.094395 226.194533 
L 298.570314 226.212568 
L 299.046232 226.011818 
L 299.64113 225.4858 
L 300.711945 224.472648 
L 301.306843 224.262084 
L 302.02072 224.279373 
L 302.853577 224.525111 
L 303.805414 225.070609 
L 306.185005 226.590882 
L 306.898882 226.733294 
L 307.49378 226.609802 
L 308.326636 226.144751 
L 309.516432 225.48061 
L 310.944186 225.032256 
L 311.539084 225.178471 
L 314.513573 226.403595 
L 315.703368 226.851564 
L 316.417245 226.897077 
L 317.012143 226.73028 
L 317.72602 226.286448 
L 318.796836 225.568216 
L 319.629693 225.474363 
L 320.58153 225.297168 
L 321.771325 224.805174 
L 323.318059 224.209506 
L 324.745814 223.862187 
L 325.69765 223.815289 
L 326.173568 223.994111 
L 326.887445 224.582001 
L 327.363364 224.896116 
L 327.958261 224.942367 
L 329.386016 224.695895 
L 332.360505 224.077809 
L 333.66928 223.857513 
L 334.383157 223.952571 
L 334.978055 224.285129 
L 335.810911 224.854618 
L 336.524789 224.919779 
L 340.332134 224.737768 
L 342.711725 224.377953 
L 343.425602 224.555551 
L 344.258459 224.783741 
L 345.567234 224.880044 
L 349.969477 224.89773 
L 351.397232 224.761415 
L 351.87315 224.904065 
L 353.538864 225.359724 
L 355.323557 225.752993 
L 356.275393 226.358056 
L 357.10825 226.606895 
L 357.703148 226.570982 
L 358.298045 226.287272 
L 360.201718 225.032571 
L 360.677636 225.112057 
L 361.153555 225.428165 
L 361.748452 226.126447 
L 362.581309 227.156473 
L 362.938248 227.306962 
L 363.295186 227.163517 
L 363.771105 226.632434 
L 364.9609 224.896292 
L 365.555798 223.56058 
L 366.864573 220.343853 
L 367.45947 219.480559 
L 368.054368 218.957779 
L 368.768245 218.613667 
L 369.601102 218.455227 
L 371.504775 218.396386 
L 373.289468 218.428932 
L 374.003345 218.127036 
L 374.955182 217.693899 
L 375.4311 217.762446 
L 375.907018 218.090366 
L 376.501916 218.817498 
L 378.643548 221.786057 
L 379.714364 222.792081 
L 380.428241 223.158513 
L 380.904159 223.189036 
L 381.618036 222.960931 
L 382.331914 222.777305 
L 382.807832 222.896835 
L 383.28375 223.278518 
L 384.116607 224.365301 
L 384.949464 225.329417 
L 385.78232 225.925454 
L 386.496198 226.153116 
L 386.972116 226.08244 
L 387.448034 225.753417 
L 388.875789 224.355105 
L 389.470686 224.307577 
L 391.01742 224.45778 
L 393.515991 225.146021 
L 395.776602 224.987946 
L 396.728439 224.798716 
L 399.940886 224.440687 
L 401.011702 224.269857 
L 401.6066 224.192496 
L 403.272314 223.820279 
L 404.34313 223.809605 
L 405.770884 224.039682 
L 407.079659 224.446057 
L 408.507414 224.518746 
L 409.57823 224.672352 
L 411.719861 224.704702 
L 418.025777 224.714103 
L 418.739655 224.843969 
L 419.453532 225.059185 
L 419.92945 224.949361 
L 421.119245 224.496314 
L 421.833123 224.633642 
L 423.498836 224.881961 
L 424.569652 225.045775 
L 425.28353 225.399055 
L 425.878427 225.451937 
L 426.473325 225.236098 
L 427.544141 224.714348 
L 430.161691 225.196416 
L 430.39965 225.406374 
L 431.946384 227.155837 
L 432.422302 227.41195 
L 432.779241 227.369971 
L 433.13618 227.076972 
L 434.563934 225.450602 
L 434.920873 225.556969 
L 435.277811 225.928604 
L 437.181484 228.463503 
L 437.776382 228.8214 
L 438.13332 228.875544 
L 438.490259 228.715555 
L 438.847198 228.276203 
L 439.442095 227.043418 
L 440.036993 225.909665 
L 440.393932 225.553665 
L 440.75087 225.467646 
L 441.107809 225.64519 
L 441.583727 226.247195 
L 442.654543 227.857903 
L 443.130461 228.198889 
L 443.60638 228.312083 
L 444.082298 228.215034 
L 444.558216 227.877176 
L 445.153114 227.146761 
L 446.10495 225.943488 
L 446.461889 225.755516 
L 446.818827 225.795222 
L 447.175766 226.054995 
L 448.960459 227.821402 
L 449.555357 227.978335 
L 450.150255 227.918108 
L 450.745152 227.597935 
L 451.45903 226.894731 
L 452.172907 226.240668 
L 452.529845 226.152154 
L 452.886784 226.269792 
L 453.481682 226.793912 
L 454.314539 227.503097 
L 454.909436 227.727829 
L 455.504334 227.740908 
L 456.099232 227.522163 
L 456.57515 227.126764 
L 458.240864 225.395987 
L 458.597802 225.384293 
L 458.954741 225.557544 
L 459.668618 226.28729 
L 460.382495 226.857009 
L 460.977393 227.056231 
L 461.69127 227.048203 
L 462.167189 226.814522 
L 463.594943 225.768954 
L 464.189841 225.676976 
L 464.665759 225.807786 
L 465.498616 226.356749 
L 466.331473 226.813127 
L 467.04535 226.960823 
L 467.640248 226.885859 
L 468.235145 226.57761 
L 469.305961 225.634333 
L 469.900859 225.211473 
L 470.257798 225.200436 
L 470.614736 225.44331 
L 472.042491 226.791621 
L 472.637389 226.98382 
L 473.113307 226.967308 
L 473.589225 226.704763 
L 474.184123 225.988275 
L 475.373918 224.430847 
L 475.611877 224.388518 
L 475.968816 224.621121 
L 476.801673 225.767232 
L 477.39657 226.348354 
L 478.110448 226.665492 
L 478.586366 226.686822 
L 478.943305 226.483876 
L 479.419223 225.892864 
L 480.25208 224.80514 
L 480.609018 224.699305 
L 482.393711 224.796282 
L 483.464527 224.659018 
L 484.059425 224.817607 
L 484.773302 225.133754 
L 485.606159 224.903858 
L 488.937586 224.598657 
L 489.532484 224.837365 
L 489.770443 224.916356 
L 491.436157 224.837163 
L 493.10187 224.719787 
L 493.815748 224.637547 
L 494.410645 224.763652 
L 495.005543 224.944769 
L 496.076359 224.814044 
L 499.764725 224.72566 
L 500.121664 224.766639 
L 501.549418 224.723806 
L 506.784518 224.856184 
L 513.090434 225.448357 
L 513.923291 225.758375 
L 514.518189 225.758542 
L 515.707984 225.595893 
L 516.65982 225.544978 
L 517.730636 225.212034 
L 517.968595 225.203664 
L 518.801452 225.42392 
L 519.634309 225.419944 
L 521.181043 225.137353 
L 521.537982 224.702033 
L 522.13288 223.519948 
L 522.727777 222.315949 
L 524.869409 219.581853 
L 525.464307 218.919824 
L 526.654102 217.911907 
L 527.605939 217.173276 
L 529.033693 216.150994 
L 530.461448 215.12495 
L 532.008182 214.480013 
L 535.10165 213.712641 
L 536.291445 213.661101 
L 537.362261 213.873551 
L 539.146955 214.251378 
L 540.098791 214.350404 
L 540.574709 214.65484 
L 541.050627 215.240233 
L 541.764505 216.604256 
L 543.430218 220.058024 
L 544.144095 220.9257 
L 545.333891 222.220598 
L 547.951441 225.603756 
L 548.427359 225.778592 
L 549.022257 225.6985 
L 549.855114 225.57585 
L 551.520827 225.619527 
L 552.710623 225.332798 
L 553.662459 225.08683 
L 554.257357 225.189621 
L 555.328173 225.690574 
L 555.804091 225.867417 
L 555.804091 225.867417 
" clip-path="url(#p384f45823b)" style="fill: none; stroke: #e45756; stroke-width: 1.1; stroke-linecap: square"/>
   </g>
   <g id="patch_8">
    <path d="M 56.09 248.030791 
L 56.09 138.409209 
" style="fill: none; stroke: #000000; stroke-width: 0.8; stroke-linejoin: miter; stroke-linecap: square"/>
   </g>
   <g id="patch_9">
    <path d="M 579.6 248.030791 
L 579.6 138.409209 
" style="fill: none; stroke: #000000; stroke-width: 0.8; stroke-linejoin: miter; stroke-linecap: square"/>
   </g>
   <g id="patch_10">
    <path d="M 56.09 248.030791 
L 579.6 248.030791 
" style="fill: none; stroke: #000000; stroke-width: 0.8; stroke-linejoin: miter; stroke-linecap: square"/>
   </g>
   <g id="patch_11">
    <path d="M 56.09 138.409209 
L 579.6 138.409209 
" style="fill: none; stroke: #000000; stroke-width: 0.8; stroke-linejoin: miter; stroke-linecap: square"/>
   </g>
  </g>
  <g id="axes_3">
   <g id="patch_12">
    <path d="M 56.09 375.64 
L 579.6 375.64 
L 579.6 266.018418 
L 56.09 266.018418 
z
" style="fill: #ffffff"/>
   </g>
   <g id="matplotlib.axis_5">
    <g id="xtick_19">
     <g id="line2d_59">
      <path d="M 79.885909 375.64 
L 79.885909 266.018418 
" clip-path="url(#pff86691b29)" style="fill: none; stroke: #b0b0b0; stroke-opacity: 0.25; stroke-width: 0.8; stroke-linecap: square"/>
     </g>
     <g id="line2d_60">
      <g>
       <use xlink:href="#me21e4e3a5c" x="79.885909" y="375.64" style="stroke: #000000; stroke-width: 0.8"/>
      </g>
     </g>
     <g id="text_13">
      <!-- 0 -->
      <g transform="translate(76.704659 390.238437) scale(0.1 -0.1)">
       <use xlink:href="#DejaVuSans-30"/>
      </g>
     </g>
    </g>
    <g id="xtick_20">
     <g id="line2d_61">
      <path d="M 139.375682 375.64 
L 139.375682 266.018418 
" clip-path="url(#pff86691b29)" style="fill: none; stroke: #b0b0b0; stroke-opacity: 0.25; stroke-width: 0.8; stroke-linecap: square"/>
     </g>
     <g id="line2d_62">
      <g>
       <use xlink:href="#me21e4e3a5c" x="139.375682" y="375.64" style="stroke: #000000; stroke-width: 0.8"/>
      </g>
     </g>
     <g id="text_14">
      <!-- 5 -->
      <g transform="translate(136.194432 390.238437) scale(0.1 -0.1)">
       <use xlink:href="#DejaVuSans-35"/>
      </g>
     </g>
    </g>
    <g id="xtick_21">
     <g id="line2d_63">
      <path d="M 198.865455 375.64 
L 198.865455 266.018418 
" clip-path="url(#pff86691b29)" style="fill: none; stroke: #b0b0b0; stroke-opacity: 0.25; stroke-width: 0.8; stroke-linecap: square"/>
     </g>
     <g id="line2d_64">
      <g>
       <use xlink:href="#me21e4e3a5c" x="198.865455" y="375.64" style="stroke: #000000; stroke-width: 0.8"/>
      </g>
     </g>
     <g id="text_15">
      <!-- 10 -->
      <g transform="translate(192.502955 390.238437) scale(0.1 -0.1)">
       <defs>
        <path id="DejaVuSans-31" d="M 794 531 
L 1825 531 
L 1825 4091 
L 703 3866 
L 703 4441 
L 1819 4666 
L 2450 4666 
L 2450 531 
L 3481 531 
L 3481 0 
L 794 0 
L 794 531 
z
" transform="scale(0.015625)"/>
       </defs>
       <use xlink:href="#DejaVuSans-31"/>
       <use xlink:href="#DejaVuSans-30" transform="translate(63.623047 0)"/>
      </g>
     </g>
    </g>
    <g id="xtick_22">
     <g id="line2d_65">
      <path d="M 258.355227 375.64 
L 258.355227 266.018418 
" clip-path="url(#pff86691b29)" style="fill: none; stroke: #b0b0b0; stroke-opacity: 0.25; stroke-width: 0.8; stroke-linecap: square"/>
     </g>
     <g id="line2d_66">
      <g>
       <use xlink:href="#me21e4e3a5c" x="258.355227" y="375.64" style="stroke: #000000; stroke-width: 0.8"/>
      </g>
     </g>
     <g id="text_16">
      <!-- 15 -->
      <g transform="translate(251.992727 390.238437) scale(0.1 -0.1)">
       <use xlink:href="#DejaVuSans-31"/>
       <use xlink:href="#DejaVuSans-35" transform="translate(63.623047 0)"/>
      </g>
     </g>
    </g>
    <g id="xtick_23">
     <g id="line2d_67">
      <path d="M 317.845 375.64 
L 317.845 266.018418 
" clip-path="url(#pff86691b29)" style="fill: none; stroke: #b0b0b0; stroke-opacity: 0.25; stroke-width: 0.8; stroke-linecap: square"/>
     </g>
     <g id="line2d_68">
      <g>
       <use xlink:href="#me21e4e3a5c" x="317.845" y="375.64" style="stroke: #000000; stroke-width: 0.8"/>
      </g>
     </g>
     <g id="text_17">
      <!-- 20 -->
      <g transform="translate(311.4825 390.238437) scale(0.1 -0.1)">
       <use xlink:href="#DejaVuSans-32"/>
       <use xlink:href="#DejaVuSans-30" transform="translate(63.623047 0)"/>
      </g>
     </g>
    </g>
    <g id="xtick_24">
     <g id="line2d_69">
      <path d="M 377.334773 375.64 
L 377.334773 266.018418 
" clip-path="url(#pff86691b29)" style="fill: none; stroke: #b0b0b0; stroke-opacity: 0.25; stroke-width: 0.8; stroke-linecap: square"/>
     </g>
     <g id="line2d_70">
      <g>
       <use xlink:href="#me21e4e3a5c" x="377.334773" y="375.64" style="stroke: #000000; stroke-width: 0.8"/>
      </g>
     </g>
     <g id="text_18">
      <!-- 25 -->
      <g transform="translate(370.972273 390.238437) scale(0.1 -0.1)">
       <use xlink:href="#DejaVuSans-32"/>
       <use xlink:href="#DejaVuSans-35" transform="translate(63.623047 0)"/>
      </g>
     </g>
    </g>
    <g id="xtick_25">
     <g id="line2d_71">
      <path d="M 436.824545 375.64 
L 436.824545 266.018418 
" clip-path="url(#pff86691b29)" style="fill: none; stroke: #b0b0b0; stroke-opacity: 0.25; stroke-width: 0.8; stroke-linecap: square"/>
     </g>
     <g id="line2d_72">
      <g>
       <use xlink:href="#me21e4e3a5c" x="436.824545" y="375.64" style="stroke: #000000; stroke-width: 0.8"/>
      </g>
     </g>
     <g id="text_19">
      <!-- 30 -->
      <g transform="translate(430.462045 390.238437) scale(0.1 -0.1)">
       <defs>
        <path id="DejaVuSans-33" d="M 2597 2516 
Q 3050 2419 3304 2112 
Q 3559 1806 3559 1356 
Q 3559 666 3084 287 
Q 2609 -91 1734 -91 
Q 1441 -91 1130 -33 
Q 819 25 488 141 
L 488 750 
Q 750 597 1062 519 
Q 1375 441 1716 441 
Q 2309 441 2620 675 
Q 2931 909 2931 1356 
Q 2931 1769 2642 2001 
Q 2353 2234 1838 2234 
L 1294 2234 
L 1294 2753 
L 1863 2753 
Q 2328 2753 2575 2939 
Q 2822 3125 2822 3475 
Q 2822 3834 2567 4026 
Q 2313 4219 1838 4219 
Q 1578 4219 1281 4162 
Q 984 4106 628 3988 
L 628 4550 
Q 988 4650 1302 4700 
Q 1616 4750 1894 4750 
Q 2613 4750 3031 4423 
Q 3450 4097 3450 3541 
Q 3450 3153 3228 2886 
Q 3006 2619 2597 2516 
z
" transform="scale(0.015625)"/>
       </defs>
       <use xlink:href="#DejaVuSans-33"/>
       <use xlink:href="#DejaVuSans-30" transform="translate(63.623047 0)"/>
      </g>
     </g>
    </g>
    <g id="xtick_26">
     <g id="line2d_73">
      <path d="M 496.314318 375.64 
L 496.314318 266.018418 
" clip-path="url(#pff86691b29)" style="fill: none; stroke: #b0b0b0; stroke-opacity: 0.25; stroke-width: 0.8; stroke-linecap: square"/>
     </g>
     <g id="line2d_74">
      <g>
       <use xlink:href="#me21e4e3a5c" x="496.314318" y="375.64" style="stroke: #000000; stroke-width: 0.8"/>
      </g>
     </g>
     <g id="text_20">
      <!-- 35 -->
      <g transform="translate(489.951818 390.238437) scale(0.1 -0.1)">
       <use xlink:href="#DejaVuSans-33"/>
       <use xlink:href="#DejaVuSans-35" transform="translate(63.623047 0)"/>
      </g>
     </g>
    </g>
    <g id="xtick_27">
     <g id="line2d_75">
      <path d="M 555.804091 375.64 
L 555.804091 266.018418 
" clip-path="url(#pff86691b29)" style="fill: none; stroke: #b0b0b0; stroke-opacity: 0.25; stroke-width: 0.8; stroke-linecap: square"/>
     </g>
     <g id="line2d_76">
      <g>
       <use xlink:href="#me21e4e3a5c" x="555.804091" y="375.64" style="stroke: #000000; stroke-width: 0.8"/>
      </g>
     </g>
     <g id="text_21">
      <!-- 40 -->
      <g transform="translate(549.441591 390.238437) scale(0.1 -0.1)">
       <use xlink:href="#DejaVuSans-34"/>
       <use xlink:href="#DejaVuSans-30" transform="translate(63.623047 0)"/>
      </g>
     </g>
    </g>
    <g id="text_22">
     <!-- time [s] -->
     <g transform="translate(298.453594 403.916562) scale(0.1 -0.1)">
      <defs>
       <path id="DejaVuSans-74" d="M 1172 4494 
L 1172 3500 
L 2356 3500 
L 2356 3053 
L 1172 3053 
L 1172 1153 
Q 1172 725 1289 603 
Q 1406 481 1766 481 
L 2356 481 
L 2356 0 
L 1766 0 
Q 1100 0 847 248 
Q 594 497 594 1153 
L 594 3053 
L 172 3053 
L 172 3500 
L 594 3500 
L 594 4494 
L 1172 4494 
z
" transform="scale(0.015625)"/>
       <path id="DejaVuSans-6d" d="M 3328 2828 
Q 3544 3216 3844 3400 
Q 4144 3584 4550 3584 
Q 5097 3584 5394 3201 
Q 5691 2819 5691 2113 
L 5691 0 
L 5113 0 
L 5113 2094 
Q 5113 2597 4934 2840 
Q 4756 3084 4391 3084 
Q 3944 3084 3684 2787 
Q 3425 2491 3425 1978 
L 3425 0 
L 2847 0 
L 2847 2094 
Q 2847 2600 2669 2842 
Q 2491 3084 2119 3084 
Q 1678 3084 1418 2786 
Q 1159 2488 1159 1978 
L 1159 0 
L 581 0 
L 581 3500 
L 1159 3500 
L 1159 2956 
Q 1356 3278 1631 3431 
Q 1906 3584 2284 3584 
Q 2666 3584 2933 3390 
Q 3200 3197 3328 2828 
z
" transform="scale(0.015625)"/>
       <path id="DejaVuSans-5b" d="M 550 4863 
L 1875 4863 
L 1875 4416 
L 1125 4416 
L 1125 -397 
L 1875 -397 
L 1875 -844 
L 550 -844 
L 550 4863 
z
" transform="scale(0.015625)"/>
       <path id="DejaVuSans-5d" d="M 1947 4863 
L 1947 -844 
L 622 -844 
L 622 -397 
L 1369 -397 
L 1369 4416 
L 622 4416 
L 622 4863 
L 1947 4863 
z
" transform="scale(0.015625)"/>
      </defs>
      <use xlink:href="#DejaVuSans-74"/>
      <use xlink:href="#DejaVuSans-69" transform="translate(39.208984 0)"/>
      <use xlink:href="#DejaVuSans-6d" transform="translate(66.992188 0)"/>
      <use xlink:href="#DejaVuSans-65" transform="translate(164.404297 0)"/>
      <use xlink:href="#DejaVuSans-20" transform="translate(225.927734 0)"/>
      <use xlink:href="#DejaVuSans-5b" transform="translate(257.714844 0)"/>
      <use xlink:href="#DejaVuSans-73" transform="translate(296.728516 0)"/>
      <use xlink:href="#DejaVuSans-5d" transform="translate(348.828125 0)"/>
     </g>
    </g>
   </g>
   <g id="matplotlib.axis_6">
    <g id="ytick_9">
     <g id="line2d_77">
      <path d="M 56.09 370.899815 
L 579.6 370.899815 
" clip-path="url(#pff86691b29)" style="fill: none; stroke: #b0b0b0; stroke-opacity: 0.25; stroke-width: 0.8; stroke-linecap: square"/>
     </g>
     <g id="line2d_78">
      <g>
       <use xlink:href="#me23ca633ce" x="56.09" y="370.899815" style="stroke: #000000; stroke-width: 0.8"/>
      </g>
     </g>
     <g id="text_23">
      <!-- −0.3 -->
      <g transform="translate(24.807188 374.699034) scale(0.1 -0.1)">
       <use xlink:href="#DejaVuSans-2212"/>
       <use xlink:href="#DejaVuSans-30" transform="translate(83.789062 0)"/>
       <use xlink:href="#DejaVuSans-2e" transform="translate(147.412109 0)"/>
       <use xlink:href="#DejaVuSans-33" transform="translate(179.199219 0)"/>
      </g>
     </g>
    </g>
    <g id="ytick_10">
     <g id="line2d_79">
      <path d="M 56.09 337.95576 
L 579.6 337.95576 
" clip-path="url(#pff86691b29)" style="fill: none; stroke: #b0b0b0; stroke-opacity: 0.25; stroke-width: 0.8; stroke-linecap: square"/>
     </g>
     <g id="line2d_80">
      <g>
       <use xlink:href="#me23ca633ce" x="56.09" y="337.95576" style="stroke: #000000; stroke-width: 0.8"/>
      </g>
     </g>
     <g id="text_24">
      <!-- −0.2 -->
      <g transform="translate(24.807188 341.754978) scale(0.1 -0.1)">
       <use xlink:href="#DejaVuSans-2212"/>
       <use xlink:href="#DejaVuSans-30" transform="translate(83.789062 0)"/>
       <use xlink:href="#DejaVuSans-2e" transform="translate(147.412109 0)"/>
       <use xlink:href="#DejaVuSans-32" transform="translate(179.199219 0)"/>
      </g>
     </g>
    </g>
    <g id="ytick_11">
     <g id="line2d_81">
      <path d="M 56.09 305.011704 
L 579.6 305.011704 
" clip-path="url(#pff86691b29)" style="fill: none; stroke: #b0b0b0; stroke-opacity: 0.25; stroke-width: 0.8; stroke-linecap: square"/>
     </g>
     <g id="line2d_82">
      <g>
       <use xlink:href="#me23ca633ce" x="56.09" y="305.011704" style="stroke: #000000; stroke-width: 0.8"/>
      </g>
     </g>
     <g id="text_25">
      <!-- −0.1 -->
      <g transform="translate(24.807188 308.810923) scale(0.1 -0.1)">
       <use xlink:href="#DejaVuSans-2212"/>
       <use xlink:href="#DejaVuSans-30" transform="translate(83.789062 0)"/>
       <use xlink:href="#DejaVuSans-2e" transform="translate(147.412109 0)"/>
       <use xlink:href="#DejaVuSans-31" transform="translate(179.199219 0)"/>
      </g>
     </g>
    </g>
    <g id="ytick_12">
     <g id="line2d_83">
      <path d="M 56.09 272.067649 
L 579.6 272.067649 
" clip-path="url(#pff86691b29)" style="fill: none; stroke: #b0b0b0; stroke-opacity: 0.25; stroke-width: 0.8; stroke-linecap: square"/>
     </g>
     <g id="line2d_84">
      <g>
       <use xlink:href="#me23ca633ce" x="56.09" y="272.067649" style="stroke: #000000; stroke-width: 0.8"/>
      </g>
     </g>
     <g id="text_26">
      <!-- 0.0 -->
      <g transform="translate(33.186875 275.866868) scale(0.1 -0.1)">
       <use xlink:href="#DejaVuSans-30"/>
       <use xlink:href="#DejaVuSans-2e" transform="translate(63.623047 0)"/>
       <use xlink:href="#DejaVuSans-30" transform="translate(95.410156 0)"/>
      </g>
     </g>
    </g>
    <g id="text_27">
     <!-- C_M -->
     <g transform="translate(18.449375 331.134678) rotate(-90) scale(0.1 -0.1)">
      <defs>
       <path id="DejaVuSans-4d" d="M 628 4666 
L 1569 4666 
L 2759 1491 
L 3956 4666 
L 4897 4666 
L 4897 0 
L 4281 0 
L 4281 4097 
L 3078 897 
L 2444 897 
L 1241 4097 
L 1241 0 
L 628 0 
L 628 4666 
z
" transform="scale(0.015625)"/>
      </defs>
      <use xlink:href="#DejaVuSans-43"/>
      <use xlink:href="#DejaVuSans-5f" transform="translate(69.824219 0)"/>
      <use xlink:href="#DejaVuSans-4d" transform="translate(119.824219 0)"/>
     </g>
    </g>
   </g>
   <g id="line2d_85">
    <path d="M 79.885909 273.423328 
L 80.242848 272.721297 
L 80.718766 272.382063 
L 81.432643 272.210494 
L 83.098357 272.109969 
L 91.069986 272.021364 
L 102.016105 272.04799 
L 110.344673 272.297461 
L 119.387118 272.798248 
L 128.905482 273.296112 
L 139.137723 273.72432 
L 145.0867 274.080698 
L 149.250984 274.066693 
L 152.344452 273.851708 
L 154.486084 273.734341 
L 155.67588 273.898729 
L 157.103634 274.348956 
L 168.64465 278.760545 
L 170.905261 280.04564 
L 173.284852 281.653955 
L 176.735259 284.046116 
L 178.044034 284.442927 
L 182.922195 285.651103 
L 183.874032 286.172381 
L 185.777705 287.458173 
L 186.491582 287.660543 
L 187.324439 287.645531 
L 188.276275 287.364852 
L 189.58505 286.712583 
L 193.154436 284.58965 
L 194.106273 283.549049 
L 195.534027 281.580802 
L 197.31872 279.183001 
L 198.984434 277.377062 
L 200.531168 275.988659 
L 201.839943 275.119922 
L 203.029739 274.584852 
L 204.338514 274.236112 
L 205.885248 274.06293 
L 212.191164 273.613954 
L 221.471568 272.754998 
L 224.446057 272.873416 
L 227.777484 272.890738 
L 232.655645 272.672171 
L 234.440339 272.370487 
L 235.987073 272.123404 
L 239.43748 271.920799 
L 244.67258 271.683228 
L 248.479925 271.427293 
L 253.477066 271.236671 
L 255.618698 271.23586 
L 259.069105 271.001217 
L 262.87645 271.115874 
L 264.185225 271.299377 
L 266.683795 271.863419 
L 268.349509 271.926175 
L 268.944407 272.009211 
L 269.658284 272.356756 
L 270.61012 273.117874 
L 271.680936 274.274207 
L 272.751752 275.761766 
L 273.584609 277.464018 
L 274.655425 279.537873 
L 275.607261 280.826915 
L 276.916036 282.561653 
L 277.748893 284.106494 
L 278.46277 285.97725 
L 279.057668 288.173514 
L 279.652566 291.263344 
L 280.247464 295.542622 
L 280.961341 302.323674 
L 281.913177 313.548312 
L 283.459911 334.845907 
L 285.601543 364.908058 
L 286.077461 368.926988 
L 286.4344 370.45726 
L 286.672359 370.657201 
L 286.910318 370.1399 
L 287.148277 368.86935 
L 287.505216 365.515218 
L 287.981134 358.390062 
L 288.576032 345.673757 
L 289.408889 322.240615 
L 290.717664 281.40498 
L 291.074602 277.283499 
L 291.431541 275.301056 
L 291.78848 274.306547 
L 292.264398 273.675578 
L 292.740316 273.398874 
L 293.454193 273.250301 
L 294.525009 273.267488 
L 297.975416 273.521302 
L 299.760109 273.159401 
L 301.425823 272.922355 
L 303.091536 272.905601 
L 305.947045 272.981096 
L 313.680716 272.562968 
L 317.250102 272.834541 
L 319.153775 272.696665 
L 321.652345 272.590517 
L 323.437039 272.661699 
L 325.81663 272.756374 
L 327.720302 272.608491 
L 330.337852 272.421182 
L 332.122545 272.439782 
L 334.502136 272.47035 
L 336.28683 272.27671 
L 339.023359 272.035009 
L 340.451114 272.041336 
L 342.830705 272.050748 
L 344.615398 271.803829 
L 347.351927 271.546892 
L 348.660702 271.568228 
L 350.802334 271.5885 
L 352.706007 271.293958 
L 355.323557 271.078362 
L 356.394373 271.166306 
L 358.654984 271.381855 
L 360.201718 271.24491 
L 361.629473 271.160851 
L 362.938248 271.364535 
L 364.722941 271.599954 
L 366.269675 271.580406 
L 368.173348 271.308039 
L 369.244164 271.228195 
L 370.196 271.385063 
L 372.456611 271.857761 
L 373.527427 271.854079 
L 374.717223 271.611301 
L 376.025998 271.375975 
L 376.739875 271.509693 
L 377.572732 271.932956 
L 379.119466 272.758318 
L 380.071302 273.022221 
L 380.904159 273.028404 
L 382.807832 272.86868 
L 383.28375 273.148585 
L 383.759668 273.688275 
L 384.473545 274.913488 
L 386.258239 278.195312 
L 387.329055 279.596768 
L 388.63783 281.184854 
L 389.232727 282.285939 
L 389.827625 283.848283 
L 390.422523 286.095871 
L 391.25538 290.383424 
L 395.062725 311.610185 
L 395.657623 313.843349 
L 397.085377 317.789618 
L 397.680275 318.904627 
L 398.037214 319.264241 
L 398.394152 319.329578 
L 398.751091 319.054838 
L 399.10803 318.399417 
L 399.583948 316.880235 
L 400.059866 314.634116 
L 400.654764 310.626968 
L 401.368641 304.045939 
L 402.796395 290.246476 
L 403.391293 286.412754 
L 403.986191 283.895385 
L 404.581089 282.349949 
L 405.175986 281.440564 
L 405.770884 280.913952 
L 406.365782 280.65445 
L 407.317618 280.350523 
L 407.912516 279.876103 
L 409.221291 278.578808 
L 410.768025 277.485179 
L 412.671698 276.372695 
L 413.861493 275.850089 
L 414.57537 275.254554 
L 415.170268 274.768705 
L 416.003125 274.415087 
L 417.668839 274.052691 
L 419.096593 273.861941 
L 420.167409 273.863108 
L 420.881286 273.579927 
L 422.071082 272.998338 
L 423.141898 272.893286 
L 425.16455 272.905154 
L 426.354345 273.008777 
L 427.068223 272.841436 
L 428.495977 272.368769 
L 430.161691 272.342895 
L 430.875568 272.449599 
L 432.422302 272.844455 
L 433.255159 272.795093 
L 435.51577 272.357219 
L 436.467607 272.67591 
L 437.657402 273.026673 
L 438.609239 273.066455 
L 439.561075 272.854609 
L 441.226789 272.412597 
L 442.059645 272.476984 
L 444.558216 272.915951 
L 445.510052 272.763078 
L 447.294745 272.411706 
L 448.127602 272.512847 
L 450.150255 272.880454 
L 451.102091 272.790834 
L 453.362702 272.426282 
L 454.433518 272.618583 
L 455.861273 272.831467 
L 456.932089 272.737034 
L 459.1927 272.404006 
L 460.382495 272.60364 
L 461.81025 272.774181 
L 462.762086 272.692175 
L 464.665759 272.425108 
L 465.974534 272.587696 
L 467.402289 272.717226 
L 468.592084 272.576019 
L 470.257798 272.374435 
L 471.447593 272.532845 
L 472.875348 272.671376 
L 474.065143 272.541339 
L 475.730857 272.330496 
L 476.920652 272.467866 
L 478.467386 272.596784 
L 479.538202 272.444107 
L 481.798814 272.010923 
L 484.535343 271.919891 
L 485.725139 271.606936 
L 487.509832 271.502699 
L 488.461668 271.606661 
L 489.413505 271.636384 
L 491.674116 271.373448 
L 493.577789 271.445426 
L 494.648605 271.511391 
L 496.314318 271.35703 
L 498.45595 271.515674 
L 499.883705 271.739657 
L 500.835541 271.700362 
L 502.144316 271.927982 
L 503.69105 272.421145 
L 504.880845 272.934433 
L 505.951661 273.189825 
L 506.903498 273.74357 
L 507.974314 274.632174 
L 508.80717 275.564795 
L 510.115945 277.167233 
L 510.710843 277.83987 
L 511.42472 279.018399 
L 512.257577 280.887297 
L 513.209414 283.668551 
L 514.04227 286.849871 
L 515.589005 293.674002 
L 516.421861 298.487013 
L 517.373698 305.480285 
L 518.444514 315.121678 
L 520.467166 336.379149 
L 522.489818 356.905533 
L 523.084716 360.904445 
L 523.441655 362.406382 
L 523.679614 362.885079 
L 523.798593 362.945797 
L 523.917573 362.877535 
L 524.155532 362.329788 
L 524.51247 360.448469 
L 524.869409 357.258561 
L 525.345327 351.031812 
L 526.059205 338.491456 
L 526.892061 319.400766 
L 528.319816 281.858677 
L 528.676755 278.171049 
L 529.033693 276.204313 
L 529.509611 274.863018 
L 530.104509 274.003882 
L 530.699407 273.543197 
L 531.294305 273.385292 
L 532.008182 273.432228 
L 532.60308 273.727478 
L 534.030834 274.589863 
L 534.506752 274.613895 
L 535.10165 274.383505 
L 535.934507 274.008613 
L 536.767364 273.8519 
L 538.671036 273.792482 
L 539.503893 273.475804 
L 540.693689 272.994794 
L 541.407566 273.016628 
L 543.668177 273.376572 
L 544.857973 273.184527 
L 545.928789 273.105776 
L 548.665318 273.121419 
L 550.80695 272.993071 
L 553.781439 272.950756 
L 555.804091 272.92714 
L 555.804091 272.92714 
" clip-path="url(#pff86691b29)" style="fill: none; stroke: #000000; stroke-width: 1.4; stroke-linecap: square"/>
   </g>
   <g id="line2d_86">
    <path d="M 79.885909 271.749936 
L 81.432643 271.856333 
L 85.596927 272.355803 
L 88.452436 272.414628 
L 140.922416 272.186833 
L 154.843023 272.13506 
L 158.888327 272.163363 
L 164.004448 272.258757 
L 170.548323 272.480296 
L 175.188525 272.896115 
L 178.757911 273.382543 
L 181.018523 273.914638 
L 183.041175 274.634477 
L 189.46607 277.168646 
L 191.488723 277.603768 
L 195.177089 278.044674 
L 199.698311 278.357232 
L 202.434841 278.629907 
L 203.624636 278.518333 
L 204.576473 278.226452 
L 205.528309 277.694911 
L 206.599125 276.799245 
L 209.573614 274.092289 
L 210.763409 273.385846 
L 211.953205 272.954924 
L 213.618918 272.622498 
L 215.522591 272.491215 
L 230.395034 272.157832 
L 234.678298 272.05707 
L 235.987073 272.11965 
L 238.723602 272.190661 
L 252.28727 272.127416 
L 254.666861 272.129875 
L 265.256041 272.231743 
L 268.23053 272.435227 
L 273.584609 272.95477 
L 275.012364 273.012994 
L 276.797057 273.342628 
L 278.343791 273.786929 
L 279.533586 274.350445 
L 282.746034 276.069707 
L 286.791339 277.497916 
L 291.312561 278.693543 
L 292.264398 278.555002 
L 293.454193 278.134965 
L 295.000927 277.351208 
L 296.190723 276.517655 
L 299.284191 274.117881 
L 300.473986 273.620283 
L 303.924393 272.569976 
L 305.352148 272.416755 
L 307.25582 272.458028 
L 309.278473 272.454735 
L 310.944186 272.284297 
L 312.252961 272.247379 
L 318.558877 272.343501 
L 319.391734 272.253418 
L 324.983773 272.303884 
L 327.006425 272.322082 
L 329.148057 272.133613 
L 335.810911 272.174214 
L 336.881727 272.120375 
L 350.088457 272.396448 
L 358.417025 273.584681 
L 360.915595 274.443357 
L 364.009064 275.054467 
L 365.198859 275.592473 
L 366.031716 276.221486 
L 367.816409 277.721398 
L 368.530286 277.921255 
L 369.482123 277.937077 
L 371.623755 277.907783 
L 372.93253 278.107392 
L 375.4311 278.739049 
L 376.382936 278.552275 
L 380.54722 277.379946 
L 381.618036 277.143866 
L 382.331914 276.704464 
L 386.139259 273.83604 
L 387.091095 273.481558 
L 387.923952 273.408564 
L 389.232727 273.322917 
L 390.422523 272.995144 
L 391.969257 272.55637 
L 393.159052 272.516818 
L 395.300684 272.734077 
L 395.657623 272.686009 
L 396.728439 272.518128 
L 398.513132 272.534264 
L 400.059866 272.482952 
L 401.011702 272.578594 
L 401.48762 272.607502 
L 403.748232 272.511407 
L 407.912516 272.535669 
L 408.269455 272.527349 
L 409.816189 272.447084 
L 414.218432 272.517153 
L 414.81333 272.561884 
L 416.241084 272.524455 
L 420.762307 272.726179 
L 421.476184 272.808339 
L 422.784959 272.822449 
L 426.830264 273.203835 
L 427.66312 273.402444 
L 429.090875 273.491916 
L 430.637609 273.576389 
L 431.827405 273.536107 
L 432.779241 273.6973 
L 434.682914 274.191745 
L 435.396791 274.023646 
L 436.824545 273.617789 
L 437.895361 273.611523 
L 438.847198 273.798366 
L 440.86985 274.463413 
L 441.583727 274.251826 
L 442.773523 273.861512 
L 443.844339 273.78799 
L 444.796175 273.935027 
L 446.580868 274.455081 
L 447.175766 274.267315 
L 448.84148 273.547527 
L 450.031275 273.386771 
L 450.983111 273.464451 
L 452.172907 273.621829 
L 452.767805 273.461555 
L 454.671477 272.720154 
L 455.861273 272.646312 
L 456.932089 272.789761 
L 457.883925 272.909345 
L 458.597802 272.771646 
L 460.382495 272.267376 
L 461.81025 272.322297 
L 463.832902 272.55812 
L 466.093514 272.14517 
L 467.402289 272.293116 
L 468.830043 272.48486 
L 469.78188 272.28827 
L 470.971675 272.048259 
L 472.16147 272.131032 
L 474.541061 272.337434 
L 476.682693 272.020552 
L 480.490039 272.198503 
L 482.036773 272.034405 
L 483.702486 272.220243 
L 484.773302 272.300443 
L 485.48718 272.155894 
L 487.271873 272.16617 
L 492.982891 272.159925 
L 494.410645 272.227685 
L 495.481461 272.202691 
L 498.931868 272.211395 
L 502.739214 272.296006 
L 509.164109 272.596132 
L 514.518189 273.359954 
L 516.064923 273.753068 
L 518.920432 274.395427 
L 519.753289 274.798865 
L 520.705125 275.27745 
L 524.63145 276.807161 
L 525.464307 277.256597 
L 527.486959 277.669861 
L 528.914714 277.88078 
L 531.056345 278.303043 
L 536.767364 278.655533 
L 539.027975 278.687806 
L 540.33675 278.743056 
L 541.407566 278.543533 
L 543.549198 278.074425 
L 544.976952 277.904781 
L 545.69083 277.496853 
L 546.880625 276.468195 
L 548.546339 275.019433 
L 551.282868 273.227195 
L 552.353684 272.919411 
L 555.685111 272.462812 
L 555.804091 272.461887 
L 555.804091 272.461887 
" clip-path="url(#pff86691b29)" style="fill: none; stroke: #e45756; stroke-width: 1.1; stroke-linecap: square"/>
   </g>
   <g id="patch_13">
    <path d="M 56.09 375.64 
L 56.09 266.018418 
" style="fill: none; stroke: #000000; stroke-width: 0.8; stroke-linejoin: miter; stroke-linecap: square"/>
   </g>
   <g id="patch_14">
    <path d="M 579.6 375.64 
L 579.6 266.018418 
" style="fill: none; stroke: #000000; stroke-width: 0.8; stroke-linejoin: miter; stroke-linecap: square"/>
   </g>
   <g id="patch_15">
    <path d="M 56.09 375.64 
L 579.6 375.64 
" style="fill: none; stroke: #000000; stroke-width: 0.8; stroke-linejoin: miter; stroke-linecap: square"/>
   </g>
   <g id="patch_16">
    <path d="M 56.09 266.018418 
L 579.6 266.018418 
" style="fill: none; stroke: #000000; stroke-width: 0.8; stroke-linejoin: miter; stroke-linecap: square"/>
   </g>
  </g>
 </g>
 <defs>
  <clipPath id="p2727dc319e">
   <rect x="56.09" y="10.8" width="523.51" height="109.621582"/>
  </clipPath>
  <clipPath id="p384f45823b">
   <rect x="56.09" y="138.409209" width="523.51" height="109.621582"/>
  </clipPath>
  <clipPath id="pff86691b29">
   <rect x="56.09" y="266.018418" width="523.51" height="109.621582"/>
  </clipPath>
 </defs>
</svg>
